<svg width="28" height="31" viewBox="0 0 28 31" fill="none" xmlns="http://www.w3.org/2000/svg">
<path d="M23.3333 31C22.037 31 20.9352 30.5479 20.0278 29.6437C19.1204 28.7396 18.6667 27.6417 18.6667 26.35C18.6667 26.1692 18.6796 25.9816 18.7056 25.7873C18.7315 25.5931 18.7704 25.419 18.8222 25.265L7.85556 18.91C7.41482 19.2975 6.92222 19.6013 6.37778 19.8214C5.83333 20.0415 5.26296 20.151 4.66667 20.15C3.37037 20.15 2.26852 19.6979 1.36111 18.7937C0.453704 17.8896 0 16.7917 0 15.5C0 14.2083 0.453704 13.1104 1.36111 12.2062C2.26852 11.3021 3.37037 10.85 4.66667 10.85C5.26296 10.85 5.83333 10.9601 6.37778 11.1802C6.92222 11.4003 7.41482 11.7035 7.85556 12.09L18.8222 5.735C18.7704 5.58 18.7315 5.40588 18.7056 5.21265C18.6796 5.01942 18.6667 4.83187 18.6667 4.65C18.6667 3.35833 19.1204 2.26042 20.0278 1.35625C20.9352 0.452083 22.037 0 23.3333 0C24.6296 0 25.7315 0.452083 26.6389 1.35625C27.5463 2.26042 28 3.35833 28 4.65C28 5.94167 27.5463 7.03958 26.6389 7.94375C25.7315 8.84792 24.6296 9.3 23.3333 9.3C22.737 9.3 22.1667 9.19047 21.6222 8.9714C21.0778 8.75233 20.5852 8.44853 20.1444 8.06L9.17778 14.415C9.22963 14.57 9.26852 14.7446 9.29445 14.9389C9.32037 15.1332 9.33333 15.3202 9.33333 15.5C9.33333 15.6798 9.32037 15.8673 9.29445 16.0626C9.26852 16.2579 9.22963 16.4321 9.17778 16.585L20.1444 22.94C20.5852 22.5525 21.0778 22.2492 21.6222 22.0301C22.1667 21.8111 22.737 21.701 23.3333 21.7C24.6296 21.7 25.7315 22.1521 26.6389 23.0562C27.5463 23.9604 28 25.0583 28 26.35C28 27.6417 27.5463 28.7396 26.6389 29.6437C25.7315 30.5479 24.6296 31 23.3333 31ZM23.3333 6.2C23.7741 6.2 24.1438 6.05172 24.4424 5.75515C24.7411 5.45858 24.8899 5.0902 24.8889 4.65C24.8879 4.2098 24.7385 3.84193 24.4409 3.5464C24.1433 3.25087 23.7741 3.10207 23.3333 3.1C22.8926 3.09793 22.5234 3.24673 22.2258 3.5464C21.9281 3.84607 21.7788 4.21393 21.7778 4.65C21.7767 5.08607 21.9261 5.45445 22.2258 5.75515C22.5255 6.05585 22.8947 6.20413 23.3333 6.2ZM4.66667 17.05C5.10741 17.05 5.47711 16.9012 5.77578 16.6036C6.07444 16.306 6.22326 15.9381 6.22222 15.5C6.22119 15.0619 6.07185 14.694 5.77422 14.3964C5.47659 14.0988 5.10741 13.95 4.66667 13.95C4.22593 13.95 3.85674 14.0988 3.55911 14.3964C3.26148 14.694 3.11215 15.0619 3.11111 15.5C3.11007 15.9381 3.25941 16.3065 3.55911 16.6052C3.85881 16.9038 4.228 17.0521 4.66667 17.05ZM23.3333 27.9C23.7741 27.9 24.1438 27.7512 24.4424 27.4536C24.7411 27.156 24.8899 26.7881 24.8889 26.35C24.8879 25.9119 24.7385 25.544 24.4409 25.2464C24.1433 24.9488 23.7741 24.8 23.3333 24.8C22.8926 24.8 22.5234 24.9488 22.2258 25.2464C21.9281 25.544 21.7788 25.9119 21.7778 26.35C21.7767 26.7881 21.9261 27.1565 22.2258 27.4551C22.5255 27.7538 22.8947 27.9021 23.3333 27.9Z" fill="#805CDD"/>
</svg>
