<svg width="254" height="31" viewBox="0 0 254 31" fill="none" xmlns="http://www.w3.org/2000/svg">
<g clip-path="url(#clip0_318_2025)">
<path d="M32.2593 24.9246L30.5615 22.1401H14.6016L16.2994 24.9246H32.2593Z" fill="#00FF5B"/>
<path d="M30.4255 16.707H24.1095L25.8074 13.8546L17.7935 0.3396L16.0956 3.25992L24.1095 16.7749H17.7935L19.4913 13.9225L11.5453 0.3396L9.84747 3.25992L11.5453 6.04441L14.6694 11.3417H11.2058L3.25977 24.9246H6.65549L14.6694 11.4097L17.7935 16.707H14.3977L6.38383 30.222H9.77955L11.4774 27.3695L14.6694 22.0043L17.7935 16.707L19.4913 19.5594H35.4512L33.7533 16.707H30.4255L32.1234 13.8546L24.1095 0.3396L22.4116 3.19201L30.4255 16.707Z" fill="#00FF5B"/>
<path d="M0 19.5594H3.39572L11.3417 6.1123H7.94599L0 19.5594Z" fill="#00FF5B"/>
<path d="M27.3017 27.4373H11.3418L13.0397 30.2217H28.9996L27.3017 27.4373Z" fill="#00FF5B"/>
<path d="M110.293 5.63696H114.911V10.2551H110.293V5.63696Z" fill="white"/>
<path d="M131.143 5.63696H135.761V10.2551H131.143V5.63696Z" fill="white"/>
<path d="M59.7646 26.6903H64.3828V17.5898C64.3828 16.3673 64.7224 15.3486 65.4015 14.6695C66.0807 13.9903 67.0315 13.6508 68.1181 13.6508H69.5443V9.6438H68.5256C67.5069 9.6438 66.5561 9.84754 65.809 10.255C65.062 10.5946 64.4507 11.3417 63.9753 12.3604V9.84754H59.7646V26.6903Z" fill="white"/>
<path d="M76.8793 27.03C78.9846 27.03 80.6825 26.3508 81.9049 25.0605V26.6225H86.1835V15.6204C86.1835 14.3979 85.844 13.3792 85.2327 12.4284C84.6215 11.4776 83.8065 10.7984 82.7199 10.2551C81.6333 9.7118 80.4108 9.50806 78.9846 9.50806C77.2188 9.50806 75.6568 9.91554 74.2985 10.7305C72.9402 11.5455 72.0573 12.6321 71.5819 14.0583L75.2493 15.8241C75.521 15.077 75.9964 14.4658 76.6076 14.0583C77.2188 13.5829 77.9659 13.3792 78.7809 13.3792C79.6638 13.3792 80.3429 13.5829 80.8183 14.0583C81.3616 14.4658 81.5654 15.0091 81.5654 15.6883V16.1637L76.9472 16.9107C74.9097 17.2503 73.4156 17.8615 72.4648 18.8123C71.4461 19.7631 70.9707 20.9177 70.9707 22.3439C70.9707 23.838 71.514 25.0605 72.5327 25.9434C73.6194 26.6225 75.0456 27.03 76.8793 27.03ZM75.7247 22.0043C75.7247 21.461 75.9285 21.0535 76.268 20.7139C76.6076 20.3744 77.1509 20.1706 77.7621 20.0348L81.5654 19.3556V19.899C81.5654 20.9177 81.2258 21.8006 80.5466 22.5476C79.8675 23.2947 78.9167 23.6343 77.7621 23.6343C77.2188 23.6343 76.6755 23.4984 76.3359 23.2268C75.9285 22.9551 75.7247 22.5476 75.7247 22.0043Z" fill="white"/>
<path d="M97.525 27.03C98.5438 27.03 99.4946 26.8942 100.377 26.5546C101.26 26.215 102.007 25.7396 102.619 25.0605V26.6904H106.897V3.73535H102.279V11.2739C101.057 10.0514 99.4946 9.50808 97.4571 9.50808C95.8272 9.50808 94.401 9.91557 93.1106 10.6626C91.8202 11.4097 90.8015 12.4963 90.0545 13.8546C89.3074 15.145 88.8999 16.6391 88.8999 18.269C88.8999 19.899 89.2395 21.3931 89.9865 22.6835C90.7336 24.0418 91.7523 25.0605 93.0427 25.8755C94.401 26.6225 95.8951 27.03 97.525 27.03ZM98.0684 22.8872C96.778 22.8872 95.7593 22.4797 94.9443 21.5968C94.1293 20.714 93.7218 19.6273 93.7218 18.269C93.7218 16.9108 94.1293 15.8241 94.9443 14.9412C95.7593 14.0583 96.8459 13.6509 98.0684 13.6509C99.2908 13.6509 100.31 14.0583 101.125 14.9412C101.939 15.8241 102.347 16.9108 102.347 18.269C102.347 19.6273 101.939 20.7819 101.125 21.5968C100.377 22.4797 99.3587 22.8872 98.0684 22.8872Z" fill="white"/>
<path d="M126.457 26.8942C126.796 26.8942 127.204 26.8942 127.543 26.8263C127.951 26.7583 128.29 26.7583 128.562 26.6904V22.7514C128.154 22.8193 127.747 22.8193 127.475 22.8193C125.574 22.8193 124.623 21.9364 124.623 20.2386V13.7867H128.562V9.77973H124.623V6.04443H120.005V7.26689C120.005 8.96475 119.122 9.84764 117.356 9.84764H117.22V13.8546H120.073V20.5781C120.073 22.5476 120.616 24.1097 121.703 25.1963C122.789 26.2829 124.419 26.8942 126.457 26.8942Z" fill="white"/>
<path d="M147.646 27.0301C149.276 27.0301 150.838 26.6226 152.196 25.8755C153.554 25.1285 154.641 24.1097 155.456 22.7515C156.271 21.3932 156.679 19.8991 156.679 18.2012C156.679 16.5033 156.271 15.0092 155.456 13.6509C154.641 12.3606 153.554 11.2739 152.196 10.5269C150.838 9.7798 149.344 9.37231 147.646 9.37231C146.016 9.37231 144.454 9.7798 143.096 10.5269C141.737 11.2739 140.651 12.2926 139.836 13.6509C139.021 14.9413 138.613 16.5033 138.613 18.2012C138.613 19.8991 139.021 21.3932 139.836 22.7515C140.651 24.0418 141.737 25.1285 143.096 25.8755C144.454 26.6905 145.948 27.0301 147.646 27.0301ZM147.646 22.8873C146.423 22.8873 145.337 22.4798 144.59 21.5969C143.843 20.714 143.435 19.6274 143.435 18.2691C143.435 16.9108 143.843 15.8242 144.59 14.9413C145.405 14.0584 146.423 13.6509 147.646 13.6509C148.868 13.6509 149.887 14.0584 150.702 14.9413C151.449 15.8242 151.857 16.9108 151.857 18.2691C151.857 19.6274 151.449 20.714 150.702 21.5969C149.887 22.4798 148.868 22.8873 147.646 22.8873Z" fill="white"/>
<path d="M159.327 26.6904H163.945V16.8428C163.945 15.892 164.217 15.077 164.828 14.5337C165.372 13.9225 166.119 13.6508 167.069 13.6508C167.952 13.6508 168.699 13.9225 169.311 14.5337C169.854 15.077 170.193 15.892 170.193 16.8428V26.6904H174.812V15.892C174.812 14.6016 174.54 13.515 173.997 12.5642C173.453 11.6134 172.706 10.8663 171.755 10.323C170.805 9.77971 169.718 9.50806 168.428 9.50806C167.341 9.50806 166.39 9.7118 165.575 10.1193C164.76 10.5268 164.149 11.138 163.674 11.953V9.91554H159.395V26.6904H159.327Z" fill="white"/>
<path d="M110.361 26.6906H114.979V11.9531H110.361V26.6906Z" fill="white"/>
<path d="M131.279 26.6906H135.897V11.9531H131.279V26.6906Z" fill="white"/>
<path d="M249.653 22.4797H254V26.8263H249.653V22.4797Z" fill="#00FF5B"/>
<path d="M53.4487 10.2549H48.8306V26.8939H53.4487V10.2549Z" fill="white"/>
<path d="M44.4839 5.90845V10.255H53.4486V5.90845H48.8304H44.4839Z" fill="white"/>
<path d="M57.7953 5.90845H53.4487V10.255H57.7953V5.90845Z" fill="white"/>
<path d="M214.338 12.6322C213.727 11.6814 212.912 11.0023 211.825 10.459C210.739 9.91566 209.516 9.71191 208.09 9.71191C206.935 9.71191 205.781 9.91566 204.83 10.2552C203.811 10.5948 202.996 11.1381 202.249 11.8173C201.502 12.4964 201.027 13.3114 200.687 14.2622L204.355 16.028C204.626 15.2809 205.102 14.6697 205.713 14.2622C206.324 13.7868 207.071 13.583 207.886 13.583C208.769 13.583 209.448 13.7868 209.924 14.1943C210.467 14.6018 210.671 15.1451 210.671 15.7563V16.2317L206.053 16.9788C204.694 17.1825 203.608 17.5221 202.725 17.9975C201.842 18.4729 201.163 19.0841 200.755 19.8312C200.348 20.5782 200.144 21.3932 200.144 22.344C200.144 23.3627 200.348 24.2456 200.823 24.9248C201.299 25.6718 201.978 26.2151 202.861 26.5547C203.744 26.9622 204.762 27.1659 205.985 27.1659C206.868 27.1659 207.683 27.0301 208.43 26.8264C209.177 26.6226 209.856 26.283 210.399 25.8076C210.603 25.6718 210.807 25.4681 211.01 25.2643V26.8264H215.289V15.8242C215.289 14.6018 214.949 13.5151 214.338 12.6322ZM210.195 22.0044C209.856 22.5477 209.448 23.0231 208.905 23.2948C208.362 23.6344 207.683 23.7702 206.935 23.7702C206.392 23.7702 205.917 23.6344 205.509 23.3627C205.102 23.0911 204.898 22.6836 204.898 22.1403C204.898 21.5969 205.102 21.1895 205.441 20.9178C205.781 20.5782 206.256 20.3745 206.935 20.3066L210.739 19.6274V20.1707C210.671 20.8499 210.535 21.4611 210.195 22.0044Z" fill="#00FF5B"/>
<path d="M226.427 27.0301C224.389 27.0301 222.827 26.4868 221.741 25.4001C220.654 24.3135 220.111 22.7515 220.111 20.7819V14.0584H217.326V10.0515H217.462C218.345 10.0515 218.956 9.84771 219.432 9.44023C219.907 9.03274 220.111 8.3536 220.111 7.53862V6.31616H224.729V10.1194H228.668V14.1263H224.729V20.5103C224.729 21.0536 224.865 21.529 225.068 21.9365C225.272 22.2761 225.612 22.5477 226.019 22.7515C226.427 22.9552 226.97 23.0231 227.581 23.0231C227.717 23.0231 227.921 23.0231 228.057 23.0231C228.26 23.0231 228.464 22.9552 228.668 22.9552V26.8263C228.328 26.8942 227.989 26.8942 227.649 26.9622C227.106 26.9622 226.766 27.0301 226.427 27.0301Z" fill="#00FF5B"/>
<path d="M244.831 12.6322C244.22 11.6814 243.405 11.0023 242.318 10.459C241.232 9.91566 240.009 9.71191 238.583 9.71191C237.429 9.71191 236.274 9.91566 235.323 10.2552C234.372 10.5948 233.49 11.1381 232.743 11.8173C231.995 12.4964 231.52 13.3114 231.181 14.2622L234.848 16.028C235.12 15.2809 235.595 14.6697 236.206 14.2622C236.817 13.7868 237.564 13.583 238.379 13.583C239.262 13.583 239.941 13.7868 240.417 14.1943C240.96 14.6018 241.164 15.1451 241.164 15.7563V16.2317L236.546 16.9788C235.187 17.1825 234.101 17.5221 233.218 17.9975C232.335 18.4729 231.656 19.0841 231.248 19.8312C230.841 20.5782 230.637 21.3932 230.637 22.344C230.637 23.3627 230.841 24.2456 231.316 24.9248C231.792 25.6718 232.471 26.2151 233.354 26.5547C234.237 26.9622 235.255 27.1659 236.478 27.1659C237.361 27.1659 238.176 27.0301 238.923 26.8264C239.67 26.6226 240.349 26.283 240.892 25.8076C241.096 25.6718 241.3 25.4681 241.504 25.2643V26.8264H245.782V15.8242C245.714 14.6018 245.443 13.5151 244.831 12.6322ZM240.621 22.0044C240.281 22.5477 239.874 23.0231 239.33 23.2948C238.787 23.6344 238.108 23.7702 237.361 23.7702C236.817 23.7702 236.342 23.6344 235.935 23.3627C235.527 23.0911 235.323 22.6836 235.323 22.1403C235.323 21.5969 235.527 21.1895 235.867 20.9178C236.206 20.5782 236.682 20.3745 237.361 20.3066L241.164 19.6274V20.1707C241.164 20.8499 240.96 21.4611 240.621 22.0044Z" fill="#00FF5B"/>
<path d="M196.612 9.50795C195.593 7.81009 194.235 6.4518 192.401 5.43308C190.568 4.48228 188.462 3.93896 185.95 3.93896H183.233V8.14966H186.018C187.512 8.14966 188.802 8.42132 189.889 9.03255C190.975 9.64378 191.79 10.4588 192.401 11.5454C193.013 12.632 193.352 13.9224 193.352 15.4165C193.352 16.9106 193.013 18.201 192.401 19.2876C191.79 20.3743 190.975 21.1892 189.889 21.8005C188.802 22.4117 187.512 22.6834 186.018 22.6834H183.233V8.14966H178.479V26.8261H185.95C188.395 26.8261 190.568 26.3507 192.401 25.332C194.235 24.3812 195.661 23.0229 196.612 21.2571C197.631 19.4914 198.106 17.5219 198.106 15.3486C198.106 13.1753 197.563 11.2058 196.612 9.50795Z" fill="#00FF5B"/>
</g>
<defs>
<clipPath id="clip0_318_2025">
<rect width="254" height="30.5615" fill="white"/>
</clipPath>
</defs>
</svg>
