<svg width="251" height="24" viewBox="0 0 251 24" fill="none" xmlns="http://www.w3.org/2000/svg">
<path d="M20.832 0.311998L13.408 11.672L20.864 23H15.52L10.624 15.16L5.696 23H0.512L7.968 11.64L0.544 0.311998H5.856L10.72 8.152L15.68 0.311998H20.832ZM31.3263 10.648H34.8143C37.0223 10.648 38.3663 9.368 38.3663 7.416C38.3663 5.4 37.0223 4.152 34.8143 4.152H31.3263V10.648ZM35.3583 14.456H31.2943V23H26.8783V0.311998H35.3583C39.8383 0.311998 42.8143 3.288 42.8143 7.384C42.8143 11.512 39.8383 14.456 35.3583 14.456ZM63.5988 23H49.0708V0.311998H53.4868V18.776H63.5988V23ZM85.499 23L83.611 17.816H74.395L72.507 23H67.835L76.539 0.311998H81.659L90.299 23H85.499ZM79.003 5.208L75.867 13.784H82.139L79.003 5.208ZM100.561 23H96.0808V0.311998H100.561V23ZM127.977 23H123.337L113.033 6.904V23H108.617V0.311998H114.121L123.561 15.32V0.311998H127.977V23Z" fill="white"/>
<path d="M163.356 23L161.116 16.792H150.716L148.476 23H146.876L155.068 0.279999H156.764L164.956 23H163.356ZM151.26 15.32H160.604L155.932 2.36L151.26 15.32ZM186.684 14.072C186.684 20.376 183.228 23.32 178.204 23.32C173.148 23.32 169.692 20.376 169.692 14.072V0.279999H171.228V14.072C171.228 19.608 174.172 21.848 178.204 21.848C182.204 21.848 185.148 19.608 185.148 14.072V0.279999H186.684V14.072ZM206.499 23L201.155 14.904H195.171V23H193.635V0.279999H201.283C204.899 0.279999 208.227 3.064 208.227 7.608C208.227 11.48 205.795 14.072 202.787 14.744L208.291 23H206.499ZM195.171 1.752V13.432H201.283C204.099 13.432 206.691 11.256 206.691 7.608C206.691 3.928 204.099 1.752 201.283 1.752H195.171ZM226.881 1.752H216.801V10.36H224.513V11.832H216.801V21.528H226.881V23H215.265V0.279999H226.881V1.752ZM248.533 23L246.293 16.792H235.893L233.653 23H232.053L240.245 0.279999H241.941L250.133 23H248.533ZM236.437 15.32H245.781L241.109 2.36L236.437 15.32Z" fill="#00FF00"/>
</svg>
