<?xml version="1.0" encoding="UTF-8"?>
<svg id="Layer_1" data-name="Layer 1" xmlns="http://www.w3.org/2000/svg" viewBox="0 0 1920 1080">
  <defs>
    <style>
      .cls-1 {
        fill: #ccc;
      }

      .cls-1, .cls-2, .cls-3, .cls-4, .cls-5, .cls-6, .cls-7, .cls-8, .cls-9 {
        stroke-width: 0px;
      }

      .cls-2 {
        fill: #f7f7f7;
      }

      .cls-3 {
        fill: #999;
      }

      .cls-4 {
        fill: #805cdd;
      }

      .cls-5 {
        fill: #997de4;
      }

      .cls-6 {
        fill: lime;
      }

      .cls-7 {
        fill: #fff;
      }

      .cls-8 {
        fill: #302353;
      }

      .cls-9 {
        fill: #4c22b2;
      }
    </style>
  </defs>
  <g>
    <path class="cls-8" d="M243.59,193.57h-15.6l-3.43,9.26h-6.6l14.35-36.87h7.23l14.35,36.87h-6.81l-3.48-9.26ZM230.18,187.8h11.23l-5.62-15.08-5.62,15.08Z"/>
    <path class="cls-8" d="M266.48,203.55c-6.03,0-9.57-4.47-9.57-10.09v-15.96h6.03v14.87c0,3.12,1.46,5.77,5.1,5.77s5.3-2.34,5.3-5.67v-14.98h6.03v20.7c0,2.08.16,3.69.26,4.63h-5.77c-.1-.57-.21-1.77-.21-2.81-1.25,2.29-4.21,3.54-7.18,3.54Z"/>
    <path class="cls-8" d="M310.42,198.2c0,2.29.21,4.21.26,4.63h-5.77c-.1-.57-.26-2.24-.26-3.28-1.2,2.13-3.85,3.9-7.44,3.9-7.28,0-12.17-5.72-12.17-13.36s4.94-13.26,12.06-13.26c4.42,0,6.66,2.03,7.44,3.64v-15.29h5.88v33.02ZM297.88,198.14c3.95,0,6.71-3.28,6.71-8.11s-2.7-7.85-6.66-7.85-6.86,3.07-6.86,7.9,2.7,8.06,6.81,8.06Z"/>
    <path class="cls-8" d="M321.28,164.65c2.18,0,3.95,1.77,3.95,3.95s-1.77,3.9-3.95,3.9-3.9-1.72-3.9-3.9,1.77-3.95,3.9-3.95ZM318.32,202.82v-25.32h5.98v25.32h-5.98Z"/>
    <path class="cls-8" d="M339.74,177.5h5.25v5.36h-5.25v11.75c0,2.24.99,3.17,3.22,3.17.83,0,1.82-.16,2.08-.21v4.99c-.36.16-1.51.57-3.69.57-4.68,0-7.59-2.81-7.59-7.54v-12.74h-4.68v-5.36h1.3c2.7,0,3.9-1.72,3.9-3.95v-3.8h5.46v7.75Z"/>
    <path class="cls-8" d="M375.21,190.14c0,7.8-5.56,13.47-13.16,13.47s-13.1-5.67-13.1-13.47,5.56-13.42,13.1-13.42,13.16,5.67,13.16,13.42ZM369.12,190.14c0-5.25-3.33-7.96-7.07-7.96s-7.07,2.7-7.07,7.96,3.38,8.06,7.07,8.06,7.07-2.76,7.07-8.06Z"/>
    <path class="cls-8" d="M395.85,183.48c-.68-.1-1.35-.16-1.98-.16-4.68,0-6.81,2.7-6.81,7.44v12.06h-6.03v-25.32h5.88v4.06c1.2-2.76,4-4.37,7.33-4.37.73,0,1.35.1,1.61.16v6.14Z"/>
    <path class="cls-8" d="M403.96,194.5c.21,2.29,1.92,4.32,5.15,4.32,2.5,0,3.8-1.35,3.8-2.91,0-1.35-.94-2.39-2.96-2.81l-3.74-.83c-4.47-.99-6.81-3.9-6.81-7.38,0-4.42,4.06-8.16,9.31-8.16,7.07,0,9.36,4.58,9.78,7.07l-5.1,1.46c-.21-1.46-1.3-3.8-4.68-3.8-2.13,0-3.64,1.35-3.64,2.91,0,1.35.99,2.34,2.55,2.65l3.85.78c4.78,1.04,7.28,3.95,7.28,7.7s-3.12,8.11-9.57,8.11c-7.33,0-10.14-4.78-10.45-7.64l5.25-1.46Z"/>
    <path class="cls-8" d="M437.6,202.82v-37.65h6.03v37.65h-6.03Z"/>
    <path class="cls-8" d="M457.42,188.32l6.5-.99c1.46-.21,1.87-.94,1.87-1.82,0-2.13-1.46-3.85-4.78-3.85s-4.94,2.03-5.2,4.58l-5.51-1.25c.47-4.37,4.42-8.27,10.66-8.27,7.8,0,10.76,4.42,10.76,9.46v12.58c0,2.29.26,3.8.31,4.06h-5.62c-.05-.16-.26-1.2-.26-3.22-1.2,1.92-3.69,4-7.8,4-5.3,0-8.58-3.64-8.58-7.64,0-4.52,3.33-7.02,7.64-7.64ZM465.79,192.32v-1.14l-6.6.99c-1.87.31-3.38,1.35-3.38,3.43,0,1.72,1.3,3.28,3.69,3.28,3.38,0,6.29-1.61,6.29-6.55Z"/>
    <path class="cls-8" d="M483,190.14c0,5.1,3.28,7.96,7.07,7.96s5.77-2.76,6.34-4.68l5.3,1.92c-1.2,3.95-4.99,8.27-11.65,8.27-7.44,0-13.1-5.77-13.1-13.47s5.67-13.42,12.95-13.42c6.81,0,10.56,4.26,11.6,8.32l-5.41,1.98c-.57-2.24-2.29-4.73-6.14-4.73s-6.97,2.76-6.97,7.85Z"/>
    <path class="cls-8" d="M520.39,188.21l10.61,14.61h-7.38l-7.44-10.35-3.12,3.28v7.07h-5.98v-37.65h5.98v22.57l9.72-10.24h8.01l-10.4,10.71Z"/>
    <path class="cls-8" d="M551.27,194.5c.21,2.29,1.92,4.32,5.15,4.32,2.5,0,3.8-1.35,3.8-2.91,0-1.35-.94-2.39-2.96-2.81l-3.74-.83c-4.47-.99-6.81-3.9-6.81-7.38,0-4.42,4.06-8.16,9.31-8.16,7.07,0,9.36,4.58,9.78,7.07l-5.1,1.46c-.21-1.46-1.3-3.8-4.68-3.8-2.13,0-3.64,1.35-3.64,2.91,0,1.35.99,2.34,2.55,2.65l3.85.78c4.78,1.04,7.28,3.95,7.28,7.7s-3.12,8.11-9.57,8.11c-7.33,0-10.14-4.78-10.45-7.64l5.25-1.46Z"/>
    <path class="cls-8" d="M579.67,177.5h5.25v5.36h-5.25v11.75c0,2.24.99,3.17,3.22,3.17.83,0,1.82-.16,2.08-.21v4.99c-.36.16-1.51.57-3.69.57-4.68,0-7.59-2.81-7.59-7.54v-12.74h-4.68v-5.36h1.3c2.7,0,3.9-1.72,3.9-3.95v-3.8h5.46v7.75Z"/>
    <path class="cls-8" d="M605.46,183.48c-.68-.1-1.35-.16-1.98-.16-4.68,0-6.81,2.7-6.81,7.44v12.06h-6.03v-25.32h5.88v4.06c1.2-2.76,4-4.37,7.33-4.37.73,0,1.35.1,1.61.16v6.14Z"/>
    <path class="cls-8" d="M632.65,195.6c-1.35,4.42-5.36,8.01-11.44,8.01-6.86,0-12.95-4.99-12.95-13.57,0-8.01,5.93-13.31,12.32-13.31,7.8,0,12.38,5.15,12.38,13.16,0,.99-.1,1.82-.16,1.92h-18.51c.16,3.85,3.17,6.6,6.92,6.6s5.51-1.92,6.34-4.42l5.1,1.61ZM626.88,187.38c-.1-2.96-2.08-5.62-6.24-5.62-3.8,0-5.98,2.91-6.19,5.62h12.43Z"/>
    <path class="cls-8" d="M644.82,188.32l6.5-.99c1.46-.21,1.87-.94,1.87-1.82,0-2.13-1.46-3.85-4.78-3.85s-4.94,2.03-5.2,4.58l-5.51-1.25c.47-4.37,4.42-8.27,10.66-8.27,7.8,0,10.76,4.42,10.76,9.46v12.58c0,2.29.26,3.8.31,4.06h-5.62c-.05-.16-.26-1.2-.26-3.22-1.2,1.92-3.69,4-7.8,4-5.3,0-8.58-3.64-8.58-7.64,0-4.52,3.33-7.02,7.64-7.64ZM653.19,192.32v-1.14l-6.6.99c-1.87.31-3.38,1.35-3.38,3.43,0,1.72,1.3,3.28,3.69,3.28,3.38,0,6.29-1.61,6.29-6.55Z"/>
    <path class="cls-8" d="M666.4,202.82v-25.32h5.77v3.22c1.46-2.6,4.63-3.95,7.49-3.95,3.33,0,6.24,1.51,7.59,4.47,1.98-3.33,4.94-4.47,8.22-4.47,4.58,0,8.94,2.91,8.94,9.62v16.43h-5.82v-15.44c0-2.96-1.51-5.2-4.89-5.2-3.17,0-5.25,2.5-5.25,5.62v15.03h-5.93v-15.44c0-2.91-1.46-5.2-4.89-5.2-3.22,0-5.25,2.39-5.25,5.62v15.03h-5.98Z"/>
    <path class="cls-8" d="M711.8,202.82v-37.65h6.03v37.65h-6.03Z"/>
    <path class="cls-8" d="M728.59,164.65c2.18,0,3.95,1.77,3.95,3.95s-1.77,3.9-3.95,3.9-3.9-1.72-3.9-3.9,1.77-3.95,3.9-3.95ZM725.63,202.82v-25.32h5.98v25.32h-5.98Z"/>
    <path class="cls-8" d="M745.44,202.82h-6.03v-25.32h5.88v3.38c1.66-2.91,4.68-4.11,7.49-4.11,6.19,0,9.15,4.47,9.15,10.04v16.02h-6.03v-14.98c0-3.12-1.4-5.62-5.2-5.62-3.43,0-5.25,2.65-5.25,5.98v14.61Z"/>
    <path class="cls-8" d="M791.67,195.6c-1.35,4.42-5.36,8.01-11.44,8.01-6.86,0-12.95-4.99-12.95-13.57,0-8.01,5.93-13.31,12.32-13.31,7.8,0,12.38,5.15,12.38,13.16,0,.99-.1,1.82-.16,1.92h-18.51c.16,3.85,3.17,6.6,6.92,6.6s5.51-1.92,6.34-4.42l5.1,1.61ZM785.9,187.38c-.1-2.96-2.08-5.62-6.24-5.62-3.8,0-5.98,2.91-6.19,5.62h12.43Z"/>
    <path class="cls-8" d="M821.15,198.2c0,2.29.21,4.21.26,4.63h-5.77c-.1-.57-.26-2.24-.26-3.28-1.2,2.13-3.85,3.9-7.44,3.9-7.28,0-12.17-5.72-12.17-13.36s4.94-13.26,12.06-13.26c4.42,0,6.66,2.03,7.44,3.64v-15.29h5.88v33.02ZM808.62,198.14c3.95,0,6.71-3.28,6.71-8.11s-2.7-7.85-6.66-7.85-6.86,3.07-6.86,7.9,2.7,8.06,6.81,8.06Z"/>
    <path class="cls-8" d="M832.69,195.08c2.76,0,4.73,2.18,4.73,5.51,0,7.28-4.94,10.35-8.48,10.82v-3.07c2.39-.52,4.58-2.91,4.63-5.62-.21.1-.57.26-1.25.26-2.29,0-3.95-1.56-3.95-3.95,0-2.18,1.87-3.95,4.32-3.95Z"/>
    <path class="cls-8" d="M880.01,195.6c-1.35,4.42-5.36,8.01-11.44,8.01-6.86,0-12.95-4.99-12.95-13.57,0-8.01,5.93-13.31,12.32-13.31,7.8,0,12.38,5.15,12.38,13.16,0,.99-.1,1.82-.16,1.92h-18.51c.16,3.85,3.17,6.6,6.92,6.6s5.51-1.92,6.34-4.42l5.1,1.61ZM874.24,187.38c-.1-2.96-2.08-5.62-6.24-5.62-3.8,0-5.98,2.91-6.19,5.62h12.43Z"/>
    <path class="cls-8" d="M892.13,202.82h-6.03v-25.32h5.88v3.38c1.66-2.91,4.68-4.11,7.49-4.11,6.19,0,9.15,4.47,9.15,10.04v16.02h-6.03v-14.98c0-3.12-1.4-5.62-5.2-5.62-3.43,0-5.25,2.65-5.25,5.98v14.61Z"/>
    <path class="cls-8" d="M939.34,198.2c0,2.29.21,4.21.26,4.63h-5.77c-.1-.57-.26-2.24-.26-3.28-1.2,2.13-3.85,3.9-7.44,3.9-7.28,0-12.17-5.72-12.17-13.36s4.94-13.26,12.06-13.26c4.42,0,6.66,2.03,7.44,3.64v-15.29h5.88v33.02ZM926.81,198.14c3.95,0,6.71-3.28,6.71-8.11s-2.7-7.85-6.66-7.85-6.86,3.07-6.86,7.9,2.7,8.06,6.81,8.06Z"/>
    <path class="cls-8" d="M945.69,190.29v-5.36h14.66v5.36h-14.66Z"/>
    <path class="cls-8" d="M973.87,177.5h5.25v5.36h-5.25v11.75c0,2.24.99,3.17,3.22,3.17.83,0,1.82-.16,2.08-.21v4.99c-.36.16-1.51.57-3.69.57-4.68,0-7.59-2.81-7.59-7.54v-12.74h-4.68v-5.36h1.3c2.7,0,3.9-1.72,3.9-3.95v-3.8h5.46v7.75Z"/>
    <path class="cls-8" d="M1009.34,190.14c0,7.8-5.56,13.47-13.16,13.47s-13.1-5.67-13.1-13.47,5.56-13.42,13.1-13.42,13.16,5.67,13.16,13.42ZM1003.25,190.14c0-5.25-3.33-7.96-7.07-7.96s-7.07,2.7-7.07,7.96,3.38,8.06,7.07,8.06,7.07-2.76,7.07-8.06Z"/>
    <path class="cls-8" d="M1013.6,190.29v-5.36h14.66v5.36h-14.66Z"/>
    <path class="cls-8" d="M1056.92,195.6c-1.35,4.42-5.36,8.01-11.44,8.01-6.86,0-12.95-4.99-12.95-13.57,0-8.01,5.93-13.31,12.32-13.31,7.8,0,12.38,5.15,12.38,13.16,0,.99-.1,1.82-.16,1.92h-18.51c.16,3.85,3.17,6.6,6.92,6.6s5.51-1.92,6.34-4.42l5.1,1.61ZM1051.14,187.38c-.1-2.96-2.08-5.62-6.24-5.62-3.8,0-5.98,2.91-6.19,5.62h12.43Z"/>
    <path class="cls-8" d="M1069.03,202.82h-6.03v-25.32h5.88v3.38c1.66-2.91,4.68-4.11,7.49-4.11,6.19,0,9.15,4.47,9.15,10.04v16.02h-6.03v-14.98c0-3.12-1.4-5.62-5.2-5.62-3.43,0-5.25,2.65-5.25,5.98v14.61Z"/>
    <path class="cls-8" d="M1116.25,198.2c0,2.29.21,4.21.26,4.63h-5.77c-.1-.57-.26-2.24-.26-3.28-1.2,2.13-3.85,3.9-7.44,3.9-7.28,0-12.17-5.72-12.17-13.36s4.94-13.26,12.06-13.26c4.42,0,6.66,2.03,7.44,3.64v-15.29h5.88v33.02ZM1103.71,198.14c3.95,0,6.71-3.28,6.71-8.11s-2.7-7.85-6.66-7.85-6.86,3.07-6.86,7.9,2.7,8.06,6.81,8.06Z"/>
    <path class="cls-8" d="M1160.44,198.2c0,2.29.21,4.21.26,4.63h-5.77c-.1-.57-.26-2.24-.26-3.28-1.2,2.13-3.85,3.9-7.44,3.9-7.28,0-12.17-5.72-12.17-13.36s4.94-13.26,12.06-13.26c4.42,0,6.66,2.03,7.44,3.64v-15.29h5.88v33.02ZM1147.91,198.14c3.95,0,6.71-3.28,6.71-8.11s-2.7-7.85-6.66-7.85-6.86,3.07-6.86,7.9,2.7,8.06,6.81,8.06Z"/>
    <path class="cls-8" d="M1190.76,195.6c-1.35,4.42-5.36,8.01-11.44,8.01-6.86,0-12.95-4.99-12.95-13.57,0-8.01,5.93-13.31,12.32-13.31,7.8,0,12.38,5.15,12.38,13.16,0,.99-.1,1.82-.16,1.92h-18.51c.16,3.85,3.17,6.6,6.92,6.6s5.51-1.92,6.34-4.42l5.1,1.61ZM1184.99,187.38c-.1-2.96-2.08-5.62-6.24-5.62-3.8,0-5.98,2.91-6.19,5.62h12.43Z"/>
    <path class="cls-8" d="M1211.66,183.48c-.68-.1-1.35-.16-1.98-.16-4.68,0-6.81,2.7-6.81,7.44v12.06h-6.03v-25.32h5.88v4.06c1.2-2.76,4-4.37,7.33-4.37.73,0,1.35.1,1.61.16v6.14Z"/>
    <path class="cls-8" d="M1219.67,164.65c2.18,0,3.95,1.77,3.95,3.95s-1.77,3.9-3.95,3.9-3.9-1.72-3.9-3.9,1.77-3.95,3.9-3.95ZM1216.71,202.82v-25.32h5.98v25.32h-5.98Z"/>
    <path class="cls-8" d="M1243.43,202.82h-6.03l-10.3-25.32h6.66l6.71,18.1,6.55-18.1h6.34l-9.93,25.32Z"/>
    <path class="cls-8" d="M1263.71,188.32l6.5-.99c1.46-.21,1.87-.94,1.87-1.82,0-2.13-1.46-3.85-4.78-3.85s-4.94,2.03-5.2,4.58l-5.51-1.25c.47-4.37,4.42-8.27,10.66-8.27,7.8,0,10.76,4.42,10.76,9.46v12.58c0,2.29.26,3.8.31,4.06h-5.62c-.05-.16-.26-1.2-.26-3.22-1.2,1.92-3.69,4-7.8,4-5.3,0-8.58-3.64-8.58-7.64,0-4.52,3.33-7.02,7.64-7.64ZM1272.09,192.32v-1.14l-6.6.99c-1.87.31-3.38,1.35-3.38,3.43,0,1.72,1.3,3.28,3.69,3.28,3.38,0,6.29-1.61,6.29-6.55Z"/>
    <path class="cls-8" d="M1292.83,177.5h5.25v5.36h-5.25v11.75c0,2.24.99,3.17,3.22,3.17.83,0,1.82-.16,2.08-.21v4.99c-.36.16-1.51.57-3.69.57-4.68,0-7.59-2.81-7.59-7.54v-12.74h-4.68v-5.36h1.3c2.7,0,3.9-1.72,3.9-3.95v-3.8h5.46v7.75Z"/>
    <path class="cls-8" d="M1307.24,164.65c2.18,0,3.95,1.77,3.95,3.95s-1.77,3.9-3.95,3.9-3.9-1.72-3.9-3.9,1.77-3.95,3.9-3.95ZM1304.27,202.82v-25.32h5.98v25.32h-5.98Z"/>
    <path class="cls-8" d="M1331,202.82h-6.03l-10.3-25.32h6.66l6.71,18.1,6.55-18.1h6.34l-9.93,25.32Z"/>
    <path class="cls-8" d="M1366.99,195.6c-1.35,4.42-5.36,8.01-11.44,8.01-6.86,0-12.95-4.99-12.95-13.57,0-8.01,5.93-13.31,12.32-13.31,7.8,0,12.38,5.15,12.38,13.16,0,.99-.1,1.82-.16,1.92h-18.51c.16,3.85,3.17,6.6,6.92,6.6s5.51-1.92,6.34-4.42l5.1,1.61ZM1361.21,187.38c-.1-2.96-2.08-5.62-6.24-5.62-3.8,0-5.98,2.91-6.19,5.62h12.43Z"/>
    <path class="cls-8" d="M1376.08,194.5c.21,2.29,1.92,4.32,5.15,4.32,2.5,0,3.8-1.35,3.8-2.91,0-1.35-.94-2.39-2.96-2.81l-3.74-.83c-4.47-.99-6.81-3.9-6.81-7.38,0-4.42,4.06-8.16,9.31-8.16,7.07,0,9.36,4.58,9.78,7.07l-5.1,1.46c-.21-1.46-1.3-3.8-4.68-3.8-2.13,0-3.64,1.35-3.64,2.91,0,1.35.99,2.34,2.55,2.65l3.85.78c4.78,1.04,7.28,3.95,7.28,7.7s-3.12,8.11-9.57,8.11c-7.33,0-10.14-4.78-10.45-7.64l5.25-1.46Z"/>
    <path class="cls-8" d="M1417.22,174.17v3.33h5.88v5.25h-5.88v20.07h-6.08v-20.07h-4.42v-5.25h4.42v-3.48c0-5.67,3.64-9.1,8.84-9.1,1.51,0,2.76.31,3.17.52v5.15c-.36-.1-1.04-.26-2.18-.26-1.61,0-3.74.73-3.74,3.85Z"/>
    <path class="cls-8" d="M1437.08,203.55c-6.03,0-9.57-4.47-9.57-10.09v-15.96h6.03v14.87c0,3.12,1.46,5.77,5.1,5.77s5.3-2.34,5.3-5.67v-14.98h6.03v20.7c0,2.08.16,3.69.26,4.63h-5.77c-.1-.57-.21-1.77-.21-2.81-1.25,2.29-4.21,3.54-7.18,3.54Z"/>
    <path class="cls-8" d="M1463.81,202.82h-6.03v-25.32h5.88v3.38c1.66-2.91,4.68-4.11,7.49-4.11,6.19,0,9.15,4.47,9.15,10.04v16.02h-6.03v-14.98c0-3.12-1.4-5.62-5.2-5.62-3.43,0-5.25,2.65-5.25,5.98v14.61Z"/>
    <path class="cls-8" d="M1491.68,190.14c0,5.1,3.28,7.96,7.07,7.96s5.77-2.76,6.34-4.68l5.3,1.92c-1.2,3.95-4.99,8.27-11.65,8.27-7.44,0-13.1-5.77-13.1-13.47s5.67-13.42,12.95-13.42c6.81,0,10.56,4.26,11.6,8.32l-5.41,1.98c-.57-2.24-2.29-4.73-6.14-4.73s-6.97,2.76-6.97,7.85Z"/>
    <path class="cls-8" d="M1523.4,177.5h5.25v5.36h-5.25v11.75c0,2.24.99,3.17,3.22,3.17.83,0,1.82-.16,2.08-.21v4.99c-.36.16-1.51.57-3.69.57-4.68,0-7.59-2.81-7.59-7.54v-12.74h-4.68v-5.36h1.3c2.7,0,3.9-1.72,3.9-3.95v-3.8h5.46v7.75Z"/>
    <path class="cls-8" d="M1537.8,164.65c2.18,0,3.95,1.77,3.95,3.95s-1.77,3.9-3.95,3.9-3.9-1.72-3.9-3.9,1.77-3.95,3.9-3.95ZM1534.84,202.82v-25.32h5.98v25.32h-5.98Z"/>
    <path class="cls-8" d="M1572.9,190.14c0,7.8-5.56,13.47-13.16,13.47s-13.1-5.67-13.1-13.47,5.56-13.42,13.1-13.42,13.16,5.67,13.16,13.42ZM1566.82,190.14c0-5.25-3.33-7.96-7.07-7.96s-7.07,2.7-7.07,7.96,3.38,8.06,7.07,8.06,7.07-2.76,7.07-8.06Z"/>
    <path class="cls-8" d="M1584.76,202.82h-6.03v-25.32h5.88v3.38c1.66-2.91,4.68-4.11,7.49-4.11,6.19,0,9.15,4.47,9.15,10.04v16.02h-6.03v-14.98c0-3.12-1.4-5.62-5.2-5.62-3.43,0-5.25,2.65-5.25,5.98v14.61Z"/>
    <path class="cls-8" d="M1614.66,188.32l6.5-.99c1.46-.21,1.87-.94,1.87-1.82,0-2.13-1.46-3.85-4.78-3.85s-4.94,2.03-5.2,4.58l-5.51-1.25c.47-4.37,4.42-8.27,10.66-8.27,7.8,0,10.76,4.42,10.76,9.46v12.58c0,2.29.26,3.8.31,4.06h-5.62c-.05-.16-.26-1.2-.26-3.22-1.2,1.92-3.69,4-7.8,4-5.3,0-8.58-3.64-8.58-7.64,0-4.52,3.33-7.02,7.64-7.64ZM1623.03,192.32v-1.14l-6.6.99c-1.87.31-3.38,1.35-3.38,3.43,0,1.72,1.3,3.28,3.69,3.28,3.38,0,6.29-1.61,6.29-6.55Z"/>
    <path class="cls-8" d="M1636.24,202.82v-37.65h6.03v37.65h-6.03Z"/>
    <path class="cls-8" d="M1653.03,164.65c2.18,0,3.95,1.77,3.95,3.95s-1.77,3.9-3.95,3.9-3.9-1.72-3.9-3.9,1.77-3.95,3.9-3.95ZM1650.07,202.82v-25.32h5.98v25.32h-5.98Z"/>
    <path class="cls-8" d="M1671.49,177.5h5.25v5.36h-5.25v11.75c0,2.24.99,3.17,3.22,3.17.83,0,1.82-.16,2.08-.21v4.99c-.36.16-1.51.57-3.69.57-4.68,0-7.59-2.81-7.59-7.54v-12.74h-4.68v-5.36h1.3c2.7,0,3.9-1.72,3.9-3.95v-3.8h5.46v7.75Z"/>
    <path class="cls-8" d="M1684.59,213.07l6.08-13.26-10.82-22.31h6.81l7.28,16.02,6.81-16.02h6.4l-16.12,35.57h-6.45Z"/>
    <path class="cls-8" d="M1710.02,194.66c2.34,0,4.26,1.92,4.26,4.26s-1.92,4.21-4.26,4.21-4.21-1.87-4.21-4.21,1.87-4.26,4.21-4.26Z"/>
    <path class="cls-8" d="M488.56,234.23v30.99h-6.24v-30.99h-11.96v-5.88h30.21v5.88h-12.01Z"/>
    <path class="cls-8" d="M511.29,265.22h-6.03v-37.65h6.03v14.77c1.72-2.24,4.58-3.17,7.23-3.17,6.24,0,9.26,4.47,9.26,10.04v16.02h-6.03v-14.98c0-3.12-1.4-5.62-5.2-5.62-3.33,0-5.15,2.5-5.25,5.72v14.87Z"/>
    <path class="cls-8" d="M538.07,227.05c2.18,0,3.95,1.77,3.95,3.95s-1.77,3.9-3.95,3.9-3.9-1.72-3.9-3.9,1.77-3.95,3.9-3.95ZM535.1,265.22v-25.33h5.98v25.33h-5.98Z"/>
    <path class="cls-8" d="M551.9,256.9c.21,2.29,1.92,4.32,5.15,4.32,2.5,0,3.8-1.35,3.8-2.91,0-1.35-.94-2.39-2.96-2.81l-3.74-.83c-4.47-.99-6.81-3.9-6.81-7.38,0-4.42,4.06-8.16,9.31-8.16,7.07,0,9.36,4.58,9.78,7.07l-5.1,1.46c-.21-1.46-1.3-3.8-4.68-3.8-2.13,0-3.64,1.35-3.64,2.91,0,1.35.99,2.34,2.55,2.65l3.85.78c4.78,1.04,7.28,3.95,7.28,7.7s-3.12,8.11-9.57,8.11c-7.33,0-10.14-4.78-10.45-7.64l5.25-1.46Z"/>
    <path class="cls-8" d="M588.56,256.9c.21,2.29,1.92,4.32,5.15,4.32,2.5,0,3.8-1.35,3.8-2.91,0-1.35-.94-2.39-2.96-2.81l-3.74-.83c-4.47-.99-6.81-3.9-6.81-7.38,0-4.42,4.06-8.16,9.31-8.16,7.07,0,9.36,4.58,9.78,7.07l-5.1,1.46c-.21-1.46-1.3-3.8-4.68-3.8-2.13,0-3.64,1.35-3.64,2.91,0,1.35.99,2.34,2.55,2.65l3.85.78c4.78,1.04,7.28,3.95,7.28,7.7s-3.12,8.11-9.57,8.11c-7.33,0-10.14-4.78-10.45-7.64l5.25-1.46Z"/>
    <path class="cls-8" d="M616.95,239.9h5.25v5.36h-5.25v11.75c0,2.24.99,3.17,3.22,3.17.83,0,1.82-.16,2.08-.21v4.99c-.36.16-1.51.57-3.69.57-4.68,0-7.59-2.81-7.59-7.54v-12.74h-4.68v-5.36h1.3c2.7,0,3.9-1.72,3.9-3.95v-3.8h5.46v7.75Z"/>
    <path class="cls-8" d="M634.52,250.72l6.5-.99c1.46-.21,1.87-.94,1.87-1.82,0-2.13-1.46-3.85-4.78-3.85s-4.94,2.03-5.2,4.58l-5.51-1.25c.47-4.37,4.42-8.27,10.66-8.27,7.8,0,10.76,4.42,10.76,9.46v12.58c0,2.29.26,3.8.31,4.06h-5.62c-.05-.16-.26-1.2-.26-3.22-1.2,1.92-3.69,4-7.8,4-5.3,0-8.58-3.64-8.58-7.64,0-4.52,3.33-7.02,7.64-7.64ZM642.9,254.72v-1.14l-6.6.99c-1.87.31-3.38,1.35-3.38,3.43,0,1.72,1.3,3.28,3.69,3.28,3.38,0,6.29-1.61,6.29-6.55Z"/>
    <path class="cls-8" d="M656.1,265.22v-37.65h6.03v37.65h-6.03Z"/>
    <path class="cls-8" d="M669.94,265.22v-37.65h6.03v37.65h-6.03Z"/>
    <path class="cls-8" d="M686.78,256.9c.21,2.29,1.92,4.32,5.15,4.32,2.5,0,3.8-1.35,3.8-2.91,0-1.35-.94-2.39-2.96-2.81l-3.74-.83c-4.47-.99-6.81-3.9-6.81-7.38,0-4.42,4.06-8.16,9.31-8.16,7.07,0,9.36,4.58,9.78,7.07l-5.1,1.46c-.21-1.46-1.3-3.8-4.68-3.8-2.13,0-3.64,1.35-3.64,2.91,0,1.35.99,2.34,2.55,2.65l3.85.78c4.78,1.04,7.28,3.95,7.28,7.7s-3.12,8.11-9.57,8.11c-7.33,0-10.14-4.78-10.45-7.64l5.25-1.46Z"/>
    <path class="cls-8" d="M728.07,239.9h5.25v5.36h-5.25v11.75c0,2.24.99,3.17,3.22,3.17.83,0,1.82-.16,2.08-.21v4.99c-.36.16-1.51.57-3.69.57-4.68,0-7.59-2.81-7.59-7.54v-12.74h-4.68v-5.36h1.3c2.7,0,3.9-1.72,3.9-3.95v-3.8h5.46v7.75Z"/>
    <path class="cls-8" d="M744.81,265.22h-6.03v-37.65h6.03v14.77c1.72-2.24,4.58-3.17,7.23-3.17,6.24,0,9.26,4.47,9.26,10.04v16.02h-6.03v-14.98c0-3.12-1.4-5.62-5.2-5.62-3.33,0-5.15,2.5-5.25,5.72v14.87Z"/>
    <path class="cls-8" d="M791.04,258c-1.35,4.42-5.36,8.01-11.44,8.01-6.86,0-12.95-4.99-12.95-13.57,0-8.01,5.93-13.31,12.32-13.31,7.8,0,12.38,5.15,12.38,13.16,0,.99-.1,1.82-.16,1.92h-18.51c.16,3.85,3.17,6.6,6.92,6.6s5.51-1.92,6.34-4.42l5.1,1.61ZM785.27,249.78c-.1-2.96-2.08-5.62-6.24-5.62-3.8,0-5.98,2.91-6.19,5.62h12.43Z"/>
    <path class="cls-8" d="M816.1,250.72l6.5-.99c1.46-.21,1.87-.94,1.87-1.82,0-2.13-1.46-3.85-4.78-3.85s-4.94,2.03-5.2,4.58l-5.51-1.25c.47-4.37,4.42-8.27,10.66-8.27,7.8,0,10.76,4.42,10.76,9.46v12.58c0,2.29.26,3.8.31,4.06h-5.62c-.05-.16-.26-1.2-.26-3.22-1.2,1.92-3.69,4-7.8,4-5.3,0-8.58-3.64-8.58-7.64,0-4.52,3.33-7.02,7.64-7.64ZM824.48,254.72v-1.14l-6.6.99c-1.87.31-3.38,1.35-3.38,3.43,0,1.72,1.3,3.28,3.69,3.28,3.38,0,6.29-1.61,6.29-6.55Z"/>
    <path class="cls-8" d="M846.58,265.95c-6.03,0-9.57-4.47-9.57-10.09v-15.96h6.03v14.87c0,3.12,1.46,5.77,5.1,5.77s5.3-2.34,5.3-5.67v-14.98h6.03v20.7c0,2.08.16,3.69.26,4.63h-5.77c-.1-.57-.21-1.77-.21-2.81-1.25,2.29-4.21,3.54-7.18,3.54Z"/>
    <path class="cls-8" d="M890.52,260.6c0,2.29.21,4.21.26,4.63h-5.77c-.1-.57-.26-2.24-.26-3.28-1.2,2.13-3.85,3.9-7.44,3.9-7.28,0-12.17-5.72-12.17-13.36s4.94-13.26,12.06-13.26c4.42,0,6.66,2.03,7.44,3.64v-15.29h5.88v33.02ZM877.98,260.54c3.95,0,6.71-3.28,6.71-8.11s-2.7-7.85-6.66-7.85-6.86,3.07-6.86,7.9,2.7,8.06,6.81,8.06Z"/>
    <path class="cls-8" d="M901.38,227.05c2.18,0,3.95,1.77,3.95,3.95s-1.77,3.9-3.95,3.9-3.9-1.72-3.9-3.9,1.77-3.95,3.9-3.95ZM898.42,265.22v-25.33h5.98v25.33h-5.98Z"/>
    <path class="cls-8" d="M919.84,239.9h5.25v5.36h-5.25v11.75c0,2.24.99,3.17,3.22,3.17.83,0,1.82-.16,2.08-.21v4.99c-.36.16-1.51.57-3.69.57-4.68,0-7.59-2.81-7.59-7.54v-12.74h-4.68v-5.36h1.3c2.7,0,3.9-1.72,3.9-3.95v-3.8h5.46v7.75Z"/>
    <path class="cls-8" d="M948.13,252.54c0,5.1,3.28,7.96,7.07,7.96s5.77-2.76,6.34-4.68l5.3,1.92c-1.2,3.95-4.99,8.27-11.65,8.27-7.44,0-13.1-5.77-13.1-13.47s5.67-13.42,12.95-13.42c6.81,0,10.56,4.26,11.6,8.32l-5.41,1.98c-.57-2.24-2.29-4.73-6.14-4.73s-6.97,2.76-6.97,7.85Z"/>
    <path class="cls-8" d="M973.04,275.47l6.08-13.26-10.82-22.31h6.81l7.28,16.02,6.81-16.02h6.4l-16.12,35.57h-6.45Z"/>
    <path class="cls-8" d="M1002.94,252.54c0,5.1,3.28,7.96,7.07,7.96s5.77-2.76,6.34-4.68l5.3,1.92c-1.2,3.95-4.99,8.27-11.65,8.27-7.44,0-13.1-5.77-13.1-13.47s5.67-13.42,12.95-13.42c6.81,0,10.56,4.26,11.6,8.32l-5.41,1.98c-.57-2.24-2.29-4.73-6.14-4.73s-6.97,2.76-6.97,7.85Z"/>
    <path class="cls-8" d="M1027.01,265.22v-37.65h6.03v37.65h-6.03Z"/>
    <path class="cls-8" d="M1063.26,258c-1.35,4.42-5.36,8.01-11.44,8.01-6.86,0-12.95-4.99-12.95-13.57,0-8.01,5.93-13.31,12.32-13.31,7.8,0,12.38,5.15,12.38,13.16,0,.99-.1,1.82-.16,1.92h-18.51c.16,3.85,3.17,6.6,6.92,6.6s5.51-1.92,6.34-4.42l5.1,1.61ZM1057.49,249.78c-.1-2.96-2.08-5.62-6.24-5.62-3.8,0-5.98,2.91-6.19,5.62h12.43Z"/>
    <path class="cls-8" d="M1088.32,250.72l6.5-.99c1.46-.21,1.87-.94,1.87-1.82,0-2.13-1.46-3.85-4.78-3.85s-4.94,2.03-5.2,4.58l-5.51-1.25c.47-4.37,4.42-8.27,10.66-8.27,7.8,0,10.76,4.42,10.76,9.46v12.58c0,2.29.26,3.8.31,4.06h-5.62c-.05-.16-.26-1.2-.26-3.22-1.2,1.92-3.69,4-7.8,4-5.3,0-8.58-3.64-8.58-7.64,0-4.52,3.33-7.02,7.64-7.64ZM1096.69,254.72v-1.14l-6.6.99c-1.87.31-3.38,1.35-3.38,3.43,0,1.72,1.3,3.28,3.69,3.28,3.38,0,6.29-1.61,6.29-6.55Z"/>
    <path class="cls-8" d="M1115.93,265.22h-6.03v-25.33h5.88v3.38c1.66-2.91,4.68-4.11,7.49-4.11,6.19,0,9.15,4.47,9.15,10.04v16.02h-6.03v-14.98c0-3.12-1.4-5.62-5.2-5.62-3.43,0-5.25,2.65-5.25,5.98v14.61Z"/>
    <path class="cls-8" d="M1163.15,260.6c0,2.29.21,4.21.26,4.63h-5.77c-.1-.57-.26-2.24-.26-3.28-1.2,2.13-3.85,3.9-7.44,3.9-7.28,0-12.17-5.72-12.17-13.36s4.94-13.26,12.06-13.26c4.42,0,6.66,2.03,7.44,3.64v-15.29h5.88v33.02ZM1150.62,260.54c3.95,0,6.71-3.28,6.71-8.11s-2.7-7.85-6.66-7.85-6.86,3.07-6.86,7.9,2.7,8.06,6.81,8.06Z"/>
    <path class="cls-8" d="M1183.95,265.22v-37.65h6.03v37.65h-6.03Z"/>
    <path class="cls-8" d="M1220.19,258c-1.35,4.42-5.36,8.01-11.44,8.01-6.86,0-12.95-4.99-12.95-13.57,0-8.01,5.93-13.31,12.32-13.31,7.8,0,12.38,5.15,12.38,13.16,0,.99-.1,1.82-.16,1.92h-18.51c.16,3.85,3.17,6.6,6.92,6.6s5.51-1.92,6.34-4.42l5.1,1.61ZM1214.42,249.78c-.1-2.96-2.08-5.62-6.24-5.62-3.8,0-5.98,2.91-6.19,5.62h12.43Z"/>
    <path class="cls-8" d="M1232.36,250.72l6.5-.99c1.46-.21,1.87-.94,1.87-1.82,0-2.13-1.46-3.85-4.78-3.85s-4.94,2.03-5.2,4.58l-5.51-1.25c.47-4.37,4.42-8.27,10.66-8.27,7.8,0,10.76,4.42,10.76,9.46v12.58c0,2.29.26,3.8.31,4.06h-5.62c-.05-.16-.26-1.2-.26-3.22-1.2,1.92-3.69,4-7.8,4-5.3,0-8.58-3.64-8.58-7.64,0-4.52,3.33-7.02,7.64-7.64ZM1240.73,254.72v-1.14l-6.6.99c-1.87.31-3.38,1.35-3.38,3.43,0,1.72,1.3,3.28,3.69,3.28,3.38,0,6.29-1.61,6.29-6.55Z"/>
    <path class="cls-8" d="M1277.29,260.6c0,2.29.21,4.21.26,4.63h-5.77c-.1-.57-.26-2.24-.26-3.28-1.2,2.13-3.85,3.9-7.44,3.9-7.28,0-12.17-5.72-12.17-13.36s4.94-13.26,12.06-13.26c4.42,0,6.66,2.03,7.44,3.64v-15.29h5.88v33.02ZM1264.75,260.54c3.95,0,6.71-3.28,6.71-8.11s-2.7-7.85-6.66-7.85-6.86,3.07-6.86,7.9,2.7,8.06,6.81,8.06Z"/>
    <path class="cls-8" d="M1288.2,256.9c.21,2.29,1.92,4.32,5.15,4.32,2.5,0,3.8-1.35,3.8-2.91,0-1.35-.94-2.39-2.96-2.81l-3.74-.83c-4.47-.99-6.81-3.9-6.81-7.38,0-4.42,4.06-8.16,9.31-8.16,7.07,0,9.36,4.58,9.78,7.07l-5.1,1.46c-.21-1.46-1.3-3.8-4.68-3.8-2.13,0-3.64,1.35-3.64,2.91,0,1.35.99,2.34,2.55,2.65l3.85.78c4.78,1.04,7.28,3.95,7.28,7.7s-3.12,8.11-9.57,8.11c-7.33,0-10.14-4.78-10.45-7.64l5.25-1.46Z"/>
    <path class="cls-8" d="M1329.49,239.9h5.25v5.36h-5.25v11.75c0,2.24.99,3.17,3.22,3.17.83,0,1.82-.16,2.08-.21v4.99c-.36.16-1.51.57-3.69.57-4.68,0-7.59-2.81-7.59-7.54v-12.74h-4.68v-5.36h1.3c2.7,0,3.9-1.72,3.9-3.95v-3.8h5.46v7.75Z"/>
    <path class="cls-8" d="M1364.96,252.54c0,7.8-5.56,13.47-13.16,13.47s-13.1-5.67-13.1-13.47,5.56-13.42,13.1-13.42,13.16,5.67,13.16,13.42ZM1358.87,252.54c0-5.25-3.33-7.96-7.07-7.96s-7.07,2.7-7.07,7.96,3.38,8.06,7.07,8.06,7.07-2.76,7.07-8.06Z"/>
    <path class="cls-8" d="M1398.49,245.88c-.68-.1-1.35-.16-1.98-.16-4.68,0-6.81,2.7-6.81,7.44v12.06h-6.03v-25.33h5.88v4.06c1.2-2.76,4-4.37,7.33-4.37.73,0,1.35.1,1.61.16v6.14Z"/>
    <path class="cls-8" d="M1406.5,227.05c2.18,0,3.95,1.77,3.95,3.95s-1.77,3.9-3.95,3.9-3.9-1.72-3.9-3.9,1.77-3.95,3.9-3.95ZM1403.54,265.22v-25.33h5.98v25.33h-5.98Z"/>
    <path class="cls-8" d="M1420.33,256.9c.21,2.29,1.92,4.32,5.15,4.32,2.5,0,3.8-1.35,3.8-2.91,0-1.35-.94-2.39-2.96-2.81l-3.74-.83c-4.47-.99-6.81-3.9-6.81-7.38,0-4.42,4.06-8.16,9.31-8.16,7.07,0,9.36,4.58,9.78,7.07l-5.1,1.46c-.21-1.46-1.3-3.8-4.68-3.8-2.13,0-3.64,1.35-3.64,2.91,0,1.35.99,2.34,2.55,2.65l3.85.78c4.78,1.04,7.28,3.95,7.28,7.7s-3.12,8.11-9.57,8.11c-7.33,0-10.14-4.78-10.45-7.64l5.25-1.46Z"/>
    <path class="cls-8" d="M1454.39,250.61l10.61,14.61h-7.38l-7.44-10.35-3.12,3.28v7.07h-5.98v-37.65h5.98v22.57l9.72-10.24h8.01l-10.4,10.71Z"/>
  </g>
  <g>
    <path class="cls-5" d="M753,518.68h142.4c15.06,0,27.3,12.23,27.3,27.3v318.53c0,15.06-12.23,27.3-27.3,27.3h-142.4c-4.58,0-8.31-3.72-8.31-8.31v-356.5c0-4.58,3.72-8.31,8.31-8.31Z"/>
    <path class="cls-5" d="M844.41,889.77h-2.08c-1.5,0-2.71-1.21-2.71-2.71s1.21-2.71,2.71-2.71h2.08c1.5,0,2.71,1.21,2.71,2.71s-1.21,2.71-2.71,2.71ZM821.48,889.77h-2.08c-1.5,0-2.71-1.21-2.71-2.71s1.21-2.71,2.71-2.71h2.08c1.5,0,2.71,1.21,2.71,2.71s-1.21,2.71-2.71,2.71ZM798.55,889.77h-2.08c-1.5,0-2.71-1.21-2.71-2.71s1.21-2.71,2.71-2.71h2.08c1.5,0,2.71,1.21,2.71,2.71s-1.21,2.71-2.71,2.71ZM775.62,889.77h-2.08c-1.5,0-2.71-1.21-2.71-2.71s1.21-2.71,2.71-2.71h2.08c1.5,0,2.71,1.21,2.71,2.71s-1.21,2.71-2.71,2.71ZM752.69,889.77h-2.08c-1.5,0-2.71-1.21-2.71-2.71s1.21-2.71,2.71-2.71h2.08c1.5,0,2.71,1.21,2.71,2.71s-1.21,2.71-2.71,2.71ZM729.76,889.77h-2.08c-1.5,0-2.71-1.21-2.71-2.71s1.21-2.71,2.71-2.71h2.08c1.5,0,2.71,1.21,2.71,2.71s-1.21,2.71-2.71,2.71ZM706.83,889.77h-2.08c-1.5,0-2.71-1.21-2.71-2.71s1.21-2.71,2.71-2.71h2.08c1.5,0,2.71,1.21,2.71,2.71s-1.21,2.71-2.71,2.71ZM683.9,889.77h-2.08c-1.5,0-2.71-1.21-2.71-2.71s1.21-2.71,2.71-2.71h2.08c1.5,0,2.71,1.21,2.71,2.71s-1.21,2.71-2.71,2.71ZM660.97,889.77h-2.08c-1.5,0-2.71-1.21-2.71-2.71s1.21-2.71,2.71-2.71h2.08c1.5,0,2.71,1.21,2.71,2.71s-1.21,2.71-2.71,2.71ZM638.04,889.77h-2.08c-1.5,0-2.71-1.21-2.71-2.71s1.21-2.71,2.71-2.71h2.08c1.5,0,2.71,1.21,2.71,2.71s-1.21,2.71-2.71,2.71ZM615.11,889.7c-.06,0-.13,0-.19,0-.76-.05-1.52-.13-2.27-.24-1.48-.21-2.51-1.59-2.3-3.07s1.59-2.51,3.07-2.3c.62.09,1.25.16,1.87.2,1.49.1,2.62,1.4,2.52,2.89-.1,1.43-1.29,2.52-2.7,2.52ZM852.09,888.71c-1.18,0-2.27-.78-2.61-1.98-.41-1.44.43-2.94,1.87-3.34.6-.17,1.21-.36,1.79-.58,1.41-.51,2.96.22,3.47,1.62.51,1.41-.22,2.96-1.62,3.47-.71.26-1.44.49-2.17.7-.25.07-.49.1-.74.1ZM595.27,879.5c-.78,0-1.55-.33-2.09-.98-.48-.58-.95-1.19-1.39-1.81-.87-1.22-.58-2.91.64-3.78,1.22-.87,2.91-.58,3.78.64.36.51.75,1.01,1.15,1.49.95,1.15.79,2.86-.36,3.82-.51.42-1.12.62-1.73.62ZM869.43,874.69c-.43,0-.86-.1-1.27-.32-1.32-.7-1.83-2.34-1.13-3.66.29-.55.57-1.12.82-1.7.6-1.37,2.2-2,3.57-1.4,1.37.6,2,2.2,1.4,3.57-.3.69-.64,1.39-.99,2.06-.49.92-1.43,1.44-2.4,1.44ZM588.78,858.1c-1.5,0-2.71-1.21-2.71-2.71v-2.08c0-1.5,1.21-2.71,2.71-2.71s2.71,1.21,2.71,2.71v2.08c0,1.5-1.21,2.71-2.71,2.71ZM872.71,852.29c-1.5,0-2.71-1.21-2.71-2.71v-2.08c0-1.5,1.21-2.71,2.71-2.71s2.71,1.21,2.71,2.71v2.08c0,1.5-1.21,2.71-2.71,2.71ZM588.78,835.17c-1.5,0-2.71-1.21-2.71-2.71v-2.08c0-1.5,1.21-2.71,2.71-2.71s2.71,1.21,2.71,2.71v2.08c0,1.5-1.21,2.71-2.71,2.71ZM872.71,829.36c-1.5,0-2.71-1.21-2.71-2.71v-2.08c0-1.5,1.21-2.71,2.71-2.71s2.71,1.21,2.71,2.71v2.08c0,1.5-1.21,2.71-2.71,2.71ZM588.78,812.24c-1.5,0-2.71-1.21-2.71-2.71v-2.08c0-1.5,1.21-2.71,2.71-2.71s2.71,1.21,2.71,2.71v2.08c0,1.5-1.21,2.71-2.71,2.71ZM872.71,806.43c-1.5,0-2.71-1.21-2.71-2.71v-2.08c0-1.5,1.21-2.71,2.71-2.71s2.71,1.21,2.71,2.71v2.08c0,1.5-1.21,2.71-2.71,2.71ZM588.78,789.31c-1.5,0-2.71-1.21-2.71-2.71v-2.08c0-1.5,1.21-2.71,2.71-2.71s2.71,1.21,2.71,2.71v2.08c0,1.5-1.21,2.71-2.71,2.71ZM872.71,783.5c-1.5,0-2.71-1.21-2.71-2.71v-2.08c0-1.5,1.21-2.71,2.71-2.71s2.71,1.21,2.71,2.71v2.08c0,1.5-1.21,2.71-2.71,2.71ZM588.78,766.38c-1.5,0-2.71-1.21-2.71-2.71v-2.08c0-1.5,1.21-2.71,2.71-2.71s2.71,1.21,2.71,2.71v2.08c0,1.5-1.21,2.71-2.71,2.71ZM872.71,760.57c-1.5,0-2.71-1.21-2.71-2.71v-2.08c0-1.5,1.21-2.71,2.71-2.71s2.71,1.21,2.71,2.71v2.08c0,1.5-1.21,2.71-2.71,2.71ZM588.78,743.45c-1.5,0-2.71-1.21-2.71-2.71v-2.08c0-1.5,1.21-2.71,2.71-2.71s2.71,1.21,2.71,2.71v2.08c0,1.5-1.21,2.71-2.71,2.71ZM872.71,737.64c-1.5,0-2.71-1.21-2.71-2.71v-2.08c0-1.5,1.21-2.71,2.71-2.71s2.71,1.21,2.71,2.71v2.08c0,1.5-1.21,2.71-2.71,2.71ZM588.78,720.52c-1.5,0-2.71-1.21-2.71-2.71v-2.08c0-1.5,1.21-2.71,2.71-2.71s2.71,1.21,2.71,2.71v2.08c0,1.5-1.21,2.71-2.71,2.71ZM872.71,714.71c-1.5,0-2.71-1.21-2.71-2.71v-2.08c0-1.5,1.21-2.71,2.71-2.71s2.71,1.21,2.71,2.71v2.08c0,1.5-1.21,2.71-2.71,2.71ZM588.78,697.59c-1.5,0-2.71-1.21-2.71-2.71v-2.08c0-1.5,1.21-2.71,2.71-2.71s2.71,1.21,2.71,2.71v2.08c0,1.5-1.21,2.71-2.71,2.71ZM872.71,691.78c-1.5,0-2.71-1.21-2.71-2.71v-2.08c0-1.5,1.21-2.71,2.71-2.71s2.71,1.21,2.71,2.71v2.08c0,1.5-1.21,2.71-2.71,2.71ZM588.78,674.66c-1.5,0-2.71-1.21-2.71-2.71v-2.08c0-1.5,1.21-2.71,2.71-2.71s2.71,1.21,2.71,2.71v2.08c0,1.5-1.21,2.71-2.71,2.71ZM872.71,668.85c-1.5,0-2.71-1.21-2.71-2.71v-2.08c0-1.5,1.21-2.71,2.71-2.71s2.71,1.21,2.71,2.71v2.08c0,1.5-1.21,2.71-2.71,2.71ZM588.78,651.72c-1.5,0-2.71-1.21-2.71-2.71v-2.08c0-1.5,1.21-2.71,2.71-2.71s2.71,1.21,2.71,2.71v2.08c0,1.5-1.21,2.71-2.71,2.71ZM872.71,645.92c-1.5,0-2.71-1.21-2.71-2.71v-2.08c0-1.5,1.21-2.71,2.71-2.71s2.71,1.21,2.71,2.71v2.08c0,1.5-1.21,2.71-2.71,2.71ZM588.78,628.79c-1.5,0-2.71-1.21-2.71-2.71v-2.08c0-1.5,1.21-2.71,2.71-2.71s2.71,1.21,2.71,2.71v2.08c0,1.5-1.21,2.71-2.71,2.71ZM872.71,622.99c-1.5,0-2.71-1.21-2.71-2.71v-2.08c0-1.5,1.21-2.71,2.71-2.71s2.71,1.21,2.71,2.71v2.08c0,1.5-1.21,2.71-2.71,2.71ZM588.78,605.86c-1.5,0-2.71-1.21-2.71-2.71v-2.08c0-1.5,1.21-2.71,2.71-2.71s2.71,1.21,2.71,2.71v2.08c0,1.5-1.21,2.71-2.71,2.71ZM872.71,600.06c-1.5,0-2.71-1.21-2.71-2.71v-2.08c0-1.5,1.21-2.71,2.71-2.71s2.71,1.21,2.71,2.71v2.08c0,1.5-1.21,2.71-2.71,2.71ZM588.78,582.93c-1.5,0-2.71-1.21-2.71-2.71v-2.08c0-1.5,1.21-2.71,2.71-2.71s2.71,1.21,2.71,2.71v2.08c0,1.5-1.21,2.71-2.71,2.71ZM872.71,577.12c-1.5,0-2.71-1.21-2.71-2.71v-2.08c0-1.5,1.21-2.71,2.71-2.71s2.71,1.21,2.71,2.71v2.08c0,1.5-1.21,2.71-2.71,2.71ZM588.78,560c-1.5,0-2.71-1.21-2.71-2.71v-2.08c0-1.5,1.21-2.71,2.71-2.71s2.71,1.21,2.71,2.71v2.08c0,1.5-1.21,2.71-2.71,2.71ZM872.71,554.19c-1.5,0-2.71-1.21-2.71-2.71v-.52c0-.47-.01-.94-.04-1.41-.08-1.49,1.06-2.77,2.56-2.85,1.49-.09,2.77,1.06,2.85,2.56.03.57.05,1.14.05,1.71v.52c0,1.5-1.21,2.71-2.71,2.71ZM593.5,538.01c-.52,0-1.04-.15-1.5-.45-1.25-.83-1.58-2.51-.75-3.76.42-.63.87-1.25,1.33-1.85.92-1.18,2.62-1.39,3.8-.48,1.18.92,1.4,2.62.48,3.8-.38.49-.75,1.01-1.1,1.53-.52.78-1.38,1.21-2.26,1.21ZM864.3,533.54c-.69,0-1.38-.26-1.9-.78-.44-.44-.91-.87-1.39-1.27-1.14-.97-1.27-2.68-.3-3.82.97-1.14,2.68-1.27,3.82-.3.58.49,1.14,1.01,1.68,1.54,1.06,1.05,1.07,2.77.02,3.83-.53.54-1.23.8-1.93.8ZM612.17,525.8c-1.29,0-2.44-.93-2.67-2.24-.26-1.47.73-2.88,2.2-3.14.75-.13,1.51-.24,2.26-.31,1.48-.15,2.82.94,2.96,2.43.15,1.49-.94,2.82-2.43,2.96-.62.06-1.25.15-1.86.26-.16.03-.32.04-.47.04ZM843.54,525.38h-2.08c-1.5,0-2.71-1.21-2.71-2.71s1.21-2.71,2.71-2.71h2.08c1.5,0,2.71,1.21,2.71,2.71s-1.21,2.71-2.71,2.71ZM820.61,525.38h-2.08c-1.5,0-2.71-1.21-2.71-2.71s1.21-2.71,2.71-2.71h2.08c1.5,0,2.71,1.21,2.71,2.71s-1.21,2.71-2.71,2.71ZM797.68,525.38h-2.08c-1.5,0-2.71-1.21-2.71-2.71s1.21-2.71,2.71-2.71h2.08c1.5,0,2.71,1.21,2.71,2.71s-1.21,2.71-2.71,2.71ZM774.75,525.38h-2.08c-1.5,0-2.71-1.21-2.71-2.71s1.21-2.71,2.71-2.71h2.08c1.5,0,2.71,1.21,2.71,2.71s-1.21,2.71-2.71,2.71ZM751.81,525.38h-2.08c-1.5,0-2.71-1.21-2.71-2.71s1.21-2.71,2.71-2.71h2.08c1.5,0,2.71,1.21,2.71,2.71s-1.21,2.71-2.71,2.71ZM728.88,525.38h-2.08c-1.5,0-2.71-1.21-2.71-2.71s1.21-2.71,2.71-2.71h2.08c1.5,0,2.71,1.21,2.71,2.71s-1.21,2.71-2.71,2.71ZM705.95,525.38h-2.08c-1.5,0-2.71-1.21-2.71-2.71s1.21-2.71,2.71-2.71h2.08c1.5,0,2.71,1.21,2.71,2.71s-1.21,2.71-2.71,2.71ZM683.02,525.38h-2.08c-1.5,0-2.71-1.21-2.71-2.71s1.21-2.71,2.71-2.71h2.08c1.5,0,2.71,1.21,2.71,2.71s-1.21,2.71-2.71,2.71ZM660.09,525.38h-2.08c-1.5,0-2.71-1.21-2.71-2.71s1.21-2.71,2.71-2.71h2.08c1.5,0,2.71,1.21,2.71,2.71s-1.21,2.71-2.71,2.71ZM637.16,525.38h-2.08c-1.5,0-2.71-1.21-2.71-2.71s1.21-2.71,2.71-2.71h2.08c1.5,0,2.71,1.21,2.71,2.71s-1.21,2.71-2.71,2.71Z"/>
    <rect class="cls-7" x="616.77" y="547.01" width="256.44" height="315.69" rx="21.26" ry="21.26"/>
    <rect class="cls-2" x="616.77" y="555.9" width="247.55" height="306.8" rx="23.01" ry="23.01"/>
    <g>
      <path class="cls-8" d="M656.83,690.49l7.14,10.65h-3.51l-5.37-8.31-5.49,8.31h-3.45l7.26-10.65-7.2-10.62h3.54l5.37,8.34,5.46-8.34h3.48l-7.23,10.62Z"/>
      <path class="cls-8" d="M666.76,706.84v-20.13h2.73v2.25c.78-1.44,2.49-2.58,4.83-2.58,4.32,0,6.63,3.33,6.63,7.53s-2.49,7.62-6.72,7.62c-2.22,0-3.9-1.05-4.68-2.34v7.65h-2.79ZM673.81,688.87c-2.58,0-4.29,2.16-4.29,5.04s1.71,5.1,4.29,5.1,4.26-2.13,4.26-5.1-1.62-5.04-4.26-5.04Z"/>
      <path class="cls-8" d="M684.55,701.14v-21.72h2.82v21.72h-2.82Z"/>
      <path class="cls-8" d="M695.65,692.89l3.9-.57c.87-.12,1.11-.57,1.11-1.08,0-1.41-.93-2.58-3.12-2.58-1.98,0-3.09,1.23-3.27,2.91l-2.7-.63c.3-2.76,2.79-4.68,5.91-4.68,4.32,0,6,2.46,6,5.28v7.23c0,1.26.12,2.01.18,2.37h-2.76c-.06-.36-.15-.9-.15-1.95-.63,1.02-2.07,2.4-4.65,2.4-2.94,0-4.83-2.04-4.83-4.32,0-2.58,1.89-4.02,4.38-4.38ZM700.66,694.96v-.66l-4.41.66c-1.2.18-2.1.87-2.1,2.16,0,1.08.9,2.1,2.34,2.1,2.31,0,4.17-1.11,4.17-4.26Z"/>
      <path class="cls-8" d="M709.24,679.21c1.14,0,2.04.9,2.04,2.04s-.9,2.01-2.04,2.01-2.01-.9-2.01-2.01.9-2.04,2.01-2.04ZM707.86,701.14v-14.43h2.79v14.43h-2.79Z"/>
      <path class="cls-8" d="M718.27,701.14h-2.82v-14.43h2.76v2.07c1.05-1.8,2.76-2.49,4.44-2.49,3.45,0,5.16,2.49,5.16,5.7v9.15h-2.82v-8.67c0-2.01-.84-3.63-3.36-3.63-2.22,0-3.36,1.77-3.36,3.96v8.34Z"/>
      <path class="cls-8" d="M743.05,692.44v8.7h-2.94v-21.27h7.74c3.93,0,6.57,2.73,6.57,6.3s-2.64,6.27-6.57,6.27h-4.8ZM747.31,689.8c2.55,0,4.11-1.41,4.11-3.6s-1.56-3.69-4.11-3.69h-4.26v7.29h4.26Z"/>
      <path class="cls-8" d="M765.28,689.56c-.42-.06-.84-.09-1.23-.09-2.37,0-3.96,1.26-3.96,4.44v7.23h-2.82v-14.43h2.76v2.52c1.05-2.22,2.85-2.76,4.32-2.76.39,0,.78.06.93.09v3Z"/>
      <path class="cls-8" d="M769.66,679.21c1.14,0,2.04.9,2.04,2.04s-.9,2.01-2.04,2.01-2.01-.9-2.01-2.01.9-2.04,2.01-2.04ZM768.28,701.14v-14.43h2.79v14.43h-2.79Z"/>
      <path class="cls-8" d="M777.55,693.91c0,3.3,2.07,5.07,4.41,5.07,2.7,0,3.69-1.83,4.02-2.97l2.49,1.08c-.69,2.07-2.76,4.5-6.51,4.5-4.2,0-7.29-3.3-7.29-7.68s3.15-7.65,7.26-7.65c3.84,0,5.82,2.4,6.42,4.59l-2.55,1.08c-.36-1.41-1.41-3.06-3.87-3.06-2.28,0-4.38,1.68-4.38,5.04Z"/>
      <path class="cls-8" d="M793.15,679.21c1.14,0,2.04.9,2.04,2.04s-.9,2.01-2.04,2.01-2.01-.9-2.01-2.01.9-2.04,2.01-2.04ZM791.77,701.14v-14.43h2.79v14.43h-2.79Z"/>
      <path class="cls-8" d="M802.18,701.14h-2.82v-14.43h2.76v2.07c1.05-1.8,2.76-2.49,4.44-2.49,3.45,0,5.16,2.49,5.16,5.7v9.15h-2.82v-8.67c0-2.01-.84-3.63-3.36-3.63-2.22,0-3.36,1.77-3.36,3.96v8.34Z"/>
      <path class="cls-8" d="M817.9,701.29c.21,2.01,1.74,3.54,3.93,3.54,3.03,0,4.41-1.56,4.41-4.68v-2.07c-.69,1.32-2.25,2.37-4.41,2.37-3.84,0-6.63-2.91-6.63-6.99s2.67-7.02,6.63-7.02c2.22,0,3.72.84,4.44,2.28v-2.01h2.79v13.35c0,3.66-1.8,7.23-7.23,7.23-3.6,0-6.3-2.28-6.66-5.37l2.73-.63ZM826.36,693.46c0-2.79-1.68-4.62-4.11-4.62s-4.17,1.83-4.17,4.62,1.62,4.62,4.17,4.62,4.11-1.83,4.11-4.62Z"/>
      <path class="cls-8" d="M648.55,737.14v-21.27h12.93v2.73h-9.99v6.54h9.06v2.76h-9.06v6.51h9.99v2.73h-12.93Z"/>
      <path class="cls-8" d="M668.05,737.14h-2.82v-14.43h2.76v2.07c1.05-1.8,2.76-2.49,4.44-2.49,3.45,0,5.16,2.49,5.16,5.7v9.15h-2.82v-8.67c0-2.01-.84-3.63-3.36-3.63-2.22,0-3.36,1.77-3.36,3.96v8.34Z"/>
      <path class="cls-8" d="M683.77,737.29c.21,2.01,1.74,3.54,3.93,3.54,3.03,0,4.41-1.56,4.41-4.68v-2.07c-.69,1.32-2.25,2.37-4.41,2.37-3.84,0-6.63-2.91-6.63-6.99s2.67-7.02,6.63-7.02c2.22,0,3.72.84,4.44,2.28v-2.01h2.79v13.35c0,3.66-1.8,7.23-7.23,7.23-3.6,0-6.3-2.28-6.66-5.37l2.73-.63ZM692.23,729.46c0-2.79-1.68-4.62-4.11-4.62s-4.17,1.83-4.17,4.62,1.62,4.62,4.17,4.62,4.11-1.83,4.11-4.62Z"/>
      <path class="cls-8" d="M700.81,715.21c1.14,0,2.04.9,2.04,2.04s-.9,2.01-2.04,2.01-2.01-.9-2.01-2.01.9-2.04,2.01-2.04ZM699.43,737.14v-14.43h2.79v14.43h-2.79Z"/>
      <path class="cls-8" d="M709.84,737.14h-2.82v-14.43h2.76v2.07c1.05-1.8,2.76-2.49,4.44-2.49,3.45,0,5.16,2.49,5.16,5.7v9.15h-2.82v-8.67c0-2.01-.84-3.63-3.36-3.63-2.22,0-3.36,1.77-3.36,3.96v8.34Z"/>
      <path class="cls-8" d="M736.45,733.03c-.81,2.55-3.12,4.56-6.48,4.56-3.87,0-7.26-2.82-7.26-7.71,0-4.53,3.27-7.62,6.9-7.62,4.44,0,6.93,3.06,6.93,7.56,0,.36-.03.72-.06.9h-10.86c.06,2.58,1.92,4.38,4.35,4.38s3.51-1.29,4.05-2.91l2.43.84ZM733.6,728.44c-.06-2.07-1.41-3.69-3.96-3.69-2.37,0-3.81,1.83-3.93,3.69h7.89Z"/>
    </g>
  </g>
  <g>
    <path class="cls-6" d="M333,387.34h142.4c15.06,0,27.3,12.23,27.3,27.3v318.53c0,15.06-12.23,27.3-27.3,27.3h-142.4c-4.58,0-8.31-3.72-8.31-8.31v-356.5c0-4.58,3.72-8.31,8.31-8.31Z"/>
    <path class="cls-6" d="M431.45,758.77h-2.08c-1.5,0-2.71-1.21-2.71-2.71s1.21-2.71,2.71-2.71h2.08c1.5,0,2.71,1.21,2.71,2.71s-1.21,2.71-2.71,2.71ZM408.52,758.77h-2.08c-1.5,0-2.71-1.21-2.71-2.71s1.21-2.71,2.71-2.71h2.08c1.5,0,2.71,1.21,2.71,2.71s-1.21,2.71-2.71,2.71ZM385.58,758.77h-2.08c-1.5,0-2.71-1.21-2.71-2.71s1.21-2.71,2.71-2.71h2.08c1.5,0,2.71,1.21,2.71,2.71s-1.21,2.71-2.71,2.71ZM362.65,758.77h-2.08c-1.5,0-2.71-1.21-2.71-2.71s1.21-2.71,2.71-2.71h2.08c1.5,0,2.71,1.21,2.71,2.71s-1.21,2.71-2.71,2.71ZM339.72,758.77h-2.08c-1.5,0-2.71-1.21-2.71-2.71s1.21-2.71,2.71-2.71h2.08c1.5,0,2.71,1.21,2.71,2.71s-1.21,2.71-2.71,2.71ZM316.79,758.77h-2.08c-1.5,0-2.71-1.21-2.71-2.71s1.21-2.71,2.71-2.71h2.08c1.5,0,2.71,1.21,2.71,2.71s-1.21,2.71-2.71,2.71ZM293.86,758.77h-2.08c-1.5,0-2.71-1.21-2.71-2.71s1.21-2.71,2.71-2.71h2.08c1.5,0,2.71,1.21,2.71,2.71s-1.21,2.71-2.71,2.71ZM270.93,758.77h-2.08c-1.5,0-2.71-1.21-2.71-2.71s1.21-2.71,2.71-2.71h2.08c1.5,0,2.71,1.21,2.71,2.71s-1.21,2.71-2.71,2.71ZM248,758.77h-2.08c-1.5,0-2.71-1.21-2.71-2.71s1.21-2.71,2.71-2.71h2.08c1.5,0,2.71,1.21,2.71,2.71s-1.21,2.71-2.71,2.71ZM225.07,758.77h-2.08c-1.5,0-2.71-1.21-2.71-2.71s1.21-2.71,2.71-2.71h2.08c1.5,0,2.71,1.21,2.71,2.71s-1.21,2.71-2.71,2.71ZM202.14,758.7c-.06,0-.13,0-.19,0-.76-.05-1.52-.13-2.27-.24-1.48-.21-2.51-1.59-2.3-3.07.21-1.48,1.59-2.51,3.07-2.3.62.09,1.25.16,1.87.2,1.49.1,2.62,1.4,2.52,2.89-.1,1.43-1.29,2.52-2.7,2.52ZM439.12,757.71c-1.18,0-2.27-.78-2.61-1.98-.41-1.44.43-2.94,1.87-3.34.6-.17,1.21-.36,1.79-.58,1.41-.51,2.96.22,3.47,1.62.51,1.41-.22,2.96-1.62,3.47-.71.26-1.44.49-2.17.7-.25.07-.49.1-.74.1ZM182.31,748.5c-.78,0-1.55-.33-2.09-.98-.48-.58-.95-1.19-1.39-1.81-.87-1.22-.58-2.91.64-3.78,1.22-.87,2.91-.58,3.78.64.36.51.75,1.01,1.15,1.49.95,1.15.79,2.86-.36,3.82-.51.42-1.12.62-1.73.62ZM456.47,743.69c-.43,0-.86-.1-1.27-.32-1.32-.7-1.83-2.34-1.13-3.66.29-.55.57-1.12.82-1.7.6-1.37,2.2-2,3.57-1.4,1.37.6,2,2.2,1.4,3.57-.3.69-.64,1.39-.99,2.06-.49.92-1.43,1.44-2.4,1.44ZM175.82,727.1c-1.5,0-2.71-1.21-2.71-2.71v-2.08c0-1.5,1.21-2.71,2.71-2.71s2.71,1.21,2.71,2.71v2.08c0,1.5-1.21,2.71-2.71,2.71ZM459.74,721.29c-1.5,0-2.71-1.21-2.71-2.71v-2.08c0-1.5,1.21-2.71,2.71-2.71s2.71,1.21,2.71,2.71v2.08c0,1.5-1.21,2.71-2.71,2.71ZM175.82,704.17c-1.5,0-2.71-1.21-2.71-2.71v-2.08c0-1.5,1.21-2.71,2.71-2.71s2.71,1.21,2.71,2.71v2.08c0,1.5-1.21,2.71-2.71,2.71ZM459.74,698.36c-1.5,0-2.71-1.21-2.71-2.71v-2.08c0-1.5,1.21-2.71,2.71-2.71s2.71,1.21,2.71,2.71v2.08c0,1.5-1.21,2.71-2.71,2.71ZM175.82,681.24c-1.5,0-2.71-1.21-2.71-2.71v-2.08c0-1.5,1.21-2.71,2.71-2.71s2.71,1.21,2.71,2.71v2.08c0,1.5-1.21,2.71-2.71,2.71ZM459.74,675.43c-1.5,0-2.71-1.21-2.71-2.71v-2.08c0-1.5,1.21-2.71,2.71-2.71s2.71,1.21,2.71,2.71v2.08c0,1.5-1.21,2.71-2.71,2.71ZM175.82,658.31c-1.5,0-2.71-1.21-2.71-2.71v-2.08c0-1.5,1.21-2.71,2.71-2.71s2.71,1.21,2.71,2.71v2.08c0,1.5-1.21,2.71-2.71,2.71ZM459.74,652.5c-1.5,0-2.71-1.21-2.71-2.71v-2.08c0-1.5,1.21-2.71,2.71-2.71s2.71,1.21,2.71,2.71v2.08c0,1.5-1.21,2.71-2.71,2.71ZM175.82,635.38c-1.5,0-2.71-1.21-2.71-2.71v-2.08c0-1.5,1.21-2.71,2.71-2.71s2.71,1.21,2.71,2.71v2.08c0,1.5-1.21,2.71-2.71,2.71ZM459.74,629.57c-1.5,0-2.71-1.21-2.71-2.71v-2.08c0-1.5,1.21-2.71,2.71-2.71s2.71,1.21,2.71,2.71v2.08c0,1.5-1.21,2.71-2.71,2.71ZM175.82,612.45c-1.5,0-2.71-1.21-2.71-2.71v-2.08c0-1.5,1.21-2.71,2.71-2.71s2.71,1.21,2.71,2.71v2.08c0,1.5-1.21,2.71-2.71,2.71ZM459.74,606.64c-1.5,0-2.71-1.21-2.71-2.71v-2.08c0-1.5,1.21-2.71,2.71-2.71s2.71,1.21,2.71,2.71v2.08c0,1.5-1.21,2.71-2.71,2.71ZM175.82,589.52c-1.5,0-2.71-1.21-2.71-2.71v-2.08c0-1.5,1.21-2.71,2.71-2.71s2.71,1.21,2.71,2.71v2.08c0,1.5-1.21,2.71-2.71,2.71ZM459.74,583.71c-1.5,0-2.71-1.21-2.71-2.71v-2.08c0-1.5,1.21-2.71,2.71-2.71s2.71,1.21,2.71,2.71v2.08c0,1.5-1.21,2.71-2.71,2.71ZM175.82,566.59c-1.5,0-2.71-1.21-2.71-2.71v-2.08c0-1.5,1.21-2.71,2.71-2.71s2.71,1.21,2.71,2.71v2.08c0,1.5-1.21,2.71-2.71,2.71ZM459.74,560.78c-1.5,0-2.71-1.21-2.71-2.71v-2.08c0-1.5,1.21-2.71,2.71-2.71s2.71,1.21,2.71,2.71v2.08c0,1.5-1.21,2.71-2.71,2.71ZM175.82,543.66c-1.5,0-2.71-1.21-2.71-2.71v-2.08c0-1.5,1.21-2.71,2.71-2.71s2.71,1.21,2.71,2.71v2.08c0,1.5-1.21,2.71-2.71,2.71ZM459.74,537.85c-1.5,0-2.71-1.21-2.71-2.71v-2.08c0-1.5,1.21-2.71,2.71-2.71s2.71,1.21,2.71,2.71v2.08c0,1.5-1.21,2.71-2.71,2.71ZM175.82,520.72c-1.5,0-2.71-1.21-2.71-2.71v-2.08c0-1.5,1.21-2.71,2.71-2.71s2.71,1.21,2.71,2.71v2.08c0,1.5-1.21,2.71-2.71,2.71ZM459.74,514.92c-1.5,0-2.71-1.21-2.71-2.71v-2.08c0-1.5,1.21-2.71,2.71-2.71s2.71,1.21,2.71,2.71v2.08c0,1.5-1.21,2.71-2.71,2.71ZM175.82,497.79c-1.5,0-2.71-1.21-2.71-2.71v-2.08c0-1.5,1.21-2.71,2.71-2.71s2.71,1.21,2.71,2.71v2.08c0,1.5-1.21,2.71-2.71,2.71ZM459.74,491.99c-1.5,0-2.71-1.21-2.71-2.71v-2.08c0-1.5,1.21-2.71,2.71-2.71s2.71,1.21,2.71,2.71v2.08c0,1.5-1.21,2.71-2.71,2.71ZM175.82,474.86c-1.5,0-2.71-1.21-2.71-2.71v-2.08c0-1.5,1.21-2.71,2.71-2.71s2.71,1.21,2.71,2.71v2.08c0,1.5-1.21,2.71-2.71,2.71ZM459.74,469.06c-1.5,0-2.71-1.21-2.71-2.71v-2.08c0-1.5,1.21-2.71,2.71-2.71s2.71,1.21,2.71,2.71v2.08c0,1.5-1.21,2.71-2.71,2.71ZM175.82,451.93c-1.5,0-2.71-1.21-2.71-2.71v-2.08c0-1.5,1.21-2.71,2.71-2.71s2.71,1.21,2.71,2.71v2.08c0,1.5-1.21,2.71-2.71,2.71ZM459.74,446.12c-1.5,0-2.71-1.21-2.71-2.71v-2.08c0-1.5,1.21-2.71,2.71-2.71s2.71,1.21,2.71,2.71v2.08c0,1.5-1.21,2.71-2.71,2.71ZM175.82,429c-1.5,0-2.71-1.21-2.71-2.71v-2.08c0-1.5,1.21-2.71,2.71-2.71s2.71,1.21,2.71,2.71v2.08c0,1.5-1.21,2.71-2.71,2.71ZM459.74,423.19c-1.5,0-2.71-1.21-2.71-2.71v-.52c0-.47-.01-.94-.04-1.41-.08-1.49,1.06-2.77,2.56-2.85,1.49-.09,2.77,1.06,2.85,2.56.03.57.05,1.14.05,1.71v.52c0,1.5-1.21,2.71-2.71,2.71ZM180.54,407.01c-.52,0-1.04-.15-1.5-.45-1.25-.83-1.58-2.51-.75-3.76.42-.63.87-1.25,1.33-1.85.92-1.18,2.62-1.39,3.8-.48,1.18.92,1.4,2.62.48,3.8-.38.49-.75,1.01-1.1,1.53-.52.78-1.38,1.21-2.26,1.21ZM451.33,402.54c-.69,0-1.38-.26-1.9-.78-.44-.44-.91-.87-1.39-1.27-1.14-.97-1.27-2.68-.3-3.82.97-1.14,2.68-1.27,3.82-.3.58.49,1.14,1.01,1.68,1.54,1.06,1.05,1.07,2.77.02,3.83-.53.54-1.23.8-1.93.8ZM199.2,394.8c-1.29,0-2.44-.93-2.67-2.24-.26-1.47.73-2.88,2.2-3.14.75-.13,1.51-.24,2.26-.31,1.49-.15,2.82.94,2.96,2.43.15,1.49-.94,2.82-2.43,2.96-.62.06-1.25.15-1.86.26-.16.03-.32.04-.47.04ZM430.57,394.38h-2.08c-1.5,0-2.71-1.21-2.71-2.71s1.21-2.71,2.71-2.71h2.08c1.5,0,2.71,1.21,2.71,2.71s-1.21,2.71-2.71,2.71ZM407.64,394.38h-2.08c-1.5,0-2.71-1.21-2.71-2.71s1.21-2.71,2.71-2.71h2.08c1.5,0,2.71,1.21,2.71,2.71s-1.21,2.71-2.71,2.71ZM384.71,394.38h-2.08c-1.5,0-2.71-1.21-2.71-2.71s1.21-2.71,2.71-2.71h2.08c1.5,0,2.71,1.21,2.71,2.71s-1.21,2.71-2.71,2.71ZM361.78,394.38h-2.08c-1.5,0-2.71-1.21-2.71-2.71s1.21-2.71,2.71-2.71h2.08c1.5,0,2.71,1.21,2.71,2.71s-1.21,2.71-2.71,2.71ZM338.85,394.38h-2.08c-1.5,0-2.71-1.21-2.71-2.71s1.21-2.71,2.71-2.71h2.08c1.5,0,2.71,1.21,2.71,2.71s-1.21,2.71-2.71,2.71ZM315.92,394.38h-2.08c-1.5,0-2.71-1.21-2.71-2.71s1.21-2.71,2.71-2.71h2.08c1.5,0,2.71,1.21,2.71,2.71s-1.21,2.71-2.71,2.71ZM292.99,394.38h-2.08c-1.5,0-2.71-1.21-2.71-2.71s1.21-2.71,2.71-2.71h2.08c1.5,0,2.71,1.21,2.71,2.71s-1.21,2.71-2.71,2.71ZM270.06,394.38h-2.08c-1.5,0-2.71-1.21-2.71-2.71s1.21-2.71,2.71-2.71h2.08c1.5,0,2.71,1.21,2.71,2.71s-1.21,2.71-2.71,2.71ZM247.13,394.38h-2.08c-1.5,0-2.71-1.21-2.71-2.71s1.21-2.71,2.71-2.71h2.08c1.5,0,2.71,1.21,2.71,2.71s-1.21,2.71-2.71,2.71ZM224.19,394.38h-2.08c-1.5,0-2.71-1.21-2.71-2.71s1.21-2.71,2.71-2.71h2.08c1.5,0,2.71,1.21,2.71,2.71s-1.21,2.71-2.71,2.71Z"/>
    <rect class="cls-7" x="203.52" y="416.01" width="256.44" height="315.69" rx="21.26" ry="21.26"/>
    <path class="cls-2" d="M451.07,447.91v260.78c0,12.71-10.3,23.01-23.01,23.01h-201.54c-12.7,0-23-10.3-23-23.01v-260.78c0-12.71,10.3-23.01,23-23.01h201.54c12.71,0,23.01,10.3,23.01,23.01Z"/>
    <g>
      <path class="cls-8" d="M272.56,570.14v-16.56l-7.26,16.56h-2.7l-7.2-16.56v16.56h-2.91v-21.27h3.99l7.5,17.31,7.56-17.31h3.93v21.27h-2.91Z"/>
      <path class="cls-8" d="M283.9,561.89l3.9-.57c.87-.12,1.11-.57,1.11-1.08,0-1.41-.93-2.58-3.12-2.58-1.98,0-3.09,1.23-3.27,2.91l-2.7-.63c.3-2.76,2.79-4.68,5.91-4.68,4.32,0,6,2.46,6,5.28v7.23c0,1.26.12,2.01.18,2.37h-2.76c-.06-.36-.15-.9-.15-1.95-.63,1.02-2.07,2.4-4.65,2.4-2.94,0-4.83-2.04-4.83-4.32,0-2.58,1.89-4.02,4.38-4.38ZM288.91,563.96v-.66l-4.41.66c-1.2.18-2.1.87-2.1,2.16,0,1.08.9,2.1,2.34,2.1,2.31,0,4.17-1.11,4.17-4.26Z"/>
      <path class="cls-8" d="M304.12,558.56c-.42-.06-.84-.09-1.23-.09-2.37,0-3.96,1.26-3.96,4.44v7.23h-2.82v-14.43h2.76v2.52c1.05-2.22,2.85-2.76,4.32-2.76.39,0,.78.06.93.09v3Z"/>
      <path class="cls-8" d="M313.9,561.8l6.27,8.34h-3.54l-4.71-6.36-2.01,2.01v4.35h-2.79v-21.72h2.79v13.68l6.24-6.39h3.9l-6.15,6.09Z"/>
      <path class="cls-8" d="M334.69,566.03c-.81,2.55-3.12,4.56-6.48,4.56-3.87,0-7.26-2.82-7.26-7.71,0-4.53,3.27-7.62,6.9-7.62,4.44,0,6.93,3.06,6.93,7.56,0,.36-.03.72-.06.9h-10.86c.06,2.58,1.92,4.38,4.35,4.38s3.51-1.29,4.05-2.91l2.43.84ZM331.84,561.44c-.06-2.07-1.41-3.69-3.96-3.69-2.37,0-3.81,1.83-3.93,3.69h7.89Z"/>
      <path class="cls-8" d="M342.16,555.71h3.12v2.55h-3.12v7.5c0,1.32.54,1.98,2.01,1.98.36,0,.87-.06,1.11-.12v2.4c-.24.09-.96.27-1.92.27-2.46,0-4.02-1.5-4.02-4.11v-7.92h-2.76v-2.55h.78c1.56,0,2.22-.96,2.22-2.22v-2.34h2.58v4.56Z"/>
      <path class="cls-8" d="M356.83,570.14v-21.27h7.44c5.4,0,10.11,3.69,10.11,10.68s-4.77,10.59-10.17,10.59h-7.38ZM364.12,567.53c3.93,0,7.23-2.64,7.23-7.98s-3.24-8.07-7.17-8.07h-4.41v16.05h4.35Z"/>
      <path class="cls-8" d="M381.61,561.89l3.9-.57c.87-.12,1.11-.57,1.11-1.08,0-1.41-.93-2.58-3.12-2.58-1.98,0-3.09,1.23-3.27,2.91l-2.7-.63c.3-2.76,2.79-4.68,5.91-4.68,4.32,0,6,2.46,6,5.28v7.23c0,1.26.12,2.01.18,2.37h-2.76c-.06-.36-.15-.9-.15-1.95-.63,1.02-2.07,2.4-4.65,2.4-2.94,0-4.83-2.04-4.83-4.32,0-2.58,1.89-4.02,4.38-4.38ZM386.62,563.96v-.66l-4.41.66c-1.2.18-2.1.87-2.1,2.16,0,1.08.9,2.1,2.34,2.1,2.31,0,4.17-1.11,4.17-4.26Z"/>
      <path class="cls-8" d="M397.6,555.71h3.12v2.55h-3.12v7.5c0,1.32.54,1.98,2.01,1.98.36,0,.87-.06,1.11-.12v2.4c-.24.09-.96.27-1.92.27-2.46,0-4.02-1.5-4.02-4.11v-7.92h-2.76v-2.55h.78c1.56,0,2.22-.96,2.22-2.22v-2.34h2.58v4.56Z"/>
      <path class="cls-8" d="M407.95,561.89l3.9-.57c.87-.12,1.11-.57,1.11-1.08,0-1.41-.93-2.58-3.12-2.58-1.98,0-3.09,1.23-3.27,2.91l-2.7-.63c.3-2.76,2.79-4.68,5.91-4.68,4.32,0,6,2.46,6,5.28v7.23c0,1.26.12,2.01.18,2.37h-2.76c-.06-.36-.15-.9-.15-1.95-.63,1.02-2.07,2.4-4.65,2.4-2.94,0-4.83-2.04-4.83-4.32,0-2.58,1.89-4.02,4.38-4.38ZM412.96,563.96v-.66l-4.41.66c-1.2.18-2.1.87-2.1,2.16,0,1.08.9,2.1,2.34,2.1,2.31,0,4.17-1.11,4.17-4.26Z"/>
      <path class="cls-8" d="M251.14,595.49c0-7.11,5.28-11.07,10.56-11.07,4.86,0,8.28,2.64,9.36,6.75l-2.73.96c-.81-3.21-3.15-5.01-6.63-5.01-3.87,0-7.56,2.82-7.56,8.37s3.69,8.4,7.56,8.4c3.63,0,5.91-2.19,6.78-5.1l2.61.96c-1.14,3.99-4.5,6.84-9.39,6.84-5.49,0-10.56-3.99-10.56-11.1Z"/>
      <path class="cls-8" d="M274.39,606.14v-21.72h2.82v21.72h-2.82Z"/>
      <path class="cls-8" d="M294.58,602.03c-.81,2.55-3.12,4.56-6.48,4.56-3.87,0-7.26-2.82-7.26-7.71,0-4.53,3.27-7.62,6.9-7.62,4.44,0,6.93,3.06,6.93,7.56,0,.36-.03.72-.06.9h-10.86c.06,2.58,1.92,4.38,4.35,4.38s3.51-1.29,4.05-2.91l2.43.84ZM291.73,597.44c-.06-2.07-1.41-3.69-3.96-3.69-2.37,0-3.81,1.83-3.93,3.69h7.89Z"/>
      <path class="cls-8" d="M301.75,597.89l3.9-.57c.87-.12,1.11-.57,1.11-1.08,0-1.41-.93-2.58-3.12-2.58-1.98,0-3.09,1.23-3.27,2.91l-2.7-.63c.3-2.76,2.79-4.68,5.91-4.68,4.32,0,6,2.46,6,5.28v7.23c0,1.26.12,2.01.18,2.37h-2.76c-.06-.36-.15-.9-.15-1.95-.63,1.02-2.07,2.4-4.65,2.4-2.94,0-4.83-2.04-4.83-4.32,0-2.58,1.89-4.02,4.38-4.38ZM306.76,599.96v-.66l-4.41.66c-1.2.18-2.1.87-2.1,2.16,0,1.08.9,2.1,2.34,2.1,2.31,0,4.17-1.11,4.17-4.26Z"/>
      <path class="cls-8" d="M316.78,606.14h-2.82v-14.43h2.76v2.07c1.05-1.8,2.76-2.49,4.44-2.49,3.45,0,5.16,2.49,5.16,5.7v9.15h-2.82v-8.67c0-2.01-.84-3.63-3.36-3.63-2.22,0-3.36,1.77-3.36,3.96v8.34Z"/>
      <path class="cls-8" d="M332.02,601.49c.18,1.5,1.32,2.7,3.36,2.7,1.59,0,2.46-.9,2.46-1.92,0-.9-.66-1.59-1.86-1.86l-2.46-.54c-2.25-.48-3.6-2.01-3.6-4.05,0-2.46,2.31-4.56,5.13-4.56,3.96,0,5.19,2.58,5.49,3.87l-2.49.93c-.12-.75-.72-2.4-3-2.4-1.44,0-2.4.93-2.4,1.92,0,.87.54,1.5,1.65,1.74l2.34.51c2.61.57,3.99,2.16,3.99,4.29s-1.71,4.47-5.28,4.47c-3.96,0-5.64-2.55-5.88-4.2l2.55-.9Z"/>
      <path class="cls-8" d="M345.76,584.21c1.14,0,2.04.9,2.04,2.04s-.9,2.01-2.04,2.01-2.01-.9-2.01-2.01.9-2.04,2.01-2.04ZM344.38,606.14v-14.43h2.79v14.43h-2.79Z"/>
      <path class="cls-8" d="M354.79,606.14h-2.82v-14.43h2.76v2.07c1.05-1.8,2.76-2.49,4.44-2.49,3.45,0,5.16,2.49,5.16,5.7v9.15h-2.82v-8.67c0-2.01-.84-3.63-3.36-3.63-2.22,0-3.36,1.77-3.36,3.96v8.34Z"/>
      <path class="cls-8" d="M370.51,606.29c.21,2.01,1.74,3.54,3.93,3.54,3.03,0,4.41-1.56,4.41-4.68v-2.07c-.69,1.32-2.25,2.37-4.41,2.37-3.84,0-6.63-2.91-6.63-6.99s2.67-7.02,6.63-7.02c2.22,0,3.72.84,4.44,2.28v-2.01h2.79v13.35c0,3.66-1.8,7.23-7.23,7.23-3.6,0-6.3-2.28-6.66-5.37l2.73-.63ZM378.97,598.46c0-2.79-1.68-4.62-4.11-4.62s-4.17,1.83-4.17,4.62,1.62,4.62,4.17,4.62,4.11-1.83,4.11-4.62Z"/>
    </g>
  </g>
  <g>
    <path class="cls-9" d="M1164.5,388.41h142.4c15.06,0,27.3,12.23,27.3,27.3v318.53c0,15.06-12.23,27.3-27.3,27.3h-142.4c-4.58,0-8.31-3.72-8.31-8.31v-356.5c0-4.58,3.72-8.31,8.31-8.31Z"/>
    <path class="cls-9" d="M1257.66,758.77h-2.08c-1.5,0-2.71-1.21-2.71-2.71s1.21-2.71,2.71-2.71h2.08c1.5,0,2.71,1.21,2.71,2.71s-1.21,2.71-2.71,2.71ZM1234.73,758.77h-2.08c-1.5,0-2.71-1.21-2.71-2.71s1.21-2.71,2.71-2.71h2.08c1.5,0,2.71,1.21,2.71,2.71s-1.21,2.71-2.71,2.71ZM1211.8,758.77h-2.08c-1.5,0-2.71-1.21-2.71-2.71s1.21-2.71,2.71-2.71h2.08c1.5,0,2.71,1.21,2.71,2.71s-1.21,2.71-2.71,2.71ZM1188.87,758.77h-2.08c-1.5,0-2.71-1.21-2.71-2.71s1.21-2.71,2.71-2.71h2.08c1.5,0,2.71,1.21,2.71,2.71s-1.21,2.71-2.71,2.71ZM1165.94,758.77h-2.08c-1.5,0-2.71-1.21-2.71-2.71s1.21-2.71,2.71-2.71h2.08c1.5,0,2.71,1.21,2.71,2.71s-1.21,2.71-2.71,2.71ZM1143.01,758.77h-2.08c-1.5,0-2.71-1.21-2.71-2.71s1.21-2.71,2.71-2.71h2.08c1.5,0,2.71,1.21,2.71,2.71s-1.21,2.71-2.71,2.71ZM1120.08,758.77h-2.08c-1.5,0-2.71-1.21-2.71-2.71s1.21-2.71,2.71-2.71h2.08c1.5,0,2.71,1.21,2.71,2.71s-1.21,2.71-2.71,2.71ZM1097.15,758.77h-2.08c-1.5,0-2.71-1.21-2.71-2.71s1.21-2.71,2.71-2.71h2.08c1.5,0,2.71,1.21,2.71,2.71s-1.21,2.71-2.71,2.71ZM1074.21,758.77h-2.08c-1.5,0-2.71-1.21-2.71-2.71s1.21-2.71,2.71-2.71h2.08c1.5,0,2.71,1.21,2.71,2.71s-1.21,2.71-2.71,2.71ZM1051.28,758.77h-2.08c-1.5,0-2.71-1.21-2.71-2.71s1.21-2.71,2.71-2.71h2.08c1.5,0,2.71,1.21,2.71,2.71s-1.21,2.71-2.71,2.71ZM1028.36,758.7c-.06,0-.13,0-.19,0-.76-.05-1.52-.13-2.27-.24-1.48-.21-2.51-1.59-2.3-3.07.21-1.48,1.59-2.51,3.07-2.3.62.09,1.25.16,1.87.2,1.49.1,2.62,1.4,2.52,2.89-.1,1.43-1.29,2.52-2.7,2.52ZM1265.34,757.71c-1.18,0-2.27-.78-2.61-1.98-.41-1.44.43-2.94,1.87-3.34.61-.17,1.21-.36,1.79-.58,1.41-.51,2.96.22,3.47,1.62.51,1.41-.22,2.96-1.62,3.47-.71.26-1.44.49-2.17.7-.25.07-.49.1-.74.1ZM1008.52,748.5c-.78,0-1.55-.33-2.09-.98-.48-.58-.95-1.19-1.39-1.81-.87-1.22-.58-2.91.64-3.78,1.22-.87,2.91-.58,3.78.64.36.51.75,1.01,1.15,1.49.95,1.15.79,2.86-.36,3.82-.51.42-1.12.62-1.73.62ZM1282.68,743.69c-.43,0-.86-.1-1.27-.32-1.32-.7-1.83-2.34-1.13-3.66.29-.55.57-1.12.82-1.7.6-1.37,2.2-2,3.57-1.4,1.37.6,2,2.2,1.4,3.57-.3.7-.64,1.39-.99,2.06-.49.92-1.43,1.44-2.4,1.44ZM1002.03,727.1c-1.5,0-2.71-1.21-2.71-2.71v-2.08c0-1.5,1.21-2.71,2.71-2.71s2.71,1.21,2.71,2.71v2.08c0,1.5-1.21,2.71-2.71,2.71ZM1285.96,721.29c-1.5,0-2.71-1.21-2.71-2.71v-2.08c0-1.5,1.21-2.71,2.71-2.71s2.71,1.21,2.71,2.71v2.08c0,1.5-1.21,2.71-2.71,2.71ZM1002.03,704.17c-1.5,0-2.71-1.21-2.71-2.71v-2.08c0-1.5,1.21-2.71,2.71-2.71s2.71,1.21,2.71,2.71v2.08c0,1.5-1.21,2.71-2.71,2.71ZM1285.96,698.36c-1.5,0-2.71-1.21-2.71-2.71v-2.08c0-1.5,1.21-2.71,2.71-2.71s2.71,1.21,2.71,2.71v2.08c0,1.5-1.21,2.71-2.71,2.71ZM1002.03,681.24c-1.5,0-2.71-1.21-2.71-2.71v-2.08c0-1.5,1.21-2.71,2.71-2.71s2.71,1.21,2.71,2.71v2.08c0,1.5-1.21,2.71-2.71,2.71ZM1285.96,675.43c-1.5,0-2.71-1.21-2.71-2.71v-2.08c0-1.5,1.21-2.71,2.71-2.71s2.71,1.21,2.71,2.71v2.08c0,1.5-1.21,2.71-2.71,2.71ZM1002.03,658.31c-1.5,0-2.71-1.21-2.71-2.71v-2.08c0-1.5,1.21-2.71,2.71-2.71s2.71,1.21,2.71,2.71v2.08c0,1.5-1.21,2.71-2.71,2.71ZM1285.96,652.5c-1.5,0-2.71-1.21-2.71-2.71v-2.08c0-1.5,1.21-2.71,2.71-2.71s2.71,1.21,2.71,2.71v2.08c0,1.5-1.21,2.71-2.71,2.71ZM1002.03,635.38c-1.5,0-2.71-1.21-2.71-2.71v-2.08c0-1.5,1.21-2.71,2.71-2.71s2.71,1.21,2.71,2.71v2.08c0,1.5-1.21,2.71-2.71,2.71ZM1285.96,629.57c-1.5,0-2.71-1.21-2.71-2.71v-2.08c0-1.5,1.21-2.71,2.71-2.71s2.71,1.21,2.71,2.71v2.08c0,1.5-1.21,2.71-2.71,2.71ZM1002.03,612.45c-1.5,0-2.71-1.21-2.71-2.71v-2.08c0-1.5,1.21-2.71,2.71-2.71s2.71,1.21,2.71,2.71v2.08c0,1.5-1.21,2.71-2.71,2.71ZM1285.96,606.64c-1.5,0-2.71-1.21-2.71-2.71v-2.08c0-1.5,1.21-2.71,2.71-2.71s2.71,1.21,2.71,2.71v2.08c0,1.5-1.21,2.71-2.71,2.71ZM1002.03,589.52c-1.5,0-2.71-1.21-2.71-2.71v-2.08c0-1.5,1.21-2.71,2.71-2.71s2.71,1.21,2.71,2.71v2.08c0,1.5-1.21,2.71-2.71,2.71ZM1285.96,583.71c-1.5,0-2.71-1.21-2.71-2.71v-2.08c0-1.5,1.21-2.71,2.71-2.71s2.71,1.21,2.71,2.71v2.08c0,1.5-1.21,2.71-2.71,2.71ZM1002.03,566.59c-1.5,0-2.71-1.21-2.71-2.71v-2.08c0-1.5,1.21-2.71,2.71-2.71s2.71,1.21,2.71,2.71v2.08c0,1.5-1.21,2.71-2.71,2.71ZM1285.96,560.78c-1.5,0-2.71-1.21-2.71-2.71v-2.08c0-1.5,1.21-2.71,2.71-2.71s2.71,1.21,2.71,2.71v2.08c0,1.5-1.21,2.71-2.71,2.71ZM1002.03,543.66c-1.5,0-2.71-1.21-2.71-2.71v-2.08c0-1.5,1.21-2.71,2.71-2.71s2.71,1.21,2.71,2.71v2.08c0,1.5-1.21,2.71-2.71,2.71ZM1285.96,537.85c-1.5,0-2.71-1.21-2.71-2.71v-2.08c0-1.5,1.21-2.71,2.71-2.71s2.71,1.21,2.71,2.71v2.08c0,1.5-1.21,2.71-2.71,2.71ZM1002.03,520.72c-1.5,0-2.71-1.21-2.71-2.71v-2.08c0-1.5,1.21-2.71,2.71-2.71s2.71,1.21,2.71,2.71v2.08c0,1.5-1.21,2.71-2.71,2.71ZM1285.96,514.92c-1.5,0-2.71-1.21-2.71-2.71v-2.08c0-1.5,1.21-2.71,2.71-2.71s2.71,1.21,2.71,2.71v2.08c0,1.5-1.21,2.71-2.71,2.71ZM1002.03,497.79c-1.5,0-2.71-1.21-2.71-2.71v-2.08c0-1.5,1.21-2.71,2.71-2.71s2.71,1.21,2.71,2.71v2.08c0,1.5-1.21,2.71-2.71,2.71ZM1285.96,491.99c-1.5,0-2.71-1.21-2.71-2.71v-2.08c0-1.5,1.21-2.71,2.71-2.71s2.71,1.21,2.71,2.71v2.08c0,1.5-1.21,2.71-2.71,2.71ZM1002.03,474.86c-1.5,0-2.71-1.21-2.71-2.71v-2.08c0-1.5,1.21-2.71,2.71-2.71s2.71,1.21,2.71,2.71v2.08c0,1.5-1.21,2.71-2.71,2.71ZM1285.96,469.06c-1.5,0-2.71-1.21-2.71-2.71v-2.08c0-1.5,1.21-2.71,2.71-2.71s2.71,1.21,2.71,2.71v2.08c0,1.5-1.21,2.71-2.71,2.71ZM1002.03,451.93c-1.5,0-2.71-1.21-2.71-2.71v-2.08c0-1.5,1.21-2.71,2.71-2.71s2.71,1.21,2.71,2.71v2.08c0,1.5-1.21,2.71-2.71,2.71ZM1285.96,446.12c-1.5,0-2.71-1.21-2.71-2.71v-2.08c0-1.5,1.21-2.71,2.71-2.71s2.71,1.21,2.71,2.71v2.08c0,1.5-1.21,2.71-2.71,2.71ZM1002.03,429c-1.5,0-2.71-1.21-2.71-2.71v-2.08c0-1.5,1.21-2.71,2.71-2.71s2.71,1.21,2.71,2.71v2.08c0,1.5-1.21,2.71-2.71,2.71ZM1285.96,423.19c-1.5,0-2.71-1.21-2.71-2.71v-.52c0-.47-.01-.94-.04-1.41-.08-1.49,1.06-2.77,2.56-2.85,1.49-.08,2.77,1.06,2.85,2.56.03.57.05,1.14.05,1.71v.52c0,1.5-1.21,2.71-2.71,2.71ZM1006.75,407.01c-.52,0-1.04-.15-1.5-.45-1.25-.83-1.58-2.51-.75-3.76.42-.63.87-1.25,1.33-1.85.92-1.18,2.62-1.39,3.8-.48,1.18.92,1.4,2.62.48,3.8-.38.49-.75,1.01-1.1,1.53-.52.78-1.38,1.21-2.26,1.21ZM1277.54,402.54c-.69,0-1.38-.26-1.91-.78-.44-.44-.91-.87-1.39-1.27-1.14-.97-1.28-2.68-.3-3.82.97-1.14,2.68-1.27,3.82-.3.58.49,1.14,1.01,1.68,1.54,1.06,1.05,1.07,2.77.02,3.83-.53.54-1.23.8-1.93.8ZM1025.42,394.8c-1.29,0-2.44-.93-2.67-2.24-.26-1.47.73-2.88,2.2-3.14.75-.13,1.51-.24,2.26-.31,1.49-.15,2.82.94,2.96,2.43.15,1.49-.94,2.82-2.43,2.96-.62.06-1.25.15-1.86.26-.16.03-.32.04-.47.04ZM1256.79,394.38h-2.08c-1.5,0-2.71-1.21-2.71-2.71s1.21-2.71,2.71-2.71h2.08c1.5,0,2.71,1.21,2.71,2.71s-1.21,2.71-2.71,2.71ZM1233.85,394.38h-2.08c-1.5,0-2.71-1.21-2.71-2.71s1.21-2.71,2.71-2.71h2.08c1.5,0,2.71,1.21,2.71,2.71s-1.21,2.71-2.71,2.71ZM1210.92,394.38h-2.08c-1.5,0-2.71-1.21-2.71-2.71s1.21-2.71,2.71-2.71h2.08c1.5,0,2.71,1.21,2.71,2.71s-1.21,2.71-2.71,2.71ZM1187.99,394.38h-2.08c-1.5,0-2.71-1.21-2.71-2.71s1.21-2.71,2.71-2.71h2.08c1.5,0,2.71,1.21,2.71,2.71s-1.21,2.71-2.71,2.71ZM1165.06,394.38h-2.08c-1.5,0-2.71-1.21-2.71-2.71s1.21-2.71,2.71-2.71h2.08c1.5,0,2.71,1.21,2.71,2.71s-1.21,2.71-2.71,2.71ZM1142.13,394.38h-2.08c-1.5,0-2.71-1.21-2.71-2.71s1.21-2.71,2.71-2.71h2.08c1.5,0,2.71,1.21,2.71,2.71s-1.21,2.71-2.71,2.71ZM1119.2,394.38h-2.08c-1.5,0-2.71-1.21-2.71-2.71s1.21-2.71,2.71-2.71h2.08c1.5,0,2.71,1.21,2.71,2.71s-1.21,2.71-2.71,2.71ZM1096.27,394.38h-2.08c-1.5,0-2.71-1.21-2.71-2.71s1.21-2.71,2.71-2.71h2.08c1.5,0,2.71,1.21,2.71,2.71s-1.21,2.71-2.71,2.71ZM1073.34,394.38h-2.08c-1.5,0-2.71-1.21-2.71-2.71s1.21-2.71,2.71-2.71h2.08c1.5,0,2.71,1.21,2.71,2.71s-1.21,2.71-2.71,2.71ZM1050.41,394.38h-2.08c-1.5,0-2.71-1.21-2.71-2.71s1.21-2.71,2.71-2.71h2.08c1.5,0,2.71,1.21,2.71,2.71s-1.21,2.71-2.71,2.71Z"/>
    <rect class="cls-7" x="1029.47" y="416.01" width="256.44" height="315.69" rx="21.26" ry="21.26"/>
    <path class="cls-2" d="M1277.02,447.91v260.78c0,12.71-10.3,23.01-23.01,23.01h-201.54c-12.7,0-23-10.3-23-23.01v-260.78c0-12.71,10.3-23.01,23-23.01h201.54c12.71,0,23.01,10.3,23.01,23.01Z"/>
    <g>
      <path class="cls-8" d="M1078.92,548.87h3.09l-8.19,21.27h-2.91l-8.01-21.27h3.12l6.42,17.49,6.48-17.49Z"/>
      <path class="cls-8" d="M1086.54,561.89l3.9-.57c.87-.12,1.11-.57,1.11-1.08,0-1.41-.93-2.58-3.12-2.58-1.98,0-3.09,1.23-3.27,2.91l-2.7-.63c.3-2.76,2.79-4.68,5.91-4.68,4.32,0,6,2.46,6,5.28v7.23c0,1.26.12,2.01.18,2.37h-2.76c-.06-.36-.15-.9-.15-1.95-.63,1.02-2.07,2.4-4.65,2.4-2.94,0-4.83-2.04-4.83-4.32,0-2.58,1.89-4.02,4.38-4.38ZM1091.55,563.96v-.66l-4.41.66c-1.2.18-2.1.87-2.1,2.16,0,1.08.9,2.1,2.34,2.1,2.31,0,4.17-1.11,4.17-4.26Z"/>
      <path class="cls-8" d="M1098.75,570.14v-21.72h2.82v21.72h-2.82Z"/>
      <path class="cls-8" d="M1111.47,570.59c-3.36,0-5.4-2.52-5.4-5.79v-9.09h2.82v8.67c0,1.98.9,3.72,3.27,3.72s3.42-1.5,3.42-3.69v-8.7h2.82v11.76c0,1.14.09,2.16.15,2.67h-2.7c-.06-.33-.12-1.14-.12-1.74-.78,1.5-2.58,2.19-4.26,2.19Z"/>
      <path class="cls-8" d="M1126.68,561.89l3.9-.57c.87-.12,1.11-.57,1.11-1.08,0-1.41-.93-2.58-3.12-2.58-1.98,0-3.09,1.23-3.27,2.91l-2.7-.63c.3-2.76,2.79-4.68,5.91-4.68,4.32,0,6,2.46,6,5.28v7.23c0,1.26.12,2.01.18,2.37h-2.76c-.06-.36-.15-.9-.15-1.95-.63,1.02-2.07,2.4-4.65,2.4-2.94,0-4.83-2.04-4.83-4.32,0-2.58,1.89-4.02,4.38-4.38ZM1131.69,563.96v-.66l-4.41.66c-1.2.18-2.1.87-2.1,2.16,0,1.08.9,2.1,2.34,2.1,2.31,0,4.17-1.11,4.17-4.26Z"/>
      <path class="cls-8" d="M1142.67,555.71h3.12v2.55h-3.12v7.5c0,1.32.54,1.98,2.01,1.98.36,0,.87-.06,1.11-.12v2.4c-.24.09-.96.27-1.92.27-2.46,0-4.02-1.5-4.02-4.11v-7.92h-2.76v-2.55h.78c1.56,0,2.22-.96,2.22-2.22v-2.34h2.58v4.56Z"/>
      <path class="cls-8" d="M1150.92,548.21c1.14,0,2.04.9,2.04,2.04s-.9,2.01-2.04,2.01-2.01-.9-2.01-2.01.9-2.04,2.01-2.04ZM1149.54,570.14v-14.43h2.79v14.43h-2.79Z"/>
      <path class="cls-8" d="M1170.69,562.91c0,4.41-3.06,7.68-7.38,7.68s-7.38-3.27-7.38-7.68,3.06-7.65,7.38-7.65,7.38,3.27,7.38,7.65ZM1167.81,562.91c0-3.33-2.1-5.13-4.5-5.13s-4.5,1.8-4.5,5.13,2.1,5.16,4.5,5.16,4.5-1.8,4.5-5.16Z"/>
      <path class="cls-8" d="M1177.11,570.14h-2.82v-14.43h2.76v2.07c1.05-1.8,2.76-2.49,4.44-2.49,3.45,0,5.16,2.49,5.16,5.7v9.15h-2.82v-8.67c0-2.01-.84-3.63-3.36-3.63-2.22,0-3.36,1.77-3.36,3.96v8.34Z"/>
      <path class="cls-8" d="M1065.3,606.14v-21.27h12.93v2.73h-9.99v6.54h9.06v2.76h-9.06v6.51h9.99v2.73h-12.93Z"/>
      <path class="cls-8" d="M1085.7,598.79l-5.19-7.08h3.42l3.54,5.07,3.48-5.07h3.33l-5.13,7.08c.87,1.17,4.44,6.18,5.31,7.35h-3.39l-3.72-5.31-3.66,5.31h-3.36l5.37-7.35Z"/>
      <path class="cls-8" d="M1098.54,598.91c0,3.3,2.07,5.07,4.41,5.07,2.7,0,3.69-1.83,4.02-2.97l2.49,1.08c-.69,2.07-2.76,4.5-6.51,4.5-4.2,0-7.29-3.3-7.29-7.68s3.15-7.65,7.26-7.65c3.84,0,5.82,2.4,6.42,4.59l-2.55,1.08c-.36-1.41-1.41-3.06-3.87-3.06-2.28,0-4.38,1.68-4.38,5.04Z"/>
      <path class="cls-8" d="M1125.18,602.03c-.81,2.55-3.12,4.56-6.48,4.56-3.87,0-7.26-2.82-7.26-7.71,0-4.53,3.27-7.62,6.9-7.62,4.44,0,6.93,3.06,6.93,7.56,0,.36-.03.72-.06.9h-10.86c.06,2.58,1.92,4.38,4.35,4.38s3.51-1.29,4.05-2.91l2.43.84ZM1122.33,597.44c-.06-2.07-1.41-3.69-3.96-3.69-2.37,0-3.81,1.83-3.93,3.69h7.89Z"/>
      <path class="cls-8" d="M1128.87,611.84v-20.13h2.73v2.25c.78-1.44,2.49-2.58,4.83-2.58,4.32,0,6.63,3.33,6.63,7.53s-2.49,7.62-6.72,7.62c-2.22,0-3.9-1.05-4.68-2.34v7.65h-2.79ZM1135.92,593.87c-2.58,0-4.29,2.16-4.29,5.04s1.71,5.1,4.29,5.1,4.26-2.13,4.26-5.1-1.62-5.04-4.26-5.04Z"/>
      <path class="cls-8" d="M1150.29,591.71h3.12v2.55h-3.12v7.5c0,1.32.54,1.98,2.01,1.98.36,0,.87-.06,1.11-.12v2.4c-.24.09-.96.27-1.92.27-2.46,0-4.02-1.5-4.02-4.11v-7.92h-2.76v-2.55h.78c1.56,0,2.22-.96,2.22-2.22v-2.34h2.58v4.56Z"/>
      <path class="cls-8" d="M1158.54,584.21c1.14,0,2.04.9,2.04,2.04s-.9,2.01-2.04,2.01-2.01-.9-2.01-2.01.9-2.04,2.01-2.04ZM1157.16,606.14v-14.43h2.79v14.43h-2.79Z"/>
      <path class="cls-8" d="M1178.31,598.91c0,4.41-3.06,7.68-7.38,7.68s-7.38-3.27-7.38-7.68,3.06-7.65,7.38-7.65,7.38,3.27,7.38,7.65ZM1175.43,598.91c0-3.33-2.1-5.13-4.5-5.13s-4.5,1.8-4.5,5.13,2.1,5.16,4.5,5.16,4.5-1.8,4.5-5.16Z"/>
      <path class="cls-8" d="M1184.73,606.14h-2.82v-14.43h2.76v2.07c1.05-1.8,2.76-2.49,4.44-2.49,3.45,0,5.16,2.49,5.16,5.7v9.15h-2.82v-8.67c0-2.01-.84-3.63-3.36-3.63-2.22,0-3.36,1.77-3.36,3.96v8.34Z"/>
      <path class="cls-8" d="M1085.37,642.14v-16.56l-7.26,16.56h-2.7l-7.2-16.56v16.56h-2.91v-21.27h3.99l7.5,17.31,7.56-17.31h3.93v21.27h-2.91Z"/>
      <path class="cls-8" d="M1096.71,633.89l3.9-.57c.87-.12,1.11-.57,1.11-1.08,0-1.41-.93-2.58-3.12-2.58-1.98,0-3.09,1.23-3.27,2.91l-2.7-.63c.3-2.76,2.79-4.68,5.91-4.68,4.32,0,6,2.46,6,5.28v7.23c0,1.26.12,2.01.18,2.37h-2.76c-.06-.36-.15-.9-.15-1.95-.63,1.02-2.07,2.4-4.65,2.4-2.94,0-4.83-2.04-4.83-4.32,0-2.58,1.89-4.02,4.38-4.38ZM1101.72,635.96v-.66l-4.41.66c-1.2.18-2.1.87-2.1,2.16,0,1.08.9,2.1,2.34,2.1,2.31,0,4.17-1.11,4.17-4.26Z"/>
      <path class="cls-8" d="M1111.74,642.14h-2.82v-14.43h2.76v2.07c1.05-1.8,2.76-2.49,4.44-2.49,3.45,0,5.16,2.49,5.16,5.7v9.15h-2.82v-8.67c0-2.01-.84-3.63-3.36-3.63-2.22,0-3.36,1.77-3.36,3.96v8.34Z"/>
      <path class="cls-8" d="M1129.26,633.89l3.9-.57c.87-.12,1.11-.57,1.11-1.08,0-1.41-.93-2.58-3.12-2.58-1.98,0-3.09,1.23-3.27,2.91l-2.7-.63c.3-2.76,2.79-4.68,5.91-4.68,4.32,0,6,2.46,6,5.28v7.23c0,1.26.12,2.01.18,2.37h-2.76c-.06-.36-.15-.9-.15-1.95-.63,1.02-2.07,2.4-4.65,2.4-2.94,0-4.83-2.04-4.83-4.32,0-2.58,1.89-4.02,4.38-4.38ZM1134.27,635.96v-.66l-4.41.66c-1.2.18-2.1.87-2.1,2.16,0,1.08.9,2.1,2.34,2.1,2.31,0,4.17-1.11,4.17-4.26Z"/>
      <path class="cls-8" d="M1143.15,642.29c.21,2.01,1.74,3.54,3.93,3.54,3.03,0,4.41-1.56,4.41-4.68v-2.07c-.69,1.32-2.25,2.37-4.41,2.37-3.84,0-6.63-2.91-6.63-6.99s2.67-7.02,6.63-7.02c2.22,0,3.72.84,4.44,2.28v-2.01h2.79v13.35c0,3.66-1.8,7.23-7.23,7.23-3.6,0-6.3-2.28-6.66-5.37l2.73-.63ZM1151.61,634.46c0-2.79-1.68-4.62-4.11-4.62s-4.17,1.83-4.17,4.62,1.62,4.62,4.17,4.62,4.11-1.83,4.11-4.62Z"/>
      <path class="cls-8" d="M1171.38,638.03c-.81,2.55-3.12,4.56-6.48,4.56-3.87,0-7.26-2.82-7.26-7.71,0-4.53,3.27-7.62,6.9-7.62,4.44,0,6.93,3.06,6.93,7.56,0,.36-.03.72-.06.9h-10.86c.06,2.58,1.92,4.38,4.35,4.38s3.51-1.29,4.05-2.91l2.43.84ZM1168.53,633.44c-.06-2.07-1.41-3.69-3.96-3.69-2.37,0-3.81,1.83-3.93,3.69h7.89Z"/>
      <path class="cls-8" d="M1175.07,642.14v-14.43h2.7v1.92c.9-1.59,2.7-2.34,4.38-2.34,1.8,0,3.54.87,4.32,2.73,1.14-2.07,3-2.73,4.83-2.73,2.52,0,4.98,1.71,4.98,5.49v9.36h-2.79v-9.06c0-1.89-.93-3.3-3.06-3.3-1.98,0-3.33,1.56-3.33,3.63v8.73h-2.82v-9.06c0-1.86-.9-3.3-3.06-3.3-2.01,0-3.36,1.5-3.36,3.66v8.7h-2.79Z"/>
      <path class="cls-8" d="M1213.35,638.03c-.81,2.55-3.12,4.56-6.48,4.56-3.87,0-7.26-2.82-7.26-7.71,0-4.53,3.27-7.62,6.9-7.62,4.44,0,6.93,3.06,6.93,7.56,0,.36-.03.72-.06.9h-10.86c.06,2.58,1.92,4.38,4.35,4.38s3.51-1.29,4.05-2.91l2.43.84ZM1210.5,633.44c-.06-2.07-1.41-3.69-3.96-3.69-2.37,0-3.81,1.83-3.93,3.69h7.89Z"/>
      <path class="cls-8" d="M1219.86,642.14h-2.82v-14.43h2.76v2.07c1.05-1.8,2.76-2.49,4.44-2.49,3.45,0,5.16,2.49,5.16,5.7v9.15h-2.82v-8.67c0-2.01-.84-3.63-3.36-3.63-2.22,0-3.36,1.77-3.36,3.96v8.34Z"/>
      <path class="cls-8" d="M1237.68,627.71h3.12v2.55h-3.12v7.5c0,1.32.54,1.98,2.01,1.98.36,0,.87-.06,1.11-.12v2.4c-.24.09-.96.27-1.92.27-2.46,0-4.02-1.5-4.02-4.11v-7.92h-2.76v-2.55h.78c1.56,0,2.22-.96,2.22-2.22v-2.34h2.58v4.56Z"/>
    </g>
  </g>
  <g>
    <path class="cls-1" d="M1670.36,889.77h-2.08c-1.5,0-2.71-1.21-2.71-2.71s1.21-2.71,2.71-2.71h2.08c1.5,0,2.71,1.21,2.71,2.71s-1.21,2.71-2.71,2.71ZM1647.43,889.77h-2.08c-1.5,0-2.71-1.21-2.71-2.71s1.21-2.71,2.71-2.71h2.08c1.5,0,2.71,1.21,2.71,2.71s-1.21,2.71-2.71,2.71ZM1624.49,889.77h-2.08c-1.5,0-2.71-1.21-2.71-2.71s1.21-2.71,2.71-2.71h2.08c1.5,0,2.71,1.21,2.71,2.71s-1.21,2.71-2.71,2.71ZM1601.56,889.77h-2.08c-1.5,0-2.71-1.21-2.71-2.71s1.21-2.71,2.71-2.71h2.08c1.5,0,2.71,1.21,2.71,2.71s-1.21,2.71-2.71,2.71ZM1578.63,889.77h-2.08c-1.5,0-2.71-1.21-2.71-2.71s1.21-2.71,2.71-2.71h2.08c1.5,0,2.71,1.21,2.71,2.71s-1.21,2.71-2.71,2.71ZM1555.7,889.77h-2.08c-1.5,0-2.71-1.21-2.71-2.71s1.21-2.71,2.71-2.71h2.08c1.5,0,2.71,1.21,2.71,2.71s-1.21,2.71-2.71,2.71ZM1532.77,889.77h-2.08c-1.5,0-2.71-1.21-2.71-2.71s1.21-2.71,2.71-2.71h2.08c1.5,0,2.71,1.21,2.71,2.71s-1.21,2.71-2.71,2.71ZM1509.84,889.77h-2.08c-1.5,0-2.71-1.21-2.71-2.71s1.21-2.71,2.71-2.71h2.08c1.5,0,2.71,1.21,2.71,2.71s-1.21,2.71-2.71,2.71ZM1486.91,889.77h-2.08c-1.5,0-2.71-1.21-2.71-2.71s1.21-2.71,2.71-2.71h2.08c1.5,0,2.71,1.21,2.71,2.71s-1.21,2.71-2.71,2.71ZM1463.98,889.77h-2.08c-1.5,0-2.71-1.21-2.71-2.71s1.21-2.71,2.71-2.71h2.08c1.5,0,2.71,1.21,2.71,2.71s-1.21,2.71-2.71,2.71ZM1441.05,889.7c-.06,0-.13,0-.19,0-.76-.05-1.52-.13-2.27-.24-1.48-.21-2.51-1.59-2.3-3.07.21-1.48,1.59-2.51,3.07-2.3.62.09,1.25.16,1.87.2,1.49.1,2.62,1.4,2.52,2.89-.1,1.43-1.29,2.52-2.7,2.52ZM1678.03,888.71c-1.18,0-2.27-.78-2.61-1.98-.41-1.44.43-2.94,1.87-3.34.61-.17,1.21-.36,1.79-.58,1.41-.51,2.96.22,3.47,1.62.51,1.41-.22,2.96-1.62,3.47-.71.26-1.44.49-2.17.7-.25.07-.49.1-.74.1ZM1421.22,879.5c-.78,0-1.55-.33-2.09-.98-.48-.58-.95-1.19-1.39-1.81-.87-1.22-.58-2.91.64-3.78,1.22-.87,2.91-.58,3.78.64.36.51.75,1.01,1.15,1.49.95,1.15.79,2.86-.36,3.82-.51.42-1.12.62-1.73.62ZM1695.38,874.69c-.43,0-.86-.1-1.27-.32-1.32-.7-1.83-2.34-1.13-3.66.29-.55.57-1.12.82-1.7.6-1.37,2.2-2,3.57-1.4,1.37.6,2,2.2,1.4,3.57-.3.7-.64,1.39-.99,2.06-.49.92-1.43,1.44-2.4,1.44ZM1414.73,858.1c-1.5,0-2.71-1.21-2.71-2.71v-2.08c0-1.5,1.21-2.71,2.71-2.71s2.71,1.21,2.71,2.71v2.08c0,1.5-1.21,2.71-2.71,2.71ZM1698.65,852.29c-1.5,0-2.71-1.21-2.71-2.71v-2.08c0-1.5,1.21-2.71,2.71-2.71s2.71,1.21,2.71,2.71v2.08c0,1.5-1.21,2.71-2.71,2.71ZM1414.73,835.17c-1.5,0-2.71-1.21-2.71-2.71v-2.08c0-1.5,1.21-2.71,2.71-2.71s2.71,1.21,2.71,2.71v2.08c0,1.5-1.21,2.71-2.71,2.71ZM1698.65,829.36c-1.5,0-2.71-1.21-2.71-2.71v-2.08c0-1.5,1.21-2.71,2.71-2.71s2.71,1.21,2.71,2.71v2.08c0,1.5-1.21,2.71-2.71,2.71ZM1414.73,812.24c-1.5,0-2.71-1.21-2.71-2.71v-2.08c0-1.5,1.21-2.71,2.71-2.71s2.71,1.21,2.71,2.71v2.08c0,1.5-1.21,2.71-2.71,2.71ZM1698.65,806.43c-1.5,0-2.71-1.21-2.71-2.71v-2.08c0-1.5,1.21-2.71,2.71-2.71s2.71,1.21,2.71,2.71v2.08c0,1.5-1.21,2.71-2.71,2.71ZM1414.73,789.31c-1.5,0-2.71-1.21-2.71-2.71v-2.08c0-1.5,1.21-2.71,2.71-2.71s2.71,1.21,2.71,2.71v2.08c0,1.5-1.21,2.71-2.71,2.71ZM1698.65,783.5c-1.5,0-2.71-1.21-2.71-2.71v-2.08c0-1.5,1.21-2.71,2.71-2.71s2.71,1.21,2.71,2.71v2.08c0,1.5-1.21,2.71-2.71,2.71ZM1414.73,766.38c-1.5,0-2.71-1.21-2.71-2.71v-2.08c0-1.5,1.21-2.71,2.71-2.71s2.71,1.21,2.71,2.71v2.08c0,1.5-1.21,2.71-2.71,2.71ZM1698.65,760.57c-1.5,0-2.71-1.21-2.71-2.71v-2.08c0-1.5,1.21-2.71,2.71-2.71s2.71,1.21,2.71,2.71v2.08c0,1.5-1.21,2.71-2.71,2.71ZM1414.73,743.45c-1.5,0-2.71-1.21-2.71-2.71v-2.08c0-1.5,1.21-2.71,2.71-2.71s2.71,1.21,2.71,2.71v2.08c0,1.5-1.21,2.71-2.71,2.71ZM1698.65,737.64c-1.5,0-2.71-1.21-2.71-2.71v-2.08c0-1.5,1.21-2.71,2.71-2.71s2.71,1.21,2.71,2.71v2.08c0,1.5-1.21,2.71-2.71,2.71ZM1414.73,720.52c-1.5,0-2.71-1.21-2.71-2.71v-2.08c0-1.5,1.21-2.71,2.71-2.71s2.71,1.21,2.71,2.71v2.08c0,1.5-1.21,2.71-2.71,2.71ZM1698.65,714.71c-1.5,0-2.71-1.21-2.71-2.71v-2.08c0-1.5,1.21-2.71,2.71-2.71s2.71,1.21,2.71,2.71v2.08c0,1.5-1.21,2.71-2.71,2.71ZM1414.73,697.59c-1.5,0-2.71-1.21-2.71-2.71v-2.08c0-1.5,1.21-2.71,2.71-2.71s2.71,1.21,2.71,2.71v2.08c0,1.5-1.21,2.71-2.71,2.71ZM1698.65,691.78c-1.5,0-2.71-1.21-2.71-2.71v-2.08c0-1.5,1.21-2.71,2.71-2.71s2.71,1.21,2.71,2.71v2.08c0,1.5-1.21,2.71-2.71,2.71ZM1414.73,674.66c-1.5,0-2.71-1.21-2.71-2.71v-2.08c0-1.5,1.21-2.71,2.71-2.71s2.71,1.21,2.71,2.71v2.08c0,1.5-1.21,2.71-2.71,2.71ZM1698.65,668.85c-1.5,0-2.71-1.21-2.71-2.71v-2.08c0-1.5,1.21-2.71,2.71-2.71s2.71,1.21,2.71,2.71v2.08c0,1.5-1.21,2.71-2.71,2.71ZM1414.73,651.72c-1.5,0-2.71-1.21-2.71-2.71v-2.08c0-1.5,1.21-2.71,2.71-2.71s2.71,1.21,2.71,2.71v2.08c0,1.5-1.21,2.71-2.71,2.71ZM1698.65,645.92c-1.5,0-2.71-1.21-2.71-2.71v-2.08c0-1.5,1.21-2.71,2.71-2.71s2.71,1.21,2.71,2.71v2.08c0,1.5-1.21,2.71-2.71,2.71ZM1414.73,628.79c-1.5,0-2.71-1.21-2.71-2.71v-2.08c0-1.5,1.21-2.71,2.71-2.71s2.71,1.21,2.71,2.71v2.08c0,1.5-1.21,2.71-2.71,2.71ZM1698.65,622.99c-1.5,0-2.71-1.21-2.71-2.71v-2.08c0-1.5,1.21-2.71,2.71-2.71s2.71,1.21,2.71,2.71v2.08c0,1.5-1.21,2.71-2.71,2.71ZM1414.73,605.86c-1.5,0-2.71-1.21-2.71-2.71v-2.08c0-1.5,1.21-2.71,2.71-2.71s2.71,1.21,2.71,2.71v2.08c0,1.5-1.21,2.71-2.71,2.71ZM1698.65,600.06c-1.5,0-2.71-1.21-2.71-2.71v-2.08c0-1.5,1.21-2.71,2.71-2.71s2.71,1.21,2.71,2.71v2.08c0,1.5-1.21,2.71-2.71,2.71ZM1414.73,582.93c-1.5,0-2.71-1.21-2.71-2.71v-2.08c0-1.5,1.21-2.71,2.71-2.71s2.71,1.21,2.71,2.71v2.08c0,1.5-1.21,2.71-2.71,2.71ZM1698.65,577.12c-1.5,0-2.71-1.21-2.71-2.71v-2.08c0-1.5,1.21-2.71,2.71-2.71s2.71,1.21,2.71,2.71v2.08c0,1.5-1.21,2.71-2.71,2.71ZM1414.73,560c-1.5,0-2.71-1.21-2.71-2.71v-2.08c0-1.5,1.21-2.71,2.71-2.71s2.71,1.21,2.71,2.71v2.08c0,1.5-1.21,2.71-2.71,2.71ZM1698.65,554.19c-1.5,0-2.71-1.21-2.71-2.71v-.52c0-.47-.01-.94-.04-1.41-.08-1.49,1.06-2.77,2.56-2.85,1.49-.08,2.77,1.06,2.85,2.56.03.57.05,1.14.05,1.71v.52c0,1.5-1.21,2.71-2.71,2.71ZM1419.45,538.01c-.52,0-1.04-.15-1.5-.45-1.25-.83-1.58-2.51-.75-3.76.42-.63.87-1.25,1.33-1.85.92-1.18,2.62-1.39,3.8-.48,1.18.92,1.4,2.62.48,3.8-.38.49-.75,1.01-1.1,1.53-.52.78-1.38,1.21-2.26,1.21ZM1690.24,533.54c-.69,0-1.38-.26-1.91-.78-.44-.44-.91-.87-1.39-1.27-1.14-.97-1.28-2.68-.3-3.82.97-1.14,2.68-1.27,3.82-.3.58.49,1.14,1.01,1.68,1.54,1.06,1.05,1.07,2.77.02,3.83-.53.54-1.23.8-1.93.8ZM1438.11,525.8c-1.29,0-2.44-.93-2.67-2.24-.26-1.47.73-2.88,2.2-3.14.75-.13,1.51-.24,2.26-.31,1.49-.15,2.82.94,2.96,2.43.15,1.49-.94,2.82-2.43,2.96-.62.06-1.25.15-1.86.26-.16.03-.32.04-.47.04ZM1669.48,525.38h-2.08c-1.5,0-2.71-1.21-2.71-2.71s1.21-2.71,2.71-2.71h2.08c1.5,0,2.71,1.21,2.71,2.71s-1.21,2.71-2.71,2.71ZM1646.55,525.38h-2.08c-1.5,0-2.71-1.21-2.71-2.71s1.21-2.71,2.71-2.71h2.08c1.5,0,2.71,1.21,2.71,2.71s-1.21,2.71-2.71,2.71ZM1623.62,525.38h-2.08c-1.5,0-2.71-1.21-2.71-2.71s1.21-2.71,2.71-2.71h2.08c1.5,0,2.71,1.21,2.71,2.71s-1.21,2.71-2.71,2.71ZM1600.69,525.38h-2.08c-1.5,0-2.71-1.21-2.71-2.71s1.21-2.71,2.71-2.71h2.08c1.5,0,2.71,1.21,2.71,2.71s-1.21,2.71-2.71,2.71ZM1577.76,525.38h-2.08c-1.5,0-2.71-1.21-2.71-2.71s1.21-2.71,2.71-2.71h2.08c1.5,0,2.71,1.21,2.71,2.71s-1.21,2.71-2.71,2.71ZM1554.83,525.38h-2.08c-1.5,0-2.71-1.21-2.71-2.71s1.21-2.71,2.71-2.71h2.08c1.5,0,2.71,1.21,2.71,2.71s-1.21,2.71-2.71,2.71ZM1531.9,525.38h-2.08c-1.5,0-2.71-1.21-2.71-2.71s1.21-2.71,2.71-2.71h2.08c1.5,0,2.71,1.21,2.71,2.71s-1.21,2.71-2.71,2.71ZM1508.97,525.38h-2.08c-1.5,0-2.71-1.21-2.71-2.71s1.21-2.71,2.71-2.71h2.08c1.5,0,2.71,1.21,2.71,2.71s-1.21,2.71-2.71,2.71ZM1486.04,525.38h-2.08c-1.5,0-2.71-1.21-2.71-2.71s1.21-2.71,2.71-2.71h2.08c1.5,0,2.71,1.21,2.71,2.71s-1.21,2.71-2.71,2.71ZM1463.1,525.38h-2.08c-1.5,0-2.71-1.21-2.71-2.71s1.21-2.71,2.71-2.71h2.08c1.5,0,2.71,1.21,2.71,2.71s-1.21,2.71-2.71,2.71Z"/>
    <path class="cls-3" d="M1577.2,518.68h142.4c15.06,0,27.3,12.23,27.3,27.3v318.53c0,15.06-12.23,27.3-27.3,27.3h-142.4c-4.58,0-8.31-3.72-8.31-8.31v-356.5c0-4.58,3.72-8.31,8.31-8.31Z"/>
    <rect class="cls-7" x="1442.16" y="547.01" width="256.44" height="315.69" rx="21.26" ry="21.26"/>
    <rect class="cls-2" x="1442.16" y="555.9" width="247.55" height="306.8" rx="23.01" ry="23.01"/>
    <g>
      <path class="cls-8" d="M1503.47,705.2h-9.42l-2.25,5.94h-3.15l8.46-21.27h3.39l8.46,21.27h-3.18l-2.31-5.94ZM1495.1,702.47h7.32l-3.69-9.54-3.63,9.54Z"/>
      <path class="cls-8" d="M1516.16,711.59c-3.36,0-5.4-2.52-5.4-5.79v-9.09h2.82v8.67c0,1.98.9,3.72,3.27,3.72s3.42-1.5,3.42-3.69v-8.7h2.82v11.76c0,1.14.09,2.16.15,2.67h-2.7c-.06-.33-.12-1.14-.12-1.74-.78,1.5-2.58,2.19-4.26,2.19Z"/>
      <path class="cls-8" d="M1537.85,708.95c-.69,1.38-2.22,2.58-4.47,2.58-4.23,0-6.84-3.36-6.84-7.65s2.76-7.56,6.84-7.56c2.55,0,3.93,1.26,4.41,2.43v-9.33h2.79v19.05c0,1.38.12,2.43.15,2.67h-2.73c-.06-.33-.15-1.08-.15-1.95v-.24ZM1533.65,709.04c2.58,0,4.17-2.25,4.17-5.22s-1.56-5.01-4.14-5.01-4.26,2.1-4.26,5.07,1.53,5.16,4.23,5.16Z"/>
      <path class="cls-8" d="M1546.76,689.21c1.14,0,2.04.9,2.04,2.04s-.9,2.01-2.04,2.01-2.01-.9-2.01-2.01.9-2.04,2.01-2.04ZM1545.38,711.14v-14.43h2.79v14.43h-2.79Z"/>
      <path class="cls-8" d="M1556.75,696.71h3.12v2.55h-3.12v7.5c0,1.32.54,1.98,2.01,1.98.36,0,.87-.06,1.11-.12v2.4c-.24.09-.96.27-1.92.27-2.46,0-4.02-1.5-4.02-4.11v-7.92h-2.76v-2.55h.78c1.56,0,2.22-.96,2.22-2.22v-2.34h2.58v4.56Z"/>
      <path class="cls-8" d="M1497.2,738.44h-3.18v8.7h-2.97v-21.27h8.01c4.02,0,6.51,2.82,6.51,6.33,0,3.06-1.95,5.43-5.16,6.03l5.07,8.91h-3.42l-4.86-8.7ZM1498.52,735.8c2.4,0,4.02-1.41,4.02-3.6s-1.62-3.69-4.02-3.69h-4.5v7.29h4.5Z"/>
      <path class="cls-8" d="M1521.29,743.03c-.81,2.55-3.12,4.56-6.48,4.56-3.87,0-7.26-2.82-7.26-7.71,0-4.53,3.27-7.62,6.9-7.62,4.44,0,6.93,3.06,6.93,7.56,0,.36-.03.72-.06.9h-10.86c.06,2.58,1.92,4.38,4.35,4.38s3.51-1.29,4.05-2.91l2.43.84ZM1518.44,738.44c-.06-2.07-1.41-3.69-3.96-3.69-2.37,0-3.81,1.83-3.93,3.69h7.89Z"/>
      <path class="cls-8" d="M1524.98,752.84v-20.13h2.73v2.25c.78-1.44,2.49-2.58,4.83-2.58,4.32,0,6.63,3.33,6.63,7.53s-2.49,7.62-6.72,7.62c-2.22,0-3.9-1.05-4.68-2.34v7.65h-2.79ZM1532.03,734.87c-2.58,0-4.29,2.16-4.29,5.04s1.71,5.1,4.29,5.1,4.26-2.13,4.26-5.1-1.62-5.04-4.26-5.04Z"/>
      <path class="cls-8" d="M1556.32,739.91c0,4.41-3.06,7.68-7.38,7.68s-7.38-3.27-7.38-7.68,3.06-7.65,7.38-7.65,7.38,3.27,7.38,7.65ZM1553.44,739.91c0-3.33-2.1-5.13-4.5-5.13s-4.5,1.8-4.5,5.13,2.1,5.16,4.5,5.16,4.5-1.8,4.5-5.16Z"/>
      <path class="cls-8" d="M1567.93,735.56c-.42-.06-.84-.09-1.23-.09-2.37,0-3.96,1.26-3.96,4.44v7.23h-2.82v-14.43h2.76v2.52c1.05-2.22,2.85-2.76,4.32-2.76.39,0,.78.06.93.09v3Z"/>
      <path class="cls-8" d="M1575.46,732.71h3.12v2.55h-3.12v7.5c0,1.32.54,1.98,2.01,1.98.36,0,.87-.06,1.11-.12v2.4c-.24.09-.96.27-1.92.27-2.46,0-4.02-1.5-4.02-4.11v-7.92h-2.76v-2.55h.78c1.56,0,2.22-.96,2.22-2.22v-2.34h2.58v4.56Z"/>
      <path class="cls-8" d="M1583.68,742.49c.18,1.5,1.32,2.7,3.36,2.7,1.59,0,2.46-.9,2.46-1.92,0-.9-.66-1.59-1.86-1.86l-2.46-.54c-2.25-.48-3.6-2.01-3.6-4.05,0-2.46,2.31-4.56,5.13-4.56,3.96,0,5.19,2.58,5.49,3.87l-2.49.93c-.12-.75-.72-2.4-3-2.4-1.44,0-2.4.93-2.4,1.92,0,.87.54,1.5,1.65,1.74l2.34.51c2.61.57,3.99,2.16,3.99,4.29s-1.71,4.47-5.28,4.47c-3.96,0-5.64-2.55-5.88-4.2l2.55-.9Z"/>
    </g>
  </g>
  <path class="cls-4" d="M655.38,758.98h206.08v70.43c0,13.3-10.79,24.09-24.09,24.09h-181.99c-12.1,0-21.92-9.82-21.92-21.92v-50.68c0-12.1,9.82-21.92,21.92-21.92Z"/>
  <g>
    <g>
      <path class="cls-7" d="M682.72,797.06l-4.55-6.37h4.11c.44.7,2.11,3.09,2.55,3.8l2.52-3.8h3.93l-4.47,6.27,4.63,6.53h-4.06l-2.68-3.93c-.47.7-2.18,3.22-2.63,3.93h-3.9l4.55-6.42Z"/>
      <path class="cls-7" d="M705.5,785.04h3.8l-6.84,18.43h-3.69l-6.81-18.43h3.93l4.81,13.7,4.81-13.7Z"/>
      <path class="cls-7" d="M721.05,799.27h-7.49l-1.53,4.21h-3.8l7.07-18.43h4.16l7.02,18.43h-3.9l-1.53-4.21ZM714.76,795.99h5.1l-2.55-6.97-2.55,6.97Z"/>
      <path class="cls-7" d="M678.88,825.47c0-5.88,4.45-9.62,9.39-9.62s7.72,3.12,8.45,6.11l-3.38,1.07c-.44-1.77-1.87-3.72-5.07-3.72-2.76,0-5.67,1.98-5.67,6.16,0,3.93,2.76,6.08,5.72,6.08,3.15,0,4.68-2.05,5.17-3.77l3.35,1.01c-.7,2.83-3.35,6.27-8.53,6.27s-9.44-3.72-9.44-9.59Z"/>
      <path class="cls-7" d="M702.25,827.32l3.15-.47c.73-.1.96-.47.96-.91,0-.91-.7-1.66-2.16-1.66s-2.34.96-2.44,2.08l-3.07-.65c.21-2,2.05-4.21,5.49-4.21,4.06,0,5.56,2.29,5.56,4.86v6.29c0,.68.08,1.59.16,2.03h-3.17c-.08-.34-.13-1.04-.13-1.53-.65,1.01-1.87,1.9-3.77,1.9-2.73,0-4.39-1.85-4.39-3.85,0-2.29,1.69-3.56,3.82-3.87ZM706.36,829.5v-.57l-2.89.44c-.88.13-1.59.62-1.59,1.61,0,.75.55,1.48,1.66,1.48,1.46,0,2.81-.7,2.81-2.96Z"/>
      <path class="cls-7" d="M713.22,834.68v-18.82h3.46v18.82h-3.46Z"/>
      <path class="cls-7" d="M722.87,828.28c0,2.31,1.51,3.61,3.28,3.61s2.65-1.17,2.94-2.16l3.04,1.01c-.57,2.13-2.57,4.32-5.98,4.32-3.77,0-6.73-2.86-6.73-6.79s2.91-6.79,6.63-6.79c3.48,0,5.46,2.16,6.01,4.32l-3.09,1.04c-.31-1.07-1.12-2.16-2.83-2.16s-3.25,1.27-3.25,3.59Z"/>
      <path class="cls-7" d="M742.73,833.3c-.7,1.2-2.18,1.72-3.54,1.72-3.09,0-4.86-2.26-4.86-5.04v-8.09h3.46v7.38c0,1.43.73,2.57,2.34,2.57s2.42-1.04,2.42-2.52v-7.44h3.46v10.48c0,.99.08,1.87.13,2.31h-3.3c-.05-.26-.1-.86-.1-1.38Z"/>
      <path class="cls-7" d="M749.7,834.68v-18.82h3.46v18.82h-3.46Z"/>
      <path class="cls-7" d="M759.81,827.32l3.15-.47c.73-.1.96-.47.96-.91,0-.91-.7-1.66-2.16-1.66s-2.34.96-2.44,2.08l-3.07-.65c.21-2,2.05-4.21,5.49-4.21,4.06,0,5.56,2.29,5.56,4.86v6.29c0,.68.08,1.59.16,2.03h-3.17c-.08-.34-.13-1.04-.13-1.53-.65,1.01-1.87,1.9-3.77,1.9-2.73,0-4.39-1.85-4.39-3.85,0-2.29,1.69-3.56,3.82-3.87ZM763.92,829.5v-.57l-2.89.44c-.88.13-1.59.62-1.59,1.61,0,.75.55,1.48,1.66,1.48,1.46,0,2.81-.7,2.81-2.96Z"/>
      <path class="cls-7" d="M774.97,821.89h2.57v3.07h-2.57v5.36c0,1.12.52,1.48,1.51,1.48.42,0,.88-.05,1.07-.1v2.86c-.31.13-.94.31-1.95.31-2.5,0-4.06-1.48-4.06-3.95v-5.95h-2.31v-3.07h.65c1.35,0,1.98-.88,1.98-2.03v-1.79h3.12v3.82Z"/>
      <path class="cls-7" d="M782.2,815.54c1.2,0,2.13.96,2.13,2.16s-.94,2.11-2.13,2.11-2.13-.96-2.13-2.11.96-2.16,2.13-2.16ZM780.48,834.68v-12.79h3.46v12.79h-3.46Z"/>
      <path class="cls-7" d="M800.09,828.28c0,3.93-2.89,6.79-6.71,6.79s-6.71-2.86-6.71-6.79,2.89-6.79,6.71-6.79,6.71,2.83,6.71,6.79ZM796.63,828.28c0-2.42-1.56-3.64-3.25-3.64s-3.25,1.22-3.25,3.64,1.56,3.64,3.25,3.64,3.25-1.22,3.25-3.64Z"/>
      <path class="cls-7" d="M806.27,834.68h-3.46v-12.79h3.35v1.59c.78-1.33,2.31-1.92,3.69-1.92,3.17,0,4.63,2.26,4.63,5.07v8.06h-3.46v-7.46c0-1.43-.7-2.55-2.37-2.55-1.51,0-2.39,1.17-2.39,2.65v7.36Z"/>
      <path class="cls-7" d="M819.87,830.47c.08,1.01.83,1.95,2.34,1.95,1.14,0,1.69-.6,1.69-1.27,0-.57-.39-1.04-1.38-1.25l-1.69-.39c-2.47-.55-3.59-2.03-3.59-3.82,0-2.29,2.03-4.19,4.78-4.19,3.64,0,4.86,2.31,5.02,3.69l-2.89.65c-.1-.75-.65-1.72-2.11-1.72-.91,0-1.64.55-1.64,1.27,0,.62.47,1.01,1.17,1.14l1.82.39c2.52.52,3.8,2.05,3.8,3.93,0,2.08-1.61,4.21-4.97,4.21-3.85,0-5.17-2.5-5.33-3.95l2.96-.65Z"/>
    </g>
    <path class="cls-7" d="M659.05,792.4v-5.07h2.91v5.07h4.94v2.83h-4.94v5.1h-2.91v-5.1h-4.91v-2.83h4.91Z"/>
  </g>
</svg>