<?xml version="1.0" encoding="UTF-8"?>
<svg id="Layer_1" data-name="Layer 1" xmlns="http://www.w3.org/2000/svg" viewBox="0 0 1920 1080">
  <defs>
    <style>
      .cls-1 {
        fill: #f7f7f7;
      }

      .cls-1, .cls-2, .cls-3, .cls-4, .cls-5, .cls-6 {
        stroke-width: 0px;
      }

      .cls-2 {
        fill: #805cdd;
      }

      .cls-3 {
        fill: lime;
      }

      .cls-4 {
        fill: #fff;
      }

      .cls-5 {
        fill: #302353;
      }

      .cls-6 {
        fill: #4c22b2;
      }
    </style>
  </defs>
  <g>
    <path class="cls-2" d="M960.89,524h166.4c17.6,0,31.9,14.29,31.9,31.9v372.21c0,17.6-14.29,31.9-31.9,31.9h-166.4c-5.36,0-9.71-4.35-9.71-9.71v-416.59c0-5.36,4.35-9.71,9.71-9.71Z"/>
    <path class="cls-2" d="M1068.1,958.04h-2.44c-1.75,0-3.18-1.42-3.18-3.18s1.42-3.18,3.18-3.18h2.44c1.75,0,3.18,1.42,3.18,3.18s-1.42,3.18-3.18,3.18ZM1041.23,958.04h-2.44c-1.75,0-3.18-1.42-3.18-3.18s1.42-3.18,3.18-3.18h2.44c1.75,0,3.18,1.42,3.18,3.18s-1.42,3.18-3.18,3.18ZM1014.37,958.04h-2.44c-1.75,0-3.18-1.42-3.18-3.18s1.42-3.18,3.18-3.18h2.44c1.75,0,3.18,1.42,3.18,3.18s-1.42,3.18-3.18,3.18ZM987.5,958.04h-2.44c-1.75,0-3.18-1.42-3.18-3.18s1.42-3.18,3.18-3.18h2.44c1.75,0,3.18,1.42,3.18,3.18s-1.42,3.18-3.18,3.18ZM960.63,958.04h-2.44c-1.75,0-3.18-1.42-3.18-3.18s1.42-3.18,3.18-3.18h2.44c1.75,0,3.18,1.42,3.18,3.18s-1.42,3.18-3.18,3.18ZM933.77,958.04h-2.44c-1.75,0-3.18-1.42-3.18-3.18s1.42-3.18,3.18-3.18h2.44c1.75,0,3.18,1.42,3.18,3.18s-1.42,3.18-3.18,3.18ZM906.9,958.04h-2.44c-1.75,0-3.18-1.42-3.18-3.18s1.42-3.18,3.18-3.18h2.44c1.75,0,3.18,1.42,3.18,3.18s-1.42,3.18-3.18,3.18ZM880.03,958.04h-2.44c-1.75,0-3.18-1.42-3.18-3.18s1.42-3.18,3.18-3.18h2.44c1.75,0,3.18,1.42,3.18,3.18s-1.42,3.18-3.18,3.18ZM853.16,958.04h-2.44c-1.75,0-3.18-1.42-3.18-3.18s1.42-3.18,3.18-3.18h2.44c1.75,0,3.18,1.42,3.18,3.18s-1.42,3.18-3.18,3.18ZM826.3,958.04h-2.44c-1.75,0-3.18-1.42-3.18-3.18s1.42-3.18,3.18-3.18h2.44c1.75,0,3.18,1.42,3.18,3.18s-1.42,3.18-3.18,3.18ZM799.43,957.96c-.07,0-.15,0-.22,0-.89-.06-1.78-.16-2.66-.28-1.74-.25-2.94-1.86-2.69-3.59.25-1.74,1.86-2.94,3.59-2.69.72.1,1.46.18,2.2.23,1.75.12,3.07,1.64,2.95,3.39-.12,1.68-1.51,2.96-3.16,2.96ZM1077.1,956.8c-1.39,0-2.66-.92-3.05-2.31-.48-1.69.51-3.44,2.19-3.92.71-.2,1.42-.43,2.1-.68,1.65-.6,3.47.25,4.07,1.9s-.25,3.47-1.9,4.07c-.83.3-1.69.58-2.55.82-.29.08-.58.12-.86.12ZM776.19,946.01c-.91,0-1.82-.39-2.45-1.15-.57-.69-1.11-1.4-1.63-2.12-1.02-1.43-.68-3.41.75-4.43,1.43-1.02,3.41-.68,4.43.75.42.6.88,1.19,1.35,1.75,1.12,1.35.93,3.35-.42,4.47-.59.49-1.31.73-2.02.73ZM1097.42,940.37c-.5,0-1.01-.12-1.48-.37-1.55-.82-2.14-2.74-1.32-4.29.34-.65.67-1.32.96-1.99.7-1.61,2.58-2.34,4.18-1.63,1.61.7,2.34,2.58,1.64,4.18-.36.81-.75,1.63-1.16,2.41-.57,1.08-1.67,1.69-2.81,1.69ZM768.59,920.94c-1.75,0-3.18-1.42-3.18-3.18v-2.44c0-1.75,1.42-3.18,3.18-3.18s3.18,1.42,3.18,3.18v2.44c0,1.75-1.42,3.18-3.18,3.18ZM1101.25,914.13c-1.75,0-3.18-1.42-3.18-3.18v-2.44c0-1.75,1.42-3.18,3.18-3.18s3.18,1.42,3.18,3.18v2.44c0,1.75-1.42,3.18-3.18,3.18ZM768.59,894.07c-1.75,0-3.18-1.42-3.18-3.18v-2.44c0-1.75,1.42-3.18,3.18-3.18s3.18,1.42,3.18,3.18v2.44c0,1.75-1.42,3.18-3.18,3.18ZM1101.25,887.26c-1.75,0-3.18-1.42-3.18-3.18v-2.44c0-1.75,1.42-3.18,3.18-3.18s3.18,1.42,3.18,3.18v2.44c0,1.75-1.42,3.18-3.18,3.18ZM768.59,867.2c-1.75,0-3.18-1.42-3.18-3.18v-2.44c0-1.75,1.42-3.18,3.18-3.18s3.18,1.42,3.18,3.18v2.44c0,1.75-1.42,3.18-3.18,3.18ZM1101.25,860.4c-1.75,0-3.18-1.42-3.18-3.18v-2.44c0-1.75,1.42-3.18,3.18-3.18s3.18,1.42,3.18,3.18v2.44c0,1.75-1.42,3.18-3.18,3.18ZM768.59,840.33c-1.75,0-3.18-1.42-3.18-3.18v-2.44c0-1.75,1.42-3.18,3.18-3.18s3.18,1.42,3.18,3.18v2.44c0,1.75-1.42,3.18-3.18,3.18ZM1101.25,833.53c-1.75,0-3.18-1.42-3.18-3.18v-2.44c0-1.75,1.42-3.18,3.18-3.18s3.18,1.42,3.18,3.18v2.44c0,1.75-1.42,3.18-3.18,3.18ZM768.59,813.47c-1.75,0-3.18-1.42-3.18-3.18v-2.44c0-1.75,1.42-3.18,3.18-3.18s3.18,1.42,3.18,3.18v2.44c0,1.75-1.42,3.18-3.18,3.18ZM1101.25,806.66c-1.75,0-3.18-1.42-3.18-3.18v-2.44c0-1.75,1.42-3.18,3.18-3.18s3.18,1.42,3.18,3.18v2.44c0,1.75-1.42,3.18-3.18,3.18ZM768.59,786.6c-1.75,0-3.18-1.42-3.18-3.18v-2.44c0-1.75,1.42-3.18,3.18-3.18s3.18,1.42,3.18,3.18v2.44c0,1.75-1.42,3.18-3.18,3.18ZM1101.25,779.8c-1.75,0-3.18-1.42-3.18-3.18v-2.44c0-1.75,1.42-3.18,3.18-3.18s3.18,1.42,3.18,3.18v2.44c0,1.75-1.42,3.18-3.18,3.18ZM768.59,759.73c-1.75,0-3.18-1.42-3.18-3.18v-2.44c0-1.75,1.42-3.18,3.18-3.18s3.18,1.42,3.18,3.18v2.44c0,1.75-1.42,3.18-3.18,3.18ZM1101.25,752.93c-1.75,0-3.18-1.42-3.18-3.18v-2.44c0-1.75,1.42-3.18,3.18-3.18s3.18,1.42,3.18,3.18v2.44c0,1.75-1.42,3.18-3.18,3.18ZM768.59,732.87c-1.75,0-3.18-1.42-3.18-3.18v-2.44c0-1.75,1.42-3.18,3.18-3.18s3.18,1.42,3.18,3.18v2.44c0,1.75-1.42,3.18-3.18,3.18ZM1101.25,726.06c-1.75,0-3.18-1.42-3.18-3.18v-2.44c0-1.75,1.42-3.18,3.18-3.18s3.18,1.42,3.18,3.18v2.44c0,1.75-1.42,3.18-3.18,3.18ZM768.59,706c-1.75,0-3.18-1.42-3.18-3.18v-2.44c0-1.75,1.42-3.18,3.18-3.18s3.18,1.42,3.18,3.18v2.44c0,1.75-1.42,3.18-3.18,3.18ZM1101.25,699.19c-1.75,0-3.18-1.42-3.18-3.18v-2.44c0-1.75,1.42-3.18,3.18-3.18s3.18,1.42,3.18,3.18v2.44c0,1.75-1.42,3.18-3.18,3.18ZM768.59,679.13c-1.75,0-3.18-1.42-3.18-3.18v-2.44c0-1.75,1.42-3.18,3.18-3.18s3.18,1.42,3.18,3.18v2.44c0,1.75-1.42,3.18-3.18,3.18ZM1101.25,672.33c-1.75,0-3.18-1.42-3.18-3.18v-2.44c0-1.75,1.42-3.18,3.18-3.18s3.18,1.42,3.18,3.18v2.44c0,1.75-1.42,3.18-3.18,3.18ZM768.59,652.26c-1.75,0-3.18-1.42-3.18-3.18v-2.44c0-1.75,1.42-3.18,3.18-3.18s3.18,1.42,3.18,3.18v2.44c0,1.75-1.42,3.18-3.18,3.18ZM1101.25,645.46c-1.75,0-3.18-1.42-3.18-3.18v-2.44c0-1.75,1.42-3.18,3.18-3.18s3.18,1.42,3.18,3.18v2.44c0,1.75-1.42,3.18-3.18,3.18ZM768.59,625.4c-1.75,0-3.18-1.42-3.18-3.18v-2.44c0-1.75,1.42-3.18,3.18-3.18s3.18,1.42,3.18,3.18v2.44c0,1.75-1.42,3.18-3.18,3.18ZM1101.25,618.59c-1.75,0-3.18-1.42-3.18-3.18v-2.44c0-1.75,1.42-3.18,3.18-3.18s3.18,1.42,3.18,3.18v2.44c0,1.75-1.42,3.18-3.18,3.18ZM768.59,598.53c-1.75,0-3.18-1.42-3.18-3.18v-2.44c0-1.75,1.42-3.18,3.18-3.18s3.18,1.42,3.18,3.18v2.44c0,1.75-1.42,3.18-3.18,3.18ZM1101.25,591.72c-1.75,0-3.18-1.42-3.18-3.18v-2.44c0-1.75,1.42-3.18,3.18-3.18s3.18,1.42,3.18,3.18v2.44c0,1.75-1.42,3.18-3.18,3.18ZM768.59,571.66c-1.75,0-3.18-1.42-3.18-3.18v-2.44c0-1.75,1.42-3.18,3.18-3.18s3.18,1.42,3.18,3.18v2.44c0,1.75-1.42,3.18-3.18,3.18ZM1101.25,564.86c-1.75,0-3.18-1.42-3.18-3.18v-.61c0-.55-.02-1.11-.04-1.65-.1-1.75,1.25-3.25,3-3.34,1.74-.1,3.25,1.25,3.34,3,.04.66.05,1.34.05,2v.61c0,1.75-1.42,3.18-3.18,3.18ZM774.12,545.9c-.6,0-1.22-.17-1.76-.53-1.46-.97-1.86-2.94-.88-4.4.49-.74,1.02-1.47,1.56-2.17,1.08-1.38,3.07-1.63,4.46-.56,1.38,1.08,1.63,3.07.56,4.46-.45.58-.88,1.18-1.29,1.79-.61.92-1.62,1.42-2.65,1.42ZM1091.4,540.66c-.81,0-1.61-.31-2.23-.92-.52-.51-1.07-1.02-1.63-1.49-1.33-1.14-1.49-3.14-.36-4.48,1.14-1.33,3.14-1.49,4.48-.36.68.58,1.34,1.19,1.97,1.81,1.25,1.23,1.26,3.24.03,4.49-.62.63-1.44.94-2.26.94ZM795.99,531.59c-1.51,0-2.85-1.09-3.12-2.63-.3-1.73.85-3.37,2.58-3.67.88-.15,1.77-.28,2.65-.36,1.74-.17,3.3,1.1,3.47,2.85.17,1.75-1.1,3.3-2.85,3.47-.73.07-1.46.17-2.18.3-.19.03-.37.05-.55.05ZM1067.08,531.09h-2.44c-1.75,0-3.18-1.42-3.18-3.18s1.42-3.18,3.18-3.18h2.44c1.75,0,3.18,1.42,3.18,3.18s-1.42,3.18-3.18,3.18ZM1040.21,531.09h-2.44c-1.75,0-3.18-1.42-3.18-3.18s1.42-3.18,3.18-3.18h2.44c1.75,0,3.18,1.42,3.18,3.18s-1.42,3.18-3.18,3.18ZM1013.34,531.09h-2.44c-1.75,0-3.18-1.42-3.18-3.18s1.42-3.18,3.18-3.18h2.44c1.75,0,3.18,1.42,3.18,3.18s-1.42,3.18-3.18,3.18ZM986.47,531.09h-2.44c-1.75,0-3.18-1.42-3.18-3.18s1.42-3.18,3.18-3.18h2.44c1.75,0,3.18,1.42,3.18,3.18s-1.42,3.18-3.18,3.18ZM959.61,531.09h-2.44c-1.75,0-3.18-1.42-3.18-3.18s1.42-3.18,3.18-3.18h2.44c1.75,0,3.18,1.42,3.18,3.18s-1.42,3.18-3.18,3.18ZM932.74,531.09h-2.44c-1.75,0-3.18-1.42-3.18-3.18s1.42-3.18,3.18-3.18h2.44c1.75,0,3.18,1.42,3.18,3.18s-1.42,3.18-3.18,3.18ZM905.87,531.09h-2.44c-1.75,0-3.18-1.42-3.18-3.18s1.42-3.18,3.18-3.18h2.44c1.75,0,3.18,1.42,3.18,3.18s-1.42,3.18-3.18,3.18ZM879,531.09h-2.44c-1.75,0-3.18-1.42-3.18-3.18s1.42-3.18,3.18-3.18h2.44c1.75,0,3.18,1.42,3.18,3.18s-1.42,3.18-3.18,3.18ZM852.14,531.09h-2.44c-1.75,0-3.18-1.42-3.18-3.18s1.42-3.18,3.18-3.18h2.44c1.75,0,3.18,1.42,3.18,3.18s-1.42,3.18-3.18,3.18ZM825.27,531.09h-2.44c-1.75,0-3.18-1.42-3.18-3.18s1.42-3.18,3.18-3.18h2.44c1.75,0,3.18,1.42,3.18,3.18s-1.42,3.18-3.18,3.18Z"/>
    <rect class="cls-4" x="801.38" y="556.44" width="300.46" height="369.88" rx="24.91" ry="24.91"/>
    <path class="cls-1" d="M1091.43,593.82v305.55c0,14.89-12.07,26.96-26.96,26.96h-236.13c-14.89,0-26.95-12.07-26.95-26.96v-305.55c0-14.89,12.07-26.96,26.95-26.96h236.13c14.89,0,26.96,12.07,26.96,26.96Z"/>
    <g>
      <path class="cls-5" d="M838.6,736.92v-24.82h15.09v3.19h-11.66v7.63h10.57v3.22h-10.57v7.6h11.66v3.19h-15.09Z"/>
      <path class="cls-5" d="M862.4,728.34l-6.06-8.26h3.99l4.13,5.92,4.06-5.92h3.89l-5.99,8.26c1.02,1.37,5.18,7.21,6.2,8.58h-3.96l-4.34-6.2-4.27,6.2h-3.92l6.27-8.58Z"/>
      <path class="cls-5" d="M875.77,743.57v-23.49h3.19v2.63c.91-1.68,2.91-3.01,5.64-3.01,5.04,0,7.74,3.89,7.74,8.79s-2.91,8.89-7.84,8.89c-2.59,0-4.55-1.23-5.46-2.73v8.93h-3.26ZM884,722.6c-3.01,0-5.01,2.52-5.01,5.88s2,5.95,5.01,5.95,4.97-2.49,4.97-5.95-1.89-5.88-4.97-5.88Z"/>
      <path class="cls-5" d="M912.35,728.48c0,5.15-3.57,8.96-8.61,8.96s-8.61-3.82-8.61-8.96,3.57-8.93,8.61-8.93,8.61,3.82,8.61,8.93ZM908.99,728.48c0-3.89-2.45-5.99-5.25-5.99s-5.25,2.1-5.25,5.99,2.45,6.02,5.25,6.02,5.25-2.1,5.25-6.02Z"/>
      <path class="cls-5" d="M917.95,731.49c.21,1.75,1.54,3.15,3.92,3.15,1.86,0,2.87-1.05,2.87-2.24,0-1.05-.77-1.85-2.17-2.17l-2.87-.63c-2.63-.56-4.2-2.35-4.2-4.73,0-2.87,2.7-5.32,5.99-5.32,4.62,0,6.06,3.01,6.41,4.52l-2.91,1.09c-.14-.88-.84-2.8-3.5-2.8-1.68,0-2.8,1.08-2.8,2.24,0,1.02.63,1.75,1.93,2.03l2.73.59c3.05.67,4.66,2.52,4.66,5.01s-2,5.22-6.16,5.22c-4.62,0-6.58-2.98-6.86-4.9l2.98-1.05Z"/>
      <path class="cls-5" d="M938.32,737.44c-3.92,0-6.3-2.94-6.3-6.76v-10.61h3.29v10.12c0,2.31,1.05,4.34,3.82,4.34s3.99-1.75,3.99-4.31v-10.15h3.29v13.72c0,1.33.1,2.52.18,3.12h-3.15c-.07-.38-.14-1.33-.14-2.03-.91,1.75-3.01,2.56-4.97,2.56Z"/>
      <path class="cls-5" d="M961.35,723.41c-.49-.07-.98-.1-1.44-.1-2.77,0-4.62,1.47-4.62,5.18v8.44h-3.29v-16.84h3.22v2.94c1.23-2.59,3.33-3.22,5.04-3.22.46,0,.91.07,1.09.1v3.5Z"/>
      <path class="cls-5" d="M979.34,732.12c-.94,2.98-3.64,5.32-7.56,5.32-4.52,0-8.47-3.29-8.47-9,0-5.29,3.82-8.89,8.05-8.89,5.18,0,8.09,3.57,8.09,8.82,0,.42-.04.84-.07,1.05h-12.67c.07,3.01,2.24,5.11,5.08,5.11s4.1-1.51,4.73-3.4l2.84.98ZM976.01,726.77c-.07-2.42-1.65-4.31-4.62-4.31-2.77,0-4.45,2.14-4.59,4.31h9.21Z"/>
      <path class="cls-5" d="M862.02,778.92v-19.32l-8.47,19.32h-3.15l-8.4-19.32v19.32h-3.4v-24.82h4.66l8.75,20.2,8.82-20.2h4.59v24.82h-3.4Z"/>
      <path class="cls-5" d="M875.25,769.29l4.55-.67c1.02-.14,1.3-.67,1.3-1.26,0-1.65-1.09-3.01-3.64-3.01-2.31,0-3.61,1.44-3.82,3.4l-3.15-.74c.35-3.22,3.26-5.46,6.9-5.46,5.04,0,7,2.87,7,6.16v8.44c0,1.47.14,2.35.21,2.77h-3.22c-.07-.42-.17-1.05-.17-2.28-.74,1.19-2.42,2.8-5.43,2.8-3.43,0-5.64-2.38-5.64-5.04,0-3.01,2.21-4.69,5.11-5.11ZM881.09,771.71v-.77l-5.15.77c-1.4.21-2.45,1.02-2.45,2.52,0,1.26,1.05,2.45,2.73,2.45,2.7,0,4.87-1.29,4.87-4.97Z"/>
      <path class="cls-5" d="M892.78,778.92h-3.29v-16.84h3.22v2.42c1.23-2.1,3.22-2.91,5.18-2.91,4.03,0,6.02,2.91,6.02,6.65v10.68h-3.29v-10.12c0-2.35-.98-4.24-3.92-4.24-2.59,0-3.92,2.07-3.92,4.62v9.73Z"/>
      <path class="cls-5" d="M913.22,769.29l4.55-.67c1.02-.14,1.3-.67,1.3-1.26,0-1.65-1.09-3.01-3.64-3.01-2.31,0-3.61,1.44-3.82,3.4l-3.15-.74c.35-3.22,3.26-5.46,6.9-5.46,5.04,0,7,2.87,7,6.16v8.44c0,1.47.14,2.35.21,2.77h-3.22c-.07-.42-.17-1.05-.17-2.28-.74,1.19-2.42,2.8-5.43,2.8-3.43,0-5.64-2.38-5.64-5.04,0-3.01,2.21-4.69,5.11-5.11ZM919.07,771.71v-.77l-5.15.77c-1.4.21-2.45,1.02-2.45,2.52,0,1.26,1.05,2.45,2.73,2.45,2.7,0,4.87-1.29,4.87-4.97Z"/>
      <path class="cls-5" d="M929.43,779.09c.24,2.35,2.03,4.13,4.59,4.13,3.54,0,5.15-1.82,5.15-5.46v-2.42c-.81,1.54-2.63,2.77-5.15,2.77-4.48,0-7.74-3.4-7.74-8.16s3.12-8.19,7.74-8.19c2.59,0,4.34.98,5.18,2.66v-2.35h3.26v15.58c0,4.27-2.1,8.44-8.44,8.44-4.2,0-7.35-2.66-7.77-6.27l3.19-.74ZM939.3,769.96c0-3.26-1.96-5.39-4.8-5.39s-4.87,2.14-4.87,5.39,1.89,5.39,4.87,5.39,4.8-2.14,4.8-5.39Z"/>
      <path class="cls-5" d="M962.36,774.12c-.95,2.98-3.64,5.32-7.56,5.32-4.52,0-8.47-3.29-8.47-9,0-5.29,3.82-8.89,8.05-8.89,5.18,0,8.09,3.57,8.09,8.82,0,.42-.04.84-.07,1.05h-12.67c.07,3.01,2.24,5.11,5.08,5.11s4.1-1.51,4.73-3.4l2.84.98ZM959.04,768.77c-.07-2.42-1.65-4.31-4.62-4.31-2.77,0-4.45,2.14-4.59,4.31h9.21Z"/>
      <path class="cls-5" d="M966.66,778.92v-16.84h3.15v2.24c1.05-1.85,3.15-2.73,5.11-2.73,2.1,0,4.13,1.02,5.04,3.19,1.33-2.42,3.5-3.19,5.64-3.19,2.94,0,5.81,2,5.81,6.41v10.92h-3.26v-10.57c0-2.21-1.08-3.85-3.57-3.85-2.31,0-3.89,1.82-3.89,4.24v10.19h-3.29v-10.57c0-2.17-1.05-3.85-3.57-3.85-2.35,0-3.92,1.75-3.92,4.27v10.15h-3.26Z"/>
      <path class="cls-5" d="M1011.33,774.12c-.94,2.98-3.64,5.32-7.56,5.32-4.52,0-8.47-3.29-8.47-9,0-5.29,3.82-8.89,8.05-8.89,5.18,0,8.09,3.57,8.09,8.82,0,.42-.04.84-.07,1.05h-12.67c.07,3.01,2.24,5.11,5.08,5.11s4.1-1.51,4.73-3.4l2.84.98ZM1008,768.77c-.07-2.42-1.65-4.31-4.62-4.31-2.77,0-4.45,2.14-4.59,4.31h9.21Z"/>
      <path class="cls-5" d="M1018.92,778.92h-3.29v-16.84h3.22v2.42c1.23-2.1,3.22-2.91,5.18-2.91,4.03,0,6.02,2.91,6.02,6.65v10.68h-3.29v-10.12c0-2.35-.98-4.24-3.92-4.24-2.59,0-3.92,2.07-3.92,4.62v9.73Z"/>
      <path class="cls-5" d="M1039.71,762.08h3.64v2.98h-3.64v8.75c0,1.54.63,2.31,2.35,2.31.42,0,1.02-.07,1.29-.14v2.8c-.28.1-1.12.31-2.24.31-2.87,0-4.69-1.75-4.69-4.8v-9.24h-3.22v-2.98h.91c1.82,0,2.59-1.12,2.59-2.59v-2.73h3.01v5.32Z"/>
    </g>
  </g>
  <g>
    <path class="cls-3" d="M496.5,412h166.4c17.6,0,31.9,14.29,31.9,31.9v372.21c0,17.6-14.29,31.9-31.9,31.9h-166.4c-5.36,0-9.71-4.35-9.71-9.71v-416.59c0-5.36,4.35-9.71,9.71-9.71Z"/>
    <path class="cls-3" d="M611.9,846.04h-2.44c-1.75,0-3.18-1.42-3.18-3.18s1.42-3.18,3.18-3.18h2.44c1.75,0,3.18,1.42,3.18,3.18s-1.42,3.18-3.18,3.18ZM585.03,846.04h-2.44c-1.75,0-3.18-1.42-3.18-3.18s1.42-3.18,3.18-3.18h2.44c1.75,0,3.18,1.42,3.18,3.18s-1.42,3.18-3.18,3.18ZM558.16,846.04h-2.44c-1.75,0-3.18-1.42-3.18-3.18s1.42-3.18,3.18-3.18h2.44c1.75,0,3.18,1.42,3.18,3.18s-1.42,3.18-3.18,3.18ZM531.29,846.04h-2.44c-1.75,0-3.18-1.42-3.18-3.18s1.42-3.18,3.18-3.18h2.44c1.75,0,3.18,1.42,3.18,3.18s-1.42,3.18-3.18,3.18ZM504.43,846.04h-2.44c-1.75,0-3.18-1.42-3.18-3.18s1.42-3.18,3.18-3.18h2.44c1.75,0,3.18,1.42,3.18,3.18s-1.42,3.18-3.18,3.18ZM477.56,846.04h-2.44c-1.75,0-3.18-1.42-3.18-3.18s1.42-3.18,3.18-3.18h2.44c1.75,0,3.18,1.42,3.18,3.18s-1.42,3.18-3.18,3.18ZM450.69,846.04h-2.44c-1.75,0-3.18-1.42-3.18-3.18s1.42-3.18,3.18-3.18h2.44c1.75,0,3.18,1.42,3.18,3.18s-1.42,3.18-3.18,3.18ZM423.83,846.04h-2.44c-1.75,0-3.18-1.42-3.18-3.18s1.42-3.18,3.18-3.18h2.44c1.75,0,3.18,1.42,3.18,3.18s-1.42,3.18-3.18,3.18ZM396.96,846.04h-2.44c-1.75,0-3.18-1.42-3.18-3.18s1.42-3.18,3.18-3.18h2.44c1.75,0,3.18,1.42,3.18,3.18s-1.42,3.18-3.18,3.18ZM370.09,846.04h-2.44c-1.75,0-3.18-1.42-3.18-3.18s1.42-3.18,3.18-3.18h2.44c1.75,0,3.18,1.42,3.18,3.18s-1.42,3.18-3.18,3.18ZM343.23,845.96c-.07,0-.15,0-.22,0-.89-.06-1.78-.16-2.66-.28-1.74-.25-2.94-1.86-2.69-3.59.25-1.74,1.86-2.94,3.59-2.69.72.1,1.46.18,2.2.23,1.75.12,3.07,1.64,2.95,3.39-.12,1.68-1.51,2.96-3.16,2.96ZM620.89,844.8c-1.39,0-2.66-.92-3.05-2.31-.48-1.69.51-3.44,2.19-3.92.71-.2,1.42-.43,2.1-.68,1.65-.6,3.47.25,4.07,1.9.6,1.65-.25,3.47-1.9,4.07-.83.3-1.69.58-2.55.82-.29.08-.58.12-.86.12ZM319.99,834.01c-.91,0-1.82-.39-2.45-1.15-.57-.69-1.11-1.4-1.63-2.12-1.02-1.43-.68-3.41.75-4.43,1.43-1.02,3.41-.68,4.43.75.42.6.88,1.19,1.35,1.75,1.12,1.35.93,3.35-.42,4.47-.59.49-1.31.73-2.02.73ZM641.21,828.37c-.5,0-1.01-.12-1.48-.37-1.55-.82-2.14-2.74-1.32-4.29.34-.65.67-1.32.96-1.99.7-1.61,2.58-2.34,4.18-1.63,1.61.7,2.34,2.58,1.64,4.18-.36.81-.75,1.63-1.16,2.41-.57,1.08-1.67,1.69-2.81,1.69ZM312.38,808.94c-1.75,0-3.18-1.42-3.18-3.18v-2.44c0-1.75,1.42-3.18,3.18-3.18s3.18,1.42,3.18,3.18v2.44c0,1.75-1.42,3.18-3.18,3.18ZM645.05,802.13c-1.75,0-3.18-1.42-3.18-3.18v-2.44c0-1.75,1.42-3.18,3.18-3.18s3.18,1.42,3.18,3.18v2.44c0,1.75-1.42,3.18-3.18,3.18ZM312.38,782.07c-1.75,0-3.18-1.42-3.18-3.18v-2.44c0-1.75,1.42-3.18,3.18-3.18s3.18,1.42,3.18,3.18v2.44c0,1.75-1.42,3.18-3.18,3.18ZM645.05,775.26c-1.75,0-3.18-1.42-3.18-3.18v-2.44c0-1.75,1.42-3.18,3.18-3.18s3.18,1.42,3.18,3.18v2.44c0,1.75-1.42,3.18-3.18,3.18ZM312.38,755.2c-1.75,0-3.18-1.42-3.18-3.18v-2.44c0-1.75,1.42-3.18,3.18-3.18s3.18,1.42,3.18,3.18v2.44c0,1.75-1.42,3.18-3.18,3.18ZM645.05,748.4c-1.75,0-3.18-1.42-3.18-3.18v-2.44c0-1.75,1.42-3.18,3.18-3.18s3.18,1.42,3.18,3.18v2.44c0,1.75-1.42,3.18-3.18,3.18ZM312.38,728.33c-1.75,0-3.18-1.42-3.18-3.18v-2.44c0-1.75,1.42-3.18,3.18-3.18s3.18,1.42,3.18,3.18v2.44c0,1.75-1.42,3.18-3.18,3.18ZM645.05,721.53c-1.75,0-3.18-1.42-3.18-3.18v-2.44c0-1.75,1.42-3.18,3.18-3.18s3.18,1.42,3.18,3.18v2.44c0,1.75-1.42,3.18-3.18,3.18ZM312.38,701.47c-1.75,0-3.18-1.42-3.18-3.18v-2.44c0-1.75,1.42-3.18,3.18-3.18s3.18,1.42,3.18,3.18v2.44c0,1.75-1.42,3.18-3.18,3.18ZM645.05,694.66c-1.75,0-3.18-1.42-3.18-3.18v-2.44c0-1.75,1.42-3.18,3.18-3.18s3.18,1.42,3.18,3.18v2.44c0,1.75-1.42,3.18-3.18,3.18ZM312.38,674.6c-1.75,0-3.18-1.42-3.18-3.18v-2.44c0-1.75,1.42-3.18,3.18-3.18s3.18,1.42,3.18,3.18v2.44c0,1.75-1.42,3.18-3.18,3.18ZM645.05,667.8c-1.75,0-3.18-1.42-3.18-3.18v-2.44c0-1.75,1.42-3.18,3.18-3.18s3.18,1.42,3.18,3.18v2.44c0,1.75-1.42,3.18-3.18,3.18ZM312.38,647.73c-1.75,0-3.18-1.42-3.18-3.18v-2.44c0-1.75,1.42-3.18,3.18-3.18s3.18,1.42,3.18,3.18v2.44c0,1.75-1.42,3.18-3.18,3.18ZM645.05,640.93c-1.75,0-3.18-1.42-3.18-3.18v-2.44c0-1.75,1.42-3.18,3.18-3.18s3.18,1.42,3.18,3.18v2.44c0,1.75-1.42,3.18-3.18,3.18ZM312.38,620.87c-1.75,0-3.18-1.42-3.18-3.18v-2.44c0-1.75,1.42-3.18,3.18-3.18s3.18,1.42,3.18,3.18v2.44c0,1.75-1.42,3.18-3.18,3.18ZM645.05,614.06c-1.75,0-3.18-1.42-3.18-3.18v-2.44c0-1.75,1.42-3.18,3.18-3.18s3.18,1.42,3.18,3.18v2.44c0,1.75-1.42,3.18-3.18,3.18ZM312.38,594c-1.75,0-3.18-1.42-3.18-3.18v-2.44c0-1.75,1.42-3.18,3.18-3.18s3.18,1.42,3.18,3.18v2.44c0,1.75-1.42,3.18-3.18,3.18ZM645.05,587.19c-1.75,0-3.18-1.42-3.18-3.18v-2.44c0-1.75,1.42-3.18,3.18-3.18s3.18,1.42,3.18,3.18v2.44c0,1.75-1.42,3.18-3.18,3.18ZM312.38,567.13c-1.75,0-3.18-1.42-3.18-3.18v-2.44c0-1.75,1.42-3.18,3.18-3.18s3.18,1.42,3.18,3.18v2.44c0,1.75-1.42,3.18-3.18,3.18ZM645.05,560.33c-1.75,0-3.18-1.42-3.18-3.18v-2.44c0-1.75,1.42-3.18,3.18-3.18s3.18,1.42,3.18,3.18v2.44c0,1.75-1.42,3.18-3.18,3.18ZM312.38,540.26c-1.75,0-3.18-1.42-3.18-3.18v-2.44c0-1.75,1.42-3.18,3.18-3.18s3.18,1.42,3.18,3.18v2.44c0,1.75-1.42,3.18-3.18,3.18ZM645.05,533.46c-1.75,0-3.18-1.42-3.18-3.18v-2.44c0-1.75,1.42-3.18,3.18-3.18s3.18,1.42,3.18,3.18v2.44c0,1.75-1.42,3.18-3.18,3.18ZM312.38,513.4c-1.75,0-3.18-1.42-3.18-3.18v-2.44c0-1.75,1.42-3.18,3.18-3.18s3.18,1.42,3.18,3.18v2.44c0,1.75-1.42,3.18-3.18,3.18ZM645.05,506.59c-1.75,0-3.18-1.42-3.18-3.18v-2.44c0-1.75,1.42-3.18,3.18-3.18s3.18,1.42,3.18,3.18v2.44c0,1.75-1.42,3.18-3.18,3.18ZM312.38,486.53c-1.75,0-3.18-1.42-3.18-3.18v-2.44c0-1.75,1.42-3.18,3.18-3.18s3.18,1.42,3.18,3.18v2.44c0,1.75-1.42,3.18-3.18,3.18ZM645.05,479.72c-1.75,0-3.18-1.42-3.18-3.18v-2.44c0-1.75,1.42-3.18,3.18-3.18s3.18,1.42,3.18,3.18v2.44c0,1.75-1.42,3.18-3.18,3.18ZM312.38,459.66c-1.75,0-3.18-1.42-3.18-3.18v-2.44c0-1.75,1.42-3.18,3.18-3.18s3.18,1.42,3.18,3.18v2.44c0,1.75-1.42,3.18-3.18,3.18ZM645.05,452.86c-1.75,0-3.18-1.42-3.18-3.18v-.61c0-.55-.02-1.11-.04-1.65-.1-1.75,1.25-3.25,3-3.34,1.74-.1,3.25,1.25,3.34,3,.04.66.05,1.34.05,2v.61c0,1.75-1.42,3.18-3.18,3.18ZM317.91,433.9c-.6,0-1.22-.17-1.76-.53-1.46-.97-1.86-2.94-.88-4.4.49-.74,1.02-1.47,1.56-2.17,1.08-1.38,3.07-1.63,4.46-.56,1.38,1.08,1.63,3.07.56,4.46-.45.58-.88,1.18-1.29,1.79-.61.92-1.62,1.42-2.65,1.42ZM635.19,428.66c-.81,0-1.61-.31-2.23-.92-.52-.51-1.07-1.02-1.63-1.49-1.33-1.14-1.49-3.14-.36-4.48,1.14-1.33,3.14-1.49,4.48-.36.68.58,1.34,1.19,1.97,1.81,1.25,1.23,1.26,3.24.03,4.49-.62.63-1.44.94-2.26.94ZM339.78,419.59c-1.51,0-2.85-1.09-3.12-2.63-.3-1.73.85-3.37,2.58-3.67.88-.15,1.77-.28,2.65-.36,1.74-.17,3.3,1.1,3.47,2.85.17,1.75-1.1,3.3-2.85,3.47-.73.07-1.46.17-2.18.3-.19.03-.37.05-.55.05ZM610.87,419.09h-2.44c-1.75,0-3.18-1.42-3.18-3.18s1.42-3.18,3.18-3.18h2.44c1.75,0,3.18,1.42,3.18,3.18s-1.42,3.18-3.18,3.18ZM584,419.09h-2.44c-1.75,0-3.18-1.42-3.18-3.18s1.42-3.18,3.18-3.18h2.44c1.75,0,3.18,1.42,3.18,3.18s-1.42,3.18-3.18,3.18ZM557.14,419.09h-2.44c-1.75,0-3.18-1.42-3.18-3.18s1.42-3.18,3.18-3.18h2.44c1.75,0,3.18,1.42,3.18,3.18s-1.42,3.18-3.18,3.18ZM530.27,419.09h-2.44c-1.75,0-3.18-1.42-3.18-3.18s1.42-3.18,3.18-3.18h2.44c1.75,0,3.18,1.42,3.18,3.18s-1.42,3.18-3.18,3.18ZM503.4,419.09h-2.44c-1.75,0-3.18-1.42-3.18-3.18s1.42-3.18,3.18-3.18h2.44c1.75,0,3.18,1.42,3.18,3.18s-1.42,3.18-3.18,3.18ZM476.53,419.09h-2.44c-1.75,0-3.18-1.42-3.18-3.18s1.42-3.18,3.18-3.18h2.44c1.75,0,3.18,1.42,3.18,3.18s-1.42,3.18-3.18,3.18ZM449.67,419.09h-2.44c-1.75,0-3.18-1.42-3.18-3.18s1.42-3.18,3.18-3.18h2.44c1.75,0,3.18,1.42,3.18,3.18s-1.42,3.18-3.18,3.18ZM422.8,419.09h-2.44c-1.75,0-3.18-1.42-3.18-3.18s1.42-3.18,3.18-3.18h2.44c1.75,0,3.18,1.42,3.18,3.18s-1.42,3.18-3.18,3.18ZM395.93,419.09h-2.44c-1.75,0-3.18-1.42-3.18-3.18s1.42-3.18,3.18-3.18h2.44c1.75,0,3.18,1.42,3.18,3.18s-1.42,3.18-3.18,3.18ZM369.07,419.09h-2.44c-1.75,0-3.18-1.42-3.18-3.18s1.42-3.18,3.18-3.18h2.44c1.75,0,3.18,1.42,3.18,3.18s-1.42,3.18-3.18,3.18Z"/>
    <rect class="cls-4" x="344.85" y="444.44" width="300.46" height="369.88" rx="24.91" ry="24.91"/>
    <path class="cls-1" d="M634.89,481.82v305.55c0,14.89-12.07,26.96-26.96,26.96h-236.13c-14.89,0-26.95-12.07-26.95-26.96v-305.55c0-14.89,12.07-26.96,26.95-26.96h236.13c14.89,0,26.96,12.07,26.96,26.96Z"/>
    <g>
      <path class="cls-5" d="M411.87,612.49l8.33,12.43h-4.1l-6.27-9.7-6.41,9.7h-4.03l8.47-12.43-8.4-12.39h4.13l6.27,9.73,6.37-9.73h4.06l-8.44,12.39Z"/>
      <path class="cls-5" d="M423.45,631.57v-23.49h3.19v2.63c.91-1.68,2.91-3.01,5.64-3.01,5.04,0,7.74,3.89,7.74,8.79s-2.91,8.89-7.84,8.89c-2.59,0-4.55-1.23-5.46-2.73v8.93h-3.26ZM431.68,610.6c-3.01,0-5.01,2.52-5.01,5.88s2,5.95,5.01,5.95,4.97-2.49,4.97-5.95-1.89-5.88-4.97-5.88Z"/>
      <path class="cls-5" d="M444.21,624.92v-25.34h3.29v25.34h-3.29Z"/>
      <path class="cls-5" d="M457.16,615.29l4.55-.67c1.02-.14,1.3-.67,1.3-1.26,0-1.65-1.09-3.01-3.64-3.01-2.31,0-3.61,1.44-3.82,3.4l-3.15-.74c.35-3.22,3.26-5.46,6.9-5.46,5.04,0,7,2.87,7,6.16v8.44c0,1.47.14,2.35.21,2.77h-3.22c-.07-.42-.17-1.05-.17-2.28-.74,1.19-2.42,2.8-5.43,2.8-3.43,0-5.64-2.38-5.64-5.04,0-3.01,2.21-4.69,5.11-5.11ZM463,617.71v-.77l-5.15.77c-1.4.21-2.45,1.02-2.45,2.52,0,1.26,1.05,2.45,2.73,2.45,2.7,0,4.87-1.29,4.87-4.97Z"/>
      <path class="cls-5" d="M473.01,599.33c1.33,0,2.38,1.05,2.38,2.38s-1.05,2.35-2.38,2.35-2.35-1.05-2.35-2.35,1.05-2.38,2.35-2.38ZM471.4,624.92v-16.84h3.26v16.84h-3.26Z"/>
      <path class="cls-5" d="M483.55,624.92h-3.29v-16.84h3.22v2.42c1.23-2.1,3.22-2.91,5.18-2.91,4.03,0,6.02,2.91,6.02,6.65v10.68h-3.29v-10.12c0-2.35-.98-4.24-3.92-4.24-2.59,0-3.92,2.07-3.92,4.62v9.73Z"/>
      <path class="cls-5" d="M512.46,614.77v10.15h-3.43v-24.82h9.03c4.59,0,7.67,3.19,7.67,7.35s-3.08,7.32-7.67,7.32h-5.6ZM517.43,611.69c2.98,0,4.8-1.65,4.8-4.2s-1.82-4.31-4.8-4.31h-4.97v8.51h4.97Z"/>
      <path class="cls-5" d="M538.39,611.41c-.49-.07-.98-.1-1.44-.1-2.77,0-4.62,1.47-4.62,5.18v8.44h-3.29v-16.84h3.22v2.94c1.23-2.59,3.33-3.22,5.04-3.22.46,0,.91.07,1.09.1v3.5Z"/>
      <path class="cls-5" d="M543.5,599.33c1.33,0,2.38,1.05,2.38,2.38s-1.05,2.35-2.38,2.35-2.35-1.05-2.35-2.35,1.05-2.38,2.35-2.38ZM541.89,624.92v-16.84h3.26v16.84h-3.26Z"/>
      <path class="cls-5" d="M552.7,616.48c0,3.85,2.42,5.92,5.15,5.92,3.15,0,4.31-2.13,4.69-3.46l2.91,1.26c-.81,2.42-3.22,5.25-7.6,5.25-4.9,0-8.51-3.85-8.51-8.96s3.68-8.93,8.47-8.93c4.48,0,6.79,2.8,7.49,5.36l-2.98,1.26c-.42-1.65-1.65-3.57-4.52-3.57-2.66,0-5.11,1.96-5.11,5.88Z"/>
      <path class="cls-5" d="M570.9,599.33c1.33,0,2.38,1.05,2.38,2.38s-1.05,2.35-2.38,2.35-2.35-1.05-2.35-2.35,1.05-2.38,2.35-2.38ZM569.29,624.92v-16.84h3.26v16.84h-3.26Z"/>
      <path class="cls-5" d="M581.44,624.92h-3.29v-16.84h3.22v2.42c1.23-2.1,3.22-2.91,5.18-2.91,4.03,0,6.02,2.91,6.02,6.65v10.68h-3.29v-10.12c0-2.35-.98-4.24-3.92-4.24-2.59,0-3.92,2.07-3.92,4.62v9.73Z"/>
      <path class="cls-5" d="M599.78,625.09c.25,2.35,2.03,4.13,4.59,4.13,3.54,0,5.15-1.82,5.15-5.46v-2.42c-.81,1.54-2.63,2.77-5.15,2.77-4.48,0-7.74-3.4-7.74-8.16s3.12-8.19,7.74-8.19c2.59,0,4.34.98,5.18,2.66v-2.35h3.26v15.58c0,4.27-2.1,8.44-8.44,8.44-4.2,0-7.35-2.66-7.77-6.27l3.19-.74ZM609.65,615.96c0-3.26-1.96-5.39-4.8-5.39s-4.87,2.14-4.87,5.39,1.89,5.39,4.87,5.39,4.8-2.14,4.8-5.39Z"/>
      <path class="cls-5" d="M402.21,666.92v-24.82h15.09v3.19h-11.66v7.63h10.57v3.22h-10.57v7.6h11.66v3.19h-15.09Z"/>
      <path class="cls-5" d="M424.96,666.92h-3.29v-16.84h3.22v2.42c1.23-2.1,3.22-2.91,5.18-2.91,4.03,0,6.02,2.91,6.02,6.65v10.68h-3.29v-10.12c0-2.35-.98-4.24-3.92-4.24-2.59,0-3.92,2.07-3.92,4.62v9.73Z"/>
      <path class="cls-5" d="M443.3,667.09c.25,2.35,2.03,4.13,4.59,4.13,3.54,0,5.15-1.82,5.15-5.46v-2.42c-.81,1.54-2.63,2.77-5.15,2.77-4.48,0-7.74-3.4-7.74-8.16s3.12-8.19,7.74-8.19c2.59,0,4.34.98,5.18,2.66v-2.35h3.26v15.58c0,4.27-2.1,8.44-8.44,8.44-4.2,0-7.35-2.66-7.77-6.27l3.19-.74ZM453.17,657.96c0-3.26-1.96-5.39-4.8-5.39s-4.87,2.14-4.87,5.39,1.89,5.39,4.87,5.39,4.8-2.14,4.8-5.39Z"/>
      <path class="cls-5" d="M463.18,641.33c1.33,0,2.38,1.05,2.38,2.38s-1.05,2.35-2.38,2.35-2.35-1.05-2.35-2.35,1.05-2.38,2.35-2.38ZM461.57,666.92v-16.84h3.26v16.84h-3.26Z"/>
      <path class="cls-5" d="M473.71,666.92h-3.29v-16.84h3.22v2.42c1.23-2.1,3.22-2.91,5.18-2.91,4.03,0,6.02,2.91,6.02,6.65v10.68h-3.29v-10.12c0-2.35-.98-4.24-3.92-4.24-2.59,0-3.92,2.07-3.92,4.62v9.73Z"/>
      <path class="cls-5" d="M504.76,662.12c-.94,2.98-3.64,5.32-7.56,5.32-4.52,0-8.47-3.29-8.47-9,0-5.29,3.82-8.89,8.05-8.89,5.18,0,8.09,3.57,8.09,8.82,0,.42-.04.84-.07,1.05h-12.67c.07,3.01,2.24,5.11,5.08,5.11s4.1-1.51,4.73-3.4l2.84.98ZM501.43,656.77c-.07-2.42-1.65-4.31-4.62-4.31-2.77,0-4.45,2.14-4.59,4.31h9.21Z"/>
    </g>
  </g>
  <g>
    <path class="cls-6" d="M1532.5,825.04h-2.44c-1.75,0-3.18-1.42-3.18-3.18s1.42-3.18,3.18-3.18h2.44c1.75,0,3.18,1.42,3.18,3.18s-1.42,3.18-3.18,3.18ZM1505.63,825.04h-2.44c-1.75,0-3.18-1.42-3.18-3.18s1.42-3.18,3.18-3.18h2.44c1.75,0,3.18,1.42,3.18,3.18s-1.42,3.18-3.18,3.18ZM1478.76,825.04h-2.44c-1.75,0-3.18-1.42-3.18-3.18s1.42-3.18,3.18-3.18h2.44c1.75,0,3.18,1.42,3.18,3.18s-1.42,3.18-3.18,3.18ZM1451.89,825.04h-2.44c-1.75,0-3.18-1.42-3.18-3.18s1.42-3.18,3.18-3.18h2.44c1.75,0,3.18,1.42,3.18,3.18s-1.42,3.18-3.18,3.18ZM1425.03,825.04h-2.44c-1.75,0-3.18-1.42-3.18-3.18s1.42-3.18,3.18-3.18h2.44c1.75,0,3.18,1.42,3.18,3.18s-1.42,3.18-3.18,3.18ZM1398.16,825.04h-2.44c-1.75,0-3.18-1.42-3.18-3.18s1.42-3.18,3.18-3.18h2.44c1.75,0,3.18,1.42,3.18,3.18s-1.42,3.18-3.18,3.18ZM1371.29,825.04h-2.44c-1.75,0-3.18-1.42-3.18-3.18s1.42-3.18,3.18-3.18h2.44c1.75,0,3.18,1.42,3.18,3.18s-1.42,3.18-3.18,3.18ZM1344.42,825.04h-2.44c-1.75,0-3.18-1.42-3.18-3.18s1.42-3.18,3.18-3.18h2.44c1.75,0,3.18,1.42,3.18,3.18s-1.42,3.18-3.18,3.18ZM1317.56,825.04h-2.44c-1.75,0-3.18-1.42-3.18-3.18s1.42-3.18,3.18-3.18h2.44c1.75,0,3.18,1.42,3.18,3.18s-1.42,3.18-3.18,3.18ZM1290.69,825.04h-2.44c-1.75,0-3.18-1.42-3.18-3.18s1.42-3.18,3.18-3.18h2.44c1.75,0,3.18,1.42,3.18,3.18s-1.42,3.18-3.18,3.18ZM1263.83,824.96c-.07,0-.15,0-.22,0-.89-.06-1.78-.16-2.66-.28-1.74-.25-2.94-1.86-2.69-3.59.25-1.74,1.86-2.94,3.59-2.69.72.1,1.46.18,2.2.23,1.75.12,3.07,1.64,2.95,3.39-.12,1.68-1.51,2.96-3.16,2.96ZM1541.49,823.8c-1.39,0-2.66-.92-3.05-2.32-.48-1.69.51-3.44,2.19-3.92.71-.2,1.42-.43,2.1-.68,1.65-.6,3.47.25,4.07,1.9.6,1.65-.25,3.47-1.9,4.07-.83.3-1.69.58-2.55.82-.29.08-.58.12-.86.12ZM1240.59,813.01c-.91,0-1.82-.39-2.45-1.15-.57-.69-1.11-1.4-1.63-2.12-1.02-1.43-.68-3.41.75-4.43,1.43-1.02,3.41-.68,4.43.75.42.6.88,1.19,1.35,1.75,1.12,1.35.93,3.35-.42,4.47-.59.49-1.31.73-2.02.73ZM1561.81,807.37c-.5,0-1.01-.12-1.48-.37-1.55-.82-2.14-2.74-1.32-4.29.34-.65.67-1.32.96-1.99.7-1.61,2.58-2.34,4.18-1.63,1.61.7,2.34,2.58,1.63,4.18-.36.81-.75,1.63-1.16,2.41-.57,1.08-1.67,1.69-2.81,1.69ZM1232.98,787.94c-1.75,0-3.18-1.42-3.18-3.18v-2.44c0-1.75,1.42-3.18,3.18-3.18s3.18,1.42,3.18,3.18v2.44c0,1.75-1.42,3.18-3.18,3.18ZM1565.65,781.13c-1.75,0-3.18-1.42-3.18-3.18v-2.44c0-1.75,1.42-3.18,3.18-3.18s3.18,1.42,3.18,3.18v2.44c0,1.75-1.42,3.18-3.18,3.18ZM1232.98,761.07c-1.75,0-3.18-1.42-3.18-3.18v-2.44c0-1.75,1.42-3.18,3.18-3.18s3.18,1.42,3.18,3.18v2.44c0,1.75-1.42,3.18-3.18,3.18ZM1565.65,754.27c-1.75,0-3.18-1.42-3.18-3.18v-2.44c0-1.75,1.42-3.18,3.18-3.18s3.18,1.42,3.18,3.18v2.44c0,1.75-1.42,3.18-3.18,3.18ZM1232.98,734.2c-1.75,0-3.18-1.42-3.18-3.18v-2.44c0-1.75,1.42-3.18,3.18-3.18s3.18,1.42,3.18,3.18v2.44c0,1.75-1.42,3.18-3.18,3.18ZM1565.65,727.4c-1.75,0-3.18-1.42-3.18-3.18v-2.44c0-1.75,1.42-3.18,3.18-3.18s3.18,1.42,3.18,3.18v2.44c0,1.75-1.42,3.18-3.18,3.18ZM1232.98,707.33c-1.75,0-3.18-1.42-3.18-3.18v-2.44c0-1.75,1.42-3.18,3.18-3.18s3.18,1.42,3.18,3.18v2.44c0,1.75-1.42,3.18-3.18,3.18ZM1565.65,700.53c-1.75,0-3.18-1.42-3.18-3.18v-2.44c0-1.75,1.42-3.18,3.18-3.18s3.18,1.42,3.18,3.18v2.44c0,1.75-1.42,3.18-3.18,3.18ZM1232.98,680.47c-1.75,0-3.18-1.42-3.18-3.18v-2.44c0-1.75,1.42-3.18,3.18-3.18s3.18,1.42,3.18,3.18v2.44c0,1.75-1.42,3.18-3.18,3.18ZM1565.65,673.66c-1.75,0-3.18-1.42-3.18-3.18v-2.44c0-1.75,1.42-3.18,3.18-3.18s3.18,1.42,3.18,3.18v2.44c0,1.75-1.42,3.18-3.18,3.18ZM1232.98,653.6c-1.75,0-3.18-1.42-3.18-3.18v-2.44c0-1.75,1.42-3.18,3.18-3.18s3.18,1.42,3.18,3.18v2.44c0,1.75-1.42,3.18-3.18,3.18ZM1565.65,646.8c-1.75,0-3.18-1.42-3.18-3.18v-2.44c0-1.75,1.42-3.18,3.18-3.18s3.18,1.42,3.18,3.18v2.44c0,1.75-1.42,3.18-3.18,3.18ZM1232.98,626.73c-1.75,0-3.18-1.42-3.18-3.18v-2.44c0-1.75,1.42-3.18,3.18-3.18s3.18,1.42,3.18,3.18v2.44c0,1.75-1.42,3.18-3.18,3.18ZM1565.65,619.93c-1.75,0-3.18-1.42-3.18-3.18v-2.44c0-1.75,1.42-3.18,3.18-3.18s3.18,1.42,3.18,3.18v2.44c0,1.75-1.42,3.18-3.18,3.18ZM1232.98,599.87c-1.75,0-3.18-1.42-3.18-3.18v-2.44c0-1.75,1.42-3.18,3.18-3.18s3.18,1.42,3.18,3.18v2.44c0,1.75-1.42,3.18-3.18,3.18ZM1565.65,593.06c-1.75,0-3.18-1.42-3.18-3.18v-2.44c0-1.75,1.42-3.18,3.18-3.18s3.18,1.42,3.18,3.18v2.44c0,1.75-1.42,3.18-3.18,3.18ZM1232.98,573c-1.75,0-3.18-1.42-3.18-3.18v-2.44c0-1.75,1.42-3.18,3.18-3.18s3.18,1.42,3.18,3.18v2.44c0,1.75-1.42,3.18-3.18,3.18ZM1565.65,566.19c-1.75,0-3.18-1.42-3.18-3.18v-2.44c0-1.75,1.42-3.18,3.18-3.18s3.18,1.42,3.18,3.18v2.44c0,1.75-1.42,3.18-3.18,3.18ZM1232.98,546.13c-1.75,0-3.18-1.42-3.18-3.18v-2.44c0-1.75,1.42-3.18,3.18-3.18s3.18,1.42,3.18,3.18v2.44c0,1.75-1.42,3.18-3.18,3.18ZM1565.65,539.33c-1.75,0-3.18-1.42-3.18-3.18v-2.44c0-1.75,1.42-3.18,3.18-3.18s3.18,1.42,3.18,3.18v2.44c0,1.75-1.42,3.18-3.18,3.18ZM1232.98,519.26c-1.75,0-3.18-1.42-3.18-3.18v-2.44c0-1.75,1.42-3.18,3.18-3.18s3.18,1.42,3.18,3.18v2.44c0,1.75-1.42,3.18-3.18,3.18ZM1565.65,512.46c-1.75,0-3.18-1.42-3.18-3.18v-2.44c0-1.75,1.42-3.18,3.18-3.18s3.18,1.42,3.18,3.18v2.44c0,1.75-1.42,3.18-3.18,3.18ZM1232.98,492.4c-1.75,0-3.18-1.42-3.18-3.18v-2.44c0-1.75,1.42-3.18,3.18-3.18s3.18,1.42,3.18,3.18v2.44c0,1.75-1.42,3.18-3.18,3.18ZM1565.65,485.59c-1.75,0-3.18-1.42-3.18-3.18v-2.44c0-1.75,1.42-3.18,3.18-3.18s3.18,1.42,3.18,3.18v2.44c0,1.75-1.42,3.18-3.18,3.18ZM1232.98,465.53c-1.75,0-3.18-1.42-3.18-3.18v-2.44c0-1.75,1.42-3.18,3.18-3.18s3.18,1.42,3.18,3.18v2.44c0,1.75-1.42,3.18-3.18,3.18ZM1565.65,458.72c-1.75,0-3.18-1.42-3.18-3.18v-2.44c0-1.75,1.42-3.18,3.18-3.18s3.18,1.42,3.18,3.18v2.44c0,1.75-1.42,3.18-3.18,3.18ZM1232.98,438.66c-1.75,0-3.18-1.42-3.18-3.18v-2.44c0-1.75,1.42-3.18,3.18-3.18s3.18,1.42,3.18,3.18v2.44c0,1.75-1.42,3.18-3.18,3.18ZM1565.65,431.86c-1.75,0-3.18-1.42-3.18-3.18v-.61c0-.55-.02-1.11-.04-1.65-.1-1.75,1.25-3.25,3-3.34,1.75-.1,3.25,1.25,3.34,3,.04.66.05,1.33.05,2v.61c0,1.75-1.42,3.18-3.18,3.18ZM1238.51,412.9c-.6,0-1.22-.17-1.76-.53-1.46-.97-1.86-2.94-.88-4.4.49-.74,1.02-1.47,1.56-2.17,1.08-1.38,3.07-1.63,4.46-.56,1.38,1.08,1.63,3.07.56,4.46-.45.58-.88,1.18-1.29,1.79-.61.92-1.62,1.42-2.65,1.42ZM1555.79,407.66c-.81,0-1.61-.31-2.23-.92-.52-.51-1.07-1.02-1.63-1.49-1.33-1.14-1.49-3.14-.36-4.48,1.14-1.33,3.14-1.49,4.48-.36.68.58,1.34,1.19,1.97,1.81,1.25,1.23,1.26,3.24.03,4.49-.62.63-1.44.94-2.26.94ZM1260.38,398.59c-1.51,0-2.85-1.09-3.12-2.63-.3-1.73.85-3.37,2.58-3.67.88-.15,1.77-.28,2.65-.36,1.74-.17,3.3,1.1,3.47,2.85.17,1.75-1.1,3.3-2.85,3.47-.73.07-1.46.17-2.18.3-.19.03-.37.05-.55.05ZM1531.47,398.09h-2.44c-1.75,0-3.18-1.42-3.18-3.18s1.42-3.18,3.18-3.18h2.44c1.75,0,3.18,1.42,3.18,3.18s-1.42,3.18-3.18,3.18ZM1504.6,398.09h-2.44c-1.75,0-3.18-1.42-3.18-3.18s1.42-3.18,3.18-3.18h2.44c1.75,0,3.18,1.42,3.18,3.18s-1.42,3.18-3.18,3.18ZM1477.74,398.09h-2.44c-1.75,0-3.18-1.42-3.18-3.18s1.42-3.18,3.18-3.18h2.44c1.75,0,3.18,1.42,3.18,3.18s-1.42,3.18-3.18,3.18ZM1450.87,398.09h-2.44c-1.75,0-3.18-1.42-3.18-3.18s1.42-3.18,3.18-3.18h2.44c1.75,0,3.18,1.42,3.18,3.18s-1.42,3.18-3.18,3.18ZM1424,398.09h-2.44c-1.75,0-3.18-1.42-3.18-3.18s1.42-3.18,3.18-3.18h2.44c1.75,0,3.18,1.42,3.18,3.18s-1.42,3.18-3.18,3.18ZM1397.13,398.09h-2.44c-1.75,0-3.18-1.42-3.18-3.18s1.42-3.18,3.18-3.18h2.44c1.75,0,3.18,1.42,3.18,3.18s-1.42,3.18-3.18,3.18ZM1370.27,398.09h-2.44c-1.75,0-3.18-1.42-3.18-3.18s1.42-3.18,3.18-3.18h2.44c1.75,0,3.18,1.42,3.18,3.18s-1.42,3.18-3.18,3.18ZM1343.4,398.09h-2.44c-1.75,0-3.18-1.42-3.18-3.18s1.42-3.18,3.18-3.18h2.44c1.75,0,3.18,1.42,3.18,3.18s-1.42,3.18-3.18,3.18ZM1316.53,398.09h-2.44c-1.75,0-3.18-1.42-3.18-3.18s1.42-3.18,3.18-3.18h2.44c1.75,0,3.18,1.42,3.18,3.18s-1.42,3.18-3.18,3.18ZM1289.66,398.09h-2.44c-1.75,0-3.18-1.42-3.18-3.18s1.42-3.18,3.18-3.18h2.44c1.75,0,3.18,1.42,3.18,3.18s-1.42,3.18-3.18,3.18Z"/>
    <path class="cls-5" d="M1420.5,391h166.4c17.6,0,31.9,14.29,31.9,31.9v372.21c0,17.6-14.29,31.9-31.9,31.9h-166.4c-5.36,0-9.71-4.35-9.71-9.71v-416.59c0-5.36,4.35-9.71,9.71-9.71Z"/>
    <rect class="cls-4" x="1265.13" y="423.44" width="300.46" height="369.88" rx="24.91" ry="24.91"/>
    <path class="cls-1" d="M1555.18,460.82v305.55c0,14.89-12.07,26.96-26.96,26.96h-236.13c-14.89,0-26.95-12.07-26.95-26.96v-305.55c0-14.89,12.07-26.96,26.95-26.96h236.13c14.89,0,26.96,12.07,26.96,26.96Z"/>
    <g>
      <path class="cls-5" d="M1329.57,595.77h-3.71v10.15h-3.47v-24.82h9.35c4.69,0,7.6,3.29,7.6,7.39,0,3.57-2.28,6.34-6.02,7.04l5.92,10.4h-3.99l-5.67-10.15ZM1331.11,592.69c2.8,0,4.69-1.65,4.69-4.2s-1.89-4.31-4.69-4.31h-5.25v8.51h5.25Z"/>
      <path class="cls-5" d="M1345.31,580.33c1.33,0,2.38,1.05,2.38,2.38s-1.05,2.35-2.38,2.35-2.35-1.05-2.35-2.35,1.05-2.38,2.35-2.38ZM1343.7,605.92v-16.84h3.26v16.84h-3.26Z"/>
      <path class="cls-5" d="M1353.96,600.49c.21,1.75,1.54,3.15,3.92,3.15,1.85,0,2.87-1.05,2.87-2.24,0-1.05-.77-1.85-2.17-2.17l-2.87-.63c-2.63-.56-4.2-2.35-4.2-4.73,0-2.87,2.7-5.32,5.99-5.32,4.62,0,6.06,3.01,6.41,4.52l-2.91,1.09c-.14-.88-.84-2.8-3.5-2.8-1.68,0-2.8,1.08-2.8,2.24,0,1.02.63,1.75,1.93,2.03l2.73.59c3.05.67,4.66,2.52,4.66,5.01s-2,5.22-6.16,5.22c-4.62,0-6.58-2.98-6.86-4.9l2.98-1.05Z"/>
      <path class="cls-5" d="M1376.29,596.19l7.32,9.73h-4.13l-5.5-7.42-2.35,2.35v5.08h-3.26v-25.34h3.26v15.96l7.28-7.46h4.55l-7.18,7.11Z"/>
      <path class="cls-5" d="M1399.56,596.29l4.55-.67c1.02-.14,1.3-.67,1.3-1.26,0-1.65-1.09-3.01-3.64-3.01-2.31,0-3.61,1.44-3.82,3.4l-3.15-.74c.35-3.22,3.26-5.46,6.9-5.46,5.04,0,7,2.87,7,6.16v8.44c0,1.47.14,2.35.21,2.77h-3.22c-.07-.42-.17-1.05-.17-2.28-.74,1.19-2.42,2.8-5.43,2.8-3.43,0-5.64-2.38-5.64-5.04,0-3.01,2.21-4.69,5.11-5.11ZM1405.41,598.71v-.77l-5.15.77c-1.4.21-2.45,1.02-2.45,2.52,0,1.26,1.05,2.45,2.73,2.45,2.7,0,4.87-1.29,4.87-4.97Z"/>
      <path class="cls-5" d="M1417.1,605.92h-3.29v-16.84h3.22v2.42c1.23-2.1,3.22-2.91,5.18-2.91,4.03,0,6.02,2.91,6.02,6.65v10.68h-3.29v-10.12c0-2.35-.98-4.24-3.92-4.24-2.59,0-3.92,2.07-3.92,4.62v9.73Z"/>
      <path class="cls-5" d="M1445.27,603.36c-.81,1.61-2.59,3.01-5.22,3.01-4.94,0-7.98-3.92-7.98-8.93s3.22-8.82,7.98-8.82c2.98,0,4.59,1.47,5.15,2.84v-10.89h3.26v22.23c0,1.61.14,2.83.18,3.12h-3.19c-.07-.38-.17-1.26-.17-2.28v-.28ZM1440.37,603.47c3.01,0,4.87-2.62,4.87-6.09s-1.82-5.85-4.83-5.85-4.97,2.45-4.97,5.92,1.79,6.02,4.94,6.02Z"/>
      <path class="cls-5" d="M1322.39,647.92v-24.82h15.09v3.19h-11.66v7.98h10.57v3.22h-10.57v10.43h-3.43Z"/>
      <path class="cls-5" d="M1342.76,622.33c1.33,0,2.38,1.05,2.38,2.38s-1.05,2.35-2.38,2.35-2.35-1.05-2.35-2.35,1.05-2.38,2.35-2.38ZM1341.15,647.92v-16.84h3.26v16.84h-3.26Z"/>
      <path class="cls-5" d="M1353.29,647.92h-3.29v-16.84h3.22v2.42c1.23-2.1,3.22-2.91,5.18-2.91,4.03,0,6.02,2.91,6.02,6.65v10.68h-3.29v-10.12c0-2.35-.98-4.24-3.92-4.24-2.59,0-3.92,2.07-3.92,4.62v9.73Z"/>
      <path class="cls-5" d="M1373.73,638.29l4.55-.67c1.02-.14,1.3-.67,1.3-1.26,0-1.65-1.09-3.01-3.64-3.01-2.31,0-3.61,1.44-3.82,3.4l-3.15-.74c.35-3.22,3.26-5.46,6.9-5.46,5.04,0,7,2.87,7,6.16v8.44c0,1.47.14,2.35.21,2.77h-3.22c-.07-.42-.17-1.05-.17-2.28-.74,1.19-2.42,2.8-5.43,2.8-3.43,0-5.64-2.38-5.64-5.04,0-3.01,2.21-4.69,5.11-5.11ZM1379.58,640.71v-.77l-5.15.77c-1.4.21-2.45,1.02-2.45,2.52,0,1.26,1.05,2.45,2.73,2.45,2.7,0,4.87-1.29,4.87-4.97Z"/>
      <path class="cls-5" d="M1391.27,647.92h-3.29v-16.84h3.22v2.42c1.23-2.1,3.22-2.91,5.18-2.91,4.03,0,6.02,2.91,6.02,6.65v10.68h-3.29v-10.12c0-2.35-.98-4.24-3.92-4.24-2.59,0-3.92,2.07-3.92,4.62v9.73Z"/>
      <path class="cls-5" d="M1409.61,639.48c0,3.85,2.42,5.92,5.15,5.92,3.15,0,4.31-2.13,4.69-3.46l2.91,1.26c-.81,2.42-3.22,5.25-7.6,5.25-4.9,0-8.51-3.85-8.51-8.96s3.68-8.93,8.47-8.93c4.48,0,6.79,2.8,7.49,5.36l-2.98,1.26c-.42-1.65-1.65-3.57-4.52-3.57-2.66,0-5.11,1.96-5.11,5.88Z"/>
      <path class="cls-5" d="M1427.81,622.33c1.33,0,2.38,1.05,2.38,2.38s-1.05,2.35-2.38,2.35-2.35-1.05-2.35-2.35,1.05-2.38,2.35-2.38ZM1426.2,647.92v-16.84h3.26v16.84h-3.26Z"/>
      <path class="cls-5" d="M1439.11,638.29l4.55-.67c1.02-.14,1.3-.67,1.3-1.26,0-1.65-1.09-3.01-3.64-3.01-2.31,0-3.61,1.44-3.82,3.4l-3.15-.74c.35-3.22,3.26-5.46,6.9-5.46,5.04,0,7,2.87,7,6.16v8.44c0,1.47.14,2.35.21,2.77h-3.22c-.07-.42-.17-1.05-.17-2.28-.74,1.19-2.42,2.8-5.43,2.8-3.43,0-5.64-2.38-5.64-5.04,0-3.01,2.21-4.69,5.11-5.11ZM1444.96,640.71v-.77l-5.15.77c-1.4.21-2.45,1.02-2.45,2.52,0,1.26,1.05,2.45,2.73,2.45,2.7,0,4.87-1.29,4.87-4.97Z"/>
      <path class="cls-5" d="M1453.36,647.92v-25.34h3.29v25.34h-3.29Z"/>
      <path class="cls-5" d="M1329.57,679.77h-3.71v10.15h-3.47v-24.82h9.35c4.69,0,7.6,3.29,7.6,7.39,0,3.57-2.28,6.34-6.02,7.04l5.92,10.4h-3.99l-5.67-10.15ZM1331.11,676.69c2.8,0,4.69-1.65,4.69-4.2s-1.89-4.31-4.69-4.31h-5.25v8.51h5.25Z"/>
      <path class="cls-5" d="M1357.67,685.12c-.94,2.98-3.64,5.32-7.56,5.32-4.52,0-8.47-3.29-8.47-9,0-5.29,3.82-8.89,8.05-8.89,5.18,0,8.09,3.57,8.09,8.82,0,.42-.04.84-.07,1.05h-12.67c.07,3.01,2.24,5.11,5.08,5.11s4.1-1.51,4.73-3.4l2.84.98ZM1354.35,679.77c-.07-2.42-1.65-4.31-4.62-4.31-2.77,0-4.45,2.14-4.59,4.31h9.21Z"/>
      <path class="cls-5" d="M1361.97,696.57v-23.49h3.19v2.63c.91-1.68,2.91-3.01,5.64-3.01,5.04,0,7.74,3.89,7.74,8.79s-2.91,8.89-7.84,8.89c-2.59,0-4.55-1.23-5.46-2.73v8.93h-3.26ZM1370.2,675.6c-3.01,0-5.01,2.52-5.01,5.88s2,5.95,5.01,5.95,4.97-2.49,4.97-5.95-1.89-5.88-4.97-5.88Z"/>
      <path class="cls-5" d="M1398.55,681.48c0,5.15-3.57,8.96-8.61,8.96s-8.61-3.82-8.61-8.96,3.57-8.93,8.61-8.93,8.61,3.82,8.61,8.93ZM1395.19,681.48c0-3.89-2.45-5.99-5.25-5.99s-5.25,2.1-5.25,5.99,2.45,6.02,5.25,6.02,5.25-2.1,5.25-6.02Z"/>
      <path class="cls-5" d="M1412.09,676.41c-.49-.07-.98-.1-1.44-.1-2.77,0-4.62,1.47-4.62,5.18v8.44h-3.29v-16.84h3.22v2.94c1.23-2.59,3.33-3.22,5.04-3.22.46,0,.91.07,1.09.1v3.5Z"/>
      <path class="cls-5" d="M1420.88,673.08h3.64v2.98h-3.64v8.75c0,1.54.63,2.31,2.35,2.31.42,0,1.02-.07,1.29-.14v2.8c-.28.1-1.12.31-2.24.31-2.87,0-4.69-1.75-4.69-4.8v-9.24h-3.22v-2.98h.91c1.82,0,2.59-1.12,2.59-2.59v-2.73h3.01v5.32Z"/>
      <path class="cls-5" d="M1430.47,684.49c.21,1.75,1.54,3.15,3.92,3.15,1.86,0,2.87-1.05,2.87-2.24,0-1.05-.77-1.85-2.17-2.17l-2.87-.63c-2.63-.56-4.2-2.35-4.2-4.73,0-2.87,2.7-5.32,5.99-5.32,4.62,0,6.06,3.01,6.41,4.52l-2.91,1.09c-.14-.88-.84-2.8-3.5-2.8-1.68,0-2.8,1.08-2.8,2.24,0,1.02.63,1.75,1.93,2.03l2.73.59c3.05.67,4.66,2.52,4.66,5.01s-2,5.22-6.16,5.22c-4.62,0-6.58-2.98-6.86-4.9l2.98-1.05Z"/>
    </g>
  </g>
  <g>
    <path class="cls-5" d="M226.16,197.65v-36.87h6.34v36.87h-6.34Z"/>
    <path class="cls-5" d="M248.47,172.32h5.25v5.36h-5.25v11.75c0,2.24.99,3.17,3.22,3.17.83,0,1.82-.16,2.08-.21v4.99c-.36.16-1.51.57-3.69.57-4.68,0-7.59-2.81-7.59-7.54v-12.74h-4.68v-5.36h1.3c2.7,0,3.9-1.72,3.9-3.95v-3.8h5.46v7.75Z"/>
    <path class="cls-5" d="M260.79,160.36c2.5,0,4.32,1.98,4.32,4.84,0,6.76-4.52,9.36-7.7,9.67v-2.86c2.13-.42,4.06-2.44,4.16-4.78-.1.05-.57.26-1.09.26-2.08,0-3.54-1.46-3.54-3.59,0-1.87,1.61-3.54,3.85-3.54Z"/>
    <path class="cls-5" d="M271.04,189.33c.21,2.29,1.92,4.32,5.15,4.32,2.5,0,3.8-1.35,3.8-2.91,0-1.35-.94-2.39-2.96-2.81l-3.74-.83c-4.47-.99-6.81-3.9-6.81-7.38,0-4.42,4.06-8.16,9.31-8.16,7.07,0,9.36,4.58,9.78,7.07l-5.1,1.46c-.21-1.46-1.3-3.8-4.68-3.8-2.13,0-3.64,1.35-3.64,2.91,0,1.35.99,2.34,2.55,2.65l3.85.78c4.78,1.04,7.28,3.95,7.28,7.7s-3.12,8.11-9.57,8.11c-7.33,0-10.14-4.78-10.45-7.64l5.25-1.46Z"/>
    <path class="cls-5" d="M310.71,197.65h-6.03v-37.65h6.03v14.77c1.72-2.24,4.58-3.17,7.23-3.17,6.24,0,9.26,4.47,9.26,10.04v16.02h-6.03v-14.98c0-3.12-1.4-5.62-5.2-5.62-3.33,0-5.15,2.5-5.25,5.72v14.87Z"/>
    <path class="cls-5" d="M340.61,183.14l6.5-.99c1.46-.21,1.87-.94,1.87-1.82,0-2.13-1.46-3.85-4.78-3.85s-4.94,2.03-5.2,4.58l-5.51-1.25c.47-4.37,4.42-8.27,10.66-8.27,7.8,0,10.76,4.42,10.76,9.46v12.58c0,2.29.26,3.8.31,4.06h-5.62c-.05-.16-.26-1.2-.26-3.22-1.2,1.92-3.69,4-7.8,4-5.3,0-8.58-3.64-8.58-7.64,0-4.52,3.33-7.02,7.64-7.64ZM348.98,187.14v-1.14l-6.6.99c-1.87.31-3.38,1.35-3.38,3.43,0,1.72,1.3,3.28,3.69,3.28,3.38,0,6.29-1.61,6.29-6.55Z"/>
    <path class="cls-5" d="M377.01,178.3c-.68-.1-1.35-.16-1.98-.16-4.68,0-6.81,2.7-6.81,7.44v12.06h-6.03v-25.32h5.88v4.06c1.2-2.76,4-4.37,7.33-4.37.73,0,1.35.1,1.61.16v6.14Z"/>
    <path class="cls-5" d="M405.19,193.02c0,2.29.21,4.21.26,4.63h-5.77c-.1-.57-.26-2.24-.26-3.28-1.2,2.13-3.85,3.9-7.44,3.9-7.28,0-12.17-5.72-12.17-13.36s4.94-13.26,12.06-13.26c4.42,0,6.66,2.03,7.44,3.64v-15.29h5.88v33.02ZM392.66,192.97c3.95,0,6.71-3.28,6.71-8.11s-2.7-7.85-6.66-7.85-6.86,3.07-6.86,7.9,2.7,8.06,6.81,8.06Z"/>
    <path class="cls-5" d="M433.64,172.32h5.25v5.36h-5.25v11.75c0,2.24.99,3.17,3.22,3.17.83,0,1.82-.16,2.08-.21v4.99c-.36.16-1.51.57-3.69.57-4.68,0-7.59-2.81-7.59-7.54v-12.74h-4.68v-5.36h1.3c2.7,0,3.9-1.72,3.9-3.95v-3.8h5.46v7.75Z"/>
    <path class="cls-5" d="M469.1,184.96c0,7.8-5.56,13.47-13.16,13.47s-13.1-5.67-13.1-13.47,5.56-13.42,13.1-13.42,13.16,5.67,13.16,13.42ZM463.02,184.96c0-5.25-3.33-7.96-7.07-7.96s-7.07,2.7-7.07,7.96,3.38,8.06,7.07,8.06,7.07-2.76,7.07-8.06Z"/>
    <path class="cls-5" d="M487.82,197.65v-25.32h5.77v3.22c1.46-2.6,4.63-3.95,7.49-3.95,3.33,0,6.24,1.51,7.59,4.47,1.98-3.33,4.94-4.47,8.22-4.47,4.58,0,8.94,2.91,8.94,9.62v16.43h-5.82v-15.44c0-2.96-1.51-5.2-4.89-5.2-3.17,0-5.25,2.5-5.25,5.62v15.03h-5.93v-15.44c0-2.91-1.46-5.2-4.89-5.2-3.22,0-5.25,2.39-5.25,5.62v15.03h-5.98Z"/>
    <path class="cls-5" d="M539.3,183.14l6.5-.99c1.46-.21,1.87-.94,1.87-1.82,0-2.13-1.46-3.85-4.78-3.85s-4.94,2.03-5.2,4.58l-5.51-1.25c.47-4.37,4.42-8.27,10.66-8.27,7.8,0,10.76,4.42,10.76,9.46v12.58c0,2.29.26,3.8.31,4.06h-5.62c-.05-.16-.26-1.2-.26-3.22-1.2,1.92-3.69,4-7.8,4-5.3,0-8.58-3.64-8.58-7.64,0-4.52,3.33-7.02,7.64-7.64ZM547.67,187.14v-1.14l-6.6.99c-1.87.31-3.38,1.35-3.38,3.43,0,1.72,1.3,3.28,3.69,3.28,3.38,0,6.29-1.61,6.29-6.55Z"/>
    <path class="cls-5" d="M574.19,183.04l10.61,14.61h-7.38l-7.44-10.35-3.12,3.28v7.07h-5.98v-37.65h5.98v22.57l9.72-10.24h8.01l-10.4,10.71Z"/>
    <path class="cls-5" d="M610.38,190.42c-1.35,4.42-5.36,8.01-11.44,8.01-6.86,0-12.95-4.99-12.95-13.57,0-8.01,5.93-13.31,12.32-13.31,7.8,0,12.38,5.15,12.38,13.16,0,.99-.1,1.82-.16,1.92h-18.51c.16,3.85,3.17,6.6,6.92,6.6s5.51-1.92,6.34-4.42l5.1,1.61ZM604.61,182.2c-.1-2.96-2.08-5.62-6.24-5.62-3.8,0-5.98,2.91-6.19,5.62h12.43Z"/>
    <path class="cls-5" d="M649.95,172.32l5.98,17.52,5.04-17.52h6.14l-8.11,25.32h-6.03l-6.29-18.2-6.14,18.2h-6.19l-8.22-25.32h6.45l5.15,17.52,5.98-17.52h6.24Z"/>
    <path class="cls-5" d="M693.48,190.42c-1.35,4.42-5.36,8.01-11.44,8.01-6.86,0-12.95-4.99-12.95-13.57,0-8.01,5.93-13.31,12.32-13.31,7.8,0,12.38,5.15,12.38,13.16,0,.99-.1,1.82-.16,1.92h-18.51c.16,3.85,3.17,6.6,6.92,6.6s5.51-1.92,6.34-4.42l5.1,1.61ZM687.71,182.2c-.1-2.96-2.08-5.62-6.24-5.62-3.8,0-5.98,2.91-6.19,5.62h12.43Z"/>
    <path class="cls-5" d="M699.56,197.65v-37.65h6.03v37.65h-6.03Z"/>
    <path class="cls-5" d="M713.39,197.65v-37.65h6.03v37.65h-6.03Z"/>
    <path class="cls-5" d="M725.66,185.12v-5.36h14.66v5.36h-14.66Z"/>
    <path class="cls-5" d="M749.53,159.48c2.18,0,3.95,1.77,3.95,3.95s-1.77,3.9-3.95,3.9-3.9-1.72-3.9-3.9,1.77-3.95,3.9-3.95ZM746.57,197.65v-25.32h5.98v25.32h-5.98Z"/>
    <path class="cls-5" d="M766.38,197.65h-6.03v-25.32h5.88v3.38c1.66-2.91,4.68-4.11,7.49-4.11,6.19,0,9.15,4.47,9.15,10.04v16.02h-6.03v-14.98c0-3.12-1.4-5.62-5.2-5.62-3.43,0-5.25,2.65-5.25,5.98v14.61Z"/>
    <path class="cls-5" d="M797.68,169v3.33h5.88v5.25h-5.88v20.07h-6.08v-20.07h-4.42v-5.25h4.42v-3.48c0-5.67,3.64-9.1,8.84-9.1,1.51,0,2.76.31,3.17.52v5.15c-.36-.1-1.04-.26-2.18-.26-1.61,0-3.74.73-3.74,3.85Z"/>
    <path class="cls-5" d="M831.9,184.96c0,7.8-5.56,13.47-13.16,13.47s-13.1-5.67-13.1-13.47,5.56-13.42,13.1-13.42,13.16,5.67,13.16,13.42ZM825.82,184.96c0-5.25-3.33-7.96-7.07-7.96s-7.07,2.7-7.07,7.96,3.38,8.06,7.07,8.06,7.07-2.76,7.07-8.06Z"/>
    <path class="cls-5" d="M852.54,178.3c-.68-.1-1.35-.16-1.98-.16-4.68,0-6.81,2.7-6.81,7.44v12.06h-6.03v-25.32h5.88v4.06c1.2-2.76,4-4.37,7.33-4.37.73,0,1.35.1,1.61.16v6.14Z"/>
    <path class="cls-5" d="M857.59,197.65v-25.32h5.77v3.22c1.46-2.6,4.63-3.95,7.49-3.95,3.33,0,6.24,1.51,7.59,4.47,1.98-3.33,4.94-4.47,8.22-4.47,4.58,0,8.94,2.91,8.94,9.62v16.43h-5.82v-15.44c0-2.96-1.51-5.2-4.89-5.2-3.17,0-5.25,2.5-5.25,5.62v15.03h-5.93v-15.44c0-2.91-1.46-5.2-4.89-5.2-3.22,0-5.25,2.39-5.25,5.62v15.03h-5.98Z"/>
    <path class="cls-5" d="M925.39,190.42c-1.35,4.42-5.36,8.01-11.44,8.01-6.86,0-12.95-4.99-12.95-13.57,0-8.01,5.93-13.31,12.32-13.31,7.8,0,12.38,5.15,12.38,13.16,0,.99-.1,1.82-.16,1.92h-18.51c.16,3.85,3.17,6.6,6.92,6.6s5.51-1.92,6.34-4.42l5.1,1.61ZM919.62,182.2c-.1-2.96-2.08-5.62-6.24-5.62-3.8,0-5.98,2.91-6.19,5.62h12.43Z"/>
    <path class="cls-5" d="M954.88,193.02c0,2.29.21,4.21.26,4.63h-5.77c-.1-.57-.26-2.24-.26-3.28-1.2,2.13-3.85,3.9-7.44,3.9-7.28,0-12.17-5.72-12.17-13.36s4.94-13.26,12.06-13.26c4.42,0,6.66,2.03,7.44,3.64v-15.29h5.88v33.02ZM942.34,192.97c3.95,0,6.71-3.28,6.71-8.11s-2.7-7.85-6.66-7.85-6.86,3.07-6.86,7.9,2.7,8.06,6.81,8.06Z"/>
    <path class="cls-5" d="M966.42,189.9c2.76,0,4.73,2.18,4.73,5.51,0,7.28-4.94,10.35-8.48,10.82v-3.07c2.39-.52,4.58-2.91,4.63-5.62-.21.1-.57.26-1.25.26-2.29,0-3.95-1.56-3.95-3.95,0-2.18,1.87-3.95,4.32-3.95Z"/>
    <path class="cls-5" d="M1014.73,193.02c0,2.29.21,4.21.26,4.63h-5.77c-.1-.57-.26-2.24-.26-3.28-1.2,2.13-3.85,3.9-7.44,3.9-7.28,0-12.17-5.72-12.17-13.36s4.94-13.26,12.06-13.26c4.42,0,6.66,2.03,7.44,3.64v-15.29h5.88v33.02ZM1002.2,192.97c3.95,0,6.71-3.28,6.71-8.11s-2.7-7.85-6.66-7.85-6.86,3.07-6.86,7.9,2.7,8.06,6.81,8.06Z"/>
    <path class="cls-5" d="M1028.61,183.14l6.5-.99c1.46-.21,1.87-.94,1.87-1.82,0-2.13-1.46-3.85-4.78-3.85s-4.94,2.03-5.2,4.58l-5.51-1.25c.47-4.37,4.42-8.27,10.66-8.27,7.8,0,10.76,4.42,10.76,9.46v12.58c0,2.29.26,3.8.31,4.06h-5.62c-.05-.16-.26-1.2-.26-3.22-1.2,1.92-3.69,4-7.8,4-5.3,0-8.58-3.64-8.58-7.64,0-4.52,3.33-7.02,7.64-7.64ZM1036.98,187.14v-1.14l-6.6.99c-1.87.31-3.38,1.35-3.38,3.43,0,1.72,1.3,3.28,3.69,3.28,3.38,0,6.29-1.61,6.29-6.55Z"/>
    <path class="cls-5" d="M1057.73,172.32h5.25v5.36h-5.25v11.75c0,2.24.99,3.17,3.22,3.17.83,0,1.82-.16,2.08-.21v4.99c-.36.16-1.51.57-3.69.57-4.68,0-7.59-2.81-7.59-7.54v-12.74h-4.68v-5.36h1.3c2.7,0,3.9-1.72,3.9-3.95v-3.8h5.46v7.75Z"/>
    <path class="cls-5" d="M1075.31,183.14l6.5-.99c1.46-.21,1.87-.94,1.87-1.82,0-2.13-1.46-3.85-4.78-3.85s-4.94,2.03-5.2,4.58l-5.51-1.25c.47-4.37,4.42-8.27,10.66-8.27,7.8,0,10.76,4.42,10.76,9.46v12.58c0,2.29.26,3.8.31,4.06h-5.62c-.05-.16-.26-1.2-.26-3.22-1.2,1.92-3.69,4-7.8,4-5.3,0-8.58-3.64-8.58-7.64,0-4.52,3.33-7.02,7.64-7.64ZM1083.68,187.14v-1.14l-6.6.99c-1.87.31-3.38,1.35-3.38,3.43,0,1.72,1.3,3.28,3.69,3.28,3.38,0,6.29-1.61,6.29-6.55Z"/>
    <path class="cls-5" d="M1095.33,185.12v-5.36h14.66v5.36h-14.66Z"/>
    <path class="cls-5" d="M1139.63,193.02c0,2.29.21,4.21.26,4.63h-5.77c-.1-.57-.26-2.24-.26-3.28-1.2,2.13-3.85,3.9-7.44,3.9-7.28,0-12.17-5.72-12.17-13.36s4.94-13.26,12.06-13.26c4.42,0,6.66,2.03,7.44,3.64v-15.29h5.88v33.02ZM1127.1,192.97c3.95,0,6.71-3.28,6.71-8.11s-2.7-7.85-6.66-7.85-6.86,3.07-6.86,7.9,2.7,8.06,6.81,8.06Z"/>
    <path class="cls-5" d="M1162.35,178.3c-.68-.1-1.35-.16-1.98-.16-4.68,0-6.81,2.7-6.81,7.44v12.06h-6.03v-25.32h5.88v4.06c1.2-2.76,4-4.37,7.33-4.37.73,0,1.35.1,1.61.16v6.14Z"/>
    <path class="cls-5" d="M1170.36,159.48c2.18,0,3.95,1.77,3.95,3.95s-1.77,3.9-3.95,3.9-3.9-1.72-3.9-3.9,1.77-3.95,3.9-3.95ZM1167.4,197.65v-25.32h5.98v25.32h-5.98Z"/>
    <path class="cls-5" d="M1194.12,197.65h-6.03l-10.3-25.32h6.66l6.71,18.1,6.55-18.1h6.34l-9.93,25.32Z"/>
    <path class="cls-5" d="M1230.11,190.42c-1.35,4.42-5.36,8.01-11.44,8.01-6.86,0-12.95-4.99-12.95-13.57,0-8.01,5.93-13.31,12.32-13.31,7.8,0,12.38,5.15,12.38,13.16,0,.99-.1,1.82-.16,1.92h-18.51c.16,3.85,3.17,6.6,6.92,6.6s5.51-1.92,6.34-4.42l5.1,1.61ZM1224.34,182.2c-.1-2.96-2.08-5.62-6.24-5.62-3.8,0-5.98,2.91-6.19,5.62h12.43Z"/>
    <path class="cls-5" d="M1242.22,197.65h-6.03v-25.32h5.88v3.38c1.66-2.91,4.68-4.11,7.49-4.11,6.19,0,9.15,4.47,9.15,10.04v16.02h-6.03v-14.98c0-3.12-1.4-5.62-5.2-5.62-3.43,0-5.25,2.65-5.25,5.98v14.61Z"/>
    <path class="cls-5" d="M1284.97,197.65h-6.03v-37.65h6.03v14.77c1.72-2.24,4.58-3.17,7.23-3.17,6.24,0,9.26,4.47,9.26,10.04v16.02h-6.03v-14.98c0-3.12-1.4-5.62-5.2-5.62-3.33,0-5.15,2.5-5.25,5.72v14.87Z"/>
    <path class="cls-5" d="M1331.19,190.42c-1.35,4.42-5.36,8.01-11.44,8.01-6.86,0-12.95-4.99-12.95-13.57,0-8.01,5.93-13.31,12.32-13.31,7.8,0,12.38,5.15,12.38,13.16,0,.99-.1,1.82-.16,1.92h-18.51c.16,3.85,3.17,6.6,6.92,6.6s5.51-1.92,6.34-4.42l5.1,1.61ZM1325.42,182.2c-.1-2.96-2.08-5.62-6.24-5.62-3.8,0-5.98,2.91-6.19,5.62h12.43Z"/>
    <path class="cls-5" d="M1360.68,193.02c0,2.29.21,4.21.26,4.63h-5.77c-.1-.57-.26-2.24-.26-3.28-1.2,2.13-3.85,3.9-7.44,3.9-7.28,0-12.17-5.72-12.17-13.36s4.94-13.26,12.06-13.26c4.42,0,6.66,2.03,7.44,3.64v-15.29h5.88v33.02ZM1348.14,192.97c3.95,0,6.71-3.28,6.71-8.11s-2.7-7.85-6.66-7.85-6.86,3.07-6.86,7.9,2.7,8.06,6.81,8.06Z"/>
    <path class="cls-5" d="M1372.32,197.6c.42,3.12,2.86,5.46,6.34,5.46,4.78,0,7.18-2.44,7.18-7.59v-2.65c-1.09,1.98-3.64,3.69-7.33,3.69-6.76,0-11.7-5.2-11.7-12.32s4.73-12.32,11.7-12.32c3.95,0,6.4,1.61,7.49,3.69v-3.22h5.82v22.93c0,6.76-3.48,13.05-13,13.05-6.71,0-11.39-4.16-12.06-9.26l5.56-1.46ZM1386,184.18c0-4.32-2.76-7.12-6.5-7.12s-6.6,2.81-6.6,7.12,2.65,7.18,6.6,7.18,6.5-2.81,6.5-7.18Z"/>
    <path class="cls-5" d="M1402.17,159.48c2.18,0,3.95,1.77,3.95,3.95s-1.77,3.9-3.95,3.9-3.9-1.72-3.9-3.9,1.77-3.95,3.9-3.95ZM1399.21,197.65v-25.32h5.98v25.32h-5.98Z"/>
    <path class="cls-5" d="M1419.02,197.65h-6.03v-25.32h5.88v3.38c1.66-2.91,4.68-4.11,7.49-4.11,6.19,0,9.15,4.47,9.15,10.04v16.02h-6.03v-14.98c0-3.12-1.4-5.62-5.2-5.62-3.43,0-5.25,2.65-5.25,5.98v14.61Z"/>
    <path class="cls-5" d="M1446.58,197.6c.42,3.12,2.86,5.46,6.34,5.46,4.78,0,7.18-2.44,7.18-7.59v-2.65c-1.09,1.98-3.64,3.69-7.33,3.69-6.76,0-11.7-5.2-11.7-12.32s4.73-12.32,11.7-12.32c3.95,0,6.4,1.61,7.49,3.69v-3.22h5.82v22.93c0,6.76-3.48,13.05-13,13.05-6.71,0-11.39-4.16-12.06-9.26l5.56-1.46ZM1460.25,184.18c0-4.32-2.76-7.12-6.5-7.12s-6.6,2.81-6.6,7.12,2.65,7.18,6.6,7.18,6.5-2.81,6.5-7.18Z"/>
    <path class="cls-5" d="M1509.76,193.02c0,2.29.21,4.21.26,4.63h-5.77c-.1-.57-.26-2.24-.26-3.28-1.2,2.13-3.85,3.9-7.44,3.9-7.28,0-12.17-5.72-12.17-13.36s4.94-13.26,12.06-13.26c4.42,0,6.66,2.03,7.44,3.64v-15.29h5.88v33.02ZM1497.23,192.97c3.95,0,6.71-3.28,6.71-8.11s-2.7-7.85-6.66-7.85-6.86,3.07-6.86,7.9,2.7,8.06,6.81,8.06Z"/>
    <path class="cls-5" d="M1540.07,190.42c-1.35,4.42-5.36,8.01-11.44,8.01-6.86,0-12.95-4.99-12.95-13.57,0-8.01,5.93-13.31,12.32-13.31,7.8,0,12.38,5.15,12.38,13.16,0,.99-.1,1.82-.16,1.92h-18.51c.16,3.85,3.17,6.6,6.92,6.6s5.51-1.92,6.34-4.42l5.1,1.61ZM1534.3,182.2c-.1-2.96-2.08-5.62-6.24-5.62-3.8,0-5.98,2.91-6.19,5.62h12.43Z"/>
    <path class="cls-5" d="M1550.21,184.96c0,5.1,3.28,7.96,7.07,7.96s5.77-2.76,6.34-4.68l5.3,1.92c-1.2,3.95-4.99,8.27-11.65,8.27-7.44,0-13.1-5.77-13.1-13.47s5.67-13.42,12.95-13.42c6.81,0,10.56,4.26,11.6,8.32l-5.41,1.98c-.57-2.24-2.29-4.73-6.14-4.73s-6.97,2.76-6.97,7.85Z"/>
    <path class="cls-5" d="M1577.25,159.48c2.18,0,3.95,1.77,3.95,3.95s-1.77,3.9-3.95,3.9-3.9-1.72-3.9-3.9,1.77-3.95,3.9-3.95ZM1574.29,197.65v-25.32h5.98v25.32h-5.98Z"/>
    <path class="cls-5" d="M1591.08,189.33c.21,2.29,1.92,4.32,5.15,4.32,2.5,0,3.8-1.35,3.8-2.91,0-1.35-.94-2.39-2.96-2.81l-3.74-.83c-4.47-.99-6.81-3.9-6.81-7.38,0-4.42,4.06-8.16,9.31-8.16,7.07,0,9.36,4.58,9.78,7.07l-5.1,1.46c-.21-1.46-1.3-3.8-4.68-3.8-2.13,0-3.64,1.35-3.64,2.91,0,1.35.99,2.34,2.55,2.65l3.85.78c4.78,1.04,7.28,3.95,7.28,7.7s-3.12,8.11-9.57,8.11c-7.33,0-10.14-4.78-10.45-7.64l5.25-1.46Z"/>
    <path class="cls-5" d="M1614.79,159.48c2.18,0,3.95,1.77,3.95,3.95s-1.77,3.9-3.95,3.9-3.9-1.72-3.9-3.9,1.77-3.95,3.9-3.95ZM1611.83,197.65v-25.32h5.98v25.32h-5.98Z"/>
    <path class="cls-5" d="M1649.9,184.96c0,7.8-5.56,13.47-13.16,13.47s-13.1-5.67-13.1-13.47,5.56-13.42,13.1-13.42,13.16,5.67,13.16,13.42ZM1643.81,184.96c0-5.25-3.33-7.96-7.07-7.96s-7.07,2.7-7.07,7.96,3.38,8.06,7.07,8.06,7.07-2.76,7.07-8.06Z"/>
    <path class="cls-5" d="M1661.75,197.65h-6.03v-25.32h5.88v3.38c1.66-2.91,4.68-4.11,7.49-4.11,6.19,0,9.15,4.47,9.15,10.04v16.02h-6.03v-14.98c0-3.12-1.4-5.62-5.2-5.62-3.43,0-5.25,2.65-5.25,5.98v14.61Z"/>
    <path class="cls-5" d="M1688.58,189.33c.21,2.29,1.92,4.32,5.15,4.32,2.5,0,3.8-1.35,3.8-2.91,0-1.35-.94-2.39-2.96-2.81l-3.74-.83c-4.47-.99-6.81-3.9-6.81-7.38,0-4.42,4.06-8.16,9.31-8.16,7.07,0,9.36,4.58,9.78,7.07l-5.1,1.46c-.21-1.46-1.3-3.8-4.68-3.8-2.13,0-3.64,1.35-3.64,2.91,0,1.35.99,2.34,2.55,2.65l3.85.78c4.78,1.04,7.28,3.95,7.28,7.7s-3.12,8.11-9.57,8.11c-7.33,0-10.14-4.78-10.45-7.64l5.25-1.46Z"/>
    <path class="cls-5" d="M205.05,234.72l5.98,17.52,5.04-17.52h6.14l-8.11,25.32h-6.03l-6.29-18.2-6.14,18.2h-6.19l-8.22-25.32h6.45l5.15,17.52,5.98-17.52h6.24Z"/>
    <path class="cls-5" d="M232.82,260.05h-6.03v-37.65h6.03v14.77c1.72-2.24,4.58-3.17,7.23-3.17,6.24,0,9.26,4.47,9.26,10.04v16.02h-6.03v-14.98c0-3.12-1.4-5.62-5.2-5.62-3.33,0-5.15,2.5-5.25,5.72v14.87Z"/>
    <path class="cls-5" d="M279.05,252.82c-1.35,4.42-5.36,8.01-11.44,8.01-6.86,0-12.95-4.99-12.95-13.57,0-8.01,5.93-13.31,12.32-13.31,7.8,0,12.38,5.15,12.38,13.16,0,.99-.1,1.82-.16,1.92h-18.51c.16,3.85,3.17,6.6,6.92,6.6s5.51-1.92,6.34-4.42l5.1,1.61ZM273.27,244.6c-.1-2.96-2.08-5.62-6.24-5.62-3.8,0-5.98,2.91-6.19,5.62h12.43Z"/>
    <path class="cls-5" d="M291.16,260.05h-6.03v-25.32h5.88v3.38c1.66-2.91,4.68-4.11,7.49-4.11,6.19,0,9.15,4.47,9.15,10.04v16.02h-6.03v-14.98c0-3.12-1.4-5.62-5.2-5.62-3.43,0-5.25,2.65-5.25,5.98v14.61Z"/>
    <path class="cls-5" d="M335.52,234.72h5.25v5.36h-5.25v11.75c0,2.24.99,3.17,3.22,3.17.83,0,1.82-.16,2.08-.21v4.99c-.36.16-1.51.57-3.69.57-4.68,0-7.59-2.81-7.59-7.54v-12.74h-4.68v-5.36h1.3c2.7,0,3.9-1.72,3.9-3.95v-3.8h5.46v7.75Z"/>
    <path class="cls-5" d="M352.26,260.05h-6.03v-37.65h6.03v14.77c1.72-2.24,4.58-3.17,7.23-3.17,6.24,0,9.26,4.47,9.26,10.04v16.02h-6.03v-14.98c0-3.12-1.4-5.62-5.2-5.62-3.33,0-5.15,2.5-5.25,5.72v14.87Z"/>
    <path class="cls-5" d="M398.49,252.82c-1.35,4.42-5.36,8.01-11.44,8.01-6.86,0-12.95-4.99-12.95-13.57,0-8.01,5.93-13.31,12.32-13.31,7.8,0,12.38,5.15,12.38,13.16,0,.99-.1,1.82-.16,1.92h-18.51c.16,3.85,3.17,6.6,6.92,6.6s5.51-1.92,6.34-4.42l5.1,1.61ZM392.71,244.6c-.1-2.96-2.08-5.62-6.24-5.62-3.8,0-5.98,2.91-6.19,5.62h12.43Z"/>
    <path class="cls-5" d="M420.43,221.88c2.18,0,3.95,1.77,3.95,3.95s-1.77,3.9-3.95,3.9-3.9-1.72-3.9-3.9,1.77-3.95,3.9-3.95ZM417.46,260.05v-25.32h5.98v25.32h-5.98Z"/>
    <path class="cls-5" d="M437.28,260.05h-6.03v-25.32h5.88v3.38c1.66-2.91,4.68-4.11,7.49-4.11,6.19,0,9.15,4.47,9.15,10.04v16.02h-6.03v-14.98c0-3.12-1.4-5.62-5.2-5.62-3.43,0-5.25,2.65-5.25,5.98v14.61Z"/>
    <path class="cls-5" d="M468.58,231.4v3.33h5.88v5.25h-5.88v20.07h-6.08v-20.07h-4.42v-5.25h4.42v-3.48c0-5.67,3.64-9.1,8.84-9.1,1.51,0,2.76.31,3.17.52v5.15c-.36-.1-1.04-.26-2.18-.26-1.61,0-3.74.73-3.74,3.85Z"/>
    <path class="cls-5" d="M502.8,247.36c0,7.8-5.56,13.47-13.16,13.47s-13.1-5.67-13.1-13.47,5.56-13.42,13.1-13.42,13.16,5.67,13.16,13.42ZM496.71,247.36c0-5.25-3.33-7.96-7.07-7.96s-7.07,2.7-7.07,7.96,3.38,8.06,7.07,8.06,7.07-2.76,7.07-8.06Z"/>
    <path class="cls-5" d="M523.44,240.7c-.68-.1-1.35-.16-1.98-.16-4.68,0-6.81,2.7-6.81,7.44v12.06h-6.03v-25.32h5.88v4.06c1.2-2.76,4-4.37,7.33-4.37.73,0,1.35.1,1.61.16v6.14Z"/>
    <path class="cls-5" d="M528.48,260.05v-25.32h5.77v3.22c1.46-2.6,4.63-3.95,7.49-3.95,3.33,0,6.24,1.51,7.59,4.47,1.98-3.33,4.94-4.47,8.22-4.47,4.58,0,8.94,2.91,8.94,9.62v16.43h-5.82v-15.44c0-2.96-1.51-5.2-4.89-5.2-3.17,0-5.25,2.5-5.25,5.62v15.03h-5.93v-15.44c0-2.91-1.46-5.2-4.89-5.2-3.22,0-5.25,2.39-5.25,5.62v15.03h-5.98Z"/>
    <path class="cls-5" d="M579.96,245.54l6.5-.99c1.46-.21,1.87-.94,1.87-1.82,0-2.13-1.46-3.85-4.78-3.85s-4.94,2.03-5.2,4.58l-5.51-1.25c.47-4.37,4.42-8.27,10.66-8.27,7.8,0,10.76,4.42,10.76,9.46v12.58c0,2.29.26,3.8.31,4.06h-5.62c-.05-.16-.26-1.2-.26-3.22-1.2,1.92-3.69,4-7.8,4-5.3,0-8.58-3.64-8.58-7.64,0-4.52,3.33-7.02,7.64-7.64ZM588.33,249.54v-1.14l-6.6.99c-1.87.31-3.38,1.35-3.38,3.43,0,1.72,1.3,3.28,3.69,3.28,3.38,0,6.29-1.61,6.29-6.55Z"/>
    <path class="cls-5" d="M609.08,234.72h5.25v5.36h-5.25v11.75c0,2.24.99,3.17,3.22,3.17.83,0,1.82-.16,2.08-.21v4.99c-.36.16-1.51.57-3.69.57-4.68,0-7.59-2.81-7.59-7.54v-12.74h-4.68v-5.36h1.3c2.7,0,3.9-1.72,3.9-3.95v-3.8h5.46v7.75Z"/>
    <path class="cls-5" d="M623.49,221.88c2.18,0,3.95,1.77,3.95,3.95s-1.77,3.9-3.95,3.9-3.9-1.72-3.9-3.9,1.77-3.95,3.9-3.95ZM620.52,260.05v-25.32h5.98v25.32h-5.98Z"/>
    <path class="cls-5" d="M658.59,247.36c0,7.8-5.56,13.47-13.16,13.47s-13.1-5.67-13.1-13.47,5.56-13.42,13.1-13.42,13.16,5.67,13.16,13.42ZM652.5,247.36c0-5.25-3.33-7.96-7.07-7.96s-7.07,2.7-7.07,7.96,3.38,8.06,7.07,8.06,7.07-2.76,7.07-8.06Z"/>
    <path class="cls-5" d="M670.44,260.05h-6.03v-25.32h5.88v3.38c1.66-2.91,4.68-4.11,7.49-4.11,6.19,0,9.15,4.47,9.15,10.04v16.02h-6.03v-14.98c0-3.12-1.4-5.62-5.2-5.62-3.43,0-5.25,2.65-5.25,5.98v14.61Z"/>
    <path class="cls-5" d="M708.4,270.29l6.08-13.26-10.82-22.31h6.81l7.28,16.02,6.81-16.02h6.4l-16.12,35.57h-6.45Z"/>
    <path class="cls-5" d="M758.53,247.36c0,7.8-5.56,13.47-13.16,13.47s-13.1-5.67-13.1-13.47,5.56-13.42,13.1-13.42,13.16,5.67,13.16,13.42ZM752.45,247.36c0-5.25-3.33-7.96-7.07-7.96s-7.07,2.7-7.07,7.96,3.38,8.06,7.07,8.06,7.07-2.76,7.07-8.06Z"/>
    <path class="cls-5" d="M773.5,260.78c-6.03,0-9.57-4.47-9.57-10.09v-15.96h6.03v14.87c0,3.12,1.46,5.77,5.1,5.77s5.3-2.34,5.3-5.67v-14.98h6.03v20.7c0,2.08.16,3.69.26,4.63h-5.77c-.1-.57-.21-1.77-.21-2.81-1.25,2.29-4.21,3.54-7.18,3.54Z"/>
    <path class="cls-5" d="M813.13,260.05h-6.03v-25.32h5.88v3.38c1.66-2.91,4.68-4.11,7.49-4.11,6.19,0,9.15,4.47,9.15,10.04v16.02h-6.03v-14.98c0-3.12-1.4-5.62-5.2-5.62-3.43,0-5.25,2.65-5.25,5.98v14.61Z"/>
    <path class="cls-5" d="M859.36,252.82c-1.35,4.42-5.36,8.01-11.44,8.01-6.86,0-12.95-4.99-12.95-13.57,0-8.01,5.93-13.31,12.32-13.31,7.8,0,12.38,5.15,12.38,13.16,0,.99-.1,1.82-.16,1.92h-18.51c.16,3.85,3.17,6.6,6.92,6.6s5.51-1.92,6.34-4.42l5.1,1.61ZM853.58,244.6c-.1-2.96-2.08-5.62-6.24-5.62-3.8,0-5.98,2.91-6.19,5.62h12.43Z"/>
    <path class="cls-5" d="M887.85,252.82c-1.35,4.42-5.36,8.01-11.44,8.01-6.86,0-12.95-4.99-12.95-13.57,0-8.01,5.93-13.31,12.32-13.31,7.8,0,12.38,5.15,12.38,13.16,0,.99-.1,1.82-.16,1.92h-18.51c.16,3.85,3.17,6.6,6.92,6.6s5.51-1.92,6.34-4.42l5.1,1.61ZM882.08,244.6c-.1-2.96-2.08-5.62-6.24-5.62-3.8,0-5.98,2.91-6.19,5.62h12.43Z"/>
    <path class="cls-5" d="M917.33,255.42c0,2.29.21,4.21.26,4.63h-5.77c-.1-.57-.26-2.24-.26-3.28-1.2,2.13-3.85,3.9-7.44,3.9-7.28,0-12.17-5.72-12.17-13.36s4.94-13.26,12.06-13.26c4.42,0,6.66,2.03,7.44,3.64v-15.29h5.88v33.02ZM904.8,255.37c3.95,0,6.71-3.28,6.71-8.11s-2.7-7.85-6.66-7.85-6.86,3.07-6.86,7.9,2.7,8.06,6.81,8.06Z"/>
    <path class="cls-5" d="M941.1,221.88c2.18,0,3.95,1.77,3.95,3.95s-1.77,3.9-3.95,3.9-3.9-1.72-3.9-3.9,1.77-3.95,3.9-3.95ZM938.13,260.05v-25.32h5.98v25.32h-5.98Z"/>
    <path class="cls-5" d="M954.93,251.73c.21,2.29,1.92,4.32,5.15,4.32,2.5,0,3.8-1.35,3.8-2.91,0-1.35-.94-2.39-2.96-2.81l-3.74-.83c-4.47-.99-6.81-3.9-6.81-7.38,0-4.42,4.06-8.16,9.31-8.16,7.07,0,9.36,4.58,9.78,7.07l-5.1,1.46c-.21-1.46-1.3-3.8-4.68-3.8-2.13,0-3.64,1.35-3.64,2.91,0,1.35.99,2.34,2.55,2.65l3.85.78c4.78,1.04,7.28,3.95,7.28,7.7s-3.12,8.11-9.57,8.11c-7.33,0-10.14-4.78-10.45-7.64l5.25-1.46Z"/>
    <path class="cls-5" d="M988.57,260.05v-37.65h6.03v37.65h-6.03Z"/>
    <path class="cls-5" d="M1026.69,247.36c0,7.8-5.56,13.47-13.16,13.47s-13.1-5.67-13.1-13.47,5.56-13.42,13.1-13.42,13.16,5.67,13.16,13.42ZM1020.6,247.36c0-5.25-3.33-7.96-7.07-7.96s-7.07,2.7-7.07,7.96,3.38,8.06,7.07,8.06,7.07-2.76,7.07-8.06Z"/>
    <path class="cls-5" d="M1036.57,247.36c0,5.1,3.28,7.96,7.07,7.96s5.77-2.76,6.34-4.68l5.3,1.92c-1.2,3.95-4.99,8.27-11.65,8.27-7.44,0-13.1-5.77-13.1-13.47s5.67-13.42,12.95-13.42c6.81,0,10.56,4.26,11.6,8.32l-5.41,1.98c-.57-2.24-2.29-4.73-6.14-4.73s-6.97,2.76-6.97,7.85Z"/>
    <path class="cls-5" d="M1073.95,245.44l10.61,14.61h-7.38l-7.44-10.35-3.12,3.28v7.07h-5.98v-37.65h5.98v22.57l9.72-10.24h8.01l-10.4,10.71Z"/>
    <path class="cls-5" d="M1110.15,252.82c-1.35,4.42-5.36,8.01-11.44,8.01-6.86,0-12.95-4.99-12.95-13.57,0-8.01,5.93-13.31,12.32-13.31,7.8,0,12.38,5.15,12.38,13.16,0,.99-.1,1.82-.16,1.92h-18.51c.16,3.85,3.17,6.6,6.92,6.6s5.51-1.92,6.34-4.42l5.1,1.61ZM1104.37,244.6c-.1-2.96-2.08-5.62-6.24-5.62-3.8,0-5.98,2.91-6.19,5.62h12.43Z"/>
    <path class="cls-5" d="M1139.63,255.42c0,2.29.21,4.21.26,4.63h-5.77c-.1-.57-.26-2.24-.26-3.28-1.2,2.13-3.85,3.9-7.44,3.9-7.28,0-12.17-5.72-12.17-13.36s4.94-13.26,12.06-13.26c4.42,0,6.66,2.03,7.44,3.64v-15.29h5.88v33.02ZM1127.1,255.37c3.95,0,6.71-3.28,6.71-8.11s-2.7-7.85-6.66-7.85-6.86,3.07-6.86,7.9,2.7,8.06,6.81,8.06Z"/>
    <path class="cls-5" d="M1163.39,221.88c2.18,0,3.95,1.77,3.95,3.95s-1.77,3.9-3.95,3.9-3.9-1.72-3.9-3.9,1.77-3.95,3.9-3.95ZM1160.43,260.05v-25.32h5.98v25.32h-5.98Z"/>
    <path class="cls-5" d="M1180.24,260.05h-6.03v-25.32h5.88v3.38c1.66-2.91,4.68-4.11,7.49-4.11,6.19,0,9.15,4.47,9.15,10.04v16.02h-6.03v-14.98c0-3.12-1.4-5.62-5.2-5.62-3.43,0-5.25,2.65-5.25,5.98v14.61Z"/>
    <path class="cls-5" d="M1219.97,251.73c.21,2.29,1.92,4.32,5.15,4.32,2.5,0,3.8-1.35,3.8-2.91,0-1.35-.94-2.39-2.96-2.81l-3.74-.83c-4.47-.99-6.81-3.9-6.81-7.38,0-4.42,4.06-8.16,9.31-8.16,7.07,0,9.36,4.58,9.78,7.07l-5.1,1.46c-.21-1.46-1.3-3.8-4.68-3.8-2.13,0-3.64,1.35-3.64,2.91,0,1.35.99,2.34,2.55,2.65l3.85.78c4.78,1.04,7.28,3.95,7.28,7.7s-3.12,8.11-9.57,8.11c-7.33,0-10.14-4.78-10.45-7.64l5.25-1.46Z"/>
    <path class="cls-5" d="M1241.6,270.29l6.08-13.26-10.82-22.31h6.81l7.28,16.02,6.81-16.02h6.4l-16.12,35.57h-6.45Z"/>
    <path class="cls-5" d="M1271.19,251.73c.21,2.29,1.92,4.32,5.15,4.32,2.5,0,3.8-1.35,3.8-2.91,0-1.35-.94-2.39-2.96-2.81l-3.74-.83c-4.47-.99-6.81-3.9-6.81-7.38,0-4.42,4.06-8.16,9.31-8.16,7.07,0,9.36,4.58,9.78,7.07l-5.1,1.46c-.21-1.46-1.3-3.8-4.68-3.8-2.13,0-3.64,1.35-3.64,2.91,0,1.35.99,2.34,2.55,2.65l3.85.78c4.78,1.04,7.28,3.95,7.28,7.7s-3.12,8.11-9.57,8.11c-7.33,0-10.14-4.78-10.45-7.64l5.25-1.46Z"/>
    <path class="cls-5" d="M1299.58,234.72h5.25v5.36h-5.25v11.75c0,2.24.99,3.17,3.22,3.17.83,0,1.82-.16,2.08-.21v4.99c-.36.16-1.51.57-3.69.57-4.68,0-7.59-2.81-7.59-7.54v-12.74h-4.68v-5.36h1.3c2.7,0,3.9-1.72,3.9-3.95v-3.8h5.46v7.75Z"/>
    <path class="cls-5" d="M1333.17,252.82c-1.35,4.42-5.36,8.01-11.44,8.01-6.86,0-12.95-4.99-12.95-13.57,0-8.01,5.93-13.31,12.32-13.31,7.8,0,12.38,5.15,12.38,13.16,0,.99-.1,1.82-.16,1.92h-18.51c.16,3.85,3.17,6.6,6.92,6.6s5.51-1.92,6.34-4.42l5.1,1.61ZM1327.4,244.6c-.1-2.96-2.08-5.62-6.24-5.62-3.8,0-5.98,2.91-6.19,5.62h12.43Z"/>
    <path class="cls-5" d="M1339.25,260.05v-25.32h5.77v3.22c1.46-2.6,4.63-3.95,7.49-3.95,3.33,0,6.24,1.51,7.59,4.47,1.98-3.33,4.94-4.47,8.22-4.47,4.58,0,8.94,2.91,8.94,9.62v16.43h-5.82v-15.44c0-2.96-1.51-5.2-4.89-5.2-3.17,0-5.25,2.5-5.25,5.62v15.03h-5.93v-15.44c0-2.91-1.46-5.2-4.89-5.2-3.22,0-5.25,2.39-5.25,5.62v15.03h-5.98Z"/>
    <path class="cls-5" d="M1387.66,251.73c.21,2.29,1.92,4.32,5.15,4.32,2.5,0,3.8-1.35,3.8-2.91,0-1.35-.94-2.39-2.96-2.81l-3.74-.83c-4.47-.99-6.81-3.9-6.81-7.38,0-4.42,4.06-8.16,9.31-8.16,7.07,0,9.36,4.58,9.78,7.07l-5.1,1.46c-.21-1.46-1.3-3.8-4.68-3.8-2.13,0-3.64,1.35-3.64,2.91,0,1.35.99,2.34,2.55,2.65l3.85.78c4.78,1.04,7.28,3.95,7.28,7.7s-3.12,8.11-9.57,8.11c-7.33,0-10.14-4.78-10.45-7.64l5.25-1.46Z"/>
    <path class="cls-5" d="M1428.95,234.72h5.25v5.36h-5.25v11.75c0,2.24.99,3.17,3.22,3.17.83,0,1.82-.16,2.08-.21v4.99c-.36.16-1.51.57-3.69.57-4.68,0-7.59-2.81-7.59-7.54v-12.74h-4.68v-5.36h1.3c2.7,0,3.9-1.72,3.9-3.95v-3.8h5.46v7.75Z"/>
    <path class="cls-5" d="M1445.69,260.05h-6.03v-37.65h6.03v14.77c1.72-2.24,4.58-3.17,7.23-3.17,6.24,0,9.26,4.47,9.26,10.04v16.02h-6.03v-14.98c0-3.12-1.4-5.62-5.2-5.62-3.33,0-5.15,2.5-5.25,5.72v14.87Z"/>
    <path class="cls-5" d="M1475.59,245.54l6.5-.99c1.46-.21,1.87-.94,1.87-1.82,0-2.13-1.46-3.85-4.78-3.85s-4.94,2.03-5.2,4.58l-5.51-1.25c.47-4.37,4.42-8.27,10.66-8.27,7.8,0,10.76,4.42,10.76,9.46v12.58c0,2.29.26,3.8.31,4.06h-5.62c-.05-.16-.26-1.2-.26-3.22-1.2,1.92-3.69,4-7.8,4-5.3,0-8.58-3.64-8.58-7.64,0-4.52,3.33-7.02,7.64-7.64ZM1483.97,249.54v-1.14l-6.6.99c-1.87.31-3.38,1.35-3.38,3.43,0,1.72,1.3,3.28,3.69,3.28,3.38,0,6.29-1.61,6.29-6.55Z"/>
    <path class="cls-5" d="M1504.71,234.72h5.25v5.36h-5.25v11.75c0,2.24.99,3.17,3.22,3.17.83,0,1.82-.16,2.08-.21v4.99c-.36.16-1.51.57-3.69.57-4.68,0-7.59-2.81-7.59-7.54v-12.74h-4.68v-5.36h1.3c2.7,0,3.9-1.72,3.9-3.95v-3.8h5.46v7.75Z"/>
    <path class="cls-5" d="M1552.34,255.42c0,2.29.21,4.21.26,4.63h-5.77c-.1-.57-.26-2.24-.26-3.28-1.2,2.13-3.85,3.9-7.44,3.9-7.28,0-12.17-5.72-12.17-13.36s4.94-13.26,12.06-13.26c4.42,0,6.66,2.03,7.44,3.64v-15.29h5.88v33.02ZM1539.81,255.37c3.95,0,6.71-3.28,6.71-8.11s-2.7-7.85-6.66-7.85-6.86,3.07-6.86,7.9,2.7,8.06,6.81,8.06Z"/>
    <path class="cls-5" d="M1584.53,247.36c0,7.8-5.56,13.47-13.16,13.47s-13.1-5.67-13.1-13.47,5.56-13.42,13.1-13.42,13.16,5.67,13.16,13.42ZM1578.45,247.36c0-5.25-3.33-7.96-7.07-7.96s-7.07,2.7-7.07,7.96,3.38,8.06,7.07,8.06,7.07-2.76,7.07-8.06Z"/>
    <path class="cls-5" d="M1596.39,260.05h-6.03v-25.32h5.88v3.38c1.66-2.91,4.68-4.11,7.49-4.11,6.19,0,9.15,4.47,9.15,10.04v16.02h-6.03v-14.98c0-3.12-1.4-5.62-5.2-5.62-3.43,0-5.25,2.65-5.25,5.98v14.61Z"/>
    <path class="cls-5" d="M1619.63,222.76c2.5,0,4.32,1.98,4.32,4.84,0,6.76-4.52,9.36-7.7,9.67v-2.86c2.13-.42,4.06-2.44,4.16-4.78-.1.05-.57.26-1.09.26-2.08,0-3.54-1.46-3.54-3.59,0-1.87,1.61-3.54,3.85-3.54Z"/>
    <path class="cls-5" d="M1637.36,234.72h5.25v5.36h-5.25v11.75c0,2.24.99,3.17,3.22,3.17.83,0,1.82-.16,2.08-.21v4.99c-.36.16-1.51.57-3.69.57-4.68,0-7.59-2.81-7.59-7.54v-12.74h-4.68v-5.36h1.3c2.7,0,3.9-1.72,3.9-3.95v-3.8h5.46v7.75Z"/>
    <path class="cls-5" d="M1669.24,234.72h5.25v5.36h-5.25v11.75c0,2.24.99,3.17,3.22,3.17.83,0,1.82-.16,2.08-.21v4.99c-.36.16-1.51.57-3.69.57-4.68,0-7.59-2.81-7.59-7.54v-12.74h-4.68v-5.36h1.3c2.7,0,3.9-1.72,3.9-3.95v-3.8h5.46v7.75Z"/>
    <path class="cls-5" d="M1686.81,245.54l6.5-.99c1.46-.21,1.87-.94,1.87-1.82,0-2.13-1.46-3.85-4.78-3.85s-4.94,2.03-5.2,4.58l-5.51-1.25c.47-4.37,4.42-8.27,10.66-8.27,7.8,0,10.76,4.42,10.76,9.46v12.58c0,2.29.26,3.8.31,4.06h-5.62c-.05-.16-.26-1.2-.26-3.22-1.2,1.92-3.69,4-7.8,4-5.3,0-8.58-3.64-8.58-7.64,0-4.52,3.33-7.02,7.64-7.64ZM1695.18,249.54v-1.14l-6.6.99c-1.87.31-3.38,1.35-3.38,3.43,0,1.72,1.3,3.28,3.69,3.28,3.38,0,6.29-1.61,6.29-6.55Z"/>
    <path class="cls-5" d="M1708.39,260.05v-37.65h6.03v37.65h-6.03Z"/>
    <path class="cls-5" d="M1735.54,245.44l10.61,14.61h-7.38l-7.44-10.35-3.12,3.28v7.07h-5.98v-37.65h5.98v22.57l9.72-10.24h8.01l-10.4,10.71Z"/>
    <path class="cls-5" d="M530.23,309.76c0,7.8-5.56,13.47-13.16,13.47s-13.1-5.67-13.1-13.47,5.56-13.42,13.1-13.42,13.16,5.67,13.16,13.42ZM524.14,309.76c0-5.25-3.33-7.96-7.07-7.96s-7.07,2.7-7.07,7.96,3.38,8.06,7.07,8.06,7.07-2.76,7.07-8.06Z"/>
    <path class="cls-5" d="M550.87,303.1c-.68-.1-1.35-.16-1.98-.16-4.68,0-6.81,2.7-6.81,7.44v12.06h-6.03v-25.33h5.88v4.06c1.2-2.76,4-4.37,7.33-4.37.73,0,1.35.1,1.61.16v6.14Z"/>
    <path class="cls-5" d="M571.72,314.13c.21,2.29,1.92,4.32,5.15,4.32,2.5,0,3.8-1.35,3.8-2.91,0-1.35-.94-2.39-2.96-2.81l-3.74-.83c-4.47-.99-6.81-3.9-6.81-7.38,0-4.42,4.06-8.16,9.31-8.16,7.07,0,9.36,4.58,9.78,7.07l-5.1,1.46c-.21-1.46-1.3-3.8-4.68-3.8-2.13,0-3.64,1.35-3.64,2.91,0,1.35.99,2.34,2.55,2.65l3.85.78c4.78,1.04,7.28,3.95,7.28,7.7s-3.12,8.11-9.57,8.11c-7.33,0-10.14-4.78-10.45-7.64l5.25-1.46Z"/>
    <path class="cls-5" d="M595.43,284.28c2.18,0,3.95,1.77,3.95,3.95s-1.77,3.9-3.95,3.9-3.9-1.72-3.9-3.9,1.77-3.95,3.9-3.95ZM592.47,322.45v-25.33h5.98v25.33h-5.98Z"/>
    <path class="cls-5" d="M606.25,322.45v-25.33h5.77v3.22c1.46-2.6,4.63-3.95,7.49-3.95,3.33,0,6.24,1.51,7.59,4.47,1.98-3.33,4.94-4.47,8.22-4.47,4.58,0,8.94,2.91,8.94,9.62v16.43h-5.82v-15.44c0-2.96-1.51-5.2-4.89-5.2-3.17,0-5.25,2.5-5.25,5.62v15.03h-5.93v-15.44c0-2.91-1.46-5.2-4.89-5.2-3.22,0-5.25,2.39-5.25,5.62v15.03h-5.98Z"/>
    <path class="cls-5" d="M651.64,332.33v-35.21h5.82v3.43c1.25-2.18,4.16-4,8.06-4,7.49,0,11.7,5.72,11.7,13.21s-4.63,13.31-11.91,13.31c-3.64,0-6.4-1.56-7.7-3.48v12.74h-5.98ZM664.38,301.91c-3.95,0-6.81,3.12-6.81,7.85s2.86,7.96,6.81,7.96,6.81-3.12,6.81-7.96-2.76-7.85-6.81-7.85Z"/>
    <path class="cls-5" d="M683.05,322.45v-37.65h6.03v37.65h-6.03Z"/>
    <path class="cls-5" d="M698.13,332.69l6.08-13.26-10.82-22.31h6.81l7.28,16.02,6.81-16.02h6.4l-16.12,35.57h-6.45Z"/>
    <path class="cls-5" d="M747.32,323.18c-6.03,0-9.57-4.47-9.57-10.09v-15.96h6.03v14.87c0,3.12,1.46,5.77,5.1,5.77s5.3-2.34,5.3-5.67v-14.98h6.03v20.7c0,2.08.16,3.69.26,4.63h-5.77c-.1-.57-.21-1.77-.21-2.81-1.25,2.29-4.21,3.54-7.18,3.54Z"/>
    <path class="cls-5" d="M774.05,322.45h-6.03v-25.33h5.88v3.38c1.66-2.91,4.68-4.11,7.49-4.11,6.19,0,9.15,4.47,9.15,10.04v16.02h-6.03v-14.98c0-3.12-1.4-5.62-5.2-5.62-3.43,0-5.25,2.65-5.25,5.98v14.61Z"/>
    <path class="cls-5" d="M803.95,307.94l6.5-.99c1.46-.21,1.87-.94,1.87-1.82,0-2.13-1.46-3.85-4.78-3.85s-4.94,2.03-5.2,4.58l-5.51-1.25c.47-4.37,4.42-8.27,10.66-8.27,7.8,0,10.76,4.42,10.76,9.46v12.58c0,2.29.26,3.8.31,4.06h-5.62c-.05-.16-.26-1.2-.26-3.22-1.2,1.92-3.69,4-7.8,4-5.3,0-8.58-3.64-8.58-7.64,0-4.52,3.33-7.02,7.64-7.64ZM812.32,311.94v-1.14l-6.6.99c-1.87.31-3.38,1.35-3.38,3.43,0,1.72,1.3,3.28,3.69,3.28,3.38,0,6.29-1.61,6.29-6.55Z"/>
    <path class="cls-5" d="M838.22,322.45h-6.03l-10.3-25.33h6.66l6.71,18.1,6.55-18.1h6.34l-9.93,25.33Z"/>
    <path class="cls-5" d="M858.5,307.94l6.5-.99c1.46-.21,1.87-.94,1.87-1.82,0-2.13-1.46-3.85-4.78-3.85s-4.94,2.03-5.2,4.58l-5.51-1.25c.47-4.37,4.42-8.27,10.66-8.27,7.8,0,10.76,4.42,10.76,9.46v12.58c0,2.29.26,3.8.31,4.06h-5.62c-.05-.16-.26-1.2-.26-3.22-1.2,1.92-3.69,4-7.8,4-5.3,0-8.58-3.64-8.58-7.64,0-4.52,3.33-7.02,7.64-7.64ZM866.87,311.94v-1.14l-6.6.99c-1.87.31-3.38,1.35-3.38,3.43,0,1.72,1.3,3.28,3.69,3.28,3.38,0,6.29-1.61,6.29-6.55Z"/>
    <path class="cls-5" d="M883.04,284.28c2.18,0,3.95,1.77,3.95,3.95s-1.77,3.9-3.95,3.9-3.9-1.72-3.9-3.9,1.77-3.95,3.9-3.95ZM880.08,322.45v-25.33h5.98v25.33h-5.98Z"/>
    <path class="cls-5" d="M893.86,322.45v-37.65h6.03v37.65h-6.03Z"/>
    <path class="cls-5" d="M913.67,307.94l6.5-.99c1.46-.21,1.87-.94,1.87-1.82,0-2.13-1.46-3.85-4.78-3.85s-4.94,2.03-5.2,4.58l-5.51-1.25c.47-4.37,4.42-8.27,10.66-8.27,7.8,0,10.76,4.42,10.76,9.46v12.58c0,2.29.26,3.8.31,4.06h-5.62c-.05-.16-.26-1.2-.26-3.22-1.2,1.92-3.69,4-7.8,4-5.3,0-8.58-3.64-8.58-7.64,0-4.52,3.33-7.02,7.64-7.64ZM922.04,311.94v-1.14l-6.6.99c-1.87.31-3.38,1.35-3.38,3.43,0,1.72,1.3,3.28,3.69,3.28,3.38,0,6.29-1.61,6.29-6.55Z"/>
    <path class="cls-5" d="M935.25,322.45v-37.65h5.93v15.44c1.14-1.98,4.06-3.8,7.96-3.8,7.59,0,11.7,5.77,11.7,13.21s-4.52,13.42-11.91,13.42c-3.59,0-6.34-1.56-7.8-4v3.38h-5.88ZM947.94,301.8c-3.85,0-6.81,2.86-6.81,7.9s2.96,8.01,6.81,8.01,6.81-3.02,6.81-8.01-2.81-7.9-6.81-7.9Z"/>
    <path class="cls-5" d="M966.65,322.45v-37.65h6.03v37.65h-6.03Z"/>
    <path class="cls-5" d="M1002.9,315.22c-1.35,4.42-5.36,8.01-11.44,8.01-6.86,0-12.95-4.99-12.95-13.57,0-8.01,5.93-13.31,12.32-13.31,7.8,0,12.38,5.15,12.38,13.16,0,.99-.1,1.82-.16,1.92h-18.51c.16,3.85,3.17,6.6,6.92,6.6s5.51-1.92,6.34-4.42l5.1,1.61ZM997.13,307c-.1-2.96-2.08-5.62-6.24-5.62-3.8,0-5.98,2.91-6.19,5.62h12.43Z"/>
    <path class="cls-5" d="M1042.47,297.12l5.98,17.52,5.04-17.52h6.14l-8.11,25.33h-6.03l-6.29-18.2-6.14,18.2h-6.19l-8.22-25.33h6.45l5.15,17.52,5.98-17.52h6.24Z"/>
    <path class="cls-5" d="M1070.24,322.45h-6.03v-37.65h6.03v14.77c1.72-2.24,4.58-3.17,7.23-3.17,6.24,0,9.26,4.47,9.26,10.04v16.02h-6.03v-14.98c0-3.12-1.4-5.62-5.2-5.62-3.33,0-5.15,2.5-5.25,5.72v14.87Z"/>
    <path class="cls-5" d="M1116.46,315.22c-1.35,4.42-5.36,8.01-11.44,8.01-6.86,0-12.95-4.99-12.95-13.57,0-8.01,5.93-13.31,12.32-13.31,7.8,0,12.38,5.15,12.38,13.16,0,.99-.1,1.82-.16,1.92h-18.51c.16,3.85,3.17,6.6,6.92,6.6s5.51-1.92,6.34-4.42l5.1,1.61ZM1110.69,307c-.1-2.96-2.08-5.62-6.24-5.62-3.8,0-5.98,2.91-6.19,5.62h12.43Z"/>
    <path class="cls-5" d="M1128.58,322.45h-6.03v-25.33h5.88v3.38c1.66-2.91,4.68-4.11,7.49-4.11,6.19,0,9.15,4.47,9.15,10.04v16.02h-6.03v-14.98c0-3.12-1.4-5.62-5.2-5.62-3.43,0-5.25,2.65-5.25,5.98v14.61Z"/>
    <path class="cls-5" d="M1166.54,332.69l6.08-13.26-10.82-22.31h6.81l7.28,16.02,6.81-16.02h6.4l-16.12,35.57h-6.45Z"/>
    <path class="cls-5" d="M1216.67,309.76c0,7.8-5.56,13.47-13.16,13.47s-13.1-5.67-13.1-13.47,5.56-13.42,13.1-13.42,13.16,5.67,13.16,13.42ZM1210.58,309.76c0-5.25-3.33-7.96-7.07-7.96s-7.07,2.7-7.07,7.96,3.38,8.06,7.07,8.06,7.07-2.76,7.07-8.06Z"/>
    <path class="cls-5" d="M1231.64,323.18c-6.03,0-9.57-4.47-9.57-10.09v-15.96h6.03v14.87c0,3.12,1.46,5.77,5.1,5.77s5.3-2.34,5.3-5.67v-14.98h6.03v20.7c0,2.08.16,3.69.26,4.63h-5.77c-.1-.57-.21-1.77-.21-2.81-1.25,2.29-4.21,3.54-7.18,3.54Z"/>
    <path class="cls-5" d="M1271.27,322.45h-6.03v-25.33h5.88v3.38c1.66-2.91,4.68-4.11,7.49-4.11,6.19,0,9.15,4.47,9.15,10.04v16.02h-6.03v-14.98c0-3.12-1.4-5.62-5.2-5.62-3.43,0-5.25,2.65-5.25,5.98v14.61Z"/>
    <path class="cls-5" d="M1317.49,315.22c-1.35,4.42-5.36,8.01-11.44,8.01-6.86,0-12.95-4.99-12.95-13.57,0-8.01,5.93-13.31,12.32-13.31,7.8,0,12.38,5.15,12.38,13.16,0,.99-.1,1.82-.16,1.92h-18.51c.16,3.85,3.17,6.6,6.92,6.6s5.51-1.92,6.34-4.42l5.1,1.61ZM1311.72,307c-.1-2.96-2.08-5.62-6.24-5.62-3.8,0-5.98,2.91-6.19,5.62h12.43Z"/>
    <path class="cls-5" d="M1345.99,315.22c-1.35,4.42-5.36,8.01-11.44,8.01-6.86,0-12.95-4.99-12.95-13.57,0-8.01,5.93-13.31,12.32-13.31,7.8,0,12.38,5.15,12.38,13.16,0,.99-.1,1.82-.16,1.92h-18.51c.16,3.85,3.17,6.6,6.92,6.6s5.51-1.92,6.34-4.42l5.1,1.61ZM1340.22,307c-.1-2.96-2.08-5.62-6.24-5.62-3.8,0-5.98,2.91-6.19,5.62h12.43Z"/>
    <path class="cls-5" d="M1375.47,317.82c0,2.29.21,4.21.26,4.63h-5.77c-.1-.57-.26-2.24-.26-3.28-1.2,2.13-3.85,3.9-7.44,3.9-7.28,0-12.17-5.72-12.17-13.36s4.94-13.26,12.06-13.26c4.42,0,6.66,2.03,7.44,3.64v-15.29h5.88v33.02ZM1362.94,317.77c3.95,0,6.71-3.28,6.71-8.11s-2.7-7.85-6.66-7.85-6.86,3.07-6.86,7.9,2.7,8.06,6.81,8.06Z"/>
    <path class="cls-5" d="M1399.23,284.28c2.18,0,3.95,1.77,3.95,3.95s-1.77,3.9-3.95,3.9-3.9-1.72-3.9-3.9,1.77-3.95,3.9-3.95ZM1396.27,322.45v-25.33h5.98v25.33h-5.98Z"/>
    <path class="cls-5" d="M1417.69,297.12h5.25v5.36h-5.25v11.75c0,2.24.99,3.17,3.22,3.17.83,0,1.82-.16,2.08-.21v4.99c-.36.16-1.51.57-3.69.57-4.68,0-7.59-2.81-7.59-7.54v-12.74h-4.68v-5.36h1.3c2.7,0,3.9-1.72,3.9-3.95v-3.8h5.46v7.75Z"/>
  </g>
  <g>
    <path class="cls-2" d="M837.78,807.52h250.08v84.91c0,13.3-10.79,24.09-24.09,24.09h-225.99c-12.1,0-21.92-9.82-21.92-21.92v-65.17c0-12.1,9.82-21.92,21.92-21.92Z"/>
    <g>
      <g>
        <path class="cls-4" d="M870.35,857.48v-21.27h12.79v3.93h-8.85v5.25h7.88v3.81h-7.85v8.28h-3.97Z"/>
        <path class="cls-4" d="M888.45,849l3.45-.54c.8-.12,1.06-.54,1.06-1.05,0-1.05-.77-1.92-2.37-1.92s-2.57,1.11-2.68,2.4l-3.37-.75c.23-2.31,2.26-4.86,6.02-4.86,4.45,0,6.11,2.64,6.11,5.61v7.26c0,.78.09,1.83.17,2.34h-3.48c-.09-.39-.14-1.2-.14-1.77-.71,1.17-2.06,2.19-4.14,2.19-3,0-4.82-2.13-4.82-4.44,0-2.64,1.86-4.11,4.2-4.47ZM892.96,851.52v-.66l-3.17.51c-.97.15-1.74.72-1.74,1.86,0,.87.6,1.71,1.83,1.71,1.6,0,3.08-.81,3.08-3.42Z"/>
        <path class="cls-4" d="M902.39,835.41c1.31,0,2.34,1.11,2.34,2.49s-1.03,2.43-2.34,2.43-2.34-1.11-2.34-2.43,1.06-2.49,2.34-2.49ZM900.5,857.48v-14.76h3.8v14.76h-3.8Z"/>
        <path class="cls-4" d="M916.92,846.69c-.43-.09-.8-.12-1.14-.12-1.94,0-3.63.99-3.63,4.17v6.75h-3.8v-14.76h3.68v2.19c.86-1.95,2.8-2.31,4-2.31.31,0,.6.03.89.06v4.02Z"/>
        <path class="cls-4" d="M883.2,872.22h4.17l-7.51,21.27h-4.05l-7.48-21.27h4.31l5.28,15.81,5.28-15.81Z"/>
        <path class="cls-4" d="M891.28,885l3.45-.54c.8-.12,1.06-.54,1.06-1.05,0-1.05-.77-1.92-2.37-1.92s-2.57,1.11-2.68,2.4l-3.37-.75c.23-2.31,2.26-4.86,6.02-4.86,4.45,0,6.11,2.64,6.11,5.61v7.26c0,.78.09,1.83.17,2.34h-3.48c-.09-.39-.14-1.2-.14-1.77-.71,1.17-2.06,2.19-4.14,2.19-3,0-4.82-2.13-4.82-4.44,0-2.64,1.86-4.11,4.2-4.47ZM895.79,887.52v-.66l-3.17.51c-.97.15-1.74.72-1.74,1.86,0,.87.6,1.71,1.83,1.71,1.6,0,3.08-.81,3.08-3.42Z"/>
        <path class="cls-4" d="M903.33,893.48v-21.72h3.8v21.72h-3.8Z"/>
        <path class="cls-4" d="M920.2,891.9c-.77,1.38-2.4,1.98-3.88,1.98-3.4,0-5.34-2.61-5.34-5.82v-9.33h3.8v8.52c0,1.65.8,2.97,2.57,2.97s2.66-1.2,2.66-2.91v-8.58h3.8v12.09c0,1.14.09,2.16.14,2.67h-3.63c-.06-.3-.11-.99-.11-1.59Z"/>
        <path class="cls-4" d="M940.39,889.25c-.71,2.55-2.94,4.68-6.4,4.68-3.85,0-7.25-2.91-7.25-7.89,0-4.71,3.31-7.77,6.91-7.77,4.34,0,6.94,2.91,6.94,7.65,0,.57-.06,1.17-.06,1.23h-10.05c.09,1.95,1.66,3.36,3.54,3.36,1.77,0,2.74-.93,3.2-2.25l3.17.99ZM936.85,884.43c-.06-1.47-.97-2.91-3.14-2.91-1.97,0-3.05,1.56-3.14,2.91h6.28Z"/>
      </g>
      <path class="cls-4" d="M842.59,845.02v-5.85h3.36v5.85h5.7v3.27h-5.7v5.88h-3.36v-5.88h-5.67v-3.27h5.67Z"/>
    </g>
  </g>
  <g>
    <path class="cls-3" d="M379.78,683.52h250.08v84.91c0,13.3-10.79,24.09-24.09,24.09h-225.99c-12.1,0-21.92-9.82-21.92-21.92v-65.17c0-12.1,9.82-21.92,21.92-21.92Z"/>
    <g>
      <g>
        <path class="cls-4" d="M415.98,719.87l6.99,10.62h-5.01l-4.59-7.35-4.62,7.35h-4.86l6.99-10.65-6.96-10.62h4.98l4.56,7.35,4.65-7.35h4.83l-6.96,10.65Z"/>
        <path class="cls-4" d="M439.71,709.22h4.38l-7.89,21.27h-4.26l-7.86-21.27h4.53l5.55,15.81,5.55-15.81Z"/>
        <path class="cls-4" d="M457.65,725.62h-8.64l-1.77,4.86h-4.38l8.16-21.27h4.8l8.1,21.27h-4.5l-1.77-4.86ZM450.39,721.85h5.88l-2.94-8.04-2.94,8.04Z"/>
        <path class="cls-4" d="M404.58,755.87c0-6.78,5.13-11.1,10.83-11.1s8.91,3.6,9.75,7.05l-3.9,1.23c-.51-2.04-2.16-4.29-5.85-4.29-3.18,0-6.54,2.28-6.54,7.11,0,4.53,3.18,7.02,6.6,7.02,3.63,0,5.4-2.37,5.97-4.35l3.87,1.17c-.81,3.27-3.87,7.23-9.84,7.23s-10.89-4.29-10.89-11.07Z"/>
        <path class="cls-4" d="M431.55,758l3.63-.54c.84-.12,1.11-.54,1.11-1.05,0-1.05-.81-1.92-2.49-1.92s-2.7,1.11-2.82,2.4l-3.54-.75c.24-2.31,2.37-4.86,6.33-4.86,4.68,0,6.42,2.64,6.42,5.61v7.26c0,.78.09,1.83.18,2.34h-3.66c-.09-.39-.15-1.2-.15-1.77-.75,1.17-2.16,2.19-4.35,2.19-3.15,0-5.07-2.13-5.07-4.44,0-2.64,1.95-4.11,4.41-4.47ZM436.29,760.52v-.66l-3.33.51c-1.02.15-1.83.72-1.83,1.86,0,.87.63,1.71,1.92,1.71,1.68,0,3.24-.81,3.24-3.42Z"/>
        <path class="cls-4" d="M444.21,766.48v-21.72h3.99v21.72h-3.99Z"/>
        <path class="cls-4" d="M455.34,759.1c0,2.67,1.74,4.17,3.78,4.17s3.06-1.35,3.39-2.49l3.51,1.17c-.66,2.46-2.97,4.98-6.9,4.98-4.35,0-7.77-3.3-7.77-7.83s3.36-7.83,7.65-7.83c4.02,0,6.3,2.49,6.93,4.98l-3.57,1.2c-.36-1.23-1.29-2.49-3.27-2.49s-3.75,1.47-3.75,4.14Z"/>
        <path class="cls-4" d="M478.26,764.9c-.81,1.38-2.52,1.98-4.08,1.98-3.57,0-5.61-2.61-5.61-5.82v-9.33h3.99v8.52c0,1.65.84,2.97,2.7,2.97s2.79-1.2,2.79-2.91v-8.58h3.99v12.09c0,1.14.09,2.16.15,2.67h-3.81c-.06-.3-.12-.99-.12-1.59Z"/>
        <path class="cls-4" d="M486.3,766.48v-21.72h3.99v21.72h-3.99Z"/>
        <path class="cls-4" d="M497.97,758l3.63-.54c.84-.12,1.11-.54,1.11-1.05,0-1.05-.81-1.92-2.49-1.92s-2.7,1.11-2.82,2.4l-3.54-.75c.24-2.31,2.37-4.86,6.33-4.86,4.68,0,6.42,2.64,6.42,5.61v7.26c0,.78.09,1.83.18,2.34h-3.66c-.09-.39-.15-1.2-.15-1.77-.75,1.17-2.16,2.19-4.35,2.19-3.15,0-5.07-2.13-5.07-4.44,0-2.64,1.95-4.11,4.41-4.47ZM502.71,760.52v-.66l-3.33.51c-1.02.15-1.83.72-1.83,1.86,0,.87.63,1.71,1.92,1.71,1.68,0,3.24-.81,3.24-3.42Z"/>
        <path class="cls-4" d="M515.46,751.73h2.97v3.54h-2.97v6.18c0,1.29.6,1.71,1.74,1.71.48,0,1.02-.06,1.23-.12v3.3c-.36.15-1.08.36-2.25.36-2.88,0-4.68-1.71-4.68-4.56v-6.87h-2.67v-3.54h.75c1.56,0,2.28-1.02,2.28-2.34v-2.07h3.6v4.41Z"/>
        <path class="cls-4" d="M523.8,744.41c1.38,0,2.46,1.11,2.46,2.49s-1.08,2.43-2.46,2.43-2.46-1.11-2.46-2.43,1.11-2.49,2.46-2.49ZM521.82,766.48v-14.76h3.99v14.76h-3.99Z"/>
        <path class="cls-4" d="M544.44,759.1c0,4.53-3.33,7.83-7.74,7.83s-7.74-3.3-7.74-7.83,3.33-7.83,7.74-7.83,7.74,3.27,7.74,7.83ZM540.45,759.1c0-2.79-1.8-4.2-3.75-4.2s-3.75,1.41-3.75,4.2,1.8,4.2,3.75,4.2,3.75-1.41,3.75-4.2Z"/>
        <path class="cls-4" d="M551.58,766.48h-3.99v-14.76h3.87v1.83c.9-1.53,2.67-2.22,4.26-2.22,3.66,0,5.34,2.61,5.34,5.85v9.3h-3.99v-8.61c0-1.65-.81-2.94-2.73-2.94-1.74,0-2.76,1.35-2.76,3.06v8.49Z"/>
        <path class="cls-4" d="M567.27,761.62c.09,1.17.96,2.25,2.7,2.25,1.32,0,1.95-.69,1.95-1.47,0-.66-.45-1.2-1.59-1.44l-1.95-.45c-2.85-.63-4.14-2.34-4.14-4.41,0-2.64,2.34-4.83,5.52-4.83,4.2,0,5.61,2.67,5.79,4.26l-3.33.75c-.12-.87-.75-1.98-2.43-1.98-1.05,0-1.89.63-1.89,1.47,0,.72.54,1.17,1.35,1.32l2.1.45c2.91.6,4.38,2.37,4.38,4.53,0,2.4-1.86,4.86-5.73,4.86-4.44,0-5.97-2.88-6.15-4.56l3.42-.75Z"/>
      </g>
      <path class="cls-3" d="M384.55,718.02v-5.85h3.36v5.85h5.7v3.27h-5.7v5.88h-3.36v-5.88h-5.67v-3.27h5.67Z"/>
    </g>
  </g>
</svg>