<?xml version="1.0" encoding="UTF-8"?>
<svg id="Layer_1" data-name="Layer 1" xmlns="http://www.w3.org/2000/svg" viewBox="0 0 1920 1080">
  <defs>
    <style>
      .cls-1 {
        fill: #ccc;
      }

      .cls-1, .cls-2, .cls-3, .cls-4, .cls-5, .cls-6, .cls-7, .cls-8 {
        stroke-width: 0px;
      }

      .cls-2 {
        fill: #f7f7f7;
      }

      .cls-3 {
        fill: #999;
      }

      .cls-4 {
        fill: #997de4;
      }

      .cls-5 {
        fill: lime;
      }

      .cls-6 {
        fill: #fff;
      }

      .cls-7 {
        fill: #302353;
      }

      .cls-8 {
        fill: #4c22b2;
      }
    </style>
  </defs>
  <g>
    <path class="cls-7" d="M352.23,194.48v-36.87h22.93v5.88h-16.69v10.35h14.98v5.77h-14.98v14.87h-6.24Z"/>
    <path class="cls-7" d="M387.8,195.21c-6.03,0-9.57-4.47-9.57-10.09v-15.96h6.03v14.87c0,3.12,1.46,5.77,5.1,5.77s5.3-2.34,5.3-5.67v-14.98h6.03v20.7c0,2.08.16,3.69.26,4.63h-5.77c-.1-.57-.21-1.77-.21-2.81-1.25,2.29-4.21,3.54-7.18,3.54Z"/>
    <path class="cls-7" d="M414.53,194.48h-6.03v-25.33h5.88v3.38c1.66-2.91,4.68-4.11,7.49-4.11,6.19,0,9.15,4.47,9.15,10.04v16.02h-6.03v-14.98c0-3.12-1.4-5.62-5.2-5.62-3.43,0-5.25,2.65-5.25,5.98v14.61Z"/>
    <path class="cls-7" d="M461.75,189.85c0,2.29.21,4.21.26,4.63h-5.77c-.1-.57-.26-2.24-.26-3.28-1.2,2.13-3.85,3.9-7.44,3.9-7.28,0-12.17-5.72-12.17-13.36s4.94-13.26,12.06-13.26c4.42,0,6.66,2.03,7.44,3.64v-15.29h5.88v33.02ZM449.21,189.8c3.95,0,6.71-3.28,6.71-8.11s-2.7-7.85-6.66-7.85-6.86,3.07-6.86,7.9,2.7,8.06,6.81,8.06Z"/>
    <path class="cls-7" d="M504.8,185.22h-15.6l-3.43,9.26h-6.6l14.35-36.87h7.23l14.35,36.87h-6.81l-3.48-9.26ZM491.38,179.45h11.23l-5.62-15.08-5.62,15.08Z"/>
    <path class="cls-7" d="M542.4,189.85c0,2.29.21,4.21.26,4.63h-5.77c-.1-.57-.26-2.24-.26-3.28-1.2,2.13-3.85,3.9-7.44,3.9-7.28,0-12.17-5.72-12.17-13.36s4.94-13.26,12.06-13.26c4.42,0,6.66,2.03,7.44,3.64v-15.29h5.88v33.02ZM529.86,189.8c3.95,0,6.71-3.28,6.71-8.11s-2.7-7.85-6.66-7.85-6.86,3.07-6.86,7.9,2.7,8.06,6.81,8.06Z"/>
    <path class="cls-7" d="M550.3,194.48v-25.33h5.77v3.22c1.46-2.6,4.63-3.95,7.49-3.95,3.33,0,6.24,1.51,7.59,4.47,1.98-3.33,4.94-4.47,8.22-4.47,4.58,0,8.94,2.91,8.94,9.62v16.43h-5.82v-15.45c0-2.96-1.51-5.2-4.89-5.2-3.17,0-5.25,2.5-5.25,5.62v15.03h-5.93v-15.45c0-2.91-1.46-5.2-4.89-5.2-3.22,0-5.25,2.39-5.25,5.62v15.03h-5.98Z"/>
    <path class="cls-7" d="M598.66,156.31c2.18,0,3.95,1.77,3.95,3.95s-1.77,3.9-3.95,3.9-3.9-1.72-3.9-3.9,1.77-3.95,3.9-3.95ZM595.69,194.48v-25.33h5.98v25.33h-5.98Z"/>
    <path class="cls-7" d="M615.51,194.48h-6.03v-25.33h5.88v3.38c1.66-2.91,4.68-4.11,7.49-4.11,6.19,0,9.15,4.47,9.15,10.04v16.02h-6.03v-14.98c0-3.12-1.4-5.62-5.2-5.62-3.43,0-5.25,2.65-5.25,5.98v14.61Z"/>
    <path class="cls-7" d="M642.29,156.31c2.18,0,3.95,1.77,3.95,3.95s-1.77,3.9-3.95,3.9-3.9-1.72-3.9-3.9,1.77-3.95,3.9-3.95ZM639.32,194.48v-25.33h5.98v25.33h-5.98Z"/>
    <path class="cls-7" d="M656.12,186.16c.21,2.29,1.92,4.32,5.15,4.32,2.5,0,3.8-1.35,3.8-2.91,0-1.35-.94-2.39-2.96-2.81l-3.74-.83c-4.47-.99-6.81-3.9-6.81-7.38,0-4.42,4.06-8.16,9.31-8.16,7.07,0,9.36,4.58,9.78,7.07l-5.1,1.46c-.21-1.46-1.3-3.8-4.68-3.8-2.13,0-3.64,1.35-3.64,2.91,0,1.35.99,2.34,2.55,2.65l3.85.78c4.78,1.04,7.28,3.95,7.28,7.7s-3.12,8.11-9.57,8.11c-7.33,0-10.14-4.78-10.45-7.64l5.25-1.46Z"/>
    <path class="cls-7" d="M684.51,169.16h5.25v5.36h-5.25v11.75c0,2.24.99,3.17,3.22,3.17.83,0,1.82-.16,2.08-.21v4.99c-.36.16-1.51.57-3.69.57-4.68,0-7.59-2.81-7.59-7.54v-12.74h-4.68v-5.36h1.3c2.7,0,3.9-1.72,3.9-3.95v-3.8h5.46v7.75Z"/>
    <path class="cls-7" d="M710.3,175.13c-.68-.1-1.35-.16-1.98-.16-4.68,0-6.81,2.7-6.81,7.44v12.06h-6.03v-25.33h5.88v4.06c1.2-2.76,4-4.37,7.33-4.37.73,0,1.35.1,1.61.16v6.14Z"/>
    <path class="cls-7" d="M721.48,179.97l6.5-.99c1.46-.21,1.87-.94,1.87-1.82,0-2.13-1.46-3.85-4.78-3.85s-4.94,2.03-5.2,4.58l-5.51-1.25c.47-4.37,4.42-8.27,10.66-8.27,7.8,0,10.76,4.42,10.76,9.46v12.58c0,2.29.26,3.8.31,4.06h-5.62c-.05-.16-.26-1.2-.26-3.22-1.2,1.92-3.69,4-7.8,4-5.3,0-8.58-3.64-8.58-7.64,0-4.52,3.33-7.02,7.64-7.64ZM729.85,183.98v-1.14l-6.6.99c-1.87.31-3.38,1.35-3.38,3.43,0,1.72,1.3,3.28,3.69,3.28,3.38,0,6.29-1.61,6.29-6.55Z"/>
    <path class="cls-7" d="M750.6,169.16h5.25v5.36h-5.25v11.75c0,2.24.99,3.17,3.22,3.17.83,0,1.82-.16,2.08-.21v4.99c-.36.16-1.51.57-3.69.57-4.68,0-7.59-2.81-7.59-7.54v-12.74h-4.68v-5.36h1.3c2.7,0,3.9-1.72,3.9-3.95v-3.8h5.46v7.75Z"/>
    <path class="cls-7" d="M786.07,181.79c0,7.8-5.56,13.47-13.16,13.47s-13.1-5.67-13.1-13.47,5.56-13.42,13.1-13.42,13.16,5.67,13.16,13.42ZM779.98,181.79c0-5.25-3.33-7.96-7.07-7.96s-7.07,2.7-7.07,7.96,3.38,8.06,7.07,8.06,7.07-2.76,7.07-8.06Z"/>
    <path class="cls-7" d="M806.71,175.13c-.68-.1-1.35-.16-1.98-.16-4.68,0-6.81,2.7-6.81,7.44v12.06h-6.03v-25.33h5.88v4.06c1.2-2.76,4-4.37,7.33-4.37.73,0,1.35.1,1.61.16v6.14Z"/>
    <path class="cls-7" d="M814.82,186.16c.21,2.29,1.92,4.32,5.15,4.32,2.5,0,3.8-1.35,3.8-2.91,0-1.35-.94-2.39-2.96-2.81l-3.74-.83c-4.47-.99-6.81-3.9-6.81-7.38,0-4.42,4.06-8.16,9.31-8.16,7.07,0,9.36,4.58,9.78,7.07l-5.1,1.46c-.21-1.46-1.3-3.8-4.68-3.8-2.13,0-3.64,1.35-3.64,2.91,0,1.35.99,2.34,2.55,2.65l3.85.78c4.78,1.04,7.28,3.95,7.28,7.7s-3.12,8.11-9.57,8.11c-7.33,0-10.14-4.78-10.45-7.64l5.25-1.46Z"/>
    <path class="cls-7" d="M854.49,194.48h-6.03v-37.65h6.03v14.77c1.72-2.24,4.58-3.17,7.23-3.17,6.24,0,9.26,4.47,9.26,10.04v16.02h-6.03v-14.98c0-3.12-1.4-5.62-5.2-5.62-3.33,0-5.15,2.5-5.25,5.72v14.87Z"/>
    <path class="cls-7" d="M884.39,179.97l6.5-.99c1.46-.21,1.87-.94,1.87-1.82,0-2.13-1.46-3.85-4.78-3.85s-4.94,2.03-5.2,4.58l-5.51-1.25c.47-4.37,4.42-8.27,10.66-8.27,7.8,0,10.76,4.42,10.76,9.46v12.58c0,2.29.26,3.8.31,4.06h-5.62c-.05-.16-.26-1.2-.26-3.22-1.2,1.92-3.69,4-7.8,4-5.3,0-8.58-3.64-8.58-7.64,0-4.52,3.33-7.02,7.64-7.64ZM892.77,183.98v-1.14l-6.6.99c-1.87.31-3.38,1.35-3.38,3.43,0,1.72,1.3,3.28,3.69,3.28,3.38,0,6.29-1.61,6.29-6.55Z"/>
    <path class="cls-7" d="M918.66,194.48h-6.03l-10.3-25.33h6.66l6.71,18.1,6.55-18.1h6.34l-9.93,25.33Z"/>
    <path class="cls-7" d="M954.65,187.25c-1.35,4.42-5.36,8.01-11.44,8.01-6.86,0-12.95-4.99-12.95-13.57,0-8.01,5.93-13.31,12.32-13.31,7.8,0,12.38,5.15,12.38,13.16,0,.99-.1,1.82-.16,1.92h-18.51c.16,3.85,3.17,6.6,6.92,6.6s5.51-1.92,6.34-4.42l5.1,1.61ZM948.87,179.04c-.1-2.96-2.08-5.62-6.24-5.62-3.8,0-5.98,2.91-6.19,5.62h12.43Z"/>
    <path class="cls-7" d="M979.71,179.97l6.5-.99c1.46-.21,1.87-.94,1.87-1.82,0-2.13-1.46-3.85-4.78-3.85s-4.94,2.03-5.2,4.58l-5.51-1.25c.47-4.37,4.42-8.27,10.66-8.27,7.8,0,10.76,4.42,10.76,9.46v12.58c0,2.29.26,3.8.31,4.06h-5.62c-.05-.16-.26-1.2-.26-3.22-1.2,1.92-3.69,4-7.8,4-5.3,0-8.58-3.64-8.58-7.64,0-4.52,3.33-7.02,7.64-7.64ZM988.08,183.98v-1.14l-6.6.99c-1.87.31-3.38,1.35-3.38,3.43,0,1.72,1.3,3.28,3.69,3.28,3.38,0,6.29-1.61,6.29-6.55Z"/>
    <path class="cls-7" d="M1001.29,194.48v-37.65h6.03v37.65h-6.03Z"/>
    <path class="cls-7" d="M1035.71,169.16l5.98,17.52,5.04-17.52h6.14l-8.11,25.33h-6.03l-6.29-18.2-6.14,18.2h-6.19l-8.22-25.33h6.45l5.15,17.52,5.98-17.52h6.24Z"/>
    <path class="cls-7" d="M1063.38,179.97l6.5-.99c1.46-.21,1.87-.94,1.87-1.82,0-2.13-1.46-3.85-4.78-3.85s-4.94,2.03-5.2,4.58l-5.51-1.25c.47-4.37,4.42-8.27,10.66-8.27,7.8,0,10.76,4.42,10.76,9.46v12.58c0,2.29.26,3.8.31,4.06h-5.62c-.05-.16-.26-1.2-.26-3.22-1.2,1.92-3.69,4-7.8,4-5.3,0-8.58-3.64-8.58-7.64,0-4.52,3.33-7.02,7.64-7.64ZM1071.75,183.98v-1.14l-6.6.99c-1.87.31-3.38,1.35-3.38,3.43,0,1.72,1.3,3.28,3.69,3.28,3.38,0,6.29-1.61,6.29-6.55Z"/>
    <path class="cls-7" d="M1085.58,204.72l6.08-13.26-10.82-22.31h6.81l7.28,16.02,6.81-16.02h6.4l-16.12,35.57h-6.45Z"/>
    <path class="cls-7" d="M1115.17,186.16c.21,2.29,1.92,4.32,5.15,4.32,2.5,0,3.8-1.35,3.8-2.91,0-1.35-.94-2.39-2.96-2.81l-3.74-.83c-4.47-.99-6.81-3.9-6.81-7.38,0-4.42,4.06-8.16,9.31-8.16,7.07,0,9.36,4.58,9.78,7.07l-5.1,1.46c-.21-1.46-1.3-3.8-4.68-3.8-2.13,0-3.64,1.35-3.64,2.91,0,1.35.99,2.34,2.55,2.65l3.85.78c4.78,1.04,7.28,3.95,7.28,7.7s-3.12,8.11-9.57,8.11c-7.33,0-10.14-4.78-10.45-7.64l5.25-1.46Z"/>
    <path class="cls-7" d="M1151.83,186.16c.21,2.29,1.92,4.32,5.15,4.32,2.5,0,3.8-1.35,3.8-2.91,0-1.35-.94-2.39-2.96-2.81l-3.74-.83c-4.47-.99-6.81-3.9-6.81-7.38,0-4.42,4.06-8.16,9.31-8.16,7.07,0,9.36,4.58,9.78,7.07l-5.1,1.46c-.21-1.46-1.3-3.8-4.68-3.8-2.13,0-3.64,1.35-3.64,2.91,0,1.35.99,2.34,2.55,2.65l3.85.78c4.78,1.04,7.28,3.95,7.28,7.7s-3.12,8.11-9.57,8.11c-7.33,0-10.14-4.78-10.45-7.64l5.25-1.46Z"/>
    <path class="cls-7" d="M1180.22,169.16h5.25v5.36h-5.25v11.75c0,2.24.99,3.17,3.22,3.17.83,0,1.82-.16,2.08-.21v4.99c-.36.16-1.51.57-3.69.57-4.68,0-7.59-2.81-7.59-7.54v-12.74h-4.68v-5.36h1.3c2.7,0,3.9-1.72,3.9-3.95v-3.8h5.46v7.75Z"/>
    <path class="cls-7" d="M1206.01,175.13c-.68-.1-1.35-.16-1.98-.16-4.68,0-6.81,2.7-6.81,7.44v12.06h-6.03v-25.33h5.88v4.06c1.2-2.76,4-4.37,7.33-4.37.73,0,1.35.1,1.61.16v6.14Z"/>
    <path class="cls-7" d="M1220.41,195.21c-6.03,0-9.57-4.47-9.57-10.09v-15.96h6.03v14.87c0,3.12,1.46,5.77,5.1,5.77s5.3-2.34,5.3-5.67v-14.98h6.03v20.7c0,2.08.16,3.69.26,4.63h-5.77c-.1-.57-.21-1.77-.21-2.81-1.25,2.29-4.21,3.54-7.18,3.54Z"/>
    <path class="cls-7" d="M1244.7,194.43c.42,3.12,2.86,5.46,6.34,5.46,4.78,0,7.18-2.44,7.18-7.59v-2.65c-1.09,1.98-3.64,3.69-7.33,3.69-6.76,0-11.7-5.2-11.7-12.32s4.73-12.32,11.7-12.32c3.95,0,6.4,1.61,7.49,3.69v-3.22h5.82v22.93c0,6.76-3.48,13.05-13,13.05-6.71,0-11.39-4.16-12.06-9.26l5.56-1.46ZM1258.37,181.01c0-4.32-2.76-7.12-6.5-7.12s-6.6,2.81-6.6,7.12,2.65,7.18,6.6,7.18,6.5-2.81,6.5-7.18Z"/>
    <path class="cls-7" d="M1275.33,194.43c.42,3.12,2.86,5.46,6.34,5.46,4.78,0,7.18-2.44,7.18-7.59v-2.65c-1.09,1.98-3.64,3.69-7.33,3.69-6.76,0-11.7-5.2-11.7-12.32s4.73-12.32,11.7-12.32c3.95,0,6.4,1.61,7.49,3.69v-3.22h5.82v22.93c0,6.76-3.48,13.05-13,13.05-6.71,0-11.39-4.16-12.06-9.26l5.56-1.46ZM1289,181.01c0-4.32-2.76-7.12-6.5-7.12s-6.6,2.81-6.6,7.12,2.65,7.18,6.6,7.18,6.5-2.81,6.5-7.18Z"/>
    <path class="cls-7" d="M1302.21,194.48v-37.65h6.03v37.65h-6.03Z"/>
    <path class="cls-7" d="M1338.45,187.25c-1.35,4.42-5.36,8.01-11.44,8.01-6.86,0-12.95-4.99-12.95-13.57,0-8.01,5.93-13.31,12.32-13.31,7.8,0,12.38,5.15,12.38,13.16,0,.99-.1,1.82-.16,1.92h-18.51c.16,3.85,3.17,6.6,6.92,6.6s5.51-1.92,6.34-4.42l5.1,1.61ZM1332.68,179.04c-.1-2.96-2.08-5.62-6.24-5.62-3.8,0-5.98,2.91-6.19,5.62h12.43Z"/>
    <path class="cls-7" d="M1367.94,189.85c0,2.29.21,4.21.26,4.63h-5.77c-.1-.57-.26-2.24-.26-3.28-1.2,2.13-3.85,3.9-7.44,3.9-7.28,0-12.17-5.72-12.17-13.36s4.94-13.26,12.06-13.26c4.42,0,6.66,2.03,7.44,3.64v-15.29h5.88v33.02ZM1355.4,189.8c3.95,0,6.71-3.28,6.71-8.11s-2.7-7.85-6.66-7.85-6.86,3.07-6.86,7.9,2.7,8.06,6.81,8.06Z"/>
    <path class="cls-7" d="M1396.38,169.16h5.25v5.36h-5.25v11.75c0,2.24.99,3.17,3.22,3.17.83,0,1.82-.16,2.08-.21v4.99c-.36.16-1.51.57-3.69.57-4.68,0-7.59-2.81-7.59-7.54v-12.74h-4.68v-5.36h1.3c2.7,0,3.9-1.72,3.9-3.95v-3.8h5.46v7.75Z"/>
    <path class="cls-7" d="M1431.84,181.79c0,7.8-5.56,13.47-13.16,13.47s-13.1-5.67-13.1-13.47,5.56-13.42,13.1-13.42,13.16,5.67,13.16,13.42ZM1425.76,181.79c0-5.25-3.33-7.96-7.07-7.96s-7.07,2.7-7.07,7.96,3.38,8.06,7.07,8.06,7.07-2.76,7.07-8.06Z"/>
    <path class="cls-7" d="M1450.56,194.48v-37.65h5.93v15.45c1.14-1.98,4.06-3.8,7.96-3.8,7.59,0,11.7,5.77,11.7,13.21s-4.52,13.42-11.91,13.42c-3.59,0-6.34-1.56-7.8-4v3.38h-5.88ZM1463.25,173.83c-3.85,0-6.81,2.86-6.81,7.9s2.96,8.01,6.81,8.01,6.81-3.02,6.81-8.01-2.81-7.9-6.81-7.9Z"/>
    <path class="cls-7" d="M1496.79,175.13c-.68-.1-1.35-.16-1.98-.16-4.68,0-6.81,2.7-6.81,7.44v12.06h-6.03v-25.33h5.88v4.06c1.2-2.76,4-4.37,7.33-4.37.73,0,1.35.1,1.61.16v6.14Z"/>
    <path class="cls-7" d="M1504.8,156.31c2.18,0,3.95,1.77,3.95,3.95s-1.77,3.9-3.95,3.9-3.9-1.72-3.9-3.9,1.77-3.95,3.9-3.95ZM1501.83,194.48v-25.33h5.98v25.33h-5.98Z"/>
    <path class="cls-7" d="M1521.64,194.48h-6.03v-25.33h5.88v3.38c1.66-2.91,4.68-4.11,7.49-4.11,6.19,0,9.15,4.47,9.15,10.04v16.02h-6.03v-14.98c0-3.12-1.4-5.62-5.2-5.62-3.43,0-5.25,2.65-5.25,5.98v14.61Z"/>
    <path class="cls-7" d="M1549.2,194.43c.42,3.12,2.86,5.46,6.34,5.46,4.78,0,7.18-2.44,7.18-7.59v-2.65c-1.09,1.98-3.64,3.69-7.33,3.69-6.76,0-11.7-5.2-11.7-12.32s4.73-12.32,11.7-12.32c3.95,0,6.4,1.61,7.49,3.69v-3.22h5.82v22.93c0,6.76-3.48,13.05-13,13.05-6.71,0-11.39-4.16-12.06-9.26l5.56-1.46ZM1562.88,181.01c0-4.32-2.76-7.12-6.5-7.12s-6.6,2.81-6.6,7.12,2.65,7.18,6.6,7.18,6.5-2.81,6.5-7.18Z"/>
    <path class="cls-7" d="M301.28,249.65c-1.35,4.42-5.36,8.01-11.44,8.01-6.86,0-12.95-4.99-12.95-13.57,0-8.01,5.93-13.31,12.32-13.31,7.8,0,12.38,5.15,12.38,13.16,0,.99-.1,1.82-.16,1.92h-18.51c.16,3.85,3.17,6.6,6.92,6.6s5.51-1.92,6.34-4.42l5.1,1.61ZM295.5,241.44c-.1-2.96-2.08-5.62-6.24-5.62-3.8,0-5.98,2.91-6.19,5.62h12.43Z"/>
    <path class="cls-7" d="M313.39,256.88h-6.03v-25.33h5.88v3.38c1.66-2.91,4.68-4.11,7.49-4.11,6.19,0,9.15,4.47,9.15,10.04v16.02h-6.03v-14.98c0-3.12-1.4-5.62-5.2-5.62-3.43,0-5.25,2.65-5.25,5.98v14.61Z"/>
    <path class="cls-7" d="M360.61,252.25c0,2.29.21,4.21.26,4.63h-5.77c-.1-.57-.26-2.24-.26-3.28-1.2,2.13-3.85,3.9-7.44,3.9-7.28,0-12.17-5.72-12.17-13.36s4.94-13.26,12.06-13.26c4.42,0,6.66,2.03,7.44,3.64v-15.29h5.88v33.02ZM348.08,252.2c3.95,0,6.71-3.28,6.71-8.11s-2.7-7.85-6.66-7.85-6.86,3.07-6.86,7.9,2.7,8.06,6.81,8.06Z"/>
    <path class="cls-7" d="M366.95,244.35v-5.36h14.66v5.36h-14.66Z"/>
    <path class="cls-7" d="M395.13,231.55h5.25v5.36h-5.25v11.75c0,2.24.99,3.17,3.22,3.17.83,0,1.82-.16,2.08-.21v4.99c-.36.16-1.51.57-3.69.57-4.68,0-7.59-2.81-7.59-7.54v-12.74h-4.68v-5.36h1.3c2.7,0,3.9-1.72,3.9-3.95v-3.8h5.46v7.75Z"/>
    <path class="cls-7" d="M430.6,244.19c0,7.8-5.56,13.47-13.16,13.47s-13.1-5.67-13.1-13.47,5.56-13.42,13.1-13.42,13.16,5.67,13.16,13.42ZM424.52,244.19c0-5.25-3.33-7.96-7.07-7.96s-7.07,2.7-7.07,7.96,3.38,8.06,7.07,8.06,7.07-2.76,7.07-8.06Z"/>
    <path class="cls-7" d="M434.86,244.35v-5.36h14.66v5.36h-14.66Z"/>
    <path class="cls-7" d="M478.18,249.65c-1.35,4.42-5.36,8.01-11.44,8.01-6.86,0-12.95-4.99-12.95-13.57,0-8.01,5.93-13.31,12.32-13.31,7.8,0,12.38,5.15,12.38,13.16,0,.99-.1,1.82-.16,1.92h-18.51c.16,3.85,3.17,6.6,6.92,6.6s5.51-1.92,6.34-4.42l5.1,1.61ZM472.41,241.44c-.1-2.96-2.08-5.62-6.24-5.62-3.8,0-5.98,2.91-6.19,5.62h12.43Z"/>
    <path class="cls-7" d="M490.29,256.88h-6.03v-25.33h5.88v3.38c1.66-2.91,4.68-4.11,7.49-4.11,6.19,0,9.15,4.47,9.15,10.04v16.02h-6.03v-14.98c0-3.12-1.4-5.62-5.2-5.62-3.43,0-5.25,2.65-5.25,5.98v14.61Z"/>
    <path class="cls-7" d="M537.51,252.25c0,2.29.21,4.21.26,4.63h-5.77c-.1-.57-.26-2.24-.26-3.28-1.2,2.13-3.85,3.9-7.44,3.9-7.28,0-12.17-5.72-12.17-13.36s4.94-13.26,12.06-13.26c4.42,0,6.66,2.03,7.44,3.64v-15.29h5.88v33.02ZM524.98,252.2c3.95,0,6.71-3.28,6.71-8.11s-2.7-7.85-6.66-7.85-6.86,3.07-6.86,7.9,2.7,8.06,6.81,8.06Z"/>
    <path class="cls-7" d="M565.8,228.23v3.33h5.88v5.25h-5.88v20.07h-6.08v-20.07h-4.42v-5.25h4.42v-3.48c0-5.67,3.64-9.1,8.84-9.1,1.51,0,2.76.31,3.17.52v5.15c-.36-.1-1.04-.26-2.18-.26-1.61,0-3.74.73-3.74,3.85Z"/>
    <path class="cls-7" d="M585.66,257.61c-6.03,0-9.57-4.47-9.57-10.09v-15.96h6.03v14.87c0,3.12,1.46,5.77,5.1,5.77s5.3-2.34,5.3-5.67v-14.98h6.03v20.7c0,2.08.16,3.69.26,4.63h-5.77c-.1-.57-.21-1.77-.21-2.81-1.25,2.29-4.21,3.54-7.18,3.54Z"/>
    <path class="cls-7" d="M612.39,256.88h-6.03v-25.33h5.88v3.38c1.66-2.91,4.68-4.11,7.49-4.11,6.19,0,9.15,4.47,9.15,10.04v16.02h-6.03v-14.98c0-3.12-1.4-5.62-5.2-5.62-3.43,0-5.25,2.65-5.25,5.98v14.61Z"/>
    <path class="cls-7" d="M640.26,244.19c0,5.1,3.28,7.96,7.07,7.96s5.77-2.76,6.34-4.68l5.3,1.92c-1.2,3.95-4.99,8.27-11.65,8.27-7.44,0-13.1-5.77-13.1-13.47s5.67-13.42,12.95-13.42c6.81,0,10.56,4.26,11.6,8.32l-5.41,1.98c-.57-2.24-2.29-4.73-6.14-4.73s-6.97,2.76-6.97,7.85Z"/>
    <path class="cls-7" d="M671.98,231.55h5.25v5.36h-5.25v11.75c0,2.24.99,3.17,3.22,3.17.83,0,1.82-.16,2.08-.21v4.99c-.36.16-1.51.57-3.69.57-4.68,0-7.59-2.81-7.59-7.54v-12.74h-4.68v-5.36h1.3c2.7,0,3.9-1.72,3.9-3.95v-3.8h5.46v7.75Z"/>
    <path class="cls-7" d="M686.38,218.71c2.18,0,3.95,1.77,3.95,3.95s-1.77,3.9-3.95,3.9-3.9-1.72-3.9-3.9,1.77-3.95,3.9-3.95ZM683.42,256.88v-25.33h5.98v25.33h-5.98Z"/>
    <path class="cls-7" d="M721.48,244.19c0,7.8-5.56,13.47-13.16,13.47s-13.1-5.67-13.1-13.47,5.56-13.42,13.1-13.42,13.16,5.67,13.16,13.42ZM715.4,244.19c0-5.25-3.33-7.96-7.07-7.96s-7.07,2.7-7.07,7.96,3.38,8.06,7.07,8.06,7.07-2.76,7.07-8.06Z"/>
    <path class="cls-7" d="M733.34,256.88h-6.03v-25.33h5.88v3.38c1.66-2.91,4.68-4.11,7.49-4.11,6.19,0,9.15,4.47,9.15,10.04v16.02h-6.03v-14.98c0-3.12-1.4-5.62-5.2-5.62-3.43,0-5.25,2.65-5.25,5.98v14.61Z"/>
    <path class="cls-7" d="M763.24,242.37l6.5-.99c1.46-.21,1.87-.94,1.87-1.82,0-2.13-1.46-3.85-4.78-3.85s-4.94,2.03-5.2,4.58l-5.51-1.25c.47-4.37,4.42-8.27,10.66-8.27,7.8,0,10.76,4.42,10.76,9.46v12.58c0,2.29.26,3.8.31,4.06h-5.62c-.05-.16-.26-1.2-.26-3.22-1.2,1.92-3.69,4-7.8,4-5.3,0-8.58-3.64-8.58-7.64,0-4.52,3.33-7.02,7.64-7.64ZM771.61,246.38v-1.14l-6.6.99c-1.87.31-3.38,1.35-3.38,3.43,0,1.72,1.3,3.28,3.69,3.28,3.38,0,6.29-1.61,6.29-6.55Z"/>
    <path class="cls-7" d="M784.82,256.88v-37.65h6.03v37.65h-6.03Z"/>
    <path class="cls-7" d="M801.61,218.71c2.18,0,3.95,1.77,3.95,3.95s-1.77,3.9-3.95,3.9-3.9-1.72-3.9-3.9,1.77-3.95,3.9-3.95ZM798.65,256.88v-25.33h5.98v25.33h-5.98Z"/>
    <path class="cls-7" d="M820.07,231.55h5.25v5.36h-5.25v11.75c0,2.24.99,3.17,3.22,3.17.83,0,1.82-.16,2.08-.21v4.99c-.36.16-1.51.57-3.69.57-4.68,0-7.59-2.81-7.59-7.54v-12.74h-4.68v-5.36h1.3c2.7,0,3.9-1.72,3.9-3.95v-3.8h5.46v7.75Z"/>
    <path class="cls-7" d="M833.17,267.12l6.08-13.26-10.82-22.31h6.81l7.28,16.02,6.81-16.02h6.4l-16.12,35.57h-6.45Z"/>
    <path class="cls-7" d="M880.7,231.55h5.25v5.36h-5.25v11.75c0,2.24.99,3.17,3.22,3.17.83,0,1.82-.16,2.08-.21v4.99c-.36.16-1.51.57-3.69.57-4.68,0-7.59-2.81-7.59-7.54v-12.74h-4.68v-5.36h1.3c2.7,0,3.9-1.72,3.9-3.95v-3.8h5.46v7.75Z"/>
    <path class="cls-7" d="M916.17,244.19c0,7.8-5.56,13.47-13.16,13.47s-13.1-5.67-13.1-13.47,5.56-13.42,13.1-13.42,13.16,5.67,13.16,13.42ZM910.08,244.19c0-5.25-3.33-7.96-7.07-7.96s-7.07,2.7-7.07,7.96,3.38,8.06,7.07,8.06,7.07-2.76,7.07-8.06Z"/>
    <path class="cls-7" d="M925.73,256.83c.42,3.12,2.86,5.46,6.34,5.46,4.78,0,7.18-2.44,7.18-7.59v-2.65c-1.09,1.98-3.64,3.69-7.33,3.69-6.76,0-11.7-5.2-11.7-12.33s4.73-12.32,11.7-12.32c3.95,0,6.4,1.61,7.49,3.69v-3.22h5.82v22.93c0,6.76-3.48,13.05-13,13.05-6.71,0-11.39-4.16-12.06-9.26l5.56-1.46ZM939.41,243.41c0-4.32-2.76-7.12-6.5-7.12s-6.6,2.81-6.6,7.12,2.65,7.18,6.6,7.18,6.5-2.81,6.5-7.18Z"/>
    <path class="cls-7" d="M975.03,249.65c-1.35,4.42-5.36,8.01-11.44,8.01-6.86,0-12.95-4.99-12.95-13.57,0-8.01,5.93-13.31,12.32-13.31,7.8,0,12.38,5.15,12.38,13.16,0,.99-.1,1.82-.16,1.92h-18.51c.16,3.85,3.17,6.6,6.92,6.6s5.51-1.92,6.34-4.42l5.1,1.61ZM969.26,241.44c-.1-2.96-2.08-5.62-6.24-5.62-3.8,0-5.98,2.91-6.19,5.62h12.43Z"/>
    <path class="cls-7" d="M988.76,231.55h5.25v5.36h-5.25v11.75c0,2.24.99,3.17,3.22,3.17.83,0,1.82-.16,2.08-.21v4.99c-.36.16-1.51.57-3.69.57-4.68,0-7.59-2.81-7.59-7.54v-12.74h-4.68v-5.36h1.3c2.7,0,3.9-1.72,3.9-3.95v-3.8h5.46v7.75Z"/>
    <path class="cls-7" d="M1005.5,256.88h-6.03v-37.65h6.03v14.77c1.72-2.24,4.58-3.17,7.23-3.17,6.24,0,9.26,4.47,9.26,10.04v16.02h-6.03v-14.98c0-3.12-1.4-5.62-5.2-5.62-3.33,0-5.15,2.5-5.25,5.72v14.87Z"/>
    <path class="cls-7" d="M1051.73,249.65c-1.35,4.42-5.36,8.01-11.44,8.01-6.86,0-12.95-4.99-12.95-13.57,0-8.01,5.93-13.31,12.32-13.31,7.8,0,12.38,5.15,12.38,13.16,0,.99-.1,1.82-.16,1.92h-18.51c.16,3.85,3.17,6.6,6.92,6.6s5.51-1.92,6.34-4.42l5.1,1.61ZM1045.96,241.44c-.1-2.96-2.08-5.62-6.24-5.62-3.8,0-5.98,2.91-6.19,5.62h12.43Z"/>
    <path class="cls-7" d="M1072.63,237.54c-.68-.1-1.35-.16-1.98-.16-4.68,0-6.81,2.7-6.81,7.44v12.06h-6.03v-25.33h5.88v4.06c1.2-2.76,4-4.37,7.33-4.37.73,0,1.35.1,1.61.16v6.14Z"/>
    <path class="cls-7" d="M1093.43,218.71c2.18,0,3.95,1.77,3.95,3.95s-1.77,3.9-3.95,3.9-3.9-1.72-3.9-3.9,1.77-3.95,3.9-3.95ZM1090.47,256.88v-25.33h5.98v25.33h-5.98Z"/>
    <path class="cls-7" d="M1110.28,256.88h-6.03v-25.33h5.88v3.38c1.66-2.91,4.68-4.11,7.49-4.11,6.19,0,9.15,4.47,9.15,10.04v16.02h-6.03v-14.98c0-3.12-1.4-5.62-5.2-5.62-3.43,0-5.25,2.65-5.25,5.98v14.61Z"/>
    <path class="cls-7" d="M1153.07,242.37l6.5-.99c1.46-.21,1.87-.94,1.87-1.82,0-2.13-1.46-3.85-4.78-3.85s-4.94,2.03-5.2,4.58l-5.51-1.25c.47-4.37,4.42-8.27,10.66-8.27,7.8,0,10.76,4.42,10.76,9.46v12.58c0,2.29.26,3.8.31,4.06h-5.62c-.05-.16-.26-1.2-.26-3.22-1.2,1.92-3.69,4-7.8,4-5.3,0-8.58-3.64-8.58-7.64,0-4.52,3.33-7.02,7.64-7.64ZM1161.45,246.38v-1.14l-6.6.99c-1.87.31-3.38,1.35-3.38,3.43,0,1.72,1.3,3.28,3.69,3.28,3.38,0,6.29-1.61,6.29-6.55Z"/>
    <path class="cls-7" d="M1190.56,248.56c.21,2.29,1.92,4.32,5.15,4.32,2.5,0,3.8-1.35,3.8-2.91,0-1.35-.94-2.39-2.96-2.81l-3.74-.83c-4.47-.99-6.81-3.9-6.81-7.38,0-4.42,4.06-8.16,9.31-8.16,7.07,0,9.36,4.58,9.78,7.07l-5.1,1.46c-.21-1.46-1.3-3.8-4.68-3.8-2.13,0-3.64,1.35-3.64,2.91,0,1.35.99,2.34,2.55,2.65l3.85.78c4.78,1.04,7.28,3.95,7.28,7.7s-3.12,8.11-9.57,8.11c-7.33,0-10.14-4.78-10.45-7.64l5.25-1.46Z"/>
    <path class="cls-7" d="M1218.96,231.55h5.25v5.36h-5.25v11.75c0,2.24.99,3.17,3.22,3.17.83,0,1.82-.16,2.08-.21v4.99c-.36.16-1.51.57-3.69.57-4.68,0-7.59-2.81-7.59-7.54v-12.74h-4.68v-5.36h1.3c2.7,0,3.9-1.72,3.9-3.95v-3.8h5.46v7.75Z"/>
    <path class="cls-7" d="M1244.75,237.54c-.68-.1-1.35-.16-1.98-.16-4.68,0-6.81,2.7-6.81,7.44v12.06h-6.03v-25.33h5.88v4.06c1.2-2.76,4-4.37,7.33-4.37.73,0,1.35.1,1.61.16v6.14Z"/>
    <path class="cls-7" d="M1271.94,249.65c-1.35,4.42-5.36,8.01-11.44,8.01-6.86,0-12.95-4.99-12.95-13.57,0-8.01,5.93-13.31,12.32-13.31,7.8,0,12.38,5.15,12.38,13.16,0,.99-.1,1.82-.16,1.92h-18.51c.16,3.85,3.17,6.6,6.92,6.6s5.51-1.92,6.34-4.42l5.1,1.61ZM1266.17,241.44c-.1-2.96-2.08-5.62-6.24-5.62-3.8,0-5.98,2.91-6.19,5.62h12.43Z"/>
    <path class="cls-7" d="M1284.11,242.37l6.5-.99c1.46-.21,1.87-.94,1.87-1.82,0-2.13-1.46-3.85-4.78-3.85s-4.94,2.03-5.2,4.58l-5.51-1.25c.47-4.37,4.42-8.27,10.66-8.27,7.8,0,10.76,4.42,10.76,9.46v12.58c0,2.29.26,3.8.31,4.06h-5.62c-.05-.16-.26-1.2-.26-3.22-1.2,1.92-3.69,4-7.8,4-5.3,0-8.58-3.64-8.58-7.64,0-4.52,3.33-7.02,7.64-7.64ZM1292.48,246.38v-1.14l-6.6.99c-1.87.31-3.38,1.35-3.38,3.43,0,1.72,1.3,3.28,3.69,3.28,3.38,0,6.29-1.61,6.29-6.55Z"/>
    <path class="cls-7" d="M1305.69,256.88v-25.33h5.77v3.22c1.46-2.6,4.63-3.95,7.49-3.95,3.33,0,6.24,1.51,7.59,4.47,1.98-3.33,4.94-4.47,8.22-4.47,4.58,0,8.94,2.91,8.94,9.62v16.43h-5.82v-15.44c0-2.96-1.51-5.2-4.89-5.2-3.17,0-5.25,2.5-5.25,5.62v15.03h-5.93v-15.44c0-2.91-1.46-5.2-4.89-5.2-3.22,0-5.25,2.39-5.25,5.62v15.03h-5.98Z"/>
    <path class="cls-7" d="M1351.09,256.88v-37.65h6.03v37.65h-6.03Z"/>
    <path class="cls-7" d="M1367.88,218.71c2.18,0,3.95,1.77,3.95,3.95s-1.77,3.9-3.95,3.9-3.9-1.72-3.9-3.9,1.77-3.95,3.9-3.95ZM1364.92,256.88v-25.33h5.98v25.33h-5.98Z"/>
    <path class="cls-7" d="M1384.73,256.88h-6.03v-25.33h5.88v3.38c1.66-2.91,4.68-4.11,7.49-4.11,6.19,0,9.15,4.47,9.15,10.04v16.02h-6.03v-14.98c0-3.12-1.4-5.62-5.2-5.62-3.43,0-5.25,2.65-5.25,5.98v14.61Z"/>
    <path class="cls-7" d="M1430.96,249.65c-1.35,4.42-5.36,8.01-11.44,8.01-6.86,0-12.95-4.99-12.95-13.57,0-8.01,5.93-13.31,12.32-13.31,7.8,0,12.38,5.15,12.38,13.16,0,.99-.1,1.82-.16,1.92h-18.51c.16,3.85,3.17,6.6,6.92,6.6s5.51-1.92,6.34-4.42l5.1,1.61ZM1425.19,241.44c-.1-2.96-2.08-5.62-6.24-5.62-3.8,0-5.98,2.91-6.19,5.62h12.43Z"/>
    <path class="cls-7" d="M1460.44,252.25c0,2.29.21,4.21.26,4.63h-5.77c-.1-.57-.26-2.24-.26-3.28-1.2,2.13-3.85,3.9-7.44,3.9-7.28,0-12.17-5.72-12.17-13.36s4.94-13.26,12.06-13.26c4.42,0,6.66,2.03,7.44,3.64v-15.29h5.88v33.02ZM1447.91,252.2c3.95,0,6.71-3.28,6.71-8.11s-2.7-7.85-6.66-7.85-6.86,3.07-6.86,7.9,2.7,8.06,6.81,8.06Z"/>
    <path class="cls-7" d="M1484.25,248.56c.21,2.29,1.92,4.32,5.15,4.32,2.5,0,3.8-1.35,3.8-2.91,0-1.35-.94-2.39-2.96-2.81l-3.74-.83c-4.47-.99-6.81-3.9-6.81-7.38,0-4.42,4.06-8.16,9.31-8.16,7.07,0,9.36,4.58,9.78,7.07l-5.1,1.46c-.21-1.46-1.3-3.8-4.68-3.8-2.13,0-3.64,1.35-3.64,2.91,0,1.35.99,2.34,2.55,2.65l3.85.78c4.78,1.04,7.28,3.95,7.28,7.7s-3.12,8.11-9.57,8.11c-7.33,0-10.14-4.78-10.45-7.64l5.25-1.46Z"/>
    <path class="cls-7" d="M1505.89,267.12l6.08-13.26-10.82-22.31h6.81l7.28,16.02,6.81-16.02h6.4l-16.12,35.57h-6.45Z"/>
    <path class="cls-7" d="M1535.47,248.56c.21,2.29,1.92,4.32,5.15,4.32,2.5,0,3.8-1.35,3.8-2.91,0-1.35-.94-2.39-2.96-2.81l-3.74-.83c-4.47-.99-6.81-3.9-6.81-7.38,0-4.42,4.06-8.16,9.31-8.16,7.07,0,9.36,4.58,9.78,7.07l-5.1,1.46c-.21-1.46-1.3-3.8-4.68-3.8-2.13,0-3.64,1.35-3.64,2.91,0,1.35.99,2.34,2.55,2.65l3.85.78c4.78,1.04,7.28,3.95,7.28,7.7s-3.12,8.11-9.57,8.11c-7.33,0-10.14-4.78-10.45-7.64l5.25-1.46Z"/>
    <path class="cls-7" d="M1563.87,231.55h5.25v5.36h-5.25v11.75c0,2.24.99,3.17,3.22,3.17.83,0,1.82-.16,2.08-.21v4.99c-.36.16-1.51.57-3.69.57-4.68,0-7.59-2.81-7.59-7.54v-12.74h-4.68v-5.36h1.3c2.7,0,3.9-1.72,3.9-3.95v-3.8h5.46v7.75Z"/>
    <path class="cls-7" d="M1597.46,249.65c-1.35,4.42-5.36,8.01-11.44,8.01-6.86,0-12.95-4.99-12.95-13.57,0-8.01,5.93-13.31,12.32-13.31,7.8,0,12.38,5.15,12.38,13.16,0,.99-.1,1.82-.16,1.92h-18.51c.16,3.85,3.17,6.6,6.92,6.6s5.51-1.92,6.34-4.42l5.1,1.61ZM1591.69,241.44c-.1-2.96-2.08-5.62-6.24-5.62-3.8,0-5.98,2.91-6.19,5.62h12.43Z"/>
    <path class="cls-7" d="M1603.54,256.88v-25.33h5.77v3.22c1.46-2.6,4.63-3.95,7.49-3.95,3.33,0,6.24,1.51,7.59,4.47,1.98-3.33,4.94-4.47,8.22-4.47,4.58,0,8.94,2.91,8.94,9.62v16.43h-5.82v-15.44c0-2.96-1.51-5.2-4.89-5.2-3.17,0-5.25,2.5-5.25,5.62v15.03h-5.93v-15.44c0-2.91-1.46-5.2-4.89-5.2-3.22,0-5.25,2.39-5.25,5.62v15.03h-5.98Z"/>
  </g>
  <g>
    <path class="cls-4" d="M737.31,484.34h142.4c15.06,0,27.3,12.23,27.3,27.3v318.53c0,15.06-12.23,27.3-27.3,27.3h-142.4c-4.58,0-8.31-3.72-8.31-8.31v-356.5c0-4.58,3.72-8.31,8.31-8.31Z"/>
    <path class="cls-4" d="M828.72,855.42h-2.08c-1.5,0-2.71-1.21-2.71-2.71s1.21-2.71,2.71-2.71h2.08c1.5,0,2.71,1.21,2.71,2.71s-1.21,2.71-2.71,2.71ZM805.79,855.42h-2.08c-1.5,0-2.71-1.21-2.71-2.71s1.21-2.71,2.71-2.71h2.08c1.5,0,2.71,1.21,2.71,2.71s-1.21,2.71-2.71,2.71ZM782.86,855.42h-2.08c-1.5,0-2.71-1.21-2.71-2.71s1.21-2.71,2.71-2.71h2.08c1.5,0,2.71,1.21,2.71,2.71s-1.21,2.71-2.71,2.71ZM759.93,855.42h-2.08c-1.5,0-2.71-1.21-2.71-2.71s1.21-2.71,2.71-2.71h2.08c1.5,0,2.71,1.21,2.71,2.71s-1.21,2.71-2.71,2.71ZM737,855.42h-2.08c-1.5,0-2.71-1.21-2.71-2.71s1.21-2.71,2.71-2.71h2.08c1.5,0,2.71,1.21,2.71,2.71s-1.21,2.71-2.71,2.71ZM714.07,855.42h-2.08c-1.5,0-2.71-1.21-2.71-2.71s1.21-2.71,2.71-2.71h2.08c1.5,0,2.71,1.21,2.71,2.71s-1.21,2.71-2.71,2.71ZM691.14,855.42h-2.08c-1.5,0-2.71-1.21-2.71-2.71s1.21-2.71,2.71-2.71h2.08c1.5,0,2.71,1.21,2.71,2.71s-1.21,2.71-2.71,2.71ZM668.2,855.42h-2.08c-1.5,0-2.71-1.21-2.71-2.71s1.21-2.71,2.71-2.71h2.08c1.5,0,2.71,1.21,2.71,2.71s-1.21,2.71-2.71,2.71ZM645.27,855.42h-2.08c-1.5,0-2.71-1.21-2.71-2.71s1.21-2.71,2.71-2.71h2.08c1.5,0,2.71,1.21,2.71,2.71s-1.21,2.71-2.71,2.71ZM622.34,855.42h-2.08c-1.5,0-2.71-1.21-2.71-2.71s1.21-2.71,2.71-2.71h2.08c1.5,0,2.71,1.21,2.71,2.71s-1.21,2.71-2.71,2.71ZM599.42,855.35c-.06,0-.13,0-.19,0-.76-.05-1.52-.13-2.27-.24-1.48-.21-2.51-1.59-2.3-3.07s1.59-2.51,3.07-2.3c.62.09,1.25.16,1.87.2,1.49.1,2.62,1.4,2.52,2.89-.1,1.43-1.29,2.52-2.7,2.52ZM836.4,854.37c-1.18,0-2.27-.78-2.61-1.98-.41-1.44.43-2.94,1.87-3.34.6-.17,1.21-.36,1.79-.58,1.41-.51,2.96.22,3.47,1.62.51,1.41-.22,2.96-1.62,3.47-.71.26-1.44.49-2.17.7-.25.07-.49.1-.74.1ZM579.58,845.16c-.78,0-1.55-.33-2.09-.98-.48-.58-.95-1.19-1.39-1.81-.87-1.22-.58-2.91.64-3.78,1.22-.87,2.91-.58,3.78.64.36.51.75,1.01,1.15,1.49.95,1.15.79,2.86-.36,3.82-.51.42-1.12.62-1.73.62ZM853.74,840.34c-.43,0-.86-.1-1.27-.32-1.32-.7-1.83-2.34-1.13-3.66.29-.55.57-1.12.82-1.7.6-1.37,2.2-2,3.57-1.4,1.37.6,2,2.2,1.4,3.57-.3.69-.64,1.39-.99,2.06-.49.92-1.43,1.44-2.4,1.44ZM573.09,823.76c-1.5,0-2.71-1.21-2.71-2.71v-2.08c0-1.5,1.21-2.71,2.71-2.71s2.71,1.21,2.71,2.71v2.08c0,1.5-1.21,2.71-2.71,2.71ZM857.01,817.95c-1.5,0-2.71-1.21-2.71-2.71v-2.08c0-1.5,1.21-2.71,2.71-2.71s2.71,1.21,2.71,2.71v2.08c0,1.5-1.21,2.71-2.71,2.71ZM573.09,800.83c-1.5,0-2.71-1.21-2.71-2.71v-2.08c0-1.5,1.21-2.71,2.71-2.71s2.71,1.21,2.71,2.71v2.08c0,1.5-1.21,2.71-2.71,2.71ZM857.01,795.02c-1.5,0-2.71-1.21-2.71-2.71v-2.08c0-1.5,1.21-2.71,2.71-2.71s2.71,1.21,2.71,2.71v2.08c0,1.5-1.21,2.71-2.71,2.71ZM573.09,777.9c-1.5,0-2.71-1.21-2.71-2.71v-2.08c0-1.5,1.21-2.71,2.71-2.71s2.71,1.21,2.71,2.71v2.08c0,1.5-1.21,2.71-2.71,2.71ZM857.01,772.09c-1.5,0-2.71-1.21-2.71-2.71v-2.08c0-1.5,1.21-2.71,2.71-2.71s2.71,1.21,2.71,2.71v2.08c0,1.5-1.21,2.71-2.71,2.71ZM573.09,754.96c-1.5,0-2.71-1.21-2.71-2.71v-2.08c0-1.5,1.21-2.71,2.71-2.71s2.71,1.21,2.71,2.71v2.08c0,1.5-1.21,2.71-2.71,2.71ZM857.01,749.16c-1.5,0-2.71-1.21-2.71-2.71v-2.08c0-1.5,1.21-2.71,2.71-2.71s2.71,1.21,2.71,2.71v2.08c0,1.5-1.21,2.71-2.71,2.71ZM573.09,732.03c-1.5,0-2.71-1.21-2.71-2.71v-2.08c0-1.5,1.21-2.71,2.71-2.71s2.71,1.21,2.71,2.71v2.08c0,1.5-1.21,2.71-2.71,2.71ZM857.01,726.23c-1.5,0-2.71-1.21-2.71-2.71v-2.08c0-1.5,1.21-2.71,2.71-2.71s2.71,1.21,2.71,2.71v2.08c0,1.5-1.21,2.71-2.71,2.71ZM573.09,709.1c-1.5,0-2.71-1.21-2.71-2.71v-2.08c0-1.5,1.21-2.71,2.71-2.71s2.71,1.21,2.71,2.71v2.08c0,1.5-1.21,2.71-2.71,2.71ZM857.01,703.3c-1.5,0-2.71-1.21-2.71-2.71v-2.08c0-1.5,1.21-2.71,2.71-2.71s2.71,1.21,2.71,2.71v2.08c0,1.5-1.21,2.71-2.71,2.71ZM573.09,686.17c-1.5,0-2.71-1.21-2.71-2.71v-2.08c0-1.5,1.21-2.71,2.71-2.71s2.71,1.21,2.71,2.71v2.08c0,1.5-1.21,2.71-2.71,2.71ZM857.01,680.37c-1.5,0-2.71-1.21-2.71-2.71v-2.08c0-1.5,1.21-2.71,2.71-2.71s2.71,1.21,2.71,2.71v2.08c0,1.5-1.21,2.71-2.71,2.71ZM573.09,663.24c-1.5,0-2.71-1.21-2.71-2.71v-2.08c0-1.5,1.21-2.71,2.71-2.71s2.71,1.21,2.71,2.71v2.08c0,1.5-1.21,2.71-2.71,2.71ZM857.01,657.43c-1.5,0-2.71-1.21-2.71-2.71v-2.08c0-1.5,1.21-2.71,2.71-2.71s2.71,1.21,2.71,2.71v2.08c0,1.5-1.21,2.71-2.71,2.71ZM573.09,640.31c-1.5,0-2.71-1.21-2.71-2.71v-2.08c0-1.5,1.21-2.71,2.71-2.71s2.71,1.21,2.71,2.71v2.08c0,1.5-1.21,2.71-2.71,2.71ZM857.01,634.5c-1.5,0-2.71-1.21-2.71-2.71v-2.08c0-1.5,1.21-2.71,2.71-2.71s2.71,1.21,2.71,2.71v2.08c0,1.5-1.21,2.71-2.71,2.71ZM573.09,617.38c-1.5,0-2.71-1.21-2.71-2.71v-2.08c0-1.5,1.21-2.71,2.71-2.71s2.71,1.21,2.71,2.71v2.08c0,1.5-1.21,2.71-2.71,2.71ZM857.01,611.57c-1.5,0-2.71-1.21-2.71-2.71v-2.08c0-1.5,1.21-2.71,2.71-2.71s2.71,1.21,2.71,2.71v2.08c0,1.5-1.21,2.71-2.71,2.71ZM573.09,594.45c-1.5,0-2.71-1.21-2.71-2.71v-2.08c0-1.5,1.21-2.71,2.71-2.71s2.71,1.21,2.71,2.71v2.08c0,1.5-1.21,2.71-2.71,2.71ZM857.01,588.64c-1.5,0-2.71-1.21-2.71-2.71v-2.08c0-1.5,1.21-2.71,2.71-2.71s2.71,1.21,2.71,2.71v2.08c0,1.5-1.21,2.71-2.71,2.71ZM573.09,571.52c-1.5,0-2.71-1.21-2.71-2.71v-2.08c0-1.5,1.21-2.71,2.71-2.71s2.71,1.21,2.71,2.71v2.08c0,1.5-1.21,2.71-2.71,2.71ZM857.01,565.71c-1.5,0-2.71-1.21-2.71-2.71v-2.08c0-1.5,1.21-2.71,2.71-2.71s2.71,1.21,2.71,2.71v2.08c0,1.5-1.21,2.71-2.71,2.71ZM573.09,548.59c-1.5,0-2.71-1.21-2.71-2.71v-2.08c0-1.5,1.21-2.71,2.71-2.71s2.71,1.21,2.71,2.71v2.08c0,1.5-1.21,2.71-2.71,2.71ZM857.01,542.78c-1.5,0-2.71-1.21-2.71-2.71v-2.08c0-1.5,1.21-2.71,2.71-2.71s2.71,1.21,2.71,2.71v2.08c0,1.5-1.21,2.71-2.71,2.71ZM573.09,525.66c-1.5,0-2.71-1.21-2.71-2.71v-2.08c0-1.5,1.21-2.71,2.71-2.71s2.71,1.21,2.71,2.71v2.08c0,1.5-1.21,2.71-2.71,2.71ZM857.01,519.85c-1.5,0-2.71-1.21-2.71-2.71v-.52c0-.47-.01-.94-.04-1.41-.08-1.49,1.06-2.77,2.56-2.85,1.49-.09,2.77,1.06,2.85,2.56.03.57.05,1.14.05,1.71v.52c0,1.5-1.21,2.71-2.71,2.71ZM577.81,503.67c-.52,0-1.04-.15-1.5-.45-1.25-.83-1.58-2.51-.75-3.76.42-.63.87-1.25,1.33-1.85.92-1.18,2.62-1.39,3.8-.48,1.18.92,1.4,2.62.48,3.8-.38.49-.75,1.01-1.1,1.53-.52.78-1.38,1.21-2.26,1.21ZM848.6,499.19c-.69,0-1.38-.26-1.9-.78-.44-.44-.91-.87-1.39-1.27-1.14-.97-1.27-2.68-.3-3.82.97-1.14,2.68-1.27,3.82-.3.58.49,1.14,1.01,1.68,1.54,1.06,1.05,1.07,2.77.02,3.83-.53.54-1.23.8-1.93.8ZM596.48,491.46c-1.29,0-2.44-.93-2.67-2.24-.26-1.47.73-2.88,2.2-3.14.75-.13,1.51-.24,2.26-.31,1.48-.15,2.82.94,2.96,2.43.15,1.49-.94,2.82-2.43,2.96-.62.06-1.25.15-1.86.26-.16.03-.32.04-.47.04ZM827.84,491.03h-2.08c-1.5,0-2.71-1.21-2.71-2.71s1.21-2.71,2.71-2.71h2.08c1.5,0,2.71,1.21,2.71,2.71s-1.21,2.71-2.71,2.71ZM804.91,491.03h-2.08c-1.5,0-2.71-1.21-2.71-2.71s1.21-2.71,2.71-2.71h2.08c1.5,0,2.71,1.21,2.71,2.71s-1.21,2.71-2.71,2.71ZM781.98,491.03h-2.08c-1.5,0-2.71-1.21-2.71-2.71s1.21-2.71,2.71-2.71h2.08c1.5,0,2.71,1.21,2.71,2.71s-1.21,2.71-2.71,2.71ZM759.05,491.03h-2.08c-1.5,0-2.71-1.21-2.71-2.71s1.21-2.71,2.71-2.71h2.08c1.5,0,2.71,1.21,2.71,2.71s-1.21,2.71-2.71,2.71ZM736.12,491.03h-2.08c-1.5,0-2.71-1.21-2.71-2.71s1.21-2.71,2.71-2.71h2.08c1.5,0,2.71,1.21,2.71,2.71s-1.21,2.71-2.71,2.71ZM713.19,491.03h-2.08c-1.5,0-2.71-1.21-2.71-2.71s1.21-2.71,2.71-2.71h2.08c1.5,0,2.71,1.21,2.71,2.71s-1.21,2.71-2.71,2.71ZM690.26,491.03h-2.08c-1.5,0-2.71-1.21-2.71-2.71s1.21-2.71,2.71-2.71h2.08c1.5,0,2.71,1.21,2.71,2.71s-1.21,2.71-2.71,2.71ZM667.33,491.03h-2.08c-1.5,0-2.71-1.21-2.71-2.71s1.21-2.71,2.71-2.71h2.08c1.5,0,2.71,1.21,2.71,2.71s-1.21,2.71-2.71,2.71ZM644.4,491.03h-2.08c-1.5,0-2.71-1.21-2.71-2.71s1.21-2.71,2.71-2.71h2.08c1.5,0,2.71,1.21,2.71,2.71s-1.21,2.71-2.71,2.71ZM621.47,491.03h-2.08c-1.5,0-2.71-1.21-2.71-2.71s1.21-2.71,2.71-2.71h2.08c1.5,0,2.71,1.21,2.71,2.71s-1.21,2.71-2.71,2.71Z"/>
    <rect class="cls-6" x="601.08" y="512.67" width="256.44" height="315.69" rx="21.26" ry="21.26"/>
    <path class="cls-2" d="M848.63,544.57v260.78c0,12.71-10.3,23.01-23.01,23.01h-201.54c-12.7,0-23-10.3-23-23.01v-260.78c0-12.71,10.3-23.01,23-23.01h201.54c12.71,0,23.01,10.3,23.01,23.01Z"/>
    <g>
      <path class="cls-7" d="M641.14,656.14l7.14,10.65h-3.51l-5.37-8.31-5.49,8.31h-3.45l7.26-10.65-7.2-10.62h3.54l5.37,8.34,5.46-8.34h3.48l-7.23,10.62Z"/>
      <path class="cls-7" d="M651.07,672.49v-20.13h2.73v2.25c.78-1.44,2.49-2.58,4.83-2.58,4.32,0,6.63,3.33,6.63,7.53s-2.49,7.62-6.72,7.62c-2.22,0-3.9-1.05-4.68-2.34v7.65h-2.79ZM658.12,654.52c-2.58,0-4.29,2.16-4.29,5.04s1.71,5.1,4.29,5.1,4.26-2.13,4.26-5.1-1.62-5.04-4.26-5.04Z"/>
      <path class="cls-7" d="M668.86,666.79v-21.72h2.82v21.72h-2.82Z"/>
      <path class="cls-7" d="M679.96,658.54l3.9-.57c.87-.12,1.11-.57,1.11-1.08,0-1.41-.93-2.58-3.12-2.58-1.98,0-3.09,1.23-3.27,2.91l-2.7-.63c.3-2.76,2.79-4.68,5.91-4.68,4.32,0,6,2.46,6,5.28v7.23c0,1.26.12,2.01.18,2.37h-2.76c-.06-.36-.15-.9-.15-1.95-.63,1.02-2.07,2.4-4.65,2.4-2.94,0-4.83-2.04-4.83-4.32,0-2.58,1.89-4.02,4.38-4.38ZM684.97,660.61v-.66l-4.41.66c-1.2.18-2.1.87-2.1,2.16,0,1.08.9,2.1,2.34,2.1,2.31,0,4.17-1.11,4.17-4.26Z"/>
      <path class="cls-7" d="M693.55,644.86c1.14,0,2.04.9,2.04,2.04s-.9,2.01-2.04,2.01-2.01-.9-2.01-2.01.9-2.04,2.01-2.04ZM692.17,666.79v-14.43h2.79v14.43h-2.79Z"/>
      <path class="cls-7" d="M702.58,666.79h-2.82v-14.43h2.76v2.07c1.05-1.8,2.76-2.49,4.44-2.49,3.45,0,5.16,2.49,5.16,5.7v9.15h-2.82v-8.67c0-2.01-.84-3.63-3.36-3.63-2.22,0-3.36,1.77-3.36,3.96v8.34Z"/>
      <path class="cls-7" d="M727.35,658.09v8.7h-2.94v-21.27h7.74c3.93,0,6.57,2.73,6.57,6.3s-2.64,6.27-6.57,6.27h-4.8ZM731.62,655.45c2.55,0,4.11-1.41,4.11-3.6s-1.56-3.69-4.11-3.69h-4.26v7.29h4.26Z"/>
      <path class="cls-7" d="M749.58,655.21c-.42-.06-.84-.09-1.23-.09-2.37,0-3.96,1.26-3.96,4.44v7.23h-2.82v-14.43h2.76v2.52c1.05-2.22,2.85-2.76,4.32-2.76.39,0,.78.06.93.09v3Z"/>
      <path class="cls-7" d="M753.96,644.86c1.14,0,2.04.9,2.04,2.04s-.9,2.01-2.04,2.01-2.01-.9-2.01-2.01.9-2.04,2.01-2.04ZM752.58,666.79v-14.43h2.79v14.43h-2.79Z"/>
      <path class="cls-7" d="M761.85,659.56c0,3.3,2.07,5.07,4.41,5.07,2.7,0,3.69-1.83,4.02-2.97l2.49,1.08c-.69,2.07-2.76,4.5-6.51,4.5-4.2,0-7.29-3.3-7.29-7.68s3.15-7.65,7.26-7.65c3.84,0,5.82,2.4,6.42,4.59l-2.55,1.08c-.36-1.41-1.41-3.06-3.87-3.06-2.28,0-4.38,1.68-4.38,5.04Z"/>
      <path class="cls-7" d="M777.45,644.86c1.14,0,2.04.9,2.04,2.04s-.9,2.01-2.04,2.01-2.01-.9-2.01-2.01.9-2.04,2.01-2.04ZM776.07,666.79v-14.43h2.79v14.43h-2.79Z"/>
      <path class="cls-7" d="M786.48,666.79h-2.82v-14.43h2.76v2.07c1.05-1.8,2.76-2.49,4.44-2.49,3.45,0,5.16,2.49,5.16,5.7v9.15h-2.82v-8.67c0-2.01-.84-3.63-3.36-3.63-2.22,0-3.36,1.77-3.36,3.96v8.34Z"/>
      <path class="cls-7" d="M802.2,666.94c.21,2.01,1.74,3.54,3.93,3.54,3.03,0,4.41-1.56,4.41-4.68v-2.07c-.69,1.32-2.25,2.37-4.41,2.37-3.84,0-6.63-2.91-6.63-6.99s2.67-7.02,6.63-7.02c2.22,0,3.72.84,4.44,2.28v-2.01h2.79v13.35c0,3.66-1.8,7.23-7.23,7.23-3.6,0-6.3-2.28-6.66-5.37l2.73-.63ZM810.66,659.11c0-2.79-1.68-4.62-4.11-4.62s-4.17,1.83-4.17,4.62,1.62,4.62,4.17,4.62,4.11-1.83,4.11-4.62Z"/>
      <path class="cls-7" d="M632.86,702.79v-21.27h12.93v2.73h-9.99v6.54h9.06v2.76h-9.06v6.51h9.99v2.73h-12.93Z"/>
      <path class="cls-7" d="M652.36,702.79h-2.82v-14.43h2.76v2.07c1.05-1.8,2.76-2.49,4.44-2.49,3.45,0,5.16,2.49,5.16,5.7v9.15h-2.82v-8.67c0-2.01-.84-3.63-3.36-3.63-2.22,0-3.36,1.77-3.36,3.96v8.34Z"/>
      <path class="cls-7" d="M668.08,702.94c.21,2.01,1.74,3.54,3.93,3.54,3.03,0,4.41-1.56,4.41-4.68v-2.07c-.69,1.32-2.25,2.37-4.41,2.37-3.84,0-6.63-2.91-6.63-6.99s2.67-7.02,6.63-7.02c2.22,0,3.72.84,4.44,2.28v-2.01h2.79v13.35c0,3.66-1.8,7.23-7.23,7.23-3.6,0-6.3-2.28-6.66-5.37l2.73-.63ZM676.54,695.11c0-2.79-1.68-4.62-4.11-4.62s-4.17,1.83-4.17,4.62,1.62,4.62,4.17,4.62,4.11-1.83,4.11-4.62Z"/>
      <path class="cls-7" d="M685.12,680.86c1.14,0,2.04.9,2.04,2.04s-.9,2.01-2.04,2.01-2.01-.9-2.01-2.01.9-2.04,2.01-2.04ZM683.74,702.79v-14.43h2.79v14.43h-2.79Z"/>
      <path class="cls-7" d="M694.15,702.79h-2.82v-14.43h2.76v2.07c1.05-1.8,2.76-2.49,4.44-2.49,3.45,0,5.16,2.49,5.16,5.7v9.15h-2.82v-8.67c0-2.01-.84-3.63-3.36-3.63-2.22,0-3.36,1.77-3.36,3.96v8.34Z"/>
      <path class="cls-7" d="M720.75,698.68c-.81,2.55-3.12,4.56-6.48,4.56-3.87,0-7.26-2.82-7.26-7.71,0-4.53,3.27-7.62,6.9-7.62,4.44,0,6.93,3.06,6.93,7.56,0,.36-.03.72-.06.9h-10.86c.06,2.58,1.92,4.38,4.35,4.38s3.51-1.29,4.05-2.91l2.43.84ZM717.91,694.09c-.06-2.07-1.41-3.69-3.96-3.69-2.37,0-3.81,1.83-3.93,3.69h7.89Z"/>
    </g>
  </g>
  <g>
    <path class="cls-5" d="M317.31,353h142.4c15.06,0,27.3,12.23,27.3,27.3v318.53c0,15.06-12.23,27.3-27.3,27.3h-142.4c-4.58,0-8.31-3.72-8.31-8.31v-356.5c0-4.58,3.72-8.31,8.31-8.31Z"/>
    <path class="cls-5" d="M415.75,724.42h-2.08c-1.5,0-2.71-1.21-2.71-2.71s1.21-2.71,2.71-2.71h2.08c1.5,0,2.71,1.21,2.71,2.71s-1.21,2.71-2.71,2.71ZM392.82,724.42h-2.08c-1.5,0-2.71-1.21-2.71-2.71s1.21-2.71,2.71-2.71h2.08c1.5,0,2.71,1.21,2.71,2.71s-1.21,2.71-2.71,2.71ZM369.89,724.42h-2.08c-1.5,0-2.71-1.21-2.71-2.71s1.21-2.71,2.71-2.71h2.08c1.5,0,2.71,1.21,2.71,2.71s-1.21,2.71-2.71,2.71ZM346.96,724.42h-2.08c-1.5,0-2.71-1.21-2.71-2.71s1.21-2.71,2.71-2.71h2.08c1.5,0,2.71,1.21,2.71,2.71s-1.21,2.71-2.71,2.71ZM324.03,724.42h-2.08c-1.5,0-2.71-1.21-2.71-2.71s1.21-2.71,2.71-2.71h2.08c1.5,0,2.71,1.21,2.71,2.71s-1.21,2.71-2.71,2.71ZM301.1,724.42h-2.08c-1.5,0-2.71-1.21-2.71-2.71s1.21-2.71,2.71-2.71h2.08c1.5,0,2.71,1.21,2.71,2.71s-1.21,2.71-2.71,2.71ZM278.17,724.42h-2.08c-1.5,0-2.71-1.21-2.71-2.71s1.21-2.71,2.71-2.71h2.08c1.5,0,2.71,1.21,2.71,2.71s-1.21,2.71-2.71,2.71ZM255.24,724.42h-2.08c-1.5,0-2.71-1.21-2.71-2.71s1.21-2.71,2.71-2.71h2.08c1.5,0,2.71,1.21,2.71,2.71s-1.21,2.71-2.71,2.71ZM232.31,724.42h-2.08c-1.5,0-2.71-1.21-2.71-2.71s1.21-2.71,2.71-2.71h2.08c1.5,0,2.71,1.21,2.71,2.71s-1.21,2.71-2.71,2.71ZM209.38,724.42h-2.08c-1.5,0-2.71-1.21-2.71-2.71s1.21-2.71,2.71-2.71h2.08c1.5,0,2.71,1.21,2.71,2.71s-1.21,2.71-2.71,2.71ZM186.45,724.35c-.06,0-.13,0-.19,0-.76-.05-1.52-.13-2.27-.24-1.48-.21-2.51-1.59-2.3-3.07.21-1.48,1.59-2.51,3.07-2.3.62.09,1.25.16,1.87.2,1.49.1,2.62,1.4,2.52,2.89-.1,1.43-1.29,2.52-2.7,2.52ZM423.43,723.37c-1.18,0-2.27-.78-2.61-1.98-.41-1.44.43-2.94,1.87-3.34.6-.17,1.21-.36,1.79-.58,1.41-.51,2.96.22,3.47,1.62.51,1.41-.22,2.96-1.62,3.47-.71.26-1.44.49-2.17.7-.25.07-.49.1-.74.1ZM166.62,714.16c-.78,0-1.55-.33-2.09-.98-.48-.58-.95-1.19-1.39-1.81-.87-1.22-.58-2.91.64-3.78,1.22-.87,2.91-.58,3.78.64.36.51.75,1.01,1.15,1.49.95,1.15.79,2.86-.36,3.82-.51.42-1.12.62-1.73.62ZM440.78,709.34c-.43,0-.86-.1-1.27-.32-1.32-.7-1.83-2.34-1.13-3.66.29-.55.57-1.12.82-1.7.6-1.37,2.2-2,3.57-1.4,1.37.6,2,2.2,1.4,3.57-.3.69-.64,1.39-.99,2.06-.49.92-1.43,1.44-2.4,1.44ZM160.12,692.76c-1.5,0-2.71-1.21-2.71-2.71v-2.08c0-1.5,1.21-2.71,2.71-2.71s2.71,1.21,2.71,2.71v2.08c0,1.5-1.21,2.71-2.71,2.71ZM444.05,686.95c-1.5,0-2.71-1.21-2.71-2.71v-2.08c0-1.5,1.21-2.71,2.71-2.71s2.71,1.21,2.71,2.71v2.08c0,1.5-1.21,2.71-2.71,2.71ZM160.12,669.83c-1.5,0-2.71-1.21-2.71-2.71v-2.08c0-1.5,1.21-2.71,2.71-2.71s2.71,1.21,2.71,2.71v2.08c0,1.5-1.21,2.71-2.71,2.71ZM444.05,664.02c-1.5,0-2.71-1.21-2.71-2.71v-2.08c0-1.5,1.21-2.71,2.71-2.71s2.71,1.21,2.71,2.71v2.08c0,1.5-1.21,2.71-2.71,2.71ZM160.12,646.9c-1.5,0-2.71-1.21-2.71-2.71v-2.08c0-1.5,1.21-2.71,2.71-2.71s2.71,1.21,2.71,2.71v2.08c0,1.5-1.21,2.71-2.71,2.71ZM444.05,641.09c-1.5,0-2.71-1.21-2.71-2.71v-2.08c0-1.5,1.21-2.71,2.71-2.71s2.71,1.21,2.71,2.71v2.08c0,1.5-1.21,2.71-2.71,2.71ZM160.12,623.96c-1.5,0-2.71-1.21-2.71-2.71v-2.08c0-1.5,1.21-2.71,2.71-2.71s2.71,1.21,2.71,2.71v2.08c0,1.5-1.21,2.71-2.71,2.71ZM444.05,618.16c-1.5,0-2.71-1.21-2.71-2.71v-2.08c0-1.5,1.21-2.71,2.71-2.71s2.71,1.21,2.71,2.71v2.08c0,1.5-1.21,2.71-2.71,2.71ZM160.12,601.03c-1.5,0-2.71-1.21-2.71-2.71v-2.08c0-1.5,1.21-2.71,2.71-2.71s2.71,1.21,2.71,2.71v2.08c0,1.5-1.21,2.71-2.71,2.71ZM444.05,595.23c-1.5,0-2.71-1.21-2.71-2.71v-2.08c0-1.5,1.21-2.71,2.71-2.71s2.71,1.21,2.71,2.71v2.08c0,1.5-1.21,2.71-2.71,2.71ZM160.12,578.1c-1.5,0-2.71-1.21-2.71-2.71v-2.08c0-1.5,1.21-2.71,2.71-2.71s2.71,1.21,2.71,2.71v2.08c0,1.5-1.21,2.71-2.71,2.71ZM444.05,572.3c-1.5,0-2.71-1.21-2.71-2.71v-2.08c0-1.5,1.21-2.71,2.71-2.71s2.71,1.21,2.71,2.71v2.08c0,1.5-1.21,2.71-2.71,2.71ZM160.12,555.17c-1.5,0-2.71-1.21-2.71-2.71v-2.08c0-1.5,1.21-2.71,2.71-2.71s2.71,1.21,2.71,2.71v2.08c0,1.5-1.21,2.71-2.71,2.71ZM444.05,549.37c-1.5,0-2.71-1.21-2.71-2.71v-2.08c0-1.5,1.21-2.71,2.71-2.71s2.71,1.21,2.71,2.71v2.08c0,1.5-1.21,2.71-2.71,2.71ZM160.12,532.24c-1.5,0-2.71-1.21-2.71-2.71v-2.08c0-1.5,1.21-2.71,2.71-2.71s2.71,1.21,2.71,2.71v2.08c0,1.5-1.21,2.71-2.71,2.71ZM444.05,526.43c-1.5,0-2.71-1.21-2.71-2.71v-2.08c0-1.5,1.21-2.71,2.71-2.71s2.71,1.21,2.71,2.71v2.08c0,1.5-1.21,2.71-2.71,2.71ZM160.12,509.31c-1.5,0-2.71-1.21-2.71-2.71v-2.08c0-1.5,1.21-2.71,2.71-2.71s2.71,1.21,2.71,2.71v2.08c0,1.5-1.21,2.71-2.71,2.71ZM444.05,503.5c-1.5,0-2.71-1.21-2.71-2.71v-2.08c0-1.5,1.21-2.71,2.71-2.71s2.71,1.21,2.71,2.71v2.08c0,1.5-1.21,2.71-2.71,2.71ZM160.12,486.38c-1.5,0-2.71-1.21-2.71-2.71v-2.08c0-1.5,1.21-2.71,2.71-2.71s2.71,1.21,2.71,2.71v2.08c0,1.5-1.21,2.71-2.71,2.71ZM444.05,480.57c-1.5,0-2.71-1.21-2.71-2.71v-2.08c0-1.5,1.21-2.71,2.71-2.71s2.71,1.21,2.71,2.71v2.08c0,1.5-1.21,2.71-2.71,2.71ZM160.12,463.45c-1.5,0-2.71-1.21-2.71-2.71v-2.08c0-1.5,1.21-2.71,2.71-2.71s2.71,1.21,2.71,2.71v2.08c0,1.5-1.21,2.71-2.71,2.71ZM444.05,457.64c-1.5,0-2.71-1.21-2.71-2.71v-2.08c0-1.5,1.21-2.71,2.71-2.71s2.71,1.21,2.71,2.71v2.08c0,1.5-1.21,2.71-2.71,2.71ZM160.12,440.52c-1.5,0-2.71-1.21-2.71-2.71v-2.08c0-1.5,1.21-2.71,2.71-2.71s2.71,1.21,2.71,2.71v2.08c0,1.5-1.21,2.71-2.71,2.71ZM444.05,434.71c-1.5,0-2.71-1.21-2.71-2.71v-2.08c0-1.5,1.21-2.71,2.71-2.71s2.71,1.21,2.71,2.71v2.08c0,1.5-1.21,2.71-2.71,2.71ZM160.12,417.59c-1.5,0-2.71-1.21-2.71-2.71v-2.08c0-1.5,1.21-2.71,2.71-2.71s2.71,1.21,2.71,2.71v2.08c0,1.5-1.21,2.71-2.71,2.71ZM444.05,411.78c-1.5,0-2.71-1.21-2.71-2.71v-2.08c0-1.5,1.21-2.71,2.71-2.71s2.71,1.21,2.71,2.71v2.08c0,1.5-1.21,2.71-2.71,2.71ZM160.12,394.66c-1.5,0-2.71-1.21-2.71-2.71v-2.08c0-1.5,1.21-2.71,2.71-2.71s2.71,1.21,2.71,2.71v2.08c0,1.5-1.21,2.71-2.71,2.71ZM444.05,388.85c-1.5,0-2.71-1.21-2.71-2.71v-.52c0-.47-.01-.94-.04-1.41-.08-1.49,1.06-2.77,2.56-2.85,1.49-.09,2.77,1.06,2.85,2.56.03.57.05,1.14.05,1.71v.52c0,1.5-1.21,2.71-2.71,2.71ZM164.85,372.67c-.52,0-1.04-.15-1.5-.45-1.25-.83-1.58-2.51-.75-3.76.42-.63.87-1.25,1.33-1.85.92-1.18,2.62-1.39,3.8-.48,1.18.92,1.4,2.62.48,3.8-.38.49-.75,1.01-1.1,1.53-.52.78-1.38,1.21-2.26,1.21ZM435.64,368.19c-.69,0-1.38-.26-1.9-.78-.44-.44-.91-.87-1.39-1.27-1.14-.97-1.27-2.68-.3-3.82.97-1.14,2.68-1.27,3.82-.3.58.49,1.14,1.01,1.68,1.54,1.06,1.05,1.07,2.77.02,3.83-.53.54-1.23.8-1.93.8ZM183.51,360.46c-1.29,0-2.44-.93-2.67-2.24-.26-1.47.73-2.88,2.2-3.14.75-.13,1.51-.24,2.26-.31,1.49-.15,2.82.94,2.96,2.43.15,1.49-.94,2.82-2.43,2.96-.62.06-1.25.15-1.86.26-.16.03-.32.04-.47.04ZM414.88,360.03h-2.08c-1.5,0-2.71-1.21-2.71-2.71s1.21-2.71,2.71-2.71h2.08c1.5,0,2.71,1.21,2.71,2.71s-1.21,2.71-2.71,2.71ZM391.95,360.03h-2.08c-1.5,0-2.71-1.21-2.71-2.71s1.21-2.71,2.71-2.71h2.08c1.5,0,2.71,1.21,2.71,2.71s-1.21,2.71-2.71,2.71ZM369.02,360.03h-2.08c-1.5,0-2.71-1.21-2.71-2.71s1.21-2.71,2.71-2.71h2.08c1.5,0,2.71,1.21,2.71,2.71s-1.21,2.71-2.71,2.71ZM346.09,360.03h-2.08c-1.5,0-2.71-1.21-2.71-2.71s1.21-2.71,2.71-2.71h2.08c1.5,0,2.71,1.21,2.71,2.71s-1.21,2.71-2.71,2.71ZM323.16,360.03h-2.08c-1.5,0-2.71-1.21-2.71-2.71s1.21-2.71,2.71-2.71h2.08c1.5,0,2.71,1.21,2.71,2.71s-1.21,2.71-2.71,2.71ZM300.22,360.03h-2.08c-1.5,0-2.71-1.21-2.71-2.71s1.21-2.71,2.71-2.71h2.08c1.5,0,2.71,1.21,2.71,2.71s-1.21,2.71-2.71,2.71ZM277.29,360.03h-2.08c-1.5,0-2.71-1.21-2.71-2.71s1.21-2.71,2.71-2.71h2.08c1.5,0,2.71,1.21,2.71,2.71s-1.21,2.71-2.71,2.71ZM254.36,360.03h-2.08c-1.5,0-2.71-1.21-2.71-2.71s1.21-2.71,2.71-2.71h2.08c1.5,0,2.71,1.21,2.71,2.71s-1.21,2.71-2.71,2.71ZM231.43,360.03h-2.08c-1.5,0-2.71-1.21-2.71-2.71s1.21-2.71,2.71-2.71h2.08c1.5,0,2.71,1.21,2.71,2.71s-1.21,2.71-2.71,2.71ZM208.5,360.03h-2.08c-1.5,0-2.71-1.21-2.71-2.71s1.21-2.71,2.71-2.71h2.08c1.5,0,2.71,1.21,2.71,2.71s-1.21,2.71-2.71,2.71Z"/>
    <rect class="cls-6" x="187.83" y="381.67" width="256.44" height="315.69" rx="21.26" ry="21.26"/>
    <path class="cls-2" d="M435.38,413.57v260.78c0,12.71-10.3,23.01-23.01,23.01h-201.54c-12.7,0-23-10.3-23-23.01v-260.78c0-12.71,10.3-23.01,23-23.01h201.54c12.71,0,23.01,10.3,23.01,23.01Z"/>
    <g>
      <path class="cls-7" d="M256.87,535.79v-16.56l-7.26,16.56h-2.7l-7.2-16.56v16.56h-2.91v-21.27h3.99l7.5,17.31,7.56-17.31h3.93v21.27h-2.91Z"/>
      <path class="cls-7" d="M268.21,527.54l3.9-.57c.87-.12,1.11-.57,1.11-1.08,0-1.41-.93-2.58-3.12-2.58-1.98,0-3.09,1.23-3.27,2.91l-2.7-.63c.3-2.76,2.79-4.68,5.91-4.68,4.32,0,6,2.46,6,5.28v7.23c0,1.26.12,2.01.18,2.37h-2.76c-.06-.36-.15-.9-.15-1.95-.63,1.02-2.07,2.4-4.65,2.4-2.94,0-4.83-2.04-4.83-4.32,0-2.58,1.89-4.02,4.38-4.38ZM273.22,529.61v-.66l-4.41.66c-1.2.18-2.1.87-2.1,2.16,0,1.08.9,2.1,2.34,2.1,2.31,0,4.17-1.11,4.17-4.26Z"/>
      <path class="cls-7" d="M288.43,524.21c-.42-.06-.84-.09-1.23-.09-2.37,0-3.96,1.26-3.96,4.44v7.23h-2.82v-14.43h2.76v2.52c1.05-2.22,2.85-2.76,4.32-2.76.39,0,.78.06.93.09v3Z"/>
      <path class="cls-7" d="M298.21,527.45l6.27,8.34h-3.54l-4.71-6.36-2.01,2.01v4.35h-2.79v-21.72h2.79v13.68l6.24-6.39h3.9l-6.15,6.09Z"/>
      <path class="cls-7" d="M319,531.68c-.81,2.55-3.12,4.56-6.48,4.56-3.87,0-7.26-2.82-7.26-7.71,0-4.53,3.27-7.62,6.9-7.62,4.44,0,6.93,3.06,6.93,7.56,0,.36-.03.72-.06.9h-10.86c.06,2.58,1.92,4.38,4.35,4.38s3.51-1.29,4.05-2.91l2.43.84ZM316.15,527.09c-.06-2.07-1.41-3.69-3.96-3.69-2.37,0-3.81,1.83-3.93,3.69h7.89Z"/>
      <path class="cls-7" d="M326.47,521.36h3.12v2.55h-3.12v7.5c0,1.32.54,1.98,2.01,1.98.36,0,.87-.06,1.11-.12v2.4c-.24.09-.96.27-1.92.27-2.46,0-4.02-1.5-4.02-4.11v-7.92h-2.76v-2.55h.78c1.56,0,2.22-.96,2.22-2.22v-2.34h2.58v4.56Z"/>
      <path class="cls-7" d="M341.14,535.79v-21.27h7.44c5.4,0,10.11,3.69,10.11,10.68s-4.77,10.59-10.17,10.59h-7.38ZM348.43,533.18c3.93,0,7.23-2.64,7.23-7.98s-3.24-8.07-7.17-8.07h-4.41v16.05h4.35Z"/>
      <path class="cls-7" d="M365.92,527.54l3.9-.57c.87-.12,1.11-.57,1.11-1.08,0-1.41-.93-2.58-3.12-2.58-1.98,0-3.09,1.23-3.27,2.91l-2.7-.63c.3-2.76,2.79-4.68,5.91-4.68,4.32,0,6,2.46,6,5.28v7.23c0,1.26.12,2.01.18,2.37h-2.76c-.06-.36-.15-.9-.15-1.95-.63,1.02-2.07,2.4-4.65,2.4-2.94,0-4.83-2.04-4.83-4.32,0-2.58,1.89-4.02,4.38-4.38ZM370.93,529.61v-.66l-4.41.66c-1.2.18-2.1.87-2.1,2.16,0,1.08.9,2.1,2.34,2.1,2.31,0,4.17-1.11,4.17-4.26Z"/>
      <path class="cls-7" d="M381.91,521.36h3.12v2.55h-3.12v7.5c0,1.32.54,1.98,2.01,1.98.36,0,.87-.06,1.11-.12v2.4c-.24.09-.96.27-1.92.27-2.46,0-4.02-1.5-4.02-4.11v-7.92h-2.76v-2.55h.78c1.56,0,2.22-.96,2.22-2.22v-2.34h2.58v4.56Z"/>
      <path class="cls-7" d="M392.26,527.54l3.9-.57c.87-.12,1.11-.57,1.11-1.08,0-1.41-.93-2.58-3.12-2.58-1.98,0-3.09,1.23-3.27,2.91l-2.7-.63c.3-2.76,2.79-4.68,5.91-4.68,4.32,0,6,2.46,6,5.28v7.23c0,1.26.12,2.01.18,2.37h-2.76c-.06-.36-.15-.9-.15-1.95-.63,1.02-2.07,2.4-4.65,2.4-2.94,0-4.83-2.04-4.83-4.32,0-2.58,1.89-4.02,4.38-4.38ZM397.27,529.61v-.66l-4.41.66c-1.2.18-2.1.87-2.1,2.16,0,1.08.9,2.1,2.34,2.1,2.31,0,4.17-1.11,4.17-4.26Z"/>
      <path class="cls-7" d="M235.45,561.14c0-7.11,5.28-11.07,10.56-11.07,4.86,0,8.28,2.64,9.36,6.75l-2.73.96c-.81-3.21-3.15-5.01-6.63-5.01-3.87,0-7.56,2.82-7.56,8.37s3.69,8.4,7.56,8.4c3.63,0,5.91-2.19,6.78-5.1l2.61.96c-1.14,3.99-4.5,6.84-9.39,6.84-5.49,0-10.56-3.99-10.56-11.1Z"/>
      <path class="cls-7" d="M258.7,571.79v-21.72h2.82v21.72h-2.82Z"/>
      <path class="cls-7" d="M278.89,567.68c-.81,2.55-3.12,4.56-6.48,4.56-3.87,0-7.26-2.82-7.26-7.71,0-4.53,3.27-7.62,6.9-7.62,4.44,0,6.93,3.06,6.93,7.56,0,.36-.03.72-.06.9h-10.86c.06,2.58,1.92,4.38,4.35,4.38s3.51-1.29,4.05-2.91l2.43.84ZM276.04,563.09c-.06-2.07-1.41-3.69-3.96-3.69-2.37,0-3.81,1.83-3.93,3.69h7.89Z"/>
      <path class="cls-7" d="M286.06,563.54l3.9-.57c.87-.12,1.11-.57,1.11-1.08,0-1.41-.93-2.58-3.12-2.58-1.98,0-3.09,1.23-3.27,2.91l-2.7-.63c.3-2.76,2.79-4.68,5.91-4.68,4.32,0,6,2.46,6,5.28v7.23c0,1.26.12,2.01.18,2.37h-2.76c-.06-.36-.15-.9-.15-1.95-.63,1.02-2.07,2.4-4.65,2.4-2.94,0-4.83-2.04-4.83-4.32,0-2.58,1.89-4.02,4.38-4.38ZM291.07,565.61v-.66l-4.41.66c-1.2.18-2.1.87-2.1,2.16,0,1.08.9,2.1,2.34,2.1,2.31,0,4.17-1.11,4.17-4.26Z"/>
      <path class="cls-7" d="M301.09,571.79h-2.82v-14.43h2.76v2.07c1.05-1.8,2.76-2.49,4.44-2.49,3.45,0,5.16,2.49,5.16,5.7v9.15h-2.82v-8.67c0-2.01-.84-3.63-3.36-3.63-2.22,0-3.36,1.77-3.36,3.96v8.34Z"/>
      <path class="cls-7" d="M316.33,567.14c.18,1.5,1.32,2.7,3.36,2.7,1.59,0,2.46-.9,2.46-1.92,0-.9-.66-1.59-1.86-1.86l-2.46-.54c-2.25-.48-3.6-2.01-3.6-4.05,0-2.46,2.31-4.56,5.13-4.56,3.96,0,5.19,2.58,5.49,3.87l-2.49.93c-.12-.75-.72-2.4-3-2.4-1.44,0-2.4.93-2.4,1.92,0,.87.54,1.5,1.65,1.74l2.34.51c2.61.57,3.99,2.16,3.99,4.29s-1.71,4.47-5.28,4.47c-3.96,0-5.64-2.55-5.88-4.2l2.55-.9Z"/>
      <path class="cls-7" d="M330.07,549.86c1.14,0,2.04.9,2.04,2.04s-.9,2.01-2.04,2.01-2.01-.9-2.01-2.01.9-2.04,2.01-2.04ZM328.69,571.79v-14.43h2.79v14.43h-2.79Z"/>
      <path class="cls-7" d="M339.1,571.79h-2.82v-14.43h2.76v2.07c1.05-1.8,2.76-2.49,4.44-2.49,3.45,0,5.16,2.49,5.16,5.7v9.15h-2.82v-8.67c0-2.01-.84-3.63-3.36-3.63-2.22,0-3.36,1.77-3.36,3.96v8.34Z"/>
      <path class="cls-7" d="M354.82,571.94c.21,2.01,1.74,3.54,3.93,3.54,3.03,0,4.41-1.56,4.41-4.68v-2.07c-.69,1.32-2.25,2.37-4.41,2.37-3.84,0-6.63-2.91-6.63-6.99s2.67-7.02,6.63-7.02c2.22,0,3.72.84,4.44,2.28v-2.01h2.79v13.35c0,3.66-1.8,7.23-7.23,7.23-3.6,0-6.3-2.28-6.66-5.37l2.73-.63ZM363.28,564.11c0-2.79-1.68-4.62-4.11-4.62s-4.17,1.83-4.17,4.62,1.62,4.62,4.17,4.62,4.11-1.83,4.11-4.62Z"/>
    </g>
  </g>
  <g>
    <path class="cls-8" d="M1148.81,354.07h142.4c15.06,0,27.3,12.23,27.3,27.3v318.53c0,15.06-12.23,27.3-27.3,27.3h-142.4c-4.58,0-8.31-3.72-8.31-8.31v-356.5c0-4.58,3.72-8.31,8.31-8.31Z"/>
    <path class="cls-8" d="M1241.97,724.42h-2.08c-1.5,0-2.71-1.21-2.71-2.71s1.21-2.71,2.71-2.71h2.08c1.5,0,2.71,1.21,2.71,2.71s-1.21,2.71-2.71,2.71ZM1219.04,724.42h-2.08c-1.5,0-2.71-1.21-2.71-2.71s1.21-2.71,2.71-2.71h2.08c1.5,0,2.71,1.21,2.71,2.71s-1.21,2.71-2.71,2.71ZM1196.11,724.42h-2.08c-1.5,0-2.71-1.21-2.71-2.71s1.21-2.71,2.71-2.71h2.08c1.5,0,2.71,1.21,2.71,2.71s-1.21,2.71-2.71,2.71ZM1173.18,724.42h-2.08c-1.5,0-2.71-1.21-2.71-2.71s1.21-2.71,2.71-2.71h2.08c1.5,0,2.71,1.21,2.71,2.71s-1.21,2.71-2.71,2.71ZM1150.24,724.42h-2.08c-1.5,0-2.71-1.21-2.71-2.71s1.21-2.71,2.71-2.71h2.08c1.5,0,2.71,1.21,2.71,2.71s-1.21,2.71-2.71,2.71ZM1127.31,724.42h-2.08c-1.5,0-2.71-1.21-2.71-2.71s1.21-2.71,2.71-2.71h2.08c1.5,0,2.71,1.21,2.71,2.71s-1.21,2.71-2.71,2.71ZM1104.38,724.42h-2.08c-1.5,0-2.71-1.21-2.71-2.71s1.21-2.71,2.71-2.71h2.08c1.5,0,2.71,1.21,2.71,2.71s-1.21,2.71-2.71,2.71ZM1081.45,724.42h-2.08c-1.5,0-2.71-1.21-2.71-2.71s1.21-2.71,2.71-2.71h2.08c1.5,0,2.71,1.21,2.71,2.71s-1.21,2.71-2.71,2.71ZM1058.52,724.42h-2.08c-1.5,0-2.71-1.21-2.71-2.71s1.21-2.71,2.71-2.71h2.08c1.5,0,2.71,1.21,2.71,2.71s-1.21,2.71-2.71,2.71ZM1035.59,724.42h-2.08c-1.5,0-2.71-1.21-2.71-2.71s1.21-2.71,2.71-2.71h2.08c1.5,0,2.71,1.21,2.71,2.71s-1.21,2.71-2.71,2.71ZM1012.67,724.35c-.06,0-.13,0-.19,0-.76-.05-1.52-.13-2.27-.24-1.48-.21-2.51-1.59-2.3-3.07.21-1.48,1.59-2.51,3.07-2.3.62.09,1.25.16,1.87.2,1.49.1,2.62,1.4,2.52,2.89-.1,1.43-1.29,2.52-2.7,2.52ZM1249.65,723.37c-1.18,0-2.27-.78-2.61-1.98-.41-1.44.43-2.94,1.87-3.34.61-.17,1.21-.36,1.79-.58,1.41-.51,2.96.22,3.47,1.62.51,1.41-.22,2.96-1.62,3.47-.71.26-1.44.49-2.17.7-.25.07-.49.1-.74.1ZM992.83,714.16c-.78,0-1.55-.33-2.09-.98-.48-.58-.95-1.19-1.39-1.81-.87-1.22-.58-2.91.64-3.78,1.22-.87,2.91-.58,3.78.64.36.51.75,1.01,1.15,1.49.95,1.15.79,2.86-.36,3.82-.51.42-1.12.62-1.73.62ZM1266.99,709.34c-.43,0-.86-.1-1.27-.32-1.32-.7-1.83-2.34-1.13-3.66.29-.55.57-1.12.82-1.7.6-1.37,2.2-2,3.57-1.4,1.37.6,2,2.2,1.4,3.57-.3.7-.64,1.39-.99,2.06-.49.92-1.43,1.44-2.4,1.44ZM986.34,692.76c-1.5,0-2.71-1.21-2.71-2.71v-2.08c0-1.5,1.21-2.71,2.71-2.71s2.71,1.21,2.71,2.71v2.08c0,1.5-1.21,2.71-2.71,2.71ZM1270.26,686.95c-1.5,0-2.71-1.21-2.71-2.71v-2.08c0-1.5,1.21-2.71,2.71-2.71s2.71,1.21,2.71,2.71v2.08c0,1.5-1.21,2.71-2.71,2.71ZM986.34,669.83c-1.5,0-2.71-1.21-2.71-2.71v-2.08c0-1.5,1.21-2.71,2.71-2.71s2.71,1.21,2.71,2.71v2.08c0,1.5-1.21,2.71-2.71,2.71ZM1270.26,664.02c-1.5,0-2.71-1.21-2.71-2.71v-2.08c0-1.5,1.21-2.71,2.71-2.71s2.71,1.21,2.71,2.71v2.08c0,1.5-1.21,2.71-2.71,2.71ZM986.34,646.9c-1.5,0-2.71-1.21-2.71-2.71v-2.08c0-1.5,1.21-2.71,2.71-2.71s2.71,1.21,2.71,2.71v2.08c0,1.5-1.21,2.71-2.71,2.71ZM1270.26,641.09c-1.5,0-2.71-1.21-2.71-2.71v-2.08c0-1.5,1.21-2.71,2.71-2.71s2.71,1.21,2.71,2.71v2.08c0,1.5-1.21,2.71-2.71,2.71ZM986.34,623.96c-1.5,0-2.71-1.21-2.71-2.71v-2.08c0-1.5,1.21-2.71,2.71-2.71s2.71,1.21,2.71,2.71v2.08c0,1.5-1.21,2.71-2.71,2.71ZM1270.26,618.16c-1.5,0-2.71-1.21-2.71-2.71v-2.08c0-1.5,1.21-2.71,2.71-2.71s2.71,1.21,2.71,2.71v2.08c0,1.5-1.21,2.71-2.71,2.71ZM986.34,601.03c-1.5,0-2.71-1.21-2.71-2.71v-2.08c0-1.5,1.21-2.71,2.71-2.71s2.71,1.21,2.71,2.71v2.08c0,1.5-1.21,2.71-2.71,2.71ZM1270.26,595.23c-1.5,0-2.71-1.21-2.71-2.71v-2.08c0-1.5,1.21-2.71,2.71-2.71s2.71,1.21,2.71,2.71v2.08c0,1.5-1.21,2.71-2.71,2.71ZM986.34,578.1c-1.5,0-2.71-1.21-2.71-2.71v-2.08c0-1.5,1.21-2.71,2.71-2.71s2.71,1.21,2.71,2.71v2.08c0,1.5-1.21,2.71-2.71,2.71ZM1270.26,572.3c-1.5,0-2.71-1.21-2.71-2.71v-2.08c0-1.5,1.21-2.71,2.71-2.71s2.71,1.21,2.71,2.71v2.08c0,1.5-1.21,2.71-2.71,2.71ZM986.34,555.17c-1.5,0-2.71-1.21-2.71-2.71v-2.08c0-1.5,1.21-2.71,2.71-2.71s2.71,1.21,2.71,2.71v2.08c0,1.5-1.21,2.71-2.71,2.71ZM1270.26,549.37c-1.5,0-2.71-1.21-2.71-2.71v-2.08c0-1.5,1.21-2.71,2.71-2.71s2.71,1.21,2.71,2.71v2.08c0,1.5-1.21,2.71-2.71,2.71ZM986.34,532.24c-1.5,0-2.71-1.21-2.71-2.71v-2.08c0-1.5,1.21-2.71,2.71-2.71s2.71,1.21,2.71,2.71v2.08c0,1.5-1.21,2.71-2.71,2.71ZM1270.26,526.43c-1.5,0-2.71-1.21-2.71-2.71v-2.08c0-1.5,1.21-2.71,2.71-2.71s2.71,1.21,2.71,2.71v2.08c0,1.5-1.21,2.71-2.71,2.71ZM986.34,509.31c-1.5,0-2.71-1.21-2.71-2.71v-2.08c0-1.5,1.21-2.71,2.71-2.71s2.71,1.21,2.71,2.71v2.08c0,1.5-1.21,2.71-2.71,2.71ZM1270.26,503.5c-1.5,0-2.71-1.21-2.71-2.71v-2.08c0-1.5,1.21-2.71,2.71-2.71s2.71,1.21,2.71,2.71v2.08c0,1.5-1.21,2.71-2.71,2.71ZM986.34,486.38c-1.5,0-2.71-1.21-2.71-2.71v-2.08c0-1.5,1.21-2.71,2.71-2.71s2.71,1.21,2.71,2.71v2.08c0,1.5-1.21,2.71-2.71,2.71ZM1270.26,480.57c-1.5,0-2.71-1.21-2.71-2.71v-2.08c0-1.5,1.21-2.71,2.71-2.71s2.71,1.21,2.71,2.71v2.08c0,1.5-1.21,2.71-2.71,2.71ZM986.34,463.45c-1.5,0-2.71-1.21-2.71-2.71v-2.08c0-1.5,1.21-2.71,2.71-2.71s2.71,1.21,2.71,2.71v2.08c0,1.5-1.21,2.71-2.71,2.71ZM1270.26,457.64c-1.5,0-2.71-1.21-2.71-2.71v-2.08c0-1.5,1.21-2.71,2.71-2.71s2.71,1.21,2.71,2.71v2.08c0,1.5-1.21,2.71-2.71,2.71ZM986.34,440.52c-1.5,0-2.71-1.21-2.71-2.71v-2.08c0-1.5,1.21-2.71,2.71-2.71s2.71,1.21,2.71,2.71v2.08c0,1.5-1.21,2.71-2.71,2.71ZM1270.26,434.71c-1.5,0-2.71-1.21-2.71-2.71v-2.08c0-1.5,1.21-2.71,2.71-2.71s2.71,1.21,2.71,2.71v2.08c0,1.5-1.21,2.71-2.71,2.71ZM986.34,417.59c-1.5,0-2.71-1.21-2.71-2.71v-2.08c0-1.5,1.21-2.71,2.71-2.71s2.71,1.21,2.71,2.71v2.08c0,1.5-1.21,2.71-2.71,2.71ZM1270.26,411.78c-1.5,0-2.71-1.21-2.71-2.71v-2.08c0-1.5,1.21-2.71,2.71-2.71s2.71,1.21,2.71,2.71v2.08c0,1.5-1.21,2.71-2.71,2.71ZM986.34,394.66c-1.5,0-2.71-1.21-2.71-2.71v-2.08c0-1.5,1.21-2.71,2.71-2.71s2.71,1.21,2.71,2.71v2.08c0,1.5-1.21,2.71-2.71,2.71ZM1270.26,388.85c-1.5,0-2.71-1.21-2.71-2.71v-.52c0-.47-.01-.94-.04-1.41-.08-1.49,1.06-2.77,2.56-2.85,1.49-.08,2.77,1.06,2.85,2.56.03.57.05,1.14.05,1.71v.52c0,1.5-1.21,2.71-2.71,2.71ZM991.06,372.67c-.52,0-1.04-.15-1.5-.45-1.25-.83-1.58-2.51-.75-3.76.42-.63.87-1.25,1.33-1.85.92-1.18,2.62-1.39,3.8-.48,1.18.92,1.4,2.62.48,3.8-.38.49-.75,1.01-1.1,1.53-.52.78-1.38,1.21-2.26,1.21ZM1261.85,368.2c-.69,0-1.38-.26-1.91-.78-.44-.44-.91-.87-1.39-1.27-1.14-.97-1.28-2.68-.3-3.82.97-1.14,2.68-1.27,3.82-.3.58.49,1.14,1.01,1.68,1.54,1.06,1.05,1.07,2.77.02,3.83-.53.54-1.23.8-1.93.8ZM1009.72,360.46c-1.29,0-2.44-.93-2.67-2.24-.26-1.47.73-2.88,2.2-3.14.75-.13,1.51-.24,2.26-.31,1.49-.15,2.82.94,2.96,2.43.15,1.49-.94,2.82-2.43,2.96-.62.06-1.25.15-1.86.26-.16.03-.32.04-.47.04ZM1241.09,360.03h-2.08c-1.5,0-2.71-1.21-2.71-2.71s1.21-2.71,2.71-2.71h2.08c1.5,0,2.71,1.21,2.71,2.71s-1.21,2.71-2.71,2.71ZM1218.16,360.03h-2.08c-1.5,0-2.71-1.21-2.71-2.71s1.21-2.71,2.71-2.71h2.08c1.5,0,2.71,1.21,2.71,2.71s-1.21,2.71-2.71,2.71ZM1195.23,360.03h-2.08c-1.5,0-2.71-1.21-2.71-2.71s1.21-2.71,2.71-2.71h2.08c1.5,0,2.71,1.21,2.71,2.71s-1.21,2.71-2.71,2.71ZM1172.3,360.03h-2.08c-1.5,0-2.71-1.21-2.71-2.71s1.21-2.71,2.71-2.71h2.08c1.5,0,2.71,1.21,2.71,2.71s-1.21,2.71-2.71,2.71ZM1149.37,360.03h-2.08c-1.5,0-2.71-1.21-2.71-2.71s1.21-2.71,2.71-2.71h2.08c1.5,0,2.71,1.21,2.71,2.71s-1.21,2.71-2.71,2.71ZM1126.44,360.03h-2.08c-1.5,0-2.71-1.21-2.71-2.71s1.21-2.71,2.71-2.71h2.08c1.5,0,2.71,1.21,2.71,2.71s-1.21,2.71-2.71,2.71ZM1103.51,360.03h-2.08c-1.5,0-2.71-1.21-2.71-2.71s1.21-2.71,2.71-2.71h2.08c1.5,0,2.71,1.21,2.71,2.71s-1.21,2.71-2.71,2.71ZM1080.58,360.03h-2.08c-1.5,0-2.71-1.21-2.71-2.71s1.21-2.71,2.71-2.71h2.08c1.5,0,2.71,1.21,2.71,2.71s-1.21,2.71-2.71,2.71ZM1057.65,360.03h-2.08c-1.5,0-2.71-1.21-2.71-2.71s1.21-2.71,2.71-2.71h2.08c1.5,0,2.71,1.21,2.71,2.71s-1.21,2.71-2.71,2.71ZM1034.72,360.03h-2.08c-1.5,0-2.71-1.21-2.71-2.71s1.21-2.71,2.71-2.71h2.08c1.5,0,2.71,1.21,2.71,2.71s-1.21,2.71-2.71,2.71Z"/>
    <rect class="cls-6" x="1013.77" y="381.67" width="256.44" height="315.69" rx="21.26" ry="21.26"/>
    <path class="cls-2" d="M1261.33,413.57v260.78c0,12.71-10.3,23.01-23.01,23.01h-201.54c-12.7,0-23-10.3-23-23.01v-260.78c0-12.71,10.3-23.01,23-23.01h201.54c12.71,0,23.01,10.3,23.01,23.01Z"/>
    <g>
      <path class="cls-7" d="M1063.22,514.52h3.09l-8.19,21.27h-2.91l-8.01-21.27h3.12l6.42,17.49,6.48-17.49Z"/>
      <path class="cls-7" d="M1070.85,527.54l3.9-.57c.87-.12,1.11-.57,1.11-1.08,0-1.41-.93-2.58-3.12-2.58-1.98,0-3.09,1.23-3.27,2.91l-2.7-.63c.3-2.76,2.79-4.68,5.91-4.68,4.32,0,6,2.46,6,5.28v7.23c0,1.26.12,2.01.18,2.37h-2.76c-.06-.36-.15-.9-.15-1.95-.63,1.02-2.07,2.4-4.65,2.4-2.94,0-4.83-2.04-4.83-4.32,0-2.58,1.89-4.02,4.38-4.38ZM1075.85,529.61v-.66l-4.41.66c-1.2.18-2.1.87-2.1,2.16,0,1.08.9,2.1,2.34,2.1,2.31,0,4.17-1.11,4.17-4.26Z"/>
      <path class="cls-7" d="M1083.06,535.79v-21.72h2.82v21.72h-2.82Z"/>
      <path class="cls-7" d="M1095.78,536.24c-3.36,0-5.4-2.52-5.4-5.79v-9.09h2.82v8.67c0,1.98.9,3.72,3.27,3.72s3.42-1.5,3.42-3.69v-8.7h2.82v11.76c0,1.14.09,2.16.15,2.67h-2.7c-.06-.33-.12-1.14-.12-1.74-.78,1.5-2.58,2.19-4.26,2.19Z"/>
      <path class="cls-7" d="M1110.98,527.54l3.9-.57c.87-.12,1.11-.57,1.11-1.08,0-1.41-.93-2.58-3.12-2.58-1.98,0-3.09,1.23-3.27,2.91l-2.7-.63c.3-2.76,2.79-4.68,5.91-4.68,4.32,0,6,2.46,6,5.28v7.23c0,1.26.12,2.01.18,2.37h-2.76c-.06-.36-.15-.9-.15-1.95-.63,1.02-2.07,2.4-4.65,2.4-2.94,0-4.83-2.04-4.83-4.32,0-2.58,1.89-4.02,4.38-4.38ZM1116,529.61v-.66l-4.41.66c-1.2.18-2.1.87-2.1,2.16,0,1.08.9,2.1,2.34,2.1,2.31,0,4.17-1.11,4.17-4.26Z"/>
      <path class="cls-7" d="M1126.97,521.36h3.12v2.55h-3.12v7.5c0,1.32.54,1.98,2.01,1.98.36,0,.87-.06,1.11-.12v2.4c-.24.09-.96.27-1.92.27-2.46,0-4.02-1.5-4.02-4.11v-7.92h-2.76v-2.55h.78c1.56,0,2.22-.96,2.22-2.22v-2.34h2.58v4.56Z"/>
      <path class="cls-7" d="M1135.22,513.86c1.14,0,2.04.9,2.04,2.04s-.9,2.01-2.04,2.01-2.01-.9-2.01-2.01.9-2.04,2.01-2.04ZM1133.84,535.79v-14.43h2.79v14.43h-2.79Z"/>
      <path class="cls-7" d="M1154.99,528.56c0,4.41-3.06,7.68-7.38,7.68s-7.38-3.27-7.38-7.68,3.06-7.65,7.38-7.65,7.38,3.27,7.38,7.65ZM1152.11,528.56c0-3.33-2.1-5.13-4.5-5.13s-4.5,1.8-4.5,5.13,2.1,5.16,4.5,5.16,4.5-1.8,4.5-5.16Z"/>
      <path class="cls-7" d="M1161.41,535.79h-2.82v-14.43h2.76v2.07c1.05-1.8,2.76-2.49,4.44-2.49,3.45,0,5.16,2.49,5.16,5.7v9.15h-2.82v-8.67c0-2.01-.84-3.63-3.36-3.63-2.22,0-3.36,1.77-3.36,3.96v8.34Z"/>
      <path class="cls-7" d="M1049.61,571.79v-21.27h12.93v2.73h-9.99v6.54h9.06v2.76h-9.06v6.51h9.99v2.73h-12.93Z"/>
      <path class="cls-7" d="M1070,564.44l-5.19-7.08h3.42l3.54,5.07,3.48-5.07h3.33l-5.13,7.08c.87,1.17,4.44,6.18,5.31,7.35h-3.39l-3.72-5.31-3.66,5.31h-3.36l5.37-7.35Z"/>
      <path class="cls-7" d="M1082.84,564.56c0,3.3,2.07,5.07,4.41,5.07,2.7,0,3.69-1.83,4.02-2.97l2.49,1.08c-.69,2.07-2.76,4.5-6.51,4.5-4.2,0-7.29-3.3-7.29-7.68s3.15-7.65,7.26-7.65c3.84,0,5.82,2.4,6.42,4.59l-2.55,1.08c-.36-1.41-1.41-3.06-3.87-3.06-2.28,0-4.38,1.68-4.38,5.04Z"/>
      <path class="cls-7" d="M1109.48,567.68c-.81,2.55-3.12,4.56-6.48,4.56-3.87,0-7.26-2.82-7.26-7.71,0-4.53,3.27-7.62,6.9-7.62,4.44,0,6.93,3.06,6.93,7.56,0,.36-.03.72-.06.9h-10.86c.06,2.58,1.92,4.38,4.35,4.38s3.51-1.29,4.05-2.91l2.43.84ZM1106.63,563.09c-.06-2.07-1.41-3.69-3.96-3.69-2.37,0-3.81,1.83-3.93,3.69h7.89Z"/>
      <path class="cls-7" d="M1113.17,577.49v-20.13h2.73v2.25c.78-1.44,2.49-2.58,4.83-2.58,4.32,0,6.63,3.33,6.63,7.53s-2.49,7.62-6.72,7.62c-2.22,0-3.9-1.05-4.68-2.34v7.65h-2.79ZM1120.22,559.52c-2.58,0-4.29,2.16-4.29,5.04s1.71,5.1,4.29,5.1,4.26-2.13,4.26-5.1-1.62-5.04-4.26-5.04Z"/>
      <path class="cls-7" d="M1134.59,557.36h3.12v2.55h-3.12v7.5c0,1.32.54,1.98,2.01,1.98.36,0,.87-.06,1.11-.12v2.4c-.24.09-.96.27-1.92.27-2.46,0-4.02-1.5-4.02-4.11v-7.92h-2.76v-2.55h.78c1.56,0,2.22-.96,2.22-2.22v-2.34h2.58v4.56Z"/>
      <path class="cls-7" d="M1142.84,549.86c1.14,0,2.04.9,2.04,2.04s-.9,2.01-2.04,2.01-2.01-.9-2.01-2.01.9-2.04,2.01-2.04ZM1141.46,571.79v-14.43h2.79v14.43h-2.79Z"/>
      <path class="cls-7" d="M1162.61,564.56c0,4.41-3.06,7.68-7.38,7.68s-7.38-3.27-7.38-7.68,3.06-7.65,7.38-7.65,7.38,3.27,7.38,7.65ZM1159.73,564.56c0-3.33-2.1-5.13-4.5-5.13s-4.5,1.8-4.5,5.13,2.1,5.16,4.5,5.16,4.5-1.8,4.5-5.16Z"/>
      <path class="cls-7" d="M1169.03,571.79h-2.82v-14.43h2.76v2.07c1.05-1.8,2.76-2.49,4.44-2.49,3.45,0,5.16,2.49,5.16,5.7v9.15h-2.82v-8.67c0-2.01-.84-3.63-3.36-3.63-2.22,0-3.36,1.77-3.36,3.96v8.34Z"/>
      <path class="cls-7" d="M1069.67,607.79v-16.56l-7.26,16.56h-2.7l-7.2-16.56v16.56h-2.91v-21.27h3.99l7.5,17.31,7.56-17.31h3.93v21.27h-2.91Z"/>
      <path class="cls-7" d="M1081.02,599.54l3.9-.57c.87-.12,1.11-.57,1.11-1.08,0-1.41-.93-2.58-3.12-2.58-1.98,0-3.09,1.23-3.27,2.91l-2.7-.63c.3-2.76,2.79-4.68,5.91-4.68,4.32,0,6,2.46,6,5.28v7.23c0,1.26.12,2.01.18,2.37h-2.76c-.06-.36-.15-.9-.15-1.95-.63,1.02-2.07,2.4-4.65,2.4-2.94,0-4.83-2.04-4.83-4.32,0-2.58,1.89-4.02,4.38-4.38ZM1086.03,601.61v-.66l-4.41.66c-1.2.18-2.1.87-2.1,2.16,0,1.08.9,2.1,2.34,2.1,2.31,0,4.17-1.11,4.17-4.26Z"/>
      <path class="cls-7" d="M1096.04,607.79h-2.82v-14.43h2.76v2.07c1.05-1.8,2.76-2.49,4.44-2.49,3.45,0,5.16,2.49,5.16,5.7v9.15h-2.82v-8.67c0-2.01-.84-3.63-3.36-3.63-2.22,0-3.36,1.77-3.36,3.96v8.34Z"/>
      <path class="cls-7" d="M1113.56,599.54l3.9-.57c.87-.12,1.11-.57,1.11-1.08,0-1.41-.93-2.58-3.12-2.58-1.98,0-3.09,1.23-3.27,2.91l-2.7-.63c.3-2.76,2.79-4.68,5.91-4.68,4.32,0,6,2.46,6,5.28v7.23c0,1.26.12,2.01.18,2.37h-2.76c-.06-.36-.15-.9-.15-1.95-.63,1.02-2.07,2.4-4.65,2.4-2.94,0-4.83-2.04-4.83-4.32,0-2.58,1.89-4.02,4.38-4.38ZM1118.58,601.61v-.66l-4.41.66c-1.2.18-2.1.87-2.1,2.16,0,1.08.9,2.1,2.34,2.1,2.31,0,4.17-1.11,4.17-4.26Z"/>
      <path class="cls-7" d="M1127.46,607.94c.21,2.01,1.74,3.54,3.93,3.54,3.03,0,4.41-1.56,4.41-4.68v-2.07c-.69,1.32-2.25,2.37-4.41,2.37-3.84,0-6.63-2.91-6.63-6.99s2.67-7.02,6.63-7.02c2.22,0,3.72.84,4.44,2.28v-2.01h2.79v13.35c0,3.66-1.8,7.23-7.23,7.23-3.6,0-6.3-2.28-6.66-5.37l2.73-.63ZM1135.92,600.11c0-2.79-1.68-4.62-4.11-4.62s-4.17,1.83-4.17,4.62,1.62,4.62,4.17,4.62,4.11-1.83,4.11-4.62Z"/>
      <path class="cls-7" d="M1155.68,603.68c-.81,2.55-3.12,4.56-6.48,4.56-3.87,0-7.26-2.82-7.26-7.71,0-4.53,3.27-7.62,6.9-7.62,4.44,0,6.93,3.06,6.93,7.56,0,.36-.03.72-.06.9h-10.86c.06,2.58,1.92,4.38,4.35,4.38s3.51-1.29,4.05-2.91l2.43.84ZM1152.83,599.09c-.06-2.07-1.41-3.69-3.96-3.69-2.37,0-3.81,1.83-3.93,3.69h7.89Z"/>
      <path class="cls-7" d="M1159.37,607.79v-14.43h2.7v1.92c.9-1.59,2.7-2.34,4.38-2.34,1.8,0,3.54.87,4.32,2.73,1.14-2.07,3-2.73,4.83-2.73,2.52,0,4.98,1.71,4.98,5.49v9.36h-2.79v-9.06c0-1.89-.93-3.3-3.06-3.3-1.98,0-3.33,1.56-3.33,3.63v8.73h-2.82v-9.06c0-1.86-.9-3.3-3.06-3.3-2.01,0-3.36,1.5-3.36,3.66v8.7h-2.79Z"/>
      <path class="cls-7" d="M1197.65,603.68c-.81,2.55-3.12,4.56-6.48,4.56-3.87,0-7.26-2.82-7.26-7.71,0-4.53,3.27-7.62,6.9-7.62,4.44,0,6.93,3.06,6.93,7.56,0,.36-.03.72-.06.9h-10.86c.06,2.58,1.92,4.38,4.35,4.38s3.51-1.29,4.05-2.91l2.43.84ZM1194.8,599.09c-.06-2.07-1.41-3.69-3.96-3.69-2.37,0-3.81,1.83-3.93,3.69h7.89Z"/>
      <path class="cls-7" d="M1204.16,607.79h-2.82v-14.43h2.76v2.07c1.05-1.8,2.76-2.49,4.44-2.49,3.45,0,5.16,2.49,5.16,5.7v9.15h-2.82v-8.67c0-2.01-.84-3.63-3.36-3.63-2.22,0-3.36,1.77-3.36,3.96v8.34Z"/>
      <path class="cls-7" d="M1221.98,593.36h3.12v2.55h-3.12v7.5c0,1.32.54,1.98,2.01,1.98.36,0,.87-.06,1.11-.12v2.4c-.24.09-.96.27-1.92.27-2.46,0-4.02-1.5-4.02-4.11v-7.92h-2.76v-2.55h.78c1.56,0,2.22-.96,2.22-2.22v-2.34h2.58v4.56Z"/>
    </g>
  </g>
  <g>
    <path class="cls-1" d="M1654.66,855.42h-2.08c-1.5,0-2.71-1.21-2.71-2.71s1.21-2.71,2.71-2.71h2.08c1.5,0,2.71,1.21,2.71,2.71s-1.21,2.71-2.71,2.71ZM1631.73,855.42h-2.08c-1.5,0-2.71-1.21-2.71-2.71s1.21-2.71,2.71-2.71h2.08c1.5,0,2.71,1.21,2.71,2.71s-1.21,2.71-2.71,2.71ZM1608.8,855.42h-2.08c-1.5,0-2.71-1.21-2.71-2.71s1.21-2.71,2.71-2.71h2.08c1.5,0,2.71,1.21,2.71,2.71s-1.21,2.71-2.71,2.71ZM1585.87,855.42h-2.08c-1.5,0-2.71-1.21-2.71-2.71s1.21-2.71,2.71-2.71h2.08c1.5,0,2.71,1.21,2.71,2.71s-1.21,2.71-2.71,2.71ZM1562.94,855.42h-2.08c-1.5,0-2.71-1.21-2.71-2.71s1.21-2.71,2.71-2.71h2.08c1.5,0,2.71,1.21,2.71,2.71s-1.21,2.71-2.71,2.71ZM1540.01,855.42h-2.08c-1.5,0-2.71-1.21-2.71-2.71s1.21-2.71,2.71-2.71h2.08c1.5,0,2.71,1.21,2.71,2.71s-1.21,2.71-2.71,2.71ZM1517.08,855.42h-2.08c-1.5,0-2.71-1.21-2.71-2.71s1.21-2.71,2.71-2.71h2.08c1.5,0,2.71,1.21,2.71,2.71s-1.21,2.71-2.71,2.71ZM1494.15,855.42h-2.08c-1.5,0-2.71-1.21-2.71-2.71s1.21-2.71,2.71-2.71h2.08c1.5,0,2.71,1.21,2.71,2.71s-1.21,2.71-2.71,2.71ZM1471.22,855.42h-2.08c-1.5,0-2.71-1.21-2.71-2.71s1.21-2.71,2.71-2.71h2.08c1.5,0,2.71,1.21,2.71,2.71s-1.21,2.71-2.71,2.71ZM1448.29,855.42h-2.08c-1.5,0-2.71-1.21-2.71-2.71s1.21-2.71,2.71-2.71h2.08c1.5,0,2.71,1.21,2.71,2.71s-1.21,2.71-2.71,2.71ZM1425.36,855.35c-.06,0-.13,0-.19,0-.76-.05-1.52-.13-2.27-.24-1.48-.21-2.51-1.59-2.3-3.07.21-1.48,1.59-2.51,3.07-2.3.62.09,1.25.16,1.87.2,1.49.1,2.62,1.4,2.52,2.89-.1,1.43-1.29,2.52-2.7,2.52ZM1662.34,854.37c-1.18,0-2.27-.78-2.61-1.98-.41-1.44.43-2.94,1.87-3.34.61-.17,1.21-.36,1.79-.58,1.41-.51,2.96.22,3.47,1.62.51,1.41-.22,2.96-1.62,3.47-.71.26-1.44.49-2.17.7-.25.07-.49.1-.74.1ZM1405.53,845.16c-.78,0-1.55-.33-2.09-.98-.48-.58-.95-1.19-1.39-1.81-.87-1.22-.58-2.91.64-3.78,1.22-.87,2.91-.58,3.78.64.36.51.75,1.01,1.15,1.49.95,1.15.79,2.86-.36,3.82-.51.42-1.12.62-1.73.62ZM1679.69,840.34c-.43,0-.86-.1-1.27-.32-1.32-.7-1.83-2.34-1.13-3.66.29-.55.57-1.12.82-1.7.6-1.37,2.2-2,3.57-1.4,1.37.6,2,2.2,1.4,3.57-.3.7-.64,1.39-.99,2.06-.49.92-1.43,1.44-2.4,1.44ZM1399.03,823.76c-1.5,0-2.71-1.21-2.71-2.71v-2.08c0-1.5,1.21-2.71,2.71-2.71s2.71,1.21,2.71,2.71v2.08c0,1.5-1.21,2.71-2.71,2.71ZM1682.96,817.95c-1.5,0-2.71-1.21-2.71-2.71v-2.08c0-1.5,1.21-2.71,2.71-2.71s2.71,1.21,2.71,2.71v2.08c0,1.5-1.21,2.71-2.71,2.71ZM1399.03,800.83c-1.5,0-2.71-1.21-2.71-2.71v-2.08c0-1.5,1.21-2.71,2.71-2.71s2.71,1.21,2.71,2.71v2.08c0,1.5-1.21,2.71-2.71,2.71ZM1682.96,795.02c-1.5,0-2.71-1.21-2.71-2.71v-2.08c0-1.5,1.21-2.71,2.71-2.71s2.71,1.21,2.71,2.71v2.08c0,1.5-1.21,2.71-2.71,2.71ZM1399.03,777.9c-1.5,0-2.71-1.21-2.71-2.71v-2.08c0-1.5,1.21-2.71,2.71-2.71s2.71,1.21,2.71,2.71v2.08c0,1.5-1.21,2.71-2.71,2.71ZM1682.96,772.09c-1.5,0-2.71-1.21-2.71-2.71v-2.08c0-1.5,1.21-2.71,2.71-2.71s2.71,1.21,2.71,2.71v2.08c0,1.5-1.21,2.71-2.71,2.71ZM1399.03,754.96c-1.5,0-2.71-1.21-2.71-2.71v-2.08c0-1.5,1.21-2.71,2.71-2.71s2.71,1.21,2.71,2.71v2.08c0,1.5-1.21,2.71-2.71,2.71ZM1682.96,749.16c-1.5,0-2.71-1.21-2.71-2.71v-2.08c0-1.5,1.21-2.71,2.71-2.71s2.71,1.21,2.71,2.71v2.08c0,1.5-1.21,2.71-2.71,2.71ZM1399.03,732.03c-1.5,0-2.71-1.21-2.71-2.71v-2.08c0-1.5,1.21-2.71,2.71-2.71s2.71,1.21,2.71,2.71v2.08c0,1.5-1.21,2.71-2.71,2.71ZM1682.96,726.23c-1.5,0-2.71-1.21-2.71-2.71v-2.08c0-1.5,1.21-2.71,2.71-2.71s2.71,1.21,2.71,2.71v2.08c0,1.5-1.21,2.71-2.71,2.71ZM1399.03,709.1c-1.5,0-2.71-1.21-2.71-2.71v-2.08c0-1.5,1.21-2.71,2.71-2.71s2.71,1.21,2.71,2.71v2.08c0,1.5-1.21,2.71-2.71,2.71ZM1682.96,703.3c-1.5,0-2.71-1.21-2.71-2.71v-2.08c0-1.5,1.21-2.71,2.71-2.71s2.71,1.21,2.71,2.71v2.08c0,1.5-1.21,2.71-2.71,2.71ZM1399.03,686.17c-1.5,0-2.71-1.21-2.71-2.71v-2.08c0-1.5,1.21-2.71,2.71-2.71s2.71,1.21,2.71,2.71v2.08c0,1.5-1.21,2.71-2.71,2.71ZM1682.96,680.37c-1.5,0-2.71-1.21-2.71-2.71v-2.08c0-1.5,1.21-2.71,2.71-2.71s2.71,1.21,2.71,2.71v2.08c0,1.5-1.21,2.71-2.71,2.71ZM1399.03,663.24c-1.5,0-2.71-1.21-2.71-2.71v-2.08c0-1.5,1.21-2.71,2.71-2.71s2.71,1.21,2.71,2.71v2.08c0,1.5-1.21,2.71-2.71,2.71ZM1682.96,657.43c-1.5,0-2.71-1.21-2.71-2.71v-2.08c0-1.5,1.21-2.71,2.71-2.71s2.71,1.21,2.71,2.71v2.08c0,1.5-1.21,2.71-2.71,2.71ZM1399.03,640.31c-1.5,0-2.71-1.21-2.71-2.71v-2.08c0-1.5,1.21-2.71,2.71-2.71s2.71,1.21,2.71,2.71v2.08c0,1.5-1.21,2.71-2.71,2.71ZM1682.96,634.5c-1.5,0-2.71-1.21-2.71-2.71v-2.08c0-1.5,1.21-2.71,2.71-2.71s2.71,1.21,2.71,2.71v2.08c0,1.5-1.21,2.71-2.71,2.71ZM1399.03,617.38c-1.5,0-2.71-1.21-2.71-2.71v-2.08c0-1.5,1.21-2.71,2.71-2.71s2.71,1.21,2.71,2.71v2.08c0,1.5-1.21,2.71-2.71,2.71ZM1682.96,611.57c-1.5,0-2.71-1.21-2.71-2.71v-2.08c0-1.5,1.21-2.71,2.71-2.71s2.71,1.21,2.71,2.71v2.08c0,1.5-1.21,2.71-2.71,2.71ZM1399.03,594.45c-1.5,0-2.71-1.21-2.71-2.71v-2.08c0-1.5,1.21-2.71,2.71-2.71s2.71,1.21,2.71,2.71v2.08c0,1.5-1.21,2.71-2.71,2.71ZM1682.96,588.64c-1.5,0-2.71-1.21-2.71-2.71v-2.08c0-1.5,1.21-2.71,2.71-2.71s2.71,1.21,2.71,2.71v2.08c0,1.5-1.21,2.71-2.71,2.71ZM1399.03,571.52c-1.5,0-2.71-1.21-2.71-2.71v-2.08c0-1.5,1.21-2.71,2.71-2.71s2.71,1.21,2.71,2.71v2.08c0,1.5-1.21,2.71-2.71,2.71ZM1682.96,565.71c-1.5,0-2.71-1.21-2.71-2.71v-2.08c0-1.5,1.21-2.71,2.71-2.71s2.71,1.21,2.71,2.71v2.08c0,1.5-1.21,2.71-2.71,2.71ZM1399.03,548.59c-1.5,0-2.71-1.21-2.71-2.71v-2.08c0-1.5,1.21-2.71,2.71-2.71s2.71,1.21,2.71,2.71v2.08c0,1.5-1.21,2.71-2.71,2.71ZM1682.96,542.78c-1.5,0-2.71-1.21-2.71-2.71v-2.08c0-1.5,1.21-2.71,2.71-2.71s2.71,1.21,2.71,2.71v2.08c0,1.5-1.21,2.71-2.71,2.71ZM1399.03,525.66c-1.5,0-2.71-1.21-2.71-2.71v-2.08c0-1.5,1.21-2.71,2.71-2.71s2.71,1.21,2.71,2.71v2.08c0,1.5-1.21,2.71-2.71,2.71ZM1682.96,519.85c-1.5,0-2.71-1.21-2.71-2.71v-.52c0-.47-.01-.94-.04-1.41-.08-1.49,1.06-2.77,2.56-2.85,1.49-.08,2.77,1.06,2.85,2.56.03.57.05,1.14.05,1.71v.52c0,1.5-1.21,2.71-2.71,2.71ZM1403.76,503.67c-.52,0-1.04-.15-1.5-.45-1.25-.83-1.58-2.51-.75-3.76.42-.63.87-1.25,1.33-1.85.92-1.18,2.62-1.39,3.8-.48,1.18.92,1.4,2.62.48,3.8-.38.49-.75,1.01-1.1,1.53-.52.78-1.38,1.21-2.26,1.21ZM1674.55,499.2c-.69,0-1.38-.26-1.91-.78-.44-.44-.91-.87-1.39-1.27-1.14-.97-1.28-2.68-.3-3.82.97-1.14,2.68-1.27,3.82-.3.58.49,1.14,1.01,1.68,1.54,1.06,1.05,1.07,2.77.02,3.83-.53.54-1.23.8-1.93.8ZM1422.42,491.46c-1.29,0-2.44-.93-2.67-2.24-.26-1.47.73-2.88,2.2-3.14.75-.13,1.51-.24,2.26-.31,1.49-.15,2.82.94,2.96,2.43.15,1.49-.94,2.82-2.43,2.96-.62.06-1.25.15-1.86.26-.16.03-.32.04-.47.04ZM1653.79,491.03h-2.08c-1.5,0-2.71-1.21-2.71-2.71s1.21-2.71,2.71-2.71h2.08c1.5,0,2.71,1.21,2.71,2.71s-1.21,2.71-2.71,2.71ZM1630.86,491.03h-2.08c-1.5,0-2.71-1.21-2.71-2.71s1.21-2.71,2.71-2.71h2.08c1.5,0,2.71,1.21,2.71,2.71s-1.21,2.71-2.71,2.71ZM1607.93,491.03h-2.08c-1.5,0-2.71-1.21-2.71-2.71s1.21-2.71,2.71-2.71h2.08c1.5,0,2.71,1.21,2.71,2.71s-1.21,2.71-2.71,2.71ZM1585,491.03h-2.08c-1.5,0-2.71-1.21-2.71-2.71s1.21-2.71,2.71-2.71h2.08c1.5,0,2.71,1.21,2.71,2.71s-1.21,2.71-2.71,2.71ZM1562.07,491.03h-2.08c-1.5,0-2.71-1.21-2.71-2.71s1.21-2.71,2.71-2.71h2.08c1.5,0,2.71,1.21,2.71,2.71s-1.21,2.71-2.71,2.71ZM1539.13,491.03h-2.08c-1.5,0-2.71-1.21-2.71-2.71s1.21-2.71,2.71-2.71h2.08c1.5,0,2.71,1.21,2.71,2.71s-1.21,2.71-2.71,2.71ZM1516.2,491.03h-2.08c-1.5,0-2.71-1.21-2.71-2.71s1.21-2.71,2.71-2.71h2.08c1.5,0,2.71,1.21,2.71,2.71s-1.21,2.71-2.71,2.71ZM1493.27,491.03h-2.08c-1.5,0-2.71-1.21-2.71-2.71s1.21-2.71,2.71-2.71h2.08c1.5,0,2.71,1.21,2.71,2.71s-1.21,2.71-2.71,2.71ZM1470.34,491.03h-2.08c-1.5,0-2.71-1.21-2.71-2.71s1.21-2.71,2.71-2.71h2.08c1.5,0,2.71,1.21,2.71,2.71s-1.21,2.71-2.71,2.71ZM1447.41,491.03h-2.08c-1.5,0-2.71-1.21-2.71-2.71s1.21-2.71,2.71-2.71h2.08c1.5,0,2.71,1.21,2.71,2.71s-1.21,2.71-2.71,2.71Z"/>
    <path class="cls-3" d="M1561.51,484.34h142.4c15.06,0,27.3,12.23,27.3,27.3v318.53c0,15.06-12.23,27.3-27.3,27.3h-142.4c-4.58,0-8.31-3.72-8.31-8.31v-356.5c0-4.58,3.72-8.31,8.31-8.31Z"/>
    <rect class="cls-6" x="1426.47" y="512.67" width="256.44" height="315.69" rx="21.26" ry="21.26"/>
    <path class="cls-2" d="M1674.02,544.57v260.78c0,12.71-10.3,23.01-23.01,23.01h-201.54c-12.7,0-23-10.3-23-23.01v-260.78c0-12.71,10.3-23.01,23-23.01h201.54c12.71,0,23.01,10.3,23.01,23.01Z"/>
    <g>
      <path class="cls-7" d="M1489.78,676.79l-11.49-17.34v17.34h-2.94v-21.27h3.93l10.62,16.32v-16.32h2.94v21.27h-3.06Z"/>
      <path class="cls-7" d="M1510.66,670.85h-9.42l-2.25,5.94h-3.15l8.46-21.27h3.39l8.46,21.27h-3.18l-2.31-5.94ZM1502.29,668.12h7.32l-3.69-9.54-3.63,9.54Z"/>
      <path class="cls-7" d="M1531.12,655.52h3.09l-8.19,21.27h-2.91l-8.01-21.27h3.12l6.42,17.49,6.48-17.49Z"/>
      <path class="cls-7" d="M1481.5,704.09h-3.18v8.7h-2.97v-21.27h8.01c4.02,0,6.51,2.82,6.51,6.33,0,3.06-1.95,5.43-5.16,6.03l5.07,8.91h-3.42l-4.86-8.7ZM1482.82,701.45c2.4,0,4.02-1.41,4.02-3.6s-1.62-3.69-4.02-3.69h-4.5v7.29h4.5Z"/>
      <path class="cls-7" d="M1505.59,708.68c-.81,2.55-3.12,4.56-6.48,4.56-3.87,0-7.26-2.82-7.26-7.71,0-4.53,3.27-7.62,6.9-7.62,4.44,0,6.93,3.06,6.93,7.56,0,.36-.03.72-.06.9h-10.86c.06,2.58,1.92,4.38,4.35,4.38s3.51-1.29,4.05-2.91l2.43.84ZM1502.74,704.09c-.06-2.07-1.41-3.69-3.96-3.69-2.37,0-3.81,1.83-3.93,3.69h7.89Z"/>
      <path class="cls-7" d="M1509.28,718.49v-20.13h2.73v2.25c.78-1.44,2.49-2.58,4.83-2.58,4.32,0,6.63,3.33,6.63,7.53s-2.49,7.62-6.72,7.62c-2.22,0-3.9-1.05-4.68-2.34v7.65h-2.79ZM1516.33,700.52c-2.58,0-4.29,2.16-4.29,5.04s1.71,5.1,4.29,5.1,4.26-2.13,4.26-5.1-1.62-5.04-4.26-5.04Z"/>
      <path class="cls-7" d="M1540.63,705.56c0,4.41-3.06,7.68-7.38,7.68s-7.38-3.27-7.38-7.68,3.06-7.65,7.38-7.65,7.38,3.27,7.38,7.65ZM1537.75,705.56c0-3.33-2.1-5.13-4.5-5.13s-4.5,1.8-4.5,5.13,2.1,5.16,4.5,5.16,4.5-1.8,4.5-5.16Z"/>
      <path class="cls-7" d="M1552.24,701.21c-.42-.06-.84-.09-1.23-.09-2.37,0-3.96,1.26-3.96,4.44v7.23h-2.82v-14.43h2.76v2.52c1.05-2.22,2.85-2.76,4.32-2.76.39,0,.78.06.93.09v3Z"/>
      <path class="cls-7" d="M1559.77,698.36h3.12v2.55h-3.12v7.5c0,1.32.54,1.98,2.01,1.98.36,0,.87-.06,1.11-.12v2.4c-.24.09-.96.27-1.92.27-2.46,0-4.02-1.5-4.02-4.11v-7.92h-2.76v-2.55h.78c1.56,0,2.22-.96,2.22-2.22v-2.34h2.58v4.56Z"/>
      <path class="cls-7" d="M1567.99,708.14c.18,1.5,1.32,2.7,3.36,2.7,1.59,0,2.46-.9,2.46-1.92,0-.9-.66-1.59-1.86-1.86l-2.46-.54c-2.25-.48-3.6-2.01-3.6-4.05,0-2.46,2.31-4.56,5.13-4.56,3.96,0,5.19,2.58,5.49,3.87l-2.49.93c-.12-.75-.72-2.4-3-2.4-1.44,0-2.4.93-2.4,1.92,0,.87.54,1.5,1.65,1.74l2.34.51c2.61.57,3.99,2.16,3.99,4.29s-1.71,4.47-5.28,4.47c-3.96,0-5.64-2.55-5.88-4.2l2.55-.9Z"/>
    </g>
  </g>
</svg>