<?xml version="1.0" encoding="UTF-8"?>
<svg id="Layer_1" data-name="Layer 1" xmlns="http://www.w3.org/2000/svg" viewBox="0 0 1920 1080">
  <defs>
    <style>
      .cls-1 {
        fill: #302353;
      }

      .cls-2 {
        fill: #f2f2f2;
      }

      .cls-2, .cls-3, .cls-4, .cls-5 {
        stroke-width: 0px;
      }

      .cls-3 {
        fill: #805cdd;
      }

      .cls-4 {
        fill: lime;
      }

      .cls-5 {
        fill: #fff;
      }
    </style>
  </defs>
  <polyline class="cls-1" points="-9 -17 1954 -17 1954 1087 -9 1087"/>
  <g>
    <path class="cls-5" d="M166.04,509.68c-.36-2.29-2.29-5.67-7.23-5.67-3.74,0-6.34,2.5-6.34,5.3,0,2.34,1.46,4.11,4.32,4.73l5.3,1.09c6.5,1.3,9.98,5.41,9.98,10.61,0,5.72-4.63,11.18-13.05,11.18-9.36,0-13.68-6.03-14.25-11.34l5.82-1.66c.36,3.85,3.12,7.38,8.42,7.38,4.42,0,6.71-2.24,6.71-5.1,0-2.39-1.77-4.32-4.94-4.99l-5.2-1.09c-5.62-1.14-9.36-4.84-9.36-10.35,0-6.19,5.67-11.29,12.53-11.29,8.68,0,12.06,5.3,12.9,9.41l-5.62,1.77Z"/>
    <path class="cls-5" d="M200.1,528.92c-1.35,4.42-5.36,8.01-11.44,8.01-6.86,0-12.95-4.99-12.95-13.57,0-8.01,5.93-13.31,12.32-13.31,7.8,0,12.38,5.15,12.38,13.16,0,.99-.1,1.82-.16,1.92h-18.51c.16,3.85,3.17,6.6,6.92,6.6s5.51-1.92,6.34-4.42l5.1,1.61ZM194.33,520.7c-.1-2.96-2.08-5.62-6.24-5.62-3.8,0-5.98,2.91-6.19,5.62h12.43Z"/>
    <path class="cls-5" d="M221,516.8c-.68-.1-1.35-.16-1.98-.16-4.68,0-6.81,2.7-6.81,7.44v12.06h-6.03v-25.33h5.88v4.06c1.2-2.76,4-4.37,7.33-4.37.73,0,1.35.1,1.61.16v6.14Z"/>
    <path class="cls-5" d="M239.77,536.15h-6.03l-10.3-25.33h6.66l6.71,18.1,6.55-18.1h6.34l-9.93,25.33Z"/>
    <path class="cls-5" d="M257.09,497.98c2.18,0,3.95,1.77,3.95,3.95s-1.77,3.9-3.95,3.9-3.9-1.72-3.9-3.9,1.77-3.95,3.9-3.95ZM254.12,536.15v-25.33h5.98v25.33h-5.98Z"/>
    <path class="cls-5" d="M271.96,523.46c0,5.1,3.28,7.96,7.07,7.96s5.77-2.76,6.34-4.68l5.3,1.92c-1.2,3.95-4.99,8.27-11.65,8.27-7.44,0-13.1-5.77-13.1-13.47s5.67-13.42,12.95-13.42c6.81,0,10.56,4.26,11.6,8.32l-5.41,1.98c-.57-2.24-2.29-4.73-6.14-4.73s-6.97,2.76-6.97,7.85Z"/>
    <path class="cls-5" d="M318.19,528.92c-1.35,4.42-5.36,8.01-11.44,8.01-6.86,0-12.95-4.99-12.95-13.57,0-8.01,5.93-13.31,12.32-13.31,7.8,0,12.38,5.15,12.38,13.16,0,.99-.1,1.82-.16,1.92h-18.51c.16,3.85,3.17,6.6,6.92,6.6s5.51-1.92,6.34-4.42l5.1,1.61ZM312.42,520.7c-.1-2.96-2.08-5.62-6.24-5.62-3.8,0-5.98,2.91-6.19,5.62h12.43Z"/>
    <path class="cls-5" d="M356.3,509.68c-.36-2.29-2.29-5.67-7.23-5.67-3.74,0-6.34,2.5-6.34,5.3,0,2.34,1.46,4.11,4.32,4.73l5.3,1.09c6.5,1.3,9.98,5.41,9.98,10.61,0,5.72-4.63,11.18-13.05,11.18-9.36,0-13.68-6.03-14.25-11.34l5.82-1.66c.36,3.85,3.12,7.38,8.42,7.38,4.42,0,6.71-2.24,6.71-5.1,0-2.39-1.77-4.32-4.94-4.99l-5.2-1.09c-5.62-1.14-9.36-4.84-9.36-10.35,0-6.19,5.67-11.29,12.53-11.29,8.68,0,12.06,5.3,12.9,9.41l-5.62,1.77Z"/>
    <path class="cls-5" d="M368.83,536.15v-36.87h6.24v30.94h16.9v5.93h-23.14Z"/>
    <path class="cls-5" d="M420.11,526.89h-15.6l-3.43,9.26h-6.6l14.35-36.87h7.23l14.35,36.87h-6.81l-3.48-9.26ZM406.69,521.12h11.23l-5.62-15.08-5.62,15.08Z"/>
    <path class="cls-5" d="M437.84,527.83c.21,2.29,1.92,4.32,5.15,4.32,2.5,0,3.8-1.35,3.8-2.91,0-1.35-.94-2.39-2.96-2.81l-3.74-.83c-4.47-.99-6.81-3.9-6.81-7.38,0-4.42,4.06-8.16,9.31-8.16,7.07,0,9.36,4.58,9.78,7.07l-5.1,1.46c-.21-1.46-1.3-3.8-4.68-3.8-2.13,0-3.64,1.35-3.64,2.91,0,1.35.99,2.34,2.55,2.65l3.85.78c4.79,1.04,7.28,3.95,7.28,7.7s-3.12,8.11-9.57,8.11c-7.33,0-10.14-4.78-10.45-7.64l5.25-1.46Z"/>
    <path class="cls-5" d="M495.76,523.46c0,7.8-5.56,13.47-13.16,13.47s-13.1-5.67-13.1-13.47,5.56-13.42,13.1-13.42,13.16,5.67,13.16,13.42ZM489.68,523.46c0-5.25-3.33-7.96-7.07-7.96s-7.07,2.7-7.07,7.96,3.38,8.06,7.07,8.06,7.07-2.76,7.07-8.06Z"/>
    <path class="cls-5" d="M509.07,507.5v3.33h5.88v5.25h-5.88v20.07h-6.08v-20.07h-4.42v-5.25h4.42v-3.48c0-5.67,3.64-9.1,8.84-9.1,1.51,0,2.76.31,3.17.52v5.15c-.36-.1-1.04-.26-2.18-.26-1.61,0-3.74.73-3.74,3.85Z"/>
    <path class="cls-5" d="M538.77,521.64l6.5-.99c1.46-.21,1.87-.94,1.87-1.82,0-2.13-1.46-3.85-4.78-3.85s-4.94,2.03-5.2,4.58l-5.51-1.25c.47-4.37,4.42-8.27,10.66-8.27,7.8,0,10.76,4.42,10.76,9.46v12.58c0,2.29.26,3.8.31,4.06h-5.62c-.05-.16-.26-1.2-.26-3.22-1.2,1.92-3.69,4-7.8,4-5.3,0-8.58-3.64-8.58-7.64,0-4.52,3.33-7.02,7.64-7.64ZM547.14,525.64v-1.14l-6.6.99c-1.87.31-3.38,1.35-3.38,3.43,0,1.72,1.3,3.28,3.69,3.28,3.38,0,6.29-1.61,6.29-6.55Z"/>
    <path class="cls-5" d="M566.38,536.15h-6.03v-25.33h5.88v3.38c1.66-2.91,4.68-4.11,7.49-4.11,6.19,0,9.15,4.47,9.15,10.04v16.02h-6.03v-14.98c0-3.12-1.4-5.62-5.2-5.62-3.43,0-5.25,2.65-5.25,5.98v14.61Z"/>
    <path class="cls-5" d="M591.18,546.39l6.08-13.26-10.82-22.31h6.81l7.28,16.02,6.81-16.02h6.4l-16.12,35.57h-6.45Z"/>
    <path class="cls-5" d="M634.08,527.83c.21,2.29,1.92,4.32,5.15,4.32,2.5,0,3.8-1.35,3.8-2.91,0-1.35-.94-2.39-2.96-2.81l-3.74-.83c-4.47-.99-6.81-3.9-6.81-7.38,0-4.42,4.06-8.16,9.31-8.16,7.07,0,9.36,4.58,9.78,7.07l-5.1,1.46c-.21-1.46-1.3-3.8-4.68-3.8-2.13,0-3.64,1.35-3.64,2.91,0,1.35.99,2.34,2.55,2.65l3.85.78c4.78,1.04,7.28,3.95,7.28,7.7s-3.12,8.11-9.57,8.11c-7.33,0-10.14-4.78-10.45-7.64l5.25-1.46Z"/>
    <path class="cls-5" d="M658.73,523.46c0,5.1,3.28,7.96,7.07,7.96s5.77-2.76,6.34-4.68l5.3,1.92c-1.2,3.95-4.99,8.27-11.65,8.27-7.44,0-13.1-5.77-13.1-13.47s5.67-13.42,12.95-13.42c6.81,0,10.56,4.26,11.6,8.32l-5.41,1.98c-.57-2.24-2.29-4.73-6.14-4.73s-6.97,2.76-6.97,7.85Z"/>
    <path class="cls-5" d="M688.73,521.64l6.5-.99c1.46-.21,1.87-.94,1.87-1.82,0-2.13-1.46-3.85-4.78-3.85s-4.94,2.03-5.2,4.58l-5.51-1.25c.47-4.37,4.42-8.27,10.66-8.27,7.8,0,10.76,4.42,10.76,9.46v12.58c0,2.29.26,3.8.31,4.06h-5.62c-.05-.16-.26-1.2-.26-3.22-1.2,1.92-3.69,4-7.8,4-5.3,0-8.58-3.64-8.58-7.64,0-4.52,3.33-7.02,7.64-7.64ZM697.1,525.64v-1.14l-6.6.99c-1.87.31-3.38,1.35-3.38,3.43,0,1.72,1.3,3.28,3.69,3.28,3.38,0,6.29-1.61,6.29-6.55Z"/>
    <path class="cls-5" d="M710.31,536.15v-37.65h6.03v37.65h-6.03Z"/>
    <path class="cls-5" d="M746.56,528.92c-1.35,4.42-5.36,8.01-11.44,8.01-6.86,0-12.95-4.99-12.95-13.57,0-8.01,5.93-13.31,12.33-13.31,7.8,0,12.38,5.15,12.38,13.16,0,.99-.1,1.82-.16,1.92h-18.51c.16,3.85,3.17,6.6,6.92,6.6s5.51-1.92,6.34-4.42l5.1,1.61ZM740.78,520.7c-.1-2.96-2.08-5.62-6.24-5.62-3.8,0-5.98,2.91-6.19,5.62h12.43Z"/>
  </g>
  <g>
    <path class="cls-3" d="M1930.19,641.69h-42.04c-4.78,0-8.66,3.88-8.66,8.66h0c0,4.78,3.88,8.66,8.66,8.66h42.04c4.78,0,8.65-3.88,8.65-8.66h0c0-4.78-3.87-8.66-8.65-8.66Z"/>
    <path class="cls-3" d="M1883.2,597.18h-42.04c-4.78,0-8.65,3.88-8.65,8.66h0c0,4.78,3.87,8.66,8.65,8.66h42.04c4.78,0,8.66-3.88,8.66-8.66h0c0-4.78-3.88-8.66-8.66-8.66Z"/>
    <path class="cls-3" d="M1836.22,552.66h-42.04c-4.78,0-8.66,3.88-8.66,8.66h0c0,4.78,3.88,8.66,8.66,8.66h42.04c4.78,0,8.66-3.88,8.66-8.66h0c0-4.78-3.88-8.66-8.66-8.66Z"/>
    <path class="cls-3" d="M1930.19,552.66h-42.04c-4.78,0-8.66,3.88-8.66,8.66h0c0,4.78,3.88,8.66,8.66,8.66h42.04c4.78,0,8.65-3.88,8.65-8.66h0c0-4.78-3.87-8.66-8.65-8.66Z"/>
    <path class="cls-3" d="M1789.23,508.15h-42.04c-4.78,0-8.66,3.88-8.66,8.66h0c0,4.78,3.88,8.66,8.66,8.66h42.04c4.78,0,8.66-3.88,8.66-8.66h0c0-4.78-3.87-8.66-8.66-8.66Z"/>
    <path class="cls-3" d="M1883.2,508.15h-42.04c-4.78,0-8.65,3.88-8.65,8.66h0c0,4.78,3.87,8.66,8.65,8.66h42.04c4.78,0,8.66-3.88,8.66-8.66h0c0-4.78-3.88-8.66-8.66-8.66Z"/>
    <path class="cls-3" d="M1742.25,463.64h-42.04c-4.78,0-8.66,3.88-8.66,8.66h0c0,4.78,3.88,8.66,8.66,8.66h42.04c4.78,0,8.66-3.88,8.66-8.66h0c0-4.78-3.88-8.66-8.66-8.66Z"/>
    <path class="cls-4" d="M1836.22,463.64h-42.04c-4.78,0-8.66,3.88-8.66,8.66h0c0,4.78,3.88,8.66,8.66,8.66h42.04c4.78,0,8.66-3.88,8.66-8.66h0c0-4.78-3.88-8.66-8.66-8.66Z"/>
    <path class="cls-3" d="M1930.19,463.64h-42.04c-4.78,0-8.66,3.88-8.66,8.66h0c0,4.78,3.88,8.66,8.66,8.66h42.04c4.78,0,8.65-3.88,8.65-8.66h0c0-4.78-3.87-8.66-8.65-8.66Z"/>
    <path class="cls-3" d="M1695.27,419.13h-42.04c-4.78,0-8.66,3.88-8.66,8.66h0c0,4.78,3.88,8.66,8.66,8.66h42.04c4.78,0,8.66-3.88,8.66-8.66h0c0-4.78-3.88-8.66-8.66-8.66Z"/>
    <path class="cls-3" d="M1789.23,419.13h-42.04c-4.78,0-8.66,3.88-8.66,8.66h0c0,4.78,3.88,8.66,8.66,8.66h42.04c4.78,0,8.66-3.88,8.66-8.66h0c0-4.78-3.87-8.66-8.66-8.66Z"/>
    <path class="cls-3" d="M1883.2,419.13h-42.04c-4.78,0-8.65,3.88-8.65,8.66h0c0,4.78,3.87,8.66,8.65,8.66h42.04c4.78,0,8.66-3.88,8.66-8.66h0c0-4.78-3.88-8.66-8.66-8.66Z"/>
    <path class="cls-3" d="M1648.28,374.62h-42.04c-4.78,0-8.66,3.88-8.66,8.66h0c0,4.78,3.88,8.66,8.66,8.66h42.04c4.78,0,8.65-3.88,8.65-8.66h0c0-4.78-3.87-8.66-8.65-8.66Z"/>
    <path class="cls-3" d="M1742.25,374.62h-42.04c-4.78,0-8.66,3.88-8.66,8.66h0c0,4.78,3.88,8.66,8.66,8.66h42.04c4.78,0,8.66-3.88,8.66-8.66h0c0-4.78-3.88-8.66-8.66-8.66Z"/>
    <path class="cls-3" d="M1836.22,374.62h-42.04c-4.78,0-8.66,3.88-8.66,8.66h0c0,4.78,3.88,8.66,8.66,8.66h42.04c4.78,0,8.66-3.88,8.66-8.66h0c0-4.78-3.88-8.66-8.66-8.66Z"/>
    <path class="cls-3" d="M1930.19,374.62h-42.04c-4.78,0-8.66,3.88-8.66,8.66h0c0,4.78,3.88,8.66,8.66,8.66h42.04c4.78,0,8.65-3.88,8.65-8.66h0c0-4.78-3.87-8.66-8.65-8.66Z"/>
    <path class="cls-3" d="M1601.29,330.1h-42.04c-4.78,0-8.66,3.88-8.66,8.66h0c0,4.78,3.88,8.66,8.66,8.66h42.04c4.78,0,8.66-3.88,8.66-8.66h0c0-4.78-3.88-8.66-8.66-8.66Z"/>
    <path class="cls-3" d="M1695.27,330.1h-42.04c-4.78,0-8.66,3.88-8.66,8.66h0c0,4.78,3.88,8.66,8.66,8.66h42.04c4.78,0,8.66-3.88,8.66-8.66h0c0-4.78-3.88-8.66-8.66-8.66Z"/>
    <path class="cls-3" d="M1789.23,330.1h-42.04c-4.78,0-8.66,3.88-8.66,8.66h0c0,4.78,3.88,8.66,8.66,8.66h42.04c4.78,0,8.66-3.88,8.66-8.66h0c0-4.78-3.87-8.66-8.66-8.66Z"/>
    <path class="cls-3" d="M1883.2,330.1h-42.04c-4.78,0-8.65,3.88-8.65,8.66h0c0,4.78,3.87,8.66,8.65,8.66h42.04c4.78,0,8.66-3.88,8.66-8.66h0c0-4.78-3.88-8.66-8.66-8.66Z"/>
    <path class="cls-3" d="M1554.31,285.59h-42.04c-4.78,0-8.66,3.88-8.66,8.66h0c0,4.78,3.88,8.66,8.66,8.66h42.04c4.78,0,8.66-3.88,8.66-8.66h0c0-4.78-3.88-8.66-8.66-8.66Z"/>
    <path class="cls-3" d="M1648.28,285.59h-42.04c-4.78,0-8.66,3.88-8.66,8.66h0c0,4.78,3.88,8.66,8.66,8.66h42.04c4.78,0,8.65-3.88,8.65-8.66h0c0-4.78-3.87-8.66-8.65-8.66Z"/>
    <path class="cls-3" d="M1742.25,285.59h-42.04c-4.78,0-8.66,3.88-8.66,8.66h0c0,4.78,3.88,8.66,8.66,8.66h42.04c4.78,0,8.66-3.88,8.66-8.66h0c0-4.78-3.88-8.66-8.66-8.66Z"/>
    <path class="cls-3" d="M1836.22,285.59h-42.04c-4.78,0-8.66,3.88-8.66,8.66h0c0,4.78,3.88,8.66,8.66,8.66h42.04c4.78,0,8.66-3.88,8.66-8.66h0c0-4.78-3.88-8.66-8.66-8.66Z"/>
    <path class="cls-3" d="M1930.19,285.59h-42.04c-4.78,0-8.66,3.88-8.66,8.66h0c0,4.78,3.88,8.66,8.66,8.66h42.04c4.78,0,8.65-3.88,8.65-8.66h0c0-4.78-3.87-8.66-8.65-8.66Z"/>
    <path class="cls-3" d="M1507.32,241.08h-42.04c-4.78,0-8.66,3.88-8.66,8.66h0c0,4.78,3.88,8.66,8.66,8.66h42.04c4.78,0,8.66-3.88,8.66-8.66h0c0-4.78-3.88-8.66-8.66-8.66Z"/>
    <path class="cls-3" d="M1601.29,241.08h-42.04c-4.78,0-8.66,3.88-8.66,8.66h0c0,4.78,3.88,8.66,8.66,8.66h42.04c4.78,0,8.66-3.88,8.66-8.66h0c0-4.78-3.88-8.66-8.66-8.66Z"/>
    <path class="cls-3" d="M1695.27,241.08h-42.04c-4.78,0-8.66,3.88-8.66,8.66h0c0,4.78,3.88,8.66,8.66,8.66h42.04c4.78,0,8.66-3.88,8.66-8.66h0c0-4.78-3.88-8.66-8.66-8.66Z"/>
    <path class="cls-3" d="M1789.23,241.08h-42.04c-4.78,0-8.66,3.88-8.66,8.66h0c0,4.78,3.88,8.66,8.66,8.66h42.04c4.78,0,8.66-3.88,8.66-8.66h0c0-4.78-3.87-8.66-8.66-8.66Z"/>
    <path class="cls-3" d="M1883.2,241.08h-42.04c-4.78,0-8.65,3.88-8.65,8.66h0c0,4.78,3.87,8.66,8.65,8.66h42.04c4.78,0,8.66-3.88,8.66-8.66h0c0-4.78-3.88-8.66-8.66-8.66Z"/>
    <path class="cls-3" d="M1460.34,196.57h-42.04c-4.78,0-8.66,3.88-8.66,8.66h0c0,4.78,3.88,8.65,8.66,8.65h42.04c4.78,0,8.65-3.87,8.65-8.65h0c0-4.78-3.88-8.66-8.65-8.66Z"/>
    <path class="cls-4" d="M1554.31,196.57h-42.04c-4.78,0-8.66,3.88-8.66,8.66h0c0,4.78,3.88,8.65,8.66,8.65h42.04c4.78,0,8.66-3.87,8.66-8.65h0c0-4.78-3.88-8.66-8.66-8.66Z"/>
    <path class="cls-3" d="M1648.28,196.57h-42.04c-4.78,0-8.66,3.88-8.66,8.66h0c0,4.78,3.88,8.65,8.66,8.65h42.04c4.78,0,8.65-3.87,8.65-8.65h0c0-4.78-3.87-8.66-8.65-8.66Z"/>
    <path class="cls-4" d="M1742.25,196.57h-42.04c-4.78,0-8.66,3.88-8.66,8.66h0c0,4.78,3.88,8.65,8.66,8.65h42.04c4.78,0,8.66-3.87,8.66-8.65h0c0-4.78-3.88-8.66-8.66-8.66Z"/>
    <path class="cls-3" d="M1836.22,196.57h-42.04c-4.78,0-8.66,3.88-8.66,8.66h0c0,4.78,3.88,8.65,8.66,8.65h42.04c4.78,0,8.66-3.87,8.66-8.65h0c0-4.78-3.88-8.66-8.66-8.66Z"/>
    <path class="cls-3" d="M1930.19,196.57h-42.04c-4.78,0-8.66,3.88-8.66,8.66h0c0,4.78,3.88,8.65,8.66,8.65h42.04c4.78,0,8.65-3.87,8.65-8.65h0c0-4.78-3.87-8.66-8.65-8.66Z"/>
    <rect class="cls-3" x="1362.66" y="152.06" width="59.35" height="17.31" rx="8.65" ry="8.65"/>
    <rect class="cls-3" x="1456.63" y="152.06" width="59.35" height="17.31" rx="8.65" ry="8.65"/>
    <rect class="cls-3" x="1550.6" y="152.06" width="59.35" height="17.31" rx="8.65" ry="8.65"/>
    <rect class="cls-3" x="1644.57" y="152.06" width="59.35" height="17.31" rx="8.65" ry="8.65"/>
    <rect class="cls-3" x="1738.54" y="152.06" width="59.35" height="17.31" rx="8.65" ry="8.65"/>
    <rect class="cls-3" x="1832.51" y="152.06" width="59.35" height="17.31" rx="8.65" ry="8.65"/>
    <path class="cls-3" d="M1366.37,107.54h-42.04c-4.78,0-8.65,3.87-8.65,8.65h0c0,4.78,3.87,8.66,8.65,8.66h42.04c4.78,0,8.66-3.88,8.66-8.66h0c0-4.78-3.88-8.65-8.66-8.65Z"/>
    <path class="cls-3" d="M1460.34,107.54h-42.04c-4.78,0-8.66,3.87-8.66,8.65h0c0,4.78,3.88,8.66,8.66,8.66h42.04c4.78,0,8.65-3.88,8.65-8.66h0c0-4.78-3.88-8.65-8.65-8.65Z"/>
    <path class="cls-3" d="M1554.31,107.54h-42.04c-4.78,0-8.66,3.87-8.66,8.65h0c0,4.78,3.88,8.66,8.66,8.66h42.04c4.78,0,8.66-3.88,8.66-8.66h0c0-4.78-3.88-8.65-8.66-8.65Z"/>
    <path class="cls-3" d="M1648.28,107.54h-42.04c-4.78,0-8.66,3.87-8.66,8.65h0c0,4.78,3.88,8.66,8.66,8.66h42.04c4.78,0,8.65-3.88,8.65-8.66h0c0-4.78-3.87-8.65-8.65-8.65Z"/>
    <path class="cls-3" d="M1742.25,107.54h-42.04c-4.78,0-8.66,3.87-8.66,8.65h0c0,4.78,3.88,8.66,8.66,8.66h42.04c4.78,0,8.66-3.88,8.66-8.66h0c0-4.78-3.88-8.65-8.66-8.65Z"/>
    <path class="cls-3" d="M1836.22,107.54h-42.04c-4.78,0-8.66,3.87-8.66,8.65h0c0,4.78,3.88,8.66,8.66,8.66h42.04c4.78,0,8.66-3.88,8.66-8.66h0c0-4.78-3.88-8.65-8.66-8.65Z"/>
    <path class="cls-3" d="M1930.19,107.54h-42.04c-4.78,0-8.66,3.87-8.66,8.65h0c0,4.78,3.88,8.66,8.66,8.66h42.04c4.78,0,8.65-3.88,8.65-8.66h0c0-4.78-3.87-8.65-8.65-8.65Z"/>
    <path class="cls-3" d="M1319.38,63.03h-42.04c-4.78,0-8.66,3.88-8.66,8.66h0c0,4.78,3.88,8.66,8.66,8.66h42.04c4.78,0,8.65-3.88,8.65-8.66h0c0-4.78-3.88-8.66-8.65-8.66Z"/>
    <path class="cls-3" d="M1413.35,63.03h-42.04c-4.78,0-8.65,3.88-8.65,8.66h0c0,4.78,3.87,8.66,8.65,8.66h42.04c4.78,0,8.66-3.88,8.66-8.66h0c0-4.78-3.88-8.66-8.66-8.66Z"/>
    <path class="cls-3" d="M1507.32,63.03h-42.04c-4.78,0-8.66,3.88-8.66,8.66h0c0,4.78,3.88,8.66,8.66,8.66h42.04c4.78,0,8.66-3.88,8.66-8.66h0c0-4.78-3.88-8.66-8.66-8.66Z"/>
    <path class="cls-4" d="M1601.29,63.03h-42.04c-4.78,0-8.66,3.88-8.66,8.66h0c0,4.78,3.88,8.66,8.66,8.66h42.04c4.78,0,8.66-3.88,8.66-8.66h0c0-4.78-3.88-8.66-8.66-8.66Z"/>
    <path class="cls-3" d="M1695.27,63.03h-42.04c-4.78,0-8.66,3.88-8.66,8.66h0c0,4.78,3.88,8.66,8.66,8.66h42.04c4.78,0,8.66-3.88,8.66-8.66h0c0-4.78-3.88-8.66-8.66-8.66Z"/>
    <path class="cls-3" d="M1789.23,63.03h-42.04c-4.78,0-8.66,3.88-8.66,8.66h0c0,4.78,3.88,8.66,8.66,8.66h42.04c4.78,0,8.66-3.88,8.66-8.66h0c0-4.78-3.87-8.66-8.66-8.66Z"/>
    <path class="cls-3" d="M1883.2,63.03h-42.04c-4.78,0-8.65,3.88-8.65,8.66h0c0,4.78,3.87,8.66,8.65,8.66h42.04c4.78,0,8.66-3.88,8.66-8.66h0c0-4.78-3.88-8.66-8.66-8.66Z"/>
    <path class="cls-3" d="M1272.4,18.52h-42.04c-4.78,0-8.66,3.88-8.66,8.66h0c0,4.78,3.87,8.66,8.66,8.66h42.04c4.78,0,8.66-3.88,8.66-8.66h0c0-4.78-3.88-8.66-8.66-8.66Z"/>
    <path class="cls-3" d="M1366.37,18.52h-42.04c-4.78,0-8.65,3.88-8.65,8.66h0c0,4.78,3.87,8.66,8.65,8.66h42.04c4.78,0,8.66-3.88,8.66-8.66h0c0-4.78-3.88-8.66-8.66-8.66Z"/>
    <path class="cls-3" d="M1460.34,18.52h-42.04c-4.78,0-8.66,3.88-8.66,8.66h0c0,4.78,3.88,8.66,8.66,8.66h42.04c4.78,0,8.65-3.88,8.65-8.66h0c0-4.78-3.88-8.66-8.65-8.66Z"/>
    <path class="cls-3" d="M1554.31,18.52h-42.04c-4.78,0-8.66,3.88-8.66,8.66h0c0,4.78,3.88,8.66,8.66,8.66h42.04c4.78,0,8.66-3.88,8.66-8.66h0c0-4.78-3.88-8.66-8.66-8.66Z"/>
    <path class="cls-3" d="M1648.28,18.52h-42.04c-4.78,0-8.66,3.88-8.66,8.66h0c0,4.78,3.88,8.66,8.66,8.66h42.04c4.78,0,8.65-3.88,8.65-8.66h0c0-4.78-3.87-8.66-8.65-8.66Z"/>
    <path class="cls-3" d="M1742.25,18.52h-42.04c-4.78,0-8.66,3.88-8.66,8.66h0c0,4.78,3.88,8.66,8.66,8.66h42.04c4.78,0,8.66-3.88,8.66-8.66h0c0-4.78-3.88-8.66-8.66-8.66Z"/>
    <path class="cls-3" d="M1836.22,18.52h-42.04c-4.78,0-8.66,3.88-8.66,8.66h0c0,4.78,3.88,8.66,8.66,8.66h42.04c4.78,0,8.66-3.88,8.66-8.66h0c0-4.78-3.88-8.66-8.66-8.66Z"/>
    <path class="cls-4" d="M1930.19,18.52h-42.04c-4.78,0-8.66,3.88-8.66,8.66h0c0,4.78,3.88,8.66,8.66,8.66h42.04c4.78,0,8.65-3.88,8.65-8.66h0c0-4.78-3.87-8.66-8.65-8.66Z"/>
  </g>
  <g>
    <g>
      <path class="cls-4" d="M1011.24,997.22v1.96h-14.37v-30.18h2.04v28.22h12.33Z"/>
      <path class="cls-4" d="M1026.55,999.6c-6.72,0-11.31-3.91-11.31-12.28v-18.32h2.04v18.32c0,7.35,3.91,10.33,9.27,10.33s9.22-2.98,9.22-10.33v-18.32h2.04v18.32c0,8.37-4.59,12.28-11.26,12.28Z"/>
      <path class="cls-4" d="M1074.2,969v30.18h-2.08v-26.4l-12.03,19.72h-1.28l-12.03-19.72v26.4h-2.04v-30.18h2.04l12.67,20.74,12.67-20.74h2.08Z"/>
      <path class="cls-4" d="M1083.63,969h2.04v30.18h-2.04v-30.18Z"/>
      <path class="cls-4" d="M1117.98,969v30.18h-2.04l-18.92-26.69v26.69h-2.04v-30.18h2.04l18.92,26.69v-26.69h2.04Z"/>
      <path class="cls-4" d="M1142.46,990.93h-13.81l-2.98,8.25h-2.13l10.88-30.18h2.25l10.88,30.18h-2.12l-2.98-8.25ZM1141.78,988.98l-6.21-17.21-6.21,17.21h12.41Z"/>
    </g>
    <g>
      <path class="cls-5" d="M816.98,983.92l10.81,14.32c.17.22,0,.55-.27.55h-6.81c-.11,0-.21-.05-.27-.14l-7.27-9.66-7.31,9.66c-.06.09-.17.14-.27.14h-6.81c-.28,0-.44-.32-.27-.55l10.81-14.32-10.81-14.32c-.17-.22,0-.55.27-.55h6.81c.11,0,.21.05.27.14l7.31,9.66,7.27-9.66c.06-.09.17-.14.27-.14h6.81c.28,0,.44.32.27.55l-10.81,14.32Z"/>
      <path class="cls-5" d="M859.03,979.48c0,6.53-5.28,10.39-11.06,10.39h-5.11v8.38c0,.3-.24.54-.54.54h-5.28c-.3,0-.54-.24-.54-.54v-28.65c0-.3.24-.54.54-.54h10.93c5.78,0,11.06,3.85,11.06,10.43ZM852.7,979.48c0-2.85-2.01-4.48-4.73-4.48h-4.86c-.14,0-.25.11-.25.25v8.42c0,.14.11.25.25.25h4.86c2.72,0,4.73-1.59,4.73-4.44Z"/>
      <path class="cls-5" d="M886.12,993.13v5.32c0,.19-.15.34-.34.34h-17.8c-.19,0-.34-.15-.34-.34v-29.06c0-.19.15-.34.34-.34h5.65c.19,0,.34.15.34.34v23.41h11.81c.19,0,.34.15.34.34Z"/>
      <path class="cls-5" d="M912.42,992.84h-11.22l-2.09,5.81c-.03.08-.11.14-.2.14h-6.13c-.15,0-.25-.14-.2-.28l10.57-29.31c.03-.08.11-.14.2-.14h6.91c.09,0,.17.06.2.14l10.57,29.31c.05.14-.05.28-.2.28h-6.09c-.09,0-.17-.06-.2-.14l-2.13-5.81ZM910.29,986.85l-3.48-9.63-3.48,9.63h6.95Z"/>
      <path class="cls-5" d="M929.59,969.05h5.91c.12,0,.21.09.21.21v29.32c0,.12-.09.21-.21.21h-5.91c-.12,0-.21-.09-.21-.21v-29.32c0-.12.09-.21.21-.21Z"/>
      <path class="cls-5" d="M973.31,969.25v29.33c0,.11-.09.2-.2.2h-6.02c-.06,0-.13-.03-.16-.08l-13.72-19.06v18.94c0,.11-.09.2-.2.2h-5.92c-.11,0-.2-.09-.2-.2v-29.33c0-.11.09-.2.2-.2h6.02c.06,0,.13.03.16.08l13.72,19.06v-18.94c0-.11.09-.2.2-.2h5.92c.11,0,.2.09.2.2Z"/>
    </g>
  </g>
  <g>
    <path class="cls-2" d="M181.1,662.17v-27.14l-11.49,27.14h-5.41l-11.39-27.04v27.04h-6.08v-36.87h8.32l11.96,28.13,11.8-28.13h8.48v36.87h-6.19Z"/>
    <path class="cls-2" d="M193.68,655.31c0-1.14.2-2.15.6-3.02.4-.87.94-1.62,1.61-2.26.68-.64,1.48-1.15,2.42-1.53.94-.38,1.94-.66,3.02-.83l6.5-.99c.73-.1,1.22-.32,1.48-.65.26-.33.39-.72.39-1.17,0-1.07-.38-1.98-1.14-2.73-.76-.75-1.98-1.12-3.64-1.12s-2.83.44-3.69,1.33-1.37,1.97-1.51,3.25l-5.51-1.25c.1-1.07.43-2.11.99-3.12.55-1,1.28-1.89,2.18-2.65.9-.76,1.98-1.37,3.25-1.82,1.26-.45,2.68-.68,4.24-.68,1.94,0,3.6.26,4.97.78,1.37.52,2.48,1.21,3.33,2.08.85.87,1.47,1.87,1.87,3.02.4,1.14.6,2.34.6,3.59v12.58c0,1.14.04,2.07.13,2.78.09.71.15,1.14.18,1.27h-5.62c-.04-.07-.09-.37-.16-.91-.07-.54-.1-1.31-.1-2.31-.59.97-1.53,1.88-2.81,2.73-1.28.85-2.95,1.27-4.99,1.27-1.32,0-2.5-.21-3.56-.62-1.06-.42-1.96-.98-2.7-1.69-.75-.71-1.32-1.52-1.72-2.44-.4-.92-.6-1.88-.6-2.89ZM203.41,658.22c.83,0,1.63-.11,2.39-.34.76-.22,1.43-.59,2-1.09.57-.5,1.03-1.17,1.38-2s.52-1.87.52-3.12v-1.14l-6.6.99c-.94.17-1.73.53-2.39,1.07-.66.54-.99,1.33-.99,2.37,0,.87.31,1.63.94,2.29.62.66,1.54.99,2.76.99Z"/>
    <path class="cls-2" d="M236.22,647.56l10.61,14.61h-7.38l-7.44-10.35-3.12,3.28v7.07h-5.98v-37.65h5.98v22.57l9.72-10.24h8.01l-10.4,10.71Z"/>
    <path class="cls-2" d="M272.62,654.94c-.35,1.11-.85,2.15-1.51,3.12-.66.97-1.47,1.82-2.44,2.55-.97.73-2.08,1.3-3.33,1.72s-2.63.62-4.16.62c-1.73,0-3.38-.3-4.94-.91-1.56-.61-2.93-1.49-4.11-2.65-1.18-1.16-2.12-2.58-2.83-4.26-.71-1.68-1.07-3.6-1.07-5.75,0-2.01.34-3.83,1.01-5.46.68-1.63,1.59-3.02,2.73-4.19,1.14-1.16,2.46-2.06,3.95-2.7,1.49-.64,3.03-.96,4.63-.96,1.94,0,3.68.31,5.23.94s2.84,1.51,3.9,2.65c1.06,1.14,1.86,2.52,2.42,4.13.55,1.61.83,3.42.83,5.43,0,.49-.02.91-.05,1.27-.04.36-.07.58-.1.65h-18.51c.03.97.24,1.86.62,2.65.38.8.88,1.49,1.51,2.08.62.59,1.34,1.05,2.16,1.38.81.33,1.69.49,2.63.49,1.84,0,3.25-.42,4.24-1.27.99-.85,1.69-1.9,2.11-3.15l5.1,1.61ZM266.85,646.73c-.04-.73-.18-1.43-.44-2.11-.26-.68-.65-1.27-1.17-1.79-.52-.52-1.16-.94-1.92-1.25-.76-.31-1.66-.47-2.7-.47-.94,0-1.78.16-2.52.49-.75.33-1.38.76-1.9,1.3-.52.54-.94,1.14-1.25,1.82-.31.68-.49,1.34-.52,2h12.43Z"/>
    <path class="cls-2" d="M290.46,627.96c0-1.11.38-2.04,1.14-2.81.76-.76,1.68-1.14,2.76-1.14s2.04.38,2.81,1.14c.76.76,1.14,1.7,1.14,2.81s-.38,2.04-1.14,2.78-1.7,1.12-2.81,1.12-1.99-.37-2.76-1.12c-.76-.75-1.14-1.67-1.14-2.78ZM291.39,662.17v-25.32h5.98v25.32h-5.98Z"/>
    <path class="cls-2" d="M310.89,662.17h-6.03v-25.32h5.88v3.38c.83-1.46,1.93-2.5,3.3-3.15,1.37-.64,2.76-.96,4.19-.96,1.56,0,2.91.26,4.06.78,1.14.52,2.09,1.24,2.83,2.16.75.92,1.31,1.99,1.69,3.2.38,1.21.57,2.51.57,3.9v16.02h-6.03v-14.98c0-1.56-.39-2.89-1.17-3.98-.78-1.09-2.12-1.64-4.03-1.64-1.73,0-3.04.58-3.93,1.74-.88,1.16-1.33,2.57-1.33,4.24v14.61Z"/>
    <path class="cls-2" d="M346.3,629.67c-.42,0-.84.05-1.27.16-.43.1-.83.3-1.2.6-.36.29-.67.69-.91,1.2-.24.5-.36,1.14-.36,1.9v3.33h5.88v5.25h-5.88v20.07h-6.08v-20.07h-4.42v-5.25h4.42v-3.48c0-1.42.22-2.7.65-3.82.43-1.13,1.04-2.08,1.82-2.86.78-.78,1.71-1.38,2.78-1.79,1.07-.42,2.27-.62,3.59-.62.76,0,1.43.06,2,.18.57.12.96.23,1.17.34v5.15c-.17-.07-.43-.13-.78-.18-.35-.05-.82-.08-1.4-.08Z"/>
    <path class="cls-2" d="M364.24,636.07c1.91,0,3.66.34,5.25,1.01,1.59.68,2.98,1.61,4.16,2.81,1.18,1.2,2.1,2.61,2.76,4.24.66,1.63.99,3.42.99,5.36s-.33,3.74-.99,5.38c-.66,1.65-1.58,3.07-2.76,4.26-1.18,1.2-2.57,2.13-4.16,2.81-1.6.68-3.35,1.01-5.25,1.01s-3.61-.34-5.23-1.01c-1.61-.68-3-1.61-4.16-2.81s-2.07-2.62-2.73-4.26c-.66-1.65-.99-3.44-.99-5.38s.33-3.73.99-5.36c.66-1.63,1.57-3.04,2.73-4.24,1.16-1.2,2.55-2.13,4.16-2.81,1.61-.68,3.35-1.01,5.23-1.01ZM364.24,657.54c.94,0,1.83-.17,2.68-.52.85-.35,1.6-.86,2.26-1.53.66-.68,1.18-1.52,1.56-2.52.38-1,.57-2.17.57-3.48s-.19-2.47-.57-3.46c-.38-.99-.9-1.82-1.56-2.5-.66-.68-1.41-1.18-2.26-1.51-.85-.33-1.74-.49-2.68-.49s-1.83.16-2.68.49c-.85.33-1.59.83-2.24,1.51-.64.68-1.16,1.51-1.56,2.5-.4.99-.6,2.14-.6,3.46s.2,2.48.6,3.48c.4,1.01.92,1.85,1.56,2.52.64.68,1.39,1.19,2.24,1.53.85.35,1.74.52,2.68.52Z"/>
    <path class="cls-2" d="M398.1,642.83c-.69-.1-1.35-.16-1.98-.16-2.36,0-4.08.64-5.17,1.92-1.09,1.28-1.64,3.12-1.64,5.51v12.06h-6.03v-25.32h5.88v4.06c.59-1.39,1.54-2.46,2.86-3.22,1.32-.76,2.81-1.14,4.47-1.14.38,0,.71.02.99.05.28.04.48.07.62.1v6.14Z"/>
    <path class="cls-2" d="M402.88,662.17v-25.32h5.77v3.22c.73-1.28,1.8-2.26,3.22-2.94,1.42-.68,2.84-1.01,4.26-1.01,1.66,0,3.17.37,4.52,1.12,1.35.75,2.37,1.86,3.07,3.35,1-1.66,2.21-2.83,3.61-3.48,1.4-.66,2.94-.99,4.6-.99,1.14,0,2.25.19,3.33.57,1.07.38,2.03.96,2.86,1.74.83.78,1.5,1.78,2,2.99.5,1.21.75,2.65.75,4.32v16.43h-5.82v-15.44c0-1.49-.39-2.73-1.17-3.72-.78-.99-2.02-1.48-3.72-1.48-1.59,0-2.87.55-3.82,1.64s-1.43,2.42-1.43,3.98v15.03h-5.93v-15.44c0-1.46-.38-2.69-1.14-3.69-.76-1-2.01-1.51-3.74-1.51-1.63,0-2.91.53-3.85,1.59-.94,1.06-1.4,2.4-1.4,4.03v15.03h-5.98Z"/>
    <path class="cls-2" d="M470.89,654.94c-.35,1.11-.85,2.15-1.51,3.12-.66.97-1.47,1.82-2.44,2.55-.97.73-2.08,1.3-3.33,1.72s-2.63.62-4.16.62c-1.73,0-3.38-.3-4.94-.91-1.56-.61-2.93-1.49-4.11-2.65-1.18-1.16-2.12-2.58-2.83-4.26-.71-1.68-1.07-3.6-1.07-5.75,0-2.01.34-3.83,1.01-5.46.68-1.63,1.59-3.02,2.73-4.19,1.14-1.16,2.46-2.06,3.95-2.7,1.49-.64,3.03-.96,4.63-.96,1.94,0,3.68.31,5.23.94s2.84,1.51,3.9,2.65c1.06,1.14,1.86,2.52,2.42,4.13.55,1.61.83,3.42.83,5.43,0,.49-.02.91-.05,1.27-.04.36-.07.58-.1.65h-18.51c.03.97.24,1.86.62,2.65.38.8.88,1.49,1.51,2.08.62.59,1.34,1.05,2.16,1.38.81.33,1.69.49,2.63.49,1.84,0,3.25-.42,4.24-1.27.99-.85,1.69-1.9,2.11-3.15l5.1,1.61ZM465.12,646.73c-.04-.73-.18-1.43-.44-2.11-.26-.68-.65-1.27-1.17-1.79-.52-.52-1.16-.94-1.92-1.25-.76-.31-1.66-.47-2.7-.47-.94,0-1.78.16-2.52.49-.75.33-1.38.76-1.9,1.3-.52.54-.94,1.14-1.25,1.82-.31.68-.49,1.34-.52,2h12.43Z"/>
    <path class="cls-2" d="M500.85,657.54c0,1.14.03,2.15.1,3.02.07.87.12,1.4.16,1.61h-5.77c-.07-.28-.13-.76-.18-1.46-.05-.69-.08-1.3-.08-1.82-.59,1.08-1.53,1.99-2.81,2.76-1.28.76-2.83,1.14-4.63,1.14s-3.5-.34-4.99-1.01c-1.49-.68-2.76-1.61-3.82-2.81-1.06-1.2-1.88-2.61-2.47-4.24s-.88-3.4-.88-5.3c0-1.8.29-3.51.88-5.12.59-1.61,1.41-3.02,2.47-4.24,1.06-1.21,2.33-2.17,3.82-2.86s3.12-1.04,4.89-1.04c1.11,0,2.08.11,2.91.34.83.23,1.55.52,2.16.88.61.36,1.1.75,1.48,1.17.38.42.68.83.88,1.25v-15.29h5.88v33.02ZM481.5,649.43c0,2.43.62,4.38,1.85,5.85s2.89,2.21,4.97,2.21c.97,0,1.87-.2,2.7-.6.83-.4,1.54-.95,2.13-1.66.59-.71,1.05-1.56,1.38-2.55.33-.99.49-2.09.49-3.3,0-2.43-.62-4.34-1.85-5.75s-2.83-2.11-4.81-2.11-3.61.71-4.91,2.13c-1.3,1.42-1.95,3.35-1.95,5.77Z"/>
    <path class="cls-2" d="M544.68,657.54c0,1.14.03,2.15.1,3.02.07.87.12,1.4.16,1.61h-5.77c-.07-.28-.13-.76-.18-1.46-.05-.69-.08-1.3-.08-1.82-.59,1.08-1.53,1.99-2.81,2.76-1.28.76-2.83,1.14-4.63,1.14s-3.5-.34-4.99-1.01c-1.49-.68-2.76-1.61-3.82-2.81-1.06-1.2-1.88-2.61-2.47-4.24s-.88-3.4-.88-5.3c0-1.8.29-3.51.88-5.12.59-1.61,1.41-3.02,2.47-4.24,1.06-1.21,2.33-2.17,3.82-2.86s3.12-1.04,4.89-1.04c1.11,0,2.08.11,2.91.34.83.23,1.55.52,2.16.88.61.36,1.1.75,1.48,1.17.38.42.68.83.88,1.25v-15.29h5.88v33.02ZM525.34,649.43c0,2.43.62,4.38,1.85,5.85s2.89,2.21,4.97,2.21c.97,0,1.87-.2,2.7-.6.83-.4,1.54-.95,2.13-1.66.59-.71,1.05-1.56,1.38-2.55.33-.99.49-2.09.49-3.3,0-2.43-.62-4.34-1.85-5.75s-2.83-2.11-4.81-2.11-3.61.71-4.91,2.13c-1.3,1.42-1.95,3.35-1.95,5.77Z"/>
    <path class="cls-2" d="M574.95,654.94c-.35,1.11-.85,2.15-1.51,3.12-.66.97-1.47,1.82-2.44,2.55-.97.73-2.08,1.3-3.33,1.72s-2.63.62-4.16.62c-1.73,0-3.38-.3-4.94-.91-1.56-.61-2.93-1.49-4.11-2.65-1.18-1.16-2.12-2.58-2.83-4.26-.71-1.68-1.07-3.6-1.07-5.75,0-2.01.34-3.83,1.01-5.46.68-1.63,1.59-3.02,2.73-4.19,1.14-1.16,2.46-2.06,3.95-2.7,1.49-.64,3.03-.96,4.63-.96,1.94,0,3.68.31,5.23.94s2.84,1.51,3.9,2.65c1.06,1.14,1.86,2.52,2.42,4.13.55,1.61.83,3.42.83,5.43,0,.49-.02.91-.05,1.27-.04.36-.07.58-.1.65h-18.51c.03.97.24,1.86.62,2.65.38.8.88,1.49,1.51,2.08.62.59,1.34,1.05,2.16,1.38.81.33,1.69.49,2.63.49,1.84,0,3.25-.42,4.24-1.27.99-.85,1.69-1.9,2.11-3.15l5.1,1.61ZM569.17,646.73c-.04-.73-.18-1.43-.44-2.11-.26-.68-.65-1.27-1.17-1.79-.52-.52-1.16-.94-1.92-1.25-.76-.31-1.66-.47-2.7-.47-.94,0-1.78.16-2.52.49-.75.33-1.38.76-1.9,1.3-.52.54-.94,1.14-1.25,1.82-.31.68-.49,1.34-.52,2h12.43Z"/>
    <path class="cls-2" d="M592.52,641.63c-.94,0-1.82.17-2.65.52-.83.35-1.57.85-2.21,1.51s-1.15,1.47-1.53,2.44c-.38.97-.57,2.1-.57,3.38s.19,2.42.57,3.41c.38.99.89,1.82,1.53,2.5s1.4,1.19,2.26,1.53c.87.35,1.77.52,2.7.52s1.83-.16,2.57-.47c.75-.31,1.37-.7,1.87-1.17s.91-.97,1.22-1.51c.31-.54.54-1.05.68-1.53l5.3,1.92c-.31,1.01-.78,1.99-1.4,2.96-.62.97-1.41,1.86-2.37,2.65-.95.8-2.09,1.44-3.41,1.92-1.32.49-2.81.73-4.47.73-1.87,0-3.61-.34-5.2-1.01-1.59-.68-2.97-1.62-4.13-2.83-1.16-1.21-2.08-2.63-2.76-4.26-.68-1.63-1.01-3.41-1.01-5.36s.33-3.73.99-5.38c.66-1.65,1.58-3.07,2.76-4.26,1.18-1.2,2.55-2.12,4.11-2.78,1.56-.66,3.26-.99,5.1-.99,1.7,0,3.21.24,4.52.73,1.32.49,2.46,1.12,3.43,1.9.97.78,1.75,1.67,2.34,2.68.59,1.01,1.02,2.01,1.3,3.02l-5.41,1.98c-.14-.55-.36-1.12-.65-1.69-.29-.57-.69-1.08-1.2-1.53-.5-.45-1.1-.81-1.79-1.09-.69-.28-1.53-.42-2.5-.42Z"/>
    <path class="cls-2" d="M608.75,627.96c0-1.11.38-2.04,1.14-2.81.76-.76,1.68-1.14,2.76-1.14s2.04.38,2.81,1.14c.76.76,1.14,1.7,1.14,2.81s-.38,2.04-1.14,2.78-1.7,1.12-2.81,1.12-1.99-.37-2.76-1.12c-.76-.75-1.14-1.67-1.14-2.78ZM609.68,662.17v-25.32h5.98v25.32h-5.98Z"/>
    <path class="cls-2" d="M626.63,653.85c.1,1.14.58,2.15,1.43,3.02.85.87,2.09,1.3,3.72,1.3,1.25,0,2.19-.29,2.83-.86.64-.57.96-1.26.96-2.05,0-.69-.24-1.28-.73-1.77-.49-.49-1.23-.83-2.24-1.04l-3.74-.83c-2.25-.49-3.95-1.4-5.1-2.73-1.14-1.33-1.72-2.89-1.72-4.65,0-1.11.24-2.16.73-3.15s1.14-1.85,1.98-2.6,1.81-1.33,2.94-1.77c1.13-.43,2.35-.65,3.67-.65,1.77,0,3.25.25,4.45.75,1.2.5,2.17,1.12,2.94,1.85.76.73,1.33,1.5,1.69,2.31.36.82.6,1.53.7,2.16l-5.1,1.46c-.07-.35-.19-.75-.36-1.2-.17-.45-.44-.87-.81-1.25-.36-.38-.83-.7-1.4-.96-.57-.26-1.27-.39-2.11-.39-1.08,0-1.95.29-2.63.86-.68.57-1.01,1.26-1.01,2.05,0,.69.22,1.27.68,1.72.45.45,1.07.76,1.87.94l3.85.78c2.39.52,4.2,1.46,5.43,2.83,1.23,1.37,1.85,2.99,1.85,4.86,0,.97-.2,1.93-.6,2.89-.4.95-.99,1.82-1.77,2.6-.78.78-1.78,1.41-2.99,1.9-1.21.49-2.62.73-4.21.73-1.84,0-3.4-.26-4.68-.78-1.28-.52-2.34-1.17-3.17-1.95s-1.46-1.61-1.87-2.5c-.42-.88-.66-1.69-.73-2.42l5.25-1.46Z"/>
    <path class="cls-2" d="M646.39,627.96c0-1.11.38-2.04,1.14-2.81.76-.76,1.68-1.14,2.76-1.14s2.04.38,2.81,1.14c.76.76,1.14,1.7,1.14,2.81s-.38,2.04-1.14,2.78-1.7,1.12-2.81,1.12-1.99-.37-2.76-1.12c-.76-.75-1.14-1.67-1.14-2.78ZM647.33,662.17v-25.32h5.98v25.32h-5.98Z"/>
    <path class="cls-2" d="M672.29,636.07c1.91,0,3.66.34,5.25,1.01,1.59.68,2.98,1.61,4.16,2.81,1.18,1.2,2.1,2.61,2.76,4.24.66,1.63.99,3.42.99,5.36s-.33,3.74-.99,5.38c-.66,1.65-1.58,3.07-2.76,4.26-1.18,1.2-2.57,2.13-4.16,2.81-1.6.68-3.35,1.01-5.25,1.01s-3.61-.34-5.23-1.01c-1.61-.68-3-1.61-4.16-2.81s-2.07-2.62-2.73-4.26c-.66-1.65-.99-3.44-.99-5.38s.33-3.73.99-5.36c.66-1.63,1.57-3.04,2.73-4.24,1.16-1.2,2.55-2.13,4.16-2.81,1.61-.68,3.35-1.01,5.23-1.01ZM672.29,657.54c.94,0,1.83-.17,2.68-.52.85-.35,1.6-.86,2.26-1.53.66-.68,1.18-1.52,1.56-2.52.38-1,.57-2.17.57-3.48s-.19-2.47-.57-3.46c-.38-.99-.9-1.82-1.56-2.5-.66-.68-1.41-1.18-2.26-1.51-.85-.33-1.74-.49-2.68-.49s-1.83.16-2.68.49c-.85.33-1.59.83-2.24,1.51-.64.68-1.16,1.51-1.56,2.5-.4.99-.6,2.14-.6,3.46s.2,2.48.6,3.48c.4,1.01.92,1.85,1.56,2.52.64.68,1.39,1.19,2.24,1.53.85.35,1.74.52,2.68.52Z"/>
    <path class="cls-2" d="M697.35,662.17h-6.03v-25.32h5.88v3.38c.83-1.46,1.93-2.5,3.3-3.15,1.37-.64,2.76-.96,4.19-.96,1.56,0,2.91.26,4.06.78,1.14.52,2.09,1.24,2.83,2.16.75.92,1.31,1.99,1.69,3.2.38,1.21.57,2.51.57,3.9v16.02h-6.03v-14.98c0-1.56-.39-2.89-1.17-3.98-.78-1.09-2.12-1.64-4.03-1.64-1.73,0-3.04.58-3.93,1.74-.88,1.16-1.33,2.57-1.33,4.24v14.61Z"/>
    <path class="cls-2" d="M724.55,653.85c.1,1.14.58,2.15,1.43,3.02.85.87,2.09,1.3,3.72,1.3,1.25,0,2.19-.29,2.83-.86.64-.57.96-1.26.96-2.05,0-.69-.24-1.28-.73-1.77-.49-.49-1.23-.83-2.24-1.04l-3.74-.83c-2.25-.49-3.95-1.4-5.1-2.73-1.14-1.33-1.72-2.89-1.72-4.65,0-1.11.24-2.16.73-3.15s1.14-1.85,1.98-2.6,1.81-1.33,2.94-1.77c1.13-.43,2.35-.65,3.67-.65,1.77,0,3.25.25,4.45.75,1.2.5,2.17,1.12,2.94,1.85.76.73,1.33,1.5,1.69,2.31.36.82.6,1.53.7,2.16l-5.1,1.46c-.07-.35-.19-.75-.36-1.2-.17-.45-.44-.87-.81-1.25-.36-.38-.83-.7-1.4-.96-.57-.26-1.27-.39-2.11-.39-1.08,0-1.95.29-2.63.86-.68.57-1.01,1.26-1.01,2.05,0,.69.22,1.27.68,1.72.45.45,1.07.76,1.87.94l3.85.78c2.39.52,4.2,1.46,5.43,2.83,1.23,1.37,1.85,2.99,1.85,4.86,0,.97-.2,1.93-.6,2.89-.4.95-.99,1.82-1.77,2.6-.78.78-1.78,1.41-2.99,1.9-1.21.49-2.62.73-4.21.73-1.84,0-3.4-.26-4.68-.78-1.28-.52-2.34-1.17-3.17-1.95s-1.46-1.61-1.87-2.5c-.42-.88-.66-1.69-.73-2.42l5.25-1.46Z"/>
    <path class="cls-2" d="M769.79,629.67c-.42,0-.84.05-1.27.16-.43.1-.83.3-1.2.6-.36.29-.67.69-.91,1.2-.24.5-.36,1.14-.36,1.9v3.33h5.88v5.25h-5.88v20.07h-6.08v-20.07h-4.42v-5.25h4.42v-3.48c0-1.42.22-2.7.65-3.82.43-1.13,1.04-2.08,1.82-2.86.78-.78,1.71-1.38,2.78-1.79,1.07-.42,2.27-.62,3.59-.62.76,0,1.43.06,2,.18.57.12.96.23,1.17.34v5.15c-.17-.07-.43-.13-.78-.18-.35-.05-.82-.08-1.4-.08Z"/>
    <path class="cls-2" d="M775.14,655.31c0-1.14.2-2.15.6-3.02.4-.87.94-1.62,1.61-2.26.68-.64,1.48-1.15,2.42-1.53.94-.38,1.94-.66,3.02-.83l6.5-.99c.73-.1,1.22-.32,1.48-.65.26-.33.39-.72.39-1.17,0-1.07-.38-1.98-1.14-2.73-.76-.75-1.98-1.12-3.64-1.12s-2.83.44-3.69,1.33-1.37,1.97-1.51,3.25l-5.51-1.25c.1-1.07.43-2.11.99-3.12.55-1,1.28-1.89,2.18-2.65.9-.76,1.98-1.37,3.25-1.82,1.26-.45,2.68-.68,4.24-.68,1.94,0,3.6.26,4.97.78,1.37.52,2.48,1.21,3.33,2.08.85.87,1.47,1.87,1.87,3.02.4,1.14.6,2.34.6,3.59v12.58c0,1.14.04,2.07.13,2.78.09.71.15,1.14.18,1.27h-5.62c-.04-.07-.09-.37-.16-.91-.07-.54-.1-1.31-.1-2.31-.59.97-1.53,1.88-2.81,2.73-1.28.85-2.95,1.27-4.99,1.27-1.32,0-2.5-.21-3.56-.62-1.06-.42-1.96-.98-2.7-1.69-.75-.71-1.32-1.52-1.72-2.44-.4-.92-.6-1.88-.6-2.89ZM784.87,658.22c.83,0,1.63-.11,2.39-.34.76-.22,1.43-.59,2-1.09.57-.5,1.03-1.17,1.38-2s.52-1.87.52-3.12v-1.14l-6.6.99c-.94.17-1.73.53-2.39,1.07-.66.54-.99,1.33-.99,2.37,0,.87.31,1.63.94,2.29.62.66,1.54.99,2.76.99Z"/>
    <path class="cls-2" d="M807.85,653.85c.1,1.14.58,2.15,1.43,3.02.85.87,2.09,1.3,3.72,1.3,1.25,0,2.19-.29,2.83-.86.64-.57.96-1.26.96-2.05,0-.69-.24-1.28-.73-1.77-.49-.49-1.23-.83-2.24-1.04l-3.74-.83c-2.25-.49-3.95-1.4-5.1-2.73-1.14-1.33-1.72-2.89-1.72-4.65,0-1.11.24-2.16.73-3.15s1.14-1.85,1.98-2.6,1.81-1.33,2.94-1.77c1.13-.43,2.35-.65,3.67-.65,1.77,0,3.25.25,4.45.75,1.2.5,2.17,1.12,2.94,1.85.76.73,1.33,1.5,1.69,2.31.36.82.6,1.53.7,2.16l-5.1,1.46c-.07-.35-.19-.75-.36-1.2-.17-.45-.44-.87-.81-1.25-.36-.38-.83-.7-1.4-.96-.57-.26-1.27-.39-2.11-.39-1.08,0-1.95.29-2.63.86-.68.57-1.01,1.26-1.01,2.05,0,.69.22,1.27.68,1.72.45.45,1.07.76,1.87.94l3.85.78c2.39.52,4.2,1.46,5.43,2.83,1.23,1.37,1.85,2.99,1.85,4.86,0,.97-.2,1.93-.6,2.89-.4.95-.99,1.82-1.77,2.6-.78.78-1.78,1.41-2.99,1.9-1.21.49-2.62.73-4.21.73-1.84,0-3.4-.26-4.68-.78-1.28-.52-2.34-1.17-3.17-1.95s-1.46-1.61-1.87-2.5c-.42-.88-.66-1.69-.73-2.42l5.25-1.46Z"/>
    <path class="cls-2" d="M836.5,636.85h5.25v5.36h-5.25v11.75c0,1.11.26,1.92.78,2.42.52.5,1.33.75,2.44.75.42,0,.83-.03,1.25-.08s.69-.09.83-.13v4.99c-.17.07-.55.18-1.14.34-.59.16-1.44.23-2.55.23-2.36,0-4.21-.66-5.56-1.98-1.35-1.32-2.03-3.17-2.03-5.56v-12.74h-4.68v-5.36h1.3c1.35,0,2.34-.38,2.96-1.14s.94-1.7.94-2.81v-3.8h5.46v7.75Z"/>
    <path class="cls-2" d="M870.09,654.94c-.35,1.11-.85,2.15-1.51,3.12-.66.97-1.47,1.82-2.44,2.55-.97.73-2.08,1.3-3.33,1.72s-2.63.62-4.16.62c-1.73,0-3.38-.3-4.94-.91-1.56-.61-2.93-1.49-4.11-2.65-1.18-1.16-2.12-2.58-2.83-4.26-.71-1.68-1.07-3.6-1.07-5.75,0-2.01.34-3.83,1.01-5.46.68-1.63,1.59-3.02,2.73-4.19,1.14-1.16,2.46-2.06,3.95-2.7,1.49-.64,3.03-.96,4.63-.96,1.94,0,3.68.31,5.23.94s2.84,1.51,3.9,2.65c1.06,1.14,1.86,2.52,2.42,4.13.55,1.61.83,3.42.83,5.43,0,.49-.02.91-.05,1.27-.04.36-.07.58-.1.65h-18.51c.03.97.24,1.86.62,2.65.38.8.88,1.49,1.51,2.08.62.59,1.34,1.05,2.16,1.38.81.33,1.69.49,2.63.49,1.84,0,3.25-.42,4.24-1.27.99-.85,1.69-1.9,2.11-3.15l5.1,1.61ZM864.32,646.73c-.04-.73-.18-1.43-.44-2.11-.26-.68-.65-1.27-1.17-1.79-.52-.52-1.16-.94-1.92-1.25-.76-.31-1.66-.47-2.7-.47-.94,0-1.78.16-2.52.49-.75.33-1.38.76-1.9,1.3-.52.54-.94,1.14-1.25,1.82-.31.68-.49,1.34-.52,2h12.43Z"/>
    <path class="cls-2" d="M891.1,642.83c-.69-.1-1.35-.16-1.98-.16-2.36,0-4.08.64-5.17,1.92-1.09,1.28-1.64,3.12-1.64,5.51v12.06h-6.03v-25.32h5.88v4.06c.59-1.39,1.54-2.46,2.86-3.22,1.32-.76,2.81-1.14,4.47-1.14.38,0,.71.02.99.05.28.04.48.07.62.1v6.14Z"/>
    <path class="cls-2" d="M174.34,788.17l-.47-4.68c-.42.69-.96,1.36-1.64,2s-1.48,1.22-2.42,1.74c-.94.52-2.01.94-3.22,1.25-1.21.31-2.55.47-4,.47-2.39,0-4.69-.43-6.89-1.3-2.2-.87-4.13-2.12-5.8-3.77-1.66-1.65-2.99-3.66-3.98-6.03-.99-2.37-1.48-5.09-1.48-8.14s.52-5.72,1.56-8.11c1.04-2.39,2.42-4.4,4.13-6.03,1.72-1.63,3.69-2.88,5.93-3.74s4.55-1.3,6.94-1.3c2.22,0,4.25.3,6.08.91,1.84.61,3.46,1.42,4.86,2.44,1.4,1.02,2.58,2.21,3.54,3.56.95,1.35,1.67,2.79,2.16,4.32l-5.88,2.24c-.31-1.04-.77-2.03-1.38-2.96-.61-.94-1.36-1.75-2.26-2.44-.9-.69-1.95-1.25-3.15-1.66s-2.52-.62-3.98-.62-2.96.27-4.42.81c-1.46.54-2.77,1.36-3.93,2.47s-2.1,2.5-2.81,4.19c-.71,1.68-1.07,3.67-1.07,5.95s.34,4.22,1.01,5.9,1.58,3.09,2.7,4.21c1.13,1.13,2.42,1.98,3.87,2.55s2.98.86,4.58.86c1.87,0,3.46-.29,4.76-.86,1.3-.57,2.37-1.27,3.2-2.11s1.46-1.72,1.87-2.68c.42-.95.66-1.83.73-2.63h-12.17v-5.46h18.04v18.67h-5.04Z"/>
    <path class="cls-2" d="M184.69,781.31c0-1.14.2-2.15.6-3.02.4-.87.94-1.62,1.61-2.26.68-.64,1.48-1.15,2.42-1.53.94-.38,1.94-.66,3.02-.83l6.5-.99c.73-.1,1.22-.32,1.48-.65.26-.33.39-.72.39-1.17,0-1.07-.38-1.98-1.14-2.73-.76-.75-1.98-1.12-3.64-1.12s-2.83.44-3.69,1.33-1.37,1.97-1.51,3.25l-5.51-1.25c.1-1.07.43-2.11.99-3.12.55-1,1.28-1.89,2.18-2.65.9-.76,1.98-1.37,3.25-1.82,1.26-.45,2.68-.68,4.24-.68,1.94,0,3.6.26,4.97.78,1.37.52,2.48,1.21,3.33,2.08.85.87,1.47,1.87,1.87,3.02.4,1.14.6,2.34.6,3.59v12.58c0,1.14.04,2.07.13,2.78.09.71.15,1.14.18,1.27h-5.62c-.04-.07-.09-.37-.16-.91-.07-.54-.1-1.31-.1-2.31-.59.97-1.53,1.88-2.81,2.73-1.28.85-2.95,1.27-4.99,1.27-1.32,0-2.5-.21-3.56-.62-1.06-.42-1.96-.98-2.7-1.69-.75-.71-1.32-1.52-1.72-2.44-.4-.92-.6-1.88-.6-2.89ZM194.41,784.22c.83,0,1.63-.11,2.39-.34.76-.22,1.43-.59,2-1.09.57-.5,1.03-1.17,1.38-2s.52-1.87.52-3.12v-1.14l-6.6.99c-.94.17-1.73.53-2.39,1.07-.66.54-.99,1.33-.99,2.37,0,.87.31,1.63.94,2.29.62.66,1.54.99,2.76.99Z"/>
    <path class="cls-2" d="M212.98,753.96c0-1.11.38-2.04,1.14-2.81.76-.76,1.68-1.14,2.76-1.14s2.04.38,2.81,1.14c.76.76,1.14,1.7,1.14,2.81s-.38,2.04-1.14,2.78-1.7,1.12-2.81,1.12-1.99-.37-2.76-1.12c-.76-.75-1.14-1.67-1.14-2.78ZM213.91,788.17v-25.32h5.98v25.32h-5.98Z"/>
    <path class="cls-2" d="M233.41,788.17h-6.03v-25.32h5.88v3.38c.83-1.46,1.93-2.5,3.3-3.15,1.37-.64,2.76-.96,4.19-.96,1.56,0,2.91.26,4.06.78,1.14.52,2.09,1.24,2.83,2.16.75.92,1.31,1.99,1.69,3.2.38,1.21.57,2.51.57,3.9v16.02h-6.03v-14.98c0-1.56-.39-2.89-1.17-3.98-.78-1.09-2.12-1.64-4.03-1.64-1.73,0-3.04.58-3.93,1.74-.88,1.16-1.33,2.57-1.33,4.24v14.61Z"/>
    <path class="cls-2" d="M268.77,753.96c0-1.11.38-2.04,1.14-2.81.76-.76,1.68-1.14,2.76-1.14s2.04.38,2.81,1.14c.76.76,1.14,1.7,1.14,2.81s-.38,2.04-1.14,2.78-1.7,1.12-2.81,1.12-1.99-.37-2.76-1.12c-.76-.75-1.14-1.67-1.14-2.78ZM269.71,788.17v-25.32h5.98v25.32h-5.98Z"/>
    <path class="cls-2" d="M289.21,788.17h-6.03v-25.32h5.88v3.38c.83-1.46,1.93-2.5,3.3-3.15,1.37-.64,2.76-.96,4.19-.96,1.56,0,2.91.26,4.06.78,1.14.52,2.09,1.24,2.83,2.16.75.92,1.31,1.99,1.69,3.2.38,1.21.57,2.51.57,3.9v16.02h-6.03v-14.98c0-1.56-.39-2.89-1.17-3.98-.78-1.09-2.12-1.64-4.03-1.64-1.73,0-3.04.58-3.93,1.74-.88,1.16-1.33,2.57-1.33,4.24v14.61Z"/>
    <path class="cls-2" d="M336.68,783.54c0,1.14.03,2.15.1,3.02.07.87.12,1.4.16,1.61h-5.77c-.07-.28-.13-.76-.18-1.46-.05-.69-.08-1.3-.08-1.82-.59,1.08-1.53,1.99-2.81,2.76-1.28.76-2.83,1.14-4.63,1.14s-3.5-.34-4.99-1.01c-1.49-.68-2.76-1.61-3.82-2.81-1.06-1.2-1.88-2.61-2.47-4.24s-.88-3.4-.88-5.3c0-1.8.29-3.51.88-5.12.59-1.61,1.41-3.02,2.47-4.24,1.06-1.21,2.33-2.17,3.82-2.86s3.12-1.04,4.89-1.04c1.11,0,2.08.11,2.91.34.83.23,1.55.52,2.16.88.61.36,1.1.75,1.48,1.17.38.42.68.83.88,1.25v-15.29h5.88v33.02ZM317.34,775.43c0,2.43.62,4.38,1.85,5.85s2.89,2.21,4.97,2.21c.97,0,1.87-.2,2.7-.6.83-.4,1.54-.95,2.13-1.66.59-.71,1.05-1.56,1.38-2.55.33-.99.49-2.09.49-3.3,0-2.43-.62-4.34-1.85-5.75s-2.83-2.11-4.81-2.11-3.61.71-4.91,2.13c-1.3,1.42-1.95,3.35-1.95,5.77Z"/>
    <path class="cls-2" d="M366.95,780.94c-.35,1.11-.85,2.15-1.51,3.12-.66.97-1.47,1.82-2.44,2.55-.97.73-2.08,1.3-3.33,1.72s-2.63.62-4.16.62c-1.73,0-3.38-.3-4.94-.91-1.56-.61-2.93-1.49-4.11-2.65-1.18-1.16-2.12-2.58-2.83-4.26-.71-1.68-1.07-3.6-1.07-5.75,0-2.01.34-3.83,1.01-5.46.68-1.63,1.59-3.02,2.73-4.19,1.14-1.16,2.46-2.06,3.95-2.7,1.49-.64,3.03-.96,4.63-.96,1.94,0,3.68.31,5.23.94s2.84,1.51,3.9,2.65c1.06,1.14,1.86,2.52,2.42,4.13.55,1.61.83,3.42.83,5.43,0,.49-.02.91-.05,1.27-.04.36-.07.58-.1.65h-18.51c.03.97.24,1.86.62,2.65.38.8.88,1.49,1.51,2.08.62.59,1.34,1.05,2.16,1.38.81.33,1.69.49,2.63.49,1.84,0,3.25-.42,4.24-1.27.99-.85,1.69-1.9,2.11-3.15l5.1,1.61ZM361.17,772.73c-.04-.73-.18-1.43-.44-2.11-.26-.68-.65-1.27-1.17-1.79-.52-.52-1.16-.94-1.92-1.25-.76-.31-1.66-.47-2.7-.47-.94,0-1.78.16-2.52.49-.75.33-1.38.76-1.9,1.3-.52.54-.94,1.14-1.25,1.82-.31.68-.49,1.34-.52,2h12.43Z"/>
    <path class="cls-2" d="M373.13,798.05v-35.2h5.82v3.43c.62-1.11,1.63-2.05,3.02-2.83,1.39-.78,3.07-1.17,5.04-1.17,1.87,0,3.54.34,4.99,1.01s2.68,1.6,3.67,2.78,1.74,2.57,2.26,4.19c.52,1.61.78,3.35.78,5.23s-.28,3.67-.83,5.28c-.55,1.61-1.35,3.02-2.39,4.21-1.04,1.2-2.3,2.13-3.77,2.81-1.47.68-3.11,1.01-4.91,1.01s-3.42-.34-4.73-1.01c-1.32-.68-2.31-1.5-2.96-2.47v12.74h-5.98ZM392.69,775.48c0-2.39-.62-4.3-1.87-5.72-1.25-1.42-2.89-2.13-4.94-2.13-1.01,0-1.92.19-2.76.57-.83.38-1.54.91-2.13,1.59s-1.06,1.5-1.4,2.47c-.35.97-.52,2.05-.52,3.22,0,2.43.64,4.36,1.92,5.8s2.91,2.16,4.89,2.16,3.65-.72,4.91-2.16c1.26-1.44,1.9-3.37,1.9-5.8Z"/>
    <path class="cls-2" d="M427.42,780.94c-.35,1.11-.85,2.15-1.51,3.12-.66.97-1.47,1.82-2.44,2.55-.97.73-2.08,1.3-3.33,1.72s-2.63.62-4.16.62c-1.73,0-3.38-.3-4.94-.91-1.56-.61-2.93-1.49-4.11-2.65-1.18-1.16-2.12-2.58-2.83-4.26-.71-1.68-1.07-3.6-1.07-5.75,0-2.01.34-3.83,1.01-5.46.68-1.63,1.59-3.02,2.73-4.19,1.14-1.16,2.46-2.06,3.95-2.7,1.49-.64,3.03-.96,4.63-.96,1.94,0,3.68.31,5.23.94s2.84,1.51,3.9,2.65c1.06,1.14,1.86,2.52,2.42,4.13.55,1.61.83,3.42.83,5.43,0,.49-.02.91-.05,1.27-.04.36-.07.58-.1.65h-18.51c.03.97.24,1.86.62,2.65.38.8.88,1.49,1.51,2.08.62.59,1.34,1.05,2.16,1.38.81.33,1.69.49,2.63.49,1.84,0,3.25-.42,4.24-1.27.99-.85,1.69-1.9,2.11-3.15l5.1,1.61ZM421.65,772.73c-.04-.73-.18-1.43-.44-2.11-.26-.68-.65-1.27-1.17-1.79-.52-.52-1.16-.94-1.92-1.25-.76-.31-1.66-.47-2.7-.47-.94,0-1.78.16-2.52.49-.75.33-1.38.76-1.9,1.3-.52.54-.94,1.14-1.25,1.82-.31.68-.49,1.34-.52,2h12.43Z"/>
    <path class="cls-2" d="M439.64,788.17h-6.03v-25.32h5.88v3.38c.83-1.46,1.93-2.5,3.3-3.15,1.37-.64,2.76-.96,4.19-.96,1.56,0,2.91.26,4.06.78,1.14.52,2.09,1.24,2.83,2.16.75.92,1.31,1.99,1.69,3.2.38,1.21.57,2.51.57,3.9v16.02h-6.03v-14.98c0-1.56-.39-2.89-1.17-3.98-.78-1.09-2.12-1.64-4.03-1.64-1.73,0-3.04.58-3.93,1.74-.88,1.16-1.33,2.57-1.33,4.24v14.61Z"/>
    <path class="cls-2" d="M487.12,783.54c0,1.14.03,2.15.1,3.02.07.87.12,1.4.16,1.61h-5.77c-.07-.28-.13-.76-.18-1.46-.05-.69-.08-1.3-.08-1.82-.59,1.08-1.53,1.99-2.81,2.76-1.28.76-2.83,1.14-4.63,1.14s-3.5-.34-4.99-1.01c-1.49-.68-2.76-1.61-3.82-2.81-1.06-1.2-1.88-2.61-2.47-4.24s-.88-3.4-.88-5.3c0-1.8.29-3.51.88-5.12.59-1.61,1.41-3.02,2.47-4.24,1.06-1.21,2.33-2.17,3.82-2.86s3.12-1.04,4.89-1.04c1.11,0,2.08.11,2.91.34.83.23,1.55.52,2.16.88.61.36,1.1.75,1.48,1.17.38.42.68.83.88,1.25v-15.29h5.88v33.02ZM467.77,775.43c0,2.43.62,4.38,1.85,5.85s2.89,2.21,4.97,2.21c.97,0,1.87-.2,2.7-.6.83-.4,1.54-.95,2.13-1.66.59-.71,1.05-1.56,1.38-2.55.33-.99.49-2.09.49-3.3,0-2.43-.62-4.34-1.85-5.75s-2.83-2.11-4.81-2.11-3.61.71-4.91,2.13c-1.3,1.42-1.95,3.35-1.95,5.77Z"/>
    <path class="cls-2" d="M517.38,780.94c-.35,1.11-.85,2.15-1.51,3.12-.66.97-1.47,1.82-2.44,2.55-.97.73-2.08,1.3-3.33,1.72s-2.63.62-4.16.62c-1.73,0-3.38-.3-4.94-.91-1.56-.61-2.93-1.49-4.11-2.65-1.18-1.16-2.12-2.58-2.83-4.26-.71-1.68-1.07-3.6-1.07-5.75,0-2.01.34-3.83,1.01-5.46.68-1.63,1.59-3.02,2.73-4.19,1.14-1.16,2.46-2.06,3.95-2.7,1.49-.64,3.03-.96,4.63-.96,1.94,0,3.68.31,5.23.94s2.84,1.51,3.9,2.65c1.06,1.14,1.86,2.52,2.42,4.13.55,1.61.83,3.42.83,5.43,0,.49-.02.91-.05,1.27-.04.36-.07.58-.1.65h-18.51c.03.97.24,1.86.62,2.65.38.8.88,1.49,1.51,2.08.62.59,1.34,1.05,2.16,1.38.81.33,1.69.49,2.63.49,1.84,0,3.25-.42,4.24-1.27.99-.85,1.69-1.9,2.11-3.15l5.1,1.61ZM511.61,772.73c-.04-.73-.18-1.43-.44-2.11-.26-.68-.65-1.27-1.17-1.79-.52-.52-1.16-.94-1.92-1.25-.76-.31-1.66-.47-2.7-.47-.94,0-1.78.16-2.52.49-.75.33-1.38.76-1.9,1.3-.52.54-.94,1.14-1.25,1.82-.31.68-.49,1.34-.52,2h12.43Z"/>
    <path class="cls-2" d="M529.6,788.17h-6.03v-25.32h5.88v3.38c.83-1.46,1.93-2.5,3.3-3.15,1.37-.64,2.76-.96,4.19-.96,1.56,0,2.91.26,4.06.78,1.14.52,2.09,1.24,2.83,2.16.75.92,1.31,1.99,1.69,3.2.38,1.21.57,2.51.57,3.9v16.02h-6.03v-14.98c0-1.56-.39-2.89-1.17-3.98-.78-1.09-2.12-1.64-4.03-1.64-1.73,0-3.04.58-3.93,1.74-.88,1.16-1.33,2.57-1.33,4.24v14.61Z"/>
    <path class="cls-2" d="M564.7,767.63c-.94,0-1.82.17-2.65.52-.83.35-1.57.85-2.21,1.51s-1.15,1.47-1.53,2.44c-.38.97-.57,2.1-.57,3.38s.19,2.42.57,3.41c.38.99.89,1.82,1.53,2.5s1.4,1.19,2.26,1.53c.87.35,1.77.52,2.7.52s1.83-.16,2.57-.47c.75-.31,1.37-.7,1.87-1.17s.91-.97,1.22-1.51c.31-.54.54-1.05.68-1.53l5.3,1.92c-.31,1.01-.78,1.99-1.4,2.96-.62.97-1.41,1.86-2.37,2.65-.95.8-2.09,1.44-3.41,1.92-1.32.49-2.81.73-4.47.73-1.87,0-3.61-.34-5.2-1.01-1.59-.68-2.97-1.62-4.13-2.83-1.16-1.21-2.08-2.63-2.76-4.26-.68-1.63-1.01-3.41-1.01-5.36s.33-3.73.99-5.38c.66-1.65,1.58-3.07,2.76-4.26,1.18-1.2,2.55-2.12,4.11-2.78,1.56-.66,3.26-.99,5.1-.99,1.7,0,3.21.24,4.52.73,1.32.49,2.46,1.12,3.43,1.9.97.78,1.75,1.67,2.34,2.68.59,1.01,1.02,2.01,1.3,3.02l-5.41,1.98c-.14-.55-.36-1.12-.65-1.69-.29-.57-.69-1.08-1.2-1.53-.5-.45-1.1-.81-1.79-1.09-.69-.28-1.53-.42-2.5-.42Z"/>
    <path class="cls-2" d="M604.63,780.94c-.35,1.11-.85,2.15-1.51,3.12-.66.97-1.47,1.82-2.44,2.55-.97.73-2.08,1.3-3.33,1.72s-2.63.62-4.16.62c-1.73,0-3.38-.3-4.94-.91-1.56-.61-2.93-1.49-4.11-2.65-1.18-1.16-2.12-2.58-2.83-4.26-.71-1.68-1.07-3.6-1.07-5.75,0-2.01.34-3.83,1.01-5.46.68-1.63,1.59-3.02,2.73-4.19,1.14-1.16,2.46-2.06,3.95-2.7,1.49-.64,3.03-.96,4.63-.96,1.94,0,3.68.31,5.23.94s2.84,1.51,3.9,2.65c1.06,1.14,1.86,2.52,2.42,4.13.55,1.61.83,3.42.83,5.43,0,.49-.02.91-.05,1.27-.04.36-.07.58-.1.65h-18.51c.03.97.24,1.86.62,2.65.38.8.88,1.49,1.51,2.08.62.59,1.34,1.05,2.16,1.38.81.33,1.69.49,2.63.49,1.84,0,3.25-.42,4.24-1.27.99-.85,1.69-1.9,2.11-3.15l5.1,1.61ZM598.86,772.73c-.04-.73-.18-1.43-.44-2.11-.26-.68-.65-1.27-1.17-1.79-.52-.52-1.16-.94-1.92-1.25-.76-.31-1.66-.47-2.7-.47-.94,0-1.78.16-2.52.49-.75.33-1.38.76-1.9,1.3-.52.54-.94,1.14-1.25,1.82-.31.68-.49,1.34-.52,2h12.43Z"/>
    <path class="cls-2" d="M634.9,762.07c1.91,0,3.66.34,5.25,1.01,1.59.68,2.98,1.61,4.16,2.81,1.18,1.2,2.1,2.61,2.76,4.24.66,1.63.99,3.42.99,5.36s-.33,3.74-.99,5.38c-.66,1.65-1.58,3.07-2.76,4.26-1.18,1.2-2.57,2.13-4.16,2.81-1.6.68-3.35,1.01-5.25,1.01s-3.61-.34-5.23-1.01c-1.61-.68-3-1.61-4.16-2.81s-2.07-2.62-2.73-4.26c-.66-1.65-.99-3.44-.99-5.38s.33-3.73.99-5.36c.66-1.63,1.57-3.04,2.73-4.24,1.16-1.2,2.55-2.13,4.16-2.81,1.61-.68,3.35-1.01,5.23-1.01ZM634.9,783.54c.94,0,1.83-.17,2.68-.52.85-.35,1.6-.86,2.26-1.53.66-.68,1.18-1.52,1.56-2.52.38-1,.57-2.17.57-3.48s-.19-2.47-.57-3.46c-.38-.99-.9-1.82-1.56-2.5-.66-.68-1.41-1.18-2.26-1.51-.85-.33-1.74-.49-2.68-.49s-1.83.16-2.68.49c-.85.33-1.59.83-2.24,1.51-.64.68-1.16,1.51-1.56,2.5-.4.99-.6,2.14-.6,3.46s.2,2.48.6,3.48c.4,1.01.92,1.85,1.56,2.52.64.68,1.39,1.19,2.24,1.53.85.35,1.74.52,2.68.52Z"/>
    <path class="cls-2" d="M666.46,788.17h-6.03l-10.3-25.32h6.66l6.71,18.1,6.55-18.1h6.34l-9.93,25.32Z"/>
    <path class="cls-2" d="M703.02,780.94c-.35,1.11-.85,2.15-1.51,3.12-.66.97-1.47,1.82-2.44,2.55-.97.73-2.08,1.3-3.33,1.72s-2.63.62-4.16.62c-1.73,0-3.38-.3-4.94-.91-1.56-.61-2.93-1.49-4.11-2.65-1.18-1.16-2.12-2.58-2.83-4.26-.71-1.68-1.07-3.6-1.07-5.75,0-2.01.34-3.83,1.01-5.46.68-1.63,1.59-3.02,2.73-4.19,1.14-1.16,2.46-2.06,3.95-2.7,1.49-.64,3.03-.96,4.63-.96,1.94,0,3.68.31,5.23.94s2.84,1.51,3.9,2.65c1.06,1.14,1.86,2.52,2.42,4.13.55,1.61.83,3.42.83,5.43,0,.49-.02.91-.05,1.27-.04.36-.07.58-.1.65h-18.51c.03.97.24,1.86.62,2.65.38.8.88,1.49,1.51,2.08.62.59,1.34,1.05,2.16,1.38.81.33,1.69.49,2.63.49,1.84,0,3.25-.42,4.24-1.27.99-.85,1.69-1.9,2.11-3.15l5.1,1.61ZM697.25,772.73c-.04-.73-.18-1.43-.44-2.11-.26-.68-.65-1.27-1.17-1.79-.52-.52-1.16-.94-1.92-1.25-.76-.31-1.66-.47-2.7-.47-.94,0-1.78.16-2.52.49-.75.33-1.38.76-1.9,1.3-.52.54-.94,1.14-1.25,1.82-.31.68-.49,1.34-.52,2h12.43Z"/>
    <path class="cls-2" d="M724.03,768.83c-.69-.1-1.35-.16-1.98-.16-2.36,0-4.08.64-5.17,1.92-1.09,1.28-1.64,3.12-1.64,5.51v12.06h-6.03v-25.32h5.88v4.06c.59-1.39,1.54-2.46,2.86-3.22,1.32-.76,2.81-1.14,4.47-1.14.38,0,.71.02.99.05.28.04.48.07.62.1v6.14Z"/>
    <path class="cls-2" d="M752.47,788.17h-6.03l-10.3-25.32h6.66l6.71,18.1,6.55-18.1h6.34l-9.93,25.32Z"/>
    <path class="cls-2" d="M764.79,781.31c0-1.14.2-2.15.6-3.02.4-.87.94-1.62,1.61-2.26.68-.64,1.48-1.15,2.42-1.53.94-.38,1.94-.66,3.02-.83l6.5-.99c.73-.1,1.22-.32,1.48-.65.26-.33.39-.72.39-1.17,0-1.07-.38-1.98-1.14-2.73-.76-.75-1.98-1.12-3.64-1.12s-2.83.44-3.69,1.33-1.37,1.97-1.51,3.25l-5.51-1.25c.1-1.07.43-2.11.99-3.12.55-1,1.28-1.89,2.18-2.65.9-.76,1.98-1.37,3.25-1.82,1.26-.45,2.68-.68,4.24-.68,1.94,0,3.6.26,4.97.78,1.37.52,2.48,1.21,3.33,2.08.85.87,1.47,1.87,1.87,3.02.4,1.14.6,2.34.6,3.59v12.58c0,1.14.04,2.07.13,2.78.09.71.15,1.14.18,1.27h-5.62c-.04-.07-.09-.37-.16-.91-.07-.54-.1-1.31-.1-2.31-.59.97-1.53,1.88-2.81,2.73-1.28.85-2.95,1.27-4.99,1.27-1.32,0-2.5-.21-3.56-.62-1.06-.42-1.96-.98-2.7-1.69-.75-.71-1.32-1.52-1.72-2.44-.4-.92-.6-1.88-.6-2.89ZM774.52,784.22c.83,0,1.63-.11,2.39-.34.76-.22,1.43-.59,2-1.09.57-.5,1.03-1.17,1.38-2s.52-1.87.52-3.12v-1.14l-6.6.99c-.94.17-1.73.53-2.39,1.07-.66.54-.99,1.33-.99,2.37,0,.87.31,1.63.94,2.29.62.66,1.54.99,2.76.99Z"/>
    <path class="cls-2" d="M794.02,788.17v-37.65h6.03v37.65h-6.03Z"/>
    <path class="cls-2" d="M824.02,785.36c-.62,1.14-1.6,2.02-2.94,2.63-1.33.61-2.75.91-4.24.91s-2.88-.26-4.06-.78c-1.18-.52-2.18-1.24-2.99-2.16-.81-.92-1.44-1.98-1.87-3.2-.43-1.21-.65-2.53-.65-3.95v-15.96h6.03v14.87c0,.8.1,1.54.29,2.24s.49,1.3.91,1.82c.42.52.94.94,1.59,1.25.64.31,1.41.47,2.31.47,1.77,0,3.09-.53,3.98-1.59s1.33-2.42,1.33-4.08v-14.98h6.03v20.7c0,1.04.03,1.95.08,2.73.05.78.11,1.41.18,1.9h-5.77c-.07-.28-.12-.68-.16-1.22-.04-.54-.05-1.07-.05-1.59Z"/>
    <path class="cls-2" d="M835.67,781.31c0-1.14.2-2.15.6-3.02.4-.87.94-1.62,1.61-2.26.68-.64,1.48-1.15,2.42-1.53.94-.38,1.94-.66,3.02-.83l6.5-.99c.73-.1,1.22-.32,1.48-.65.26-.33.39-.72.39-1.17,0-1.07-.38-1.98-1.14-2.73-.76-.75-1.98-1.12-3.64-1.12s-2.83.44-3.69,1.33-1.37,1.97-1.51,3.25l-5.51-1.25c.1-1.07.43-2.11.99-3.12.55-1,1.28-1.89,2.18-2.65.9-.76,1.98-1.37,3.25-1.82,1.26-.45,2.68-.68,4.24-.68,1.94,0,3.6.26,4.97.78,1.37.52,2.48,1.21,3.33,2.08.85.87,1.47,1.87,1.87,3.02.4,1.14.6,2.34.6,3.59v12.58c0,1.14.04,2.07.13,2.78.09.71.15,1.14.18,1.27h-5.62c-.04-.07-.09-.37-.16-.91-.07-.54-.1-1.31-.1-2.31-.59.97-1.53,1.88-2.81,2.73-1.28.85-2.95,1.27-4.99,1.27-1.32,0-2.5-.21-3.56-.62-1.06-.42-1.96-.98-2.7-1.69-.75-.71-1.32-1.52-1.72-2.44-.4-.92-.6-1.88-.6-2.89ZM845.39,784.22c.83,0,1.63-.11,2.39-.34.76-.22,1.43-.59,2-1.09.57-.5,1.03-1.17,1.38-2s.52-1.87.52-3.12v-1.14l-6.6.99c-.94.17-1.73.53-2.39,1.07-.66.54-.99,1.33-.99,2.37,0,.87.31,1.63.94,2.29.62.66,1.54.99,2.76.99Z"/>
    <path class="cls-2" d="M872.64,762.85h5.25v5.36h-5.25v11.75c0,1.11.26,1.92.78,2.42.52.5,1.33.75,2.44.75.42,0,.83-.03,1.25-.08s.69-.09.83-.13v4.99c-.17.07-.55.18-1.14.34-.59.16-1.44.23-2.55.23-2.36,0-4.21-.66-5.56-1.98-1.35-1.32-2.03-3.17-2.03-5.56v-12.74h-4.68v-5.36h1.3c1.35,0,2.34-.38,2.96-1.14s.94-1.7.94-2.81v-3.8h5.46v7.75Z"/>
    <path class="cls-2" d="M882.73,753.96c0-1.11.38-2.04,1.14-2.81.76-.76,1.68-1.14,2.76-1.14s2.04.38,2.81,1.14c.76.76,1.14,1.7,1.14,2.81s-.38,2.04-1.14,2.78-1.7,1.12-2.81,1.12-1.99-.37-2.76-1.12c-.76-.75-1.14-1.67-1.14-2.78ZM883.66,788.17v-25.32h5.98v25.32h-5.98Z"/>
    <path class="cls-2" d="M908.62,762.07c1.91,0,3.66.34,5.25,1.01,1.59.68,2.98,1.61,4.16,2.81,1.18,1.2,2.1,2.61,2.76,4.24.66,1.63.99,3.42.99,5.36s-.33,3.74-.99,5.38c-.66,1.65-1.58,3.07-2.76,4.26-1.18,1.2-2.57,2.13-4.16,2.81-1.6.68-3.35,1.01-5.25,1.01s-3.61-.34-5.23-1.01c-1.61-.68-3-1.61-4.16-2.81s-2.07-2.62-2.73-4.26c-.66-1.65-.99-3.44-.99-5.38s.33-3.73.99-5.36c.66-1.63,1.57-3.04,2.73-4.24,1.16-1.2,2.55-2.13,4.16-2.81,1.61-.68,3.35-1.01,5.23-1.01ZM908.62,783.54c.94,0,1.83-.17,2.68-.52.85-.35,1.6-.86,2.26-1.53.66-.68,1.18-1.52,1.56-2.52.38-1,.57-2.17.57-3.48s-.19-2.47-.57-3.46c-.38-.99-.9-1.82-1.56-2.5-.66-.68-1.41-1.18-2.26-1.51-.85-.33-1.74-.49-2.68-.49s-1.83.16-2.68.49c-.85.33-1.59.83-2.24,1.51-.64.68-1.16,1.51-1.56,2.5-.4.99-.6,2.14-.6,3.46s.2,2.48.6,3.48c.4,1.01.92,1.85,1.56,2.52.64.68,1.39,1.19,2.24,1.53.85.35,1.74.52,2.68.52Z"/>
    <path class="cls-2" d="M933.69,788.17h-6.03v-25.32h5.88v3.38c.83-1.46,1.93-2.5,3.3-3.15,1.37-.64,2.76-.96,4.19-.96,1.56,0,2.91.26,4.06.78,1.14.52,2.09,1.24,2.83,2.16.75.92,1.31,1.99,1.69,3.2.38,1.21.57,2.51.57,3.9v16.02h-6.03v-14.98c0-1.56-.39-2.89-1.17-3.98-.78-1.09-2.12-1.64-4.03-1.64-1.73,0-3.04.58-3.93,1.74-.88,1.16-1.33,2.57-1.33,4.24v14.61Z"/>
    <path class="cls-2" d="M989.64,783.8c-1.46,1.56-3,2.79-4.63,3.69-1.63.9-3.45,1.35-5.46,1.35-1.77,0-3.34-.28-4.71-.83-1.37-.55-2.52-1.28-3.46-2.18-.94-.9-1.64-1.93-2.11-3.09s-.7-2.35-.7-3.56.16-2.24.47-3.17c.31-.94.75-1.81,1.3-2.63.55-.81,1.22-1.57,2-2.26.78-.69,1.65-1.4,2.63-2.13l.36-.26-.62-.68c-.45-.45-.92-.97-1.4-1.56-.49-.59-.94-1.22-1.35-1.9s-.76-1.4-1.04-2.18c-.28-.78-.42-1.6-.42-2.47,0-1.52.29-2.87.86-4.03s1.33-2.14,2.26-2.94c.94-.8,1.99-1.4,3.17-1.82s2.37-.62,3.59-.62c1.46,0,2.8.22,4.03.65,1.23.43,2.3,1.05,3.2,1.85.9.8,1.6,1.76,2.11,2.89s.75,2.38.75,3.77c0,.9-.15,1.75-.44,2.55-.29.8-.68,1.54-1.17,2.24-.49.69-1.04,1.33-1.66,1.92-.62.59-1.27,1.13-1.92,1.61l-1.61,1.2,6.14,6.4,8.79-9.46v7.8l-5.04,5.56,8.32,8.68h-8.06l-4.16-4.37ZM979.65,783.39c1.21,0,2.3-.33,3.28-.99.97-.66,1.92-1.49,2.86-2.5l.05-.05-6.81-7.23-1.25.94c-.9.66-1.63,1.39-2.18,2.18-.56.8-.83,1.8-.83,3.02,0,.59.11,1.15.34,1.69.22.54.55,1.03.96,1.48.42.45.93.81,1.53,1.07.61.26,1.29.39,2.05.39ZM976.43,759.57c0,.9.24,1.72.73,2.47.49.75,1.06,1.46,1.72,2.16l1.04,1.14,2.13-1.56c.97-.73,1.63-1.44,1.98-2.13.35-.69.52-1.39.52-2.08,0-1.11-.38-2.05-1.14-2.81-.76-.76-1.75-1.14-2.96-1.14-.49,0-.96.08-1.43.23-.47.16-.89.4-1.27.73-.38.33-.69.75-.94,1.25-.24.5-.36,1.08-.36,1.74Z"/>
    <path class="cls-2" d="M1017.72,753.96c0-1.11.38-2.04,1.14-2.81.76-.76,1.68-1.14,2.76-1.14s2.04.38,2.81,1.14c.76.76,1.14,1.7,1.14,2.81s-.38,2.04-1.14,2.78-1.7,1.12-2.81,1.12-1.99-.37-2.76-1.12c-.76-.75-1.14-1.67-1.14-2.78ZM1018.65,788.17v-25.32h5.98v25.32h-5.98Z"/>
    <path class="cls-2" d="M1040.08,762.85h5.25v5.36h-5.25v11.75c0,1.11.26,1.92.78,2.42.52.5,1.33.75,2.44.75.42,0,.83-.03,1.25-.08s.69-.09.83-.13v4.99c-.17.07-.55.18-1.14.34-.59.16-1.44.23-2.55.23-2.36,0-4.21-.66-5.56-1.98-1.35-1.32-2.03-3.17-2.03-5.56v-12.74h-4.68v-5.36h1.3c1.35,0,2.34-.38,2.96-1.14s.94-1.7.94-2.81v-3.8h5.46v7.75Z"/>
    <path class="cls-2" d="M1054.58,779.85c.1,1.14.58,2.15,1.43,3.02.85.87,2.09,1.3,3.72,1.3,1.25,0,2.19-.29,2.83-.86.64-.57.96-1.26.96-2.05,0-.69-.24-1.28-.73-1.77-.49-.49-1.23-.83-2.24-1.04l-3.74-.83c-2.25-.49-3.95-1.4-5.1-2.73-1.14-1.33-1.72-2.89-1.72-4.65,0-1.11.24-2.16.73-3.15s1.14-1.85,1.98-2.6,1.81-1.33,2.94-1.77c1.13-.43,2.35-.65,3.67-.65,1.77,0,3.25.25,4.45.75,1.2.5,2.17,1.12,2.94,1.85.76.73,1.33,1.5,1.69,2.31.36.82.6,1.53.7,2.16l-5.1,1.46c-.07-.35-.19-.75-.36-1.2-.17-.45-.44-.87-.81-1.25-.36-.38-.83-.7-1.4-.96-.57-.26-1.27-.39-2.11-.39-1.08,0-1.95.29-2.63.86-.68.57-1.01,1.26-1.01,2.05,0,.69.22,1.27.68,1.72.45.45,1.07.76,1.87.94l3.85.78c2.39.52,4.2,1.46,5.43,2.83,1.23,1.37,1.85,2.99,1.85,4.86,0,.97-.2,1.93-.6,2.89-.4.95-.99,1.82-1.77,2.6-.78.78-1.78,1.41-2.99,1.9-1.21.49-2.62.73-4.21.73-1.84,0-3.4-.26-4.68-.78-1.28-.52-2.34-1.17-3.17-1.95s-1.46-1.61-1.87-2.5c-.42-.88-.66-1.69-.73-2.42l5.25-1.46Z"/>
    <path class="cls-2" d="M1099.25,767.63c-.94,0-1.82.17-2.65.52-.83.35-1.57.85-2.21,1.51s-1.15,1.47-1.53,2.44c-.38.97-.57,2.1-.57,3.38s.19,2.42.57,3.41c.38.99.89,1.82,1.53,2.5s1.4,1.19,2.26,1.53c.87.35,1.77.52,2.7.52s1.83-.16,2.57-.47c.75-.31,1.37-.7,1.87-1.17s.91-.97,1.22-1.51c.31-.54.54-1.05.68-1.53l5.3,1.92c-.31,1.01-.78,1.99-1.4,2.96-.62.97-1.41,1.86-2.37,2.65-.95.8-2.09,1.44-3.41,1.92-1.32.49-2.81.73-4.47.73-1.87,0-3.61-.34-5.2-1.01-1.59-.68-2.97-1.62-4.13-2.83-1.16-1.21-2.08-2.63-2.76-4.26-.68-1.63-1.01-3.41-1.01-5.36s.33-3.73.99-5.38c.66-1.65,1.58-3.07,2.76-4.26,1.18-1.2,2.55-2.12,4.11-2.78,1.56-.66,3.26-.99,5.1-.99,1.7,0,3.21.24,4.52.73,1.32.49,2.46,1.12,3.43,1.9.97.78,1.75,1.67,2.34,2.68.59,1.01,1.02,2.01,1.3,3.02l-5.41,1.98c-.14-.55-.36-1.12-.65-1.69-.29-.57-.69-1.08-1.2-1.53-.5-.45-1.1-.81-1.79-1.09-.69-.28-1.53-.42-2.5-.42Z"/>
    <path class="cls-2" d="M1127.9,762.07c1.91,0,3.66.34,5.25,1.01,1.59.68,2.98,1.61,4.16,2.81,1.18,1.2,2.1,2.61,2.76,4.24.66,1.63.99,3.42.99,5.36s-.33,3.74-.99,5.38c-.66,1.65-1.58,3.07-2.76,4.26-1.18,1.2-2.57,2.13-4.16,2.81-1.6.68-3.35,1.01-5.25,1.01s-3.61-.34-5.23-1.01c-1.61-.68-3-1.61-4.16-2.81s-2.07-2.62-2.73-4.26c-.66-1.65-.99-3.44-.99-5.38s.33-3.73.99-5.36c.66-1.63,1.57-3.04,2.73-4.24,1.16-1.2,2.55-2.13,4.16-2.81,1.61-.68,3.35-1.01,5.23-1.01ZM1127.9,783.54c.94,0,1.83-.17,2.68-.52.85-.35,1.6-.86,2.26-1.53.66-.68,1.18-1.52,1.56-2.52.38-1,.57-2.17.57-3.48s-.19-2.47-.57-3.46c-.38-.99-.9-1.82-1.56-2.5-.66-.68-1.41-1.18-2.26-1.51-.85-.33-1.74-.49-2.68-.49s-1.83.16-2.68.49c-.85.33-1.59.83-2.24,1.51-.64.68-1.16,1.51-1.56,2.5-.4.99-.6,2.14-.6,3.46s.2,2.48.6,3.48c.4,1.01.92,1.85,1.56,2.52.64.68,1.39,1.19,2.24,1.53.85.35,1.74.52,2.68.52Z"/>
    <path class="cls-2" d="M1150.42,779.85c.1,1.14.58,2.15,1.43,3.02.85.87,2.09,1.3,3.72,1.3,1.25,0,2.19-.29,2.83-.86.64-.57.96-1.26.96-2.05,0-.69-.24-1.28-.73-1.77-.49-.49-1.23-.83-2.24-1.04l-3.74-.83c-2.25-.49-3.95-1.4-5.1-2.73-1.14-1.33-1.72-2.89-1.72-4.65,0-1.11.24-2.16.73-3.15s1.14-1.85,1.98-2.6,1.81-1.33,2.94-1.77c1.13-.43,2.35-.65,3.67-.65,1.77,0,3.25.25,4.45.75,1.2.5,2.17,1.12,2.94,1.85.76.73,1.33,1.5,1.69,2.31.36.82.6,1.53.7,2.16l-5.1,1.46c-.07-.35-.19-.75-.36-1.2-.17-.45-.44-.87-.81-1.25-.36-.38-.83-.7-1.4-.96-.57-.26-1.27-.39-2.11-.39-1.08,0-1.95.29-2.63.86-.68.57-1.01,1.26-1.01,2.05,0,.69.22,1.27.68,1.72.45.45,1.07.76,1.87.94l3.85.78c2.39.52,4.2,1.46,5.43,2.83,1.23,1.37,1.85,2.99,1.85,4.86,0,.97-.2,1.93-.6,2.89-.4.95-.99,1.82-1.77,2.6-.78.78-1.78,1.41-2.99,1.9-1.21.49-2.62.73-4.21.73-1.84,0-3.4-.26-4.68-.78-1.28-.52-2.34-1.17-3.17-1.95s-1.46-1.61-1.87-2.5c-.42-.88-.66-1.69-.73-2.42l5.25-1.46Z"/>
    <path class="cls-2" d="M1179.07,762.85h5.25v5.36h-5.25v11.75c0,1.11.26,1.92.78,2.42.52.5,1.33.75,2.44.75.42,0,.83-.03,1.25-.08s.69-.09.83-.13v4.99c-.17.07-.55.18-1.14.34-.59.16-1.44.23-2.55.23-2.36,0-4.21-.66-5.56-1.98-1.35-1.32-2.03-3.17-2.03-5.56v-12.74h-4.68v-5.36h1.3c1.35,0,2.34-.38,2.96-1.14s.94-1.7.94-2.81v-3.8h5.46v7.75Z"/>
    <path class="cls-2" d="M1193.58,779.85c.1,1.14.58,2.15,1.43,3.02.85.87,2.09,1.3,3.72,1.3,1.25,0,2.19-.29,2.83-.86.64-.57.96-1.26.96-2.05,0-.69-.24-1.28-.73-1.77-.49-.49-1.23-.83-2.24-1.04l-3.74-.83c-2.25-.49-3.95-1.4-5.1-2.73-1.14-1.33-1.72-2.89-1.72-4.65,0-1.11.24-2.16.73-3.15s1.14-1.85,1.98-2.6,1.81-1.33,2.94-1.77c1.13-.43,2.35-.65,3.67-.65,1.77,0,3.25.25,4.45.75,1.2.5,2.17,1.12,2.94,1.85.76.73,1.33,1.5,1.69,2.31.36.82.6,1.53.7,2.16l-5.1,1.46c-.07-.35-.19-.75-.36-1.2-.17-.45-.44-.87-.81-1.25-.36-.38-.83-.7-1.4-.96-.57-.26-1.27-.39-2.11-.39-1.08,0-1.95.29-2.63.86-.68.57-1.01,1.26-1.01,2.05,0,.69.22,1.27.68,1.72.45.45,1.07.76,1.87.94l3.85.78c2.39.52,4.2,1.46,5.43,2.83,1.23,1.37,1.85,2.99,1.85,4.86,0,.97-.2,1.93-.6,2.89-.4.95-.99,1.82-1.77,2.6-.78.78-1.78,1.41-2.99,1.9-1.21.49-2.62.73-4.21.73-1.84,0-3.4-.26-4.68-.78-1.28-.52-2.34-1.17-3.17-1.95s-1.46-1.61-1.87-2.5c-.42-.88-.66-1.69-.73-2.42l5.25-1.46Z"/>
  </g>
</svg>